M48
; DRILL file KiCad 10.0.2 date 2026-09-20T12:52:31
; FORMAT={-:-/ absolute / metric / decimal}
; #@! TF.CreationDate,2026-09-20T12:52:31+03:00
; #@! TF.GenerationSoftware,Kicad,Pcbnew,10.0.2
; #@! TF.FileFunction,Plated,1,4,PTH
FMAT,2
METRIC
; #@! TA.AperFunction,Plated,PTH,ViaDrill
T1C0.300
; #@! TA.AperFunction,Plated,PTH,ViaDrill
T2C0.400
; #@! TA.AperFunction,Plated,PTH,ComponentDrill
T3C1.000
; #@! TA.AperFunction,Plated,PTH,ComponentDrill
T4C3.200
%
G90
G05
T1
X79.0Y-65.4
X80.0Y-68.5
X80.8Y-75.9
X82.2Y-74.2
X84.0Y-67.8
X84.387Y-69.4
X85.0Y-60.9
X86.476Y-82.424
X86.6Y-75.6
X86.6Y-80.8
X87.1Y-69.2
X87.6Y-77.6
X87.8Y-81.4
X87.9Y-60.6
X87.9Y-61.4
X88.4Y-77.2
X88.962Y-87.513
X89.483Y-72.417
X89.5Y-91.1
X89.6Y-90.0
X89.837Y-83.524
X90.198Y-82.042
X90.8Y-86.508
X91.3Y-66.3
X92.0Y-60.6
X92.0Y-61.4
X92.326Y-65.674
X93.0Y-66.9
X93.624Y-74.9
X93.95Y-73.655
X93.95Y-72.755
X94.1Y-60.6
X94.1Y-61.4
X95.4Y-66.0
X95.6Y-79.2
X95.8Y-77.8
X95.8Y-87.3
X96.0Y-65.2
X96.2Y-82.1
X96.7Y-64.6
X97.1Y-80.6
X97.143Y-75.8
X97.8Y-88.225
X97.9Y-60.6
X97.9Y-61.4
X97.956Y-64.653
X99.185Y-64.633
X99.4Y-63.8
X99.8Y-82.1
X100.2Y-60.6
X100.2Y-61.4
X100.25Y-79.75
X100.35Y-86.6
X100.35Y-87.5
X100.5Y-63.475
X101.125Y-64.2
X101.95Y-63.8
X102.653Y-64.278
X103.2Y-80.095
X103.949Y-81.2
X104.0Y-60.6
X104.0Y-61.4
X104.149Y-63.149
X104.75Y-63.75
X104.75Y-64.6
X104.75Y-74.875
X105.378Y-79.462
X105.799Y-64.549
X105.8Y-60.6
X105.8Y-61.4
X106.8Y-65.2
X107.5Y-65.8
X107.751Y-92.501
X109.576Y-77.65
X109.9Y-60.6
X109.9Y-61.4
X111.749Y-92.502
X111.804Y-53.196
X111.9Y-60.6
X111.9Y-61.4
X114.05Y-63.85
X115.5Y-90.825
X116.0Y-60.6
X116.0Y-61.4
X116.2Y-52.09
X116.2Y-52.89
X116.6Y-54.8
X117.1Y-52.09
X117.1Y-52.89
X118.8Y-61.0
X119.1Y-85.4
X119.55Y-61.0
X120.3Y-61.0
X120.3Y-61.75
X120.3Y-62.5
X121.9Y-70.0
X122.4Y-69.1
X123.2Y-69.1
X124.0Y-69.1
X124.8Y-69.1
T2
X77.0Y-78.0
X78.6Y-77.4
X79.8Y-69.9
X80.4Y-62.5
X80.4Y-63.6
X80.4Y-64.7
X80.4Y-65.8
X80.4Y-66.8
X81.3Y-71.6
X81.3Y-72.7
X81.805Y-76.595
X82.3Y-71.6
X82.3Y-72.7
X83.4Y-60.8
X83.4Y-61.7
X84.836Y-90.5
X85.0Y-46.2
X85.3Y-53.0
X85.3Y-54.2
X85.3Y-55.5
X86.2Y-46.2
X86.25Y-63.0
X86.3Y-53.0
X86.3Y-54.2
X86.3Y-55.5
X86.6Y-87.8
X87.3Y-47.0
X87.5Y-54.6
X87.9Y-57.3
X87.9Y-58.5
X87.9Y-59.7
X87.9Y-62.4
X87.9Y-63.5
X87.9Y-64.6
X87.9Y-65.7
X88.3Y-52.94
X88.3Y-75.2
X88.9Y-65.0
X90.9Y-75.9
X91.2Y-89.5
X92.25Y-90.0
X92.7Y-72.7
X92.7Y-73.6
X93.2Y-93.0
X93.75Y-76.0
X93.785Y-81.49
X94.5Y-52.94
X94.5Y-76.75
X94.65Y-87.258
X94.652Y-79.254
X94.785Y-81.503
X95.0Y-85.2
X95.2Y-80.1
X96.2Y-67.5
X96.5Y-78.5
X97.9Y-83.0
X97.998Y-68.702
X98.069Y-79.7
X98.8Y-72.1
X98.8Y-73.1
X98.8Y-74.1
X100.0Y-68.5
X100.2Y-52.94
X100.2Y-75.8
X101.0Y-68.5
X101.1Y-75.8
X101.1Y-92.5
X101.75Y-79.5
X102.125Y-68.5
X102.6Y-89.8
X103.25Y-68.5
X103.5Y-89.8
X103.6Y-70.9
X103.6Y-71.9
X103.6Y-72.9
X103.6Y-73.8
X104.0Y-94.6
X104.0Y-97.1
X104.25Y-68.5
X104.4Y-89.8
X104.5Y-76.0
X105.559Y-80.394
X106.2Y-52.94
X106.2Y-77.6
X106.25Y-67.0
X106.8Y-85.1
X107.5Y-67.0
X108.0Y-77.85
X108.05Y-82.55
X108.1Y-87.6
X108.1Y-89.9
X108.72Y-75.0
X108.75Y-71.2
X109.0Y-92.5
X109.8Y-75.8
X110.5Y-92.5
X110.75Y-76.95
X110.75Y-81.75
X111.4Y-87.6
X111.4Y-89.9
X112.7Y-85.1
X113.1Y-52.59
X113.6Y-65.0
X113.6Y-66.4
X113.6Y-71.7
X113.6Y-73.1
X114.0Y-52.59
X114.0Y-81.75
X114.6Y-65.0
X114.6Y-66.4
X114.6Y-71.7
X114.6Y-73.1
X114.6Y-76.9
X114.9Y-52.59
X114.9Y-80.4
X115.5Y-76.9
X115.5Y-94.6
X115.5Y-97.1
X115.6Y-65.0
X115.6Y-66.4
X115.6Y-71.7
X115.6Y-73.1
X116.6Y-65.0
X116.6Y-66.4
X116.6Y-71.7
X116.6Y-73.1
X116.7Y-76.9
X116.9Y-85.2
X117.6Y-63.8
X117.6Y-65.0
X117.6Y-66.4
X117.6Y-71.7
X117.6Y-73.1
X117.7Y-76.9
X119.65Y-67.95
X120.3Y-73.2
X121.5Y-55.2
X121.5Y-57.8
X121.55Y-67.95
X121.9Y-73.2
X122.25Y-56.5
X124.384Y-71.8
X129.5Y-65.5
X130.551Y-59.749
X131.5Y-66.2
X132.8Y-56.9
X133.6Y-57.6
X134.4Y-58.3
T3
X71.541Y-67.404
X72.363Y-56.209
X72.38Y-69.801
X73.202Y-58.606
X73.22Y-72.199
X74.041Y-61.004
X74.059Y-74.596
X74.88Y-63.401
X75.72Y-65.799
X76.559Y-68.196
X77.398Y-70.594
X78.237Y-72.991
X86.01Y-48.2
X86.01Y-50.74
X88.55Y-48.2
X88.55Y-50.74
X91.09Y-48.2
X91.09Y-50.74
X92.59Y-96.4
X93.63Y-48.2
X93.63Y-50.74
X95.13Y-96.4
X96.17Y-48.2
X96.17Y-50.74
X97.67Y-96.4
X98.71Y-48.2
X98.71Y-50.74
X100.21Y-96.4
X101.25Y-48.2
X101.25Y-50.74
X103.79Y-48.2
X103.79Y-50.74
X106.33Y-48.2
X106.33Y-50.74
X108.87Y-48.2
X108.87Y-50.74
X111.41Y-48.2
X111.41Y-50.74
X111.46Y-75.2
X113.95Y-48.2
X113.95Y-50.74
X114.0Y-75.2
X116.49Y-48.2
X116.49Y-50.74
X123.002Y-90.745
X123.841Y-88.348
X124.68Y-85.95
X125.519Y-83.553
X126.358Y-81.156
X127.68Y-77.745
X128.519Y-75.348
X129.358Y-72.95
X130.198Y-70.553
X131.037Y-68.156
T4
X80.75Y-49.25
X82.75Y-95.25
X119.75Y-95.25
X121.75Y-49.25
M30
