%TF.GenerationSoftware,KiCad,Pcbnew,10.0.2*%
%TF.CreationDate,2026-09-20T12:52:34+03:00*%
%TF.ProjectId,Mind_Speak_(Main_Board),4d696e64-5f53-4706-9561-6b5f284d6169,1*%
%TF.SameCoordinates,Original*%
%TF.FileFunction,Paste,Top*%
%TF.FilePolarity,Positive*%
%FSLAX46Y46*%
G04 Gerber Fmt 4.6, Leading zero omitted, Abs format (unit mm)*
G04 Created by KiCad (PCBNEW 10.0.2) date 2026-09-20 12:52:34*
%MOMM*%
%LPD*%
G01*
G04 APERTURE LIST*
G04 Aperture macros list*
%AMRoundRect*
0 Rectangle with rounded corners*
0 $1 Rounding radius*
0 $2 $3 $4 $5 $6 $7 $8 $9 X,Y pos of 4 corners*
0 Add a 4 corners polygon primitive as box body*
4,1,4,$2,$3,$4,$5,$6,$7,$8,$9,$2,$3,0*
0 Add four circle primitives for the rounded corners*
1,1,$1+$1,$2,$3*
1,1,$1+$1,$4,$5*
1,1,$1+$1,$6,$7*
1,1,$1+$1,$8,$9*
0 Add four rect primitives between the rounded corners*
20,1,$1+$1,$2,$3,$4,$5,0*
20,1,$1+$1,$4,$5,$6,$7,0*
20,1,$1+$1,$6,$7,$8,$9,0*
20,1,$1+$1,$8,$9,$2,$3,0*%
G04 Aperture macros list end*
%ADD10C,0.010000*%
%ADD11R,0.560000X0.224000*%
%ADD12R,0.224000X0.560000*%
%ADD13RoundRect,0.225000X-0.225000X-0.250000X0.225000X-0.250000X0.225000X0.250000X-0.225000X0.250000X0*%
%ADD14R,1.400000X1.800000*%
%ADD15RoundRect,0.050000X0.545000X0.150000X-0.545000X0.150000X-0.545000X-0.150000X0.545000X-0.150000X0*%
%ADD16R,1.200000X0.550000*%
%ADD17RoundRect,0.140000X0.170000X-0.140000X0.170000X0.140000X-0.170000X0.140000X-0.170000X-0.140000X0*%
%ADD18R,0.700000X0.700000*%
%ADD19R,0.700000X1.150000*%
%ADD20R,1.150000X0.700000*%
%ADD21RoundRect,0.150000X0.150000X-0.512500X0.150000X0.512500X-0.150000X0.512500X-0.150000X-0.512500X0*%
%ADD22R,1.500000X0.400000*%
%ADD23RoundRect,0.075000X-0.662500X0.075000X-0.662500X-0.075000X0.662500X-0.075000X0.662500X0.075000X0*%
%ADD24RoundRect,0.075000X-0.075000X0.662500X-0.075000X-0.662500X0.075000X-0.662500X0.075000X0.662500X0*%
%ADD25R,0.650000X1.050000*%
%ADD26RoundRect,0.135000X0.185000X-0.135000X0.185000X0.135000X-0.185000X0.135000X-0.185000X-0.135000X0*%
%ADD27RoundRect,0.140000X-0.170000X0.140000X-0.170000X-0.140000X0.170000X-0.140000X0.170000X0.140000X0*%
%ADD28RoundRect,0.135000X-0.185000X0.135000X-0.185000X-0.135000X0.185000X-0.135000X0.185000X0.135000X0*%
%ADD29RoundRect,0.066250X-0.198750X0.418750X-0.198750X-0.418750X0.198750X-0.418750X0.198750X0.418750X0*%
%ADD30RoundRect,0.150000X-0.512500X-0.150000X0.512500X-0.150000X0.512500X0.150000X-0.512500X0.150000X0*%
%ADD31RoundRect,0.140000X0.140000X0.170000X-0.140000X0.170000X-0.140000X-0.170000X0.140000X-0.170000X0*%
%ADD32RoundRect,0.135000X0.135000X0.185000X-0.135000X0.185000X-0.135000X-0.185000X0.135000X-0.185000X0*%
%ADD33RoundRect,0.218750X-0.218750X-0.256250X0.218750X-0.256250X0.218750X0.256250X-0.218750X0.256250X0*%
%ADD34RoundRect,0.225000X0.250000X-0.225000X0.250000X0.225000X-0.250000X0.225000X-0.250000X-0.225000X0*%
%ADD35R,1.050000X0.650000*%
%ADD36R,0.762000X0.711200*%
%ADD37RoundRect,0.140000X-0.140000X-0.170000X0.140000X-0.170000X0.140000X0.170000X-0.140000X0.170000X0*%
G04 APERTURE END LIST*
D10*
%TO.C,D6*%
X114825000Y-55415000D02*
X114825000Y-56265000D01*
X114475000Y-56265000D01*
X114475000Y-55415000D01*
X114825000Y-55415000D01*
G36*
X114825000Y-56265000D02*
G01*
X114475000Y-56265000D01*
X114475000Y-55415000D01*
X114825000Y-55415000D01*
X114825000Y-56265000D01*
G37*
X114825000Y-53215000D02*
X114825000Y-54065000D01*
X114475000Y-54065000D01*
X114475000Y-53215000D01*
X114825000Y-53215000D01*
G36*
X114825000Y-54065000D02*
G01*
X114475000Y-54065000D01*
X114475000Y-53215000D01*
X114825000Y-53215000D01*
X114825000Y-54065000D01*
G37*
X114175000Y-55415000D02*
X114175000Y-56265000D01*
X113825000Y-56265000D01*
X113825000Y-55415000D01*
X114175000Y-55415000D01*
G36*
X114175000Y-56265000D02*
G01*
X113825000Y-56265000D01*
X113825000Y-55415000D01*
X114175000Y-55415000D01*
X114175000Y-56265000D01*
G37*
X114175000Y-53215000D02*
X114175000Y-54065000D01*
X113825000Y-54065000D01*
X113825000Y-53215000D01*
X114175000Y-53215000D01*
G36*
X114175000Y-54065000D02*
G01*
X113825000Y-54065000D01*
X113825000Y-53215000D01*
X114175000Y-53215000D01*
X114175000Y-54065000D01*
G37*
X113525000Y-55415000D02*
X113525000Y-56265000D01*
X113175000Y-56265000D01*
X113175000Y-55415000D01*
X113525000Y-55415000D01*
G36*
X113525000Y-56265000D02*
G01*
X113175000Y-56265000D01*
X113175000Y-55415000D01*
X113525000Y-55415000D01*
X113525000Y-56265000D01*
G37*
X113525000Y-53215000D02*
X113525000Y-54065000D01*
X113175000Y-54065000D01*
X113175000Y-53215000D01*
X113525000Y-53215000D01*
G36*
X113525000Y-54065000D02*
G01*
X113175000Y-54065000D01*
X113175000Y-53215000D01*
X113525000Y-53215000D01*
X113525000Y-54065000D01*
G37*
%TO.C,D2*%
X96825000Y-55415000D02*
X96825000Y-56265000D01*
X96475000Y-56265000D01*
X96475000Y-55415000D01*
X96825000Y-55415000D01*
G36*
X96825000Y-56265000D02*
G01*
X96475000Y-56265000D01*
X96475000Y-55415000D01*
X96825000Y-55415000D01*
X96825000Y-56265000D01*
G37*
X96825000Y-53215000D02*
X96825000Y-54065000D01*
X96475000Y-54065000D01*
X96475000Y-53215000D01*
X96825000Y-53215000D01*
G36*
X96825000Y-54065000D02*
G01*
X96475000Y-54065000D01*
X96475000Y-53215000D01*
X96825000Y-53215000D01*
X96825000Y-54065000D01*
G37*
X96175000Y-55415000D02*
X96175000Y-56265000D01*
X95825000Y-56265000D01*
X95825000Y-55415000D01*
X96175000Y-55415000D01*
G36*
X96175000Y-56265000D02*
G01*
X95825000Y-56265000D01*
X95825000Y-55415000D01*
X96175000Y-55415000D01*
X96175000Y-56265000D01*
G37*
X96175000Y-53215000D02*
X96175000Y-54065000D01*
X95825000Y-54065000D01*
X95825000Y-53215000D01*
X96175000Y-53215000D01*
G36*
X96175000Y-54065000D02*
G01*
X95825000Y-54065000D01*
X95825000Y-53215000D01*
X96175000Y-53215000D01*
X96175000Y-54065000D01*
G37*
X95525000Y-55415000D02*
X95525000Y-56265000D01*
X95175000Y-56265000D01*
X95175000Y-55415000D01*
X95525000Y-55415000D01*
G36*
X95525000Y-56265000D02*
G01*
X95175000Y-56265000D01*
X95175000Y-55415000D01*
X95525000Y-55415000D01*
X95525000Y-56265000D01*
G37*
X95525000Y-53215000D02*
X95525000Y-54065000D01*
X95175000Y-54065000D01*
X95175000Y-53215000D01*
X95525000Y-53215000D01*
G36*
X95525000Y-54065000D02*
G01*
X95175000Y-54065000D01*
X95175000Y-53215000D01*
X95525000Y-53215000D01*
X95525000Y-54065000D01*
G37*
%TO.C,D1*%
X90825000Y-55415000D02*
X90825000Y-56265000D01*
X90475000Y-56265000D01*
X90475000Y-55415000D01*
X90825000Y-55415000D01*
G36*
X90825000Y-56265000D02*
G01*
X90475000Y-56265000D01*
X90475000Y-55415000D01*
X90825000Y-55415000D01*
X90825000Y-56265000D01*
G37*
X90825000Y-53215000D02*
X90825000Y-54065000D01*
X90475000Y-54065000D01*
X90475000Y-53215000D01*
X90825000Y-53215000D01*
G36*
X90825000Y-54065000D02*
G01*
X90475000Y-54065000D01*
X90475000Y-53215000D01*
X90825000Y-53215000D01*
X90825000Y-54065000D01*
G37*
X90175000Y-55415000D02*
X90175000Y-56265000D01*
X89825000Y-56265000D01*
X89825000Y-55415000D01*
X90175000Y-55415000D01*
G36*
X90175000Y-56265000D02*
G01*
X89825000Y-56265000D01*
X89825000Y-55415000D01*
X90175000Y-55415000D01*
X90175000Y-56265000D01*
G37*
X90175000Y-53215000D02*
X90175000Y-54065000D01*
X89825000Y-54065000D01*
X89825000Y-53215000D01*
X90175000Y-53215000D01*
G36*
X90175000Y-54065000D02*
G01*
X89825000Y-54065000D01*
X89825000Y-53215000D01*
X90175000Y-53215000D01*
X90175000Y-54065000D01*
G37*
X89525000Y-55415000D02*
X89525000Y-56265000D01*
X89175000Y-56265000D01*
X89175000Y-55415000D01*
X89525000Y-55415000D01*
G36*
X89525000Y-56265000D02*
G01*
X89175000Y-56265000D01*
X89175000Y-55415000D01*
X89525000Y-55415000D01*
X89525000Y-56265000D01*
G37*
X89525000Y-53215000D02*
X89525000Y-54065000D01*
X89175000Y-54065000D01*
X89175000Y-53215000D01*
X89525000Y-53215000D01*
G36*
X89525000Y-54065000D02*
G01*
X89175000Y-54065000D01*
X89175000Y-53215000D01*
X89525000Y-53215000D01*
X89525000Y-54065000D01*
G37*
%TO.C,D3*%
X102825000Y-55415000D02*
X102825000Y-56265000D01*
X102475000Y-56265000D01*
X102475000Y-55415000D01*
X102825000Y-55415000D01*
G36*
X102825000Y-56265000D02*
G01*
X102475000Y-56265000D01*
X102475000Y-55415000D01*
X102825000Y-55415000D01*
X102825000Y-56265000D01*
G37*
X102825000Y-53215000D02*
X102825000Y-54065000D01*
X102475000Y-54065000D01*
X102475000Y-53215000D01*
X102825000Y-53215000D01*
G36*
X102825000Y-54065000D02*
G01*
X102475000Y-54065000D01*
X102475000Y-53215000D01*
X102825000Y-53215000D01*
X102825000Y-54065000D01*
G37*
X102175000Y-55415000D02*
X102175000Y-56265000D01*
X101825000Y-56265000D01*
X101825000Y-55415000D01*
X102175000Y-55415000D01*
G36*
X102175000Y-56265000D02*
G01*
X101825000Y-56265000D01*
X101825000Y-55415000D01*
X102175000Y-55415000D01*
X102175000Y-56265000D01*
G37*
X102175000Y-53215000D02*
X102175000Y-54065000D01*
X101825000Y-54065000D01*
X101825000Y-53215000D01*
X102175000Y-53215000D01*
G36*
X102175000Y-54065000D02*
G01*
X101825000Y-54065000D01*
X101825000Y-53215000D01*
X102175000Y-53215000D01*
X102175000Y-54065000D01*
G37*
X101525000Y-55415000D02*
X101525000Y-56265000D01*
X101175000Y-56265000D01*
X101175000Y-55415000D01*
X101525000Y-55415000D01*
G36*
X101525000Y-56265000D02*
G01*
X101175000Y-56265000D01*
X101175000Y-55415000D01*
X101525000Y-55415000D01*
X101525000Y-56265000D01*
G37*
X101525000Y-53215000D02*
X101525000Y-54065000D01*
X101175000Y-54065000D01*
X101175000Y-53215000D01*
X101525000Y-53215000D01*
G36*
X101525000Y-54065000D02*
G01*
X101175000Y-54065000D01*
X101175000Y-53215000D01*
X101525000Y-53215000D01*
X101525000Y-54065000D01*
G37*
%TO.C,D4*%
X120775000Y-57325000D02*
X119925000Y-57325000D01*
X119925000Y-56975000D01*
X120775000Y-56975000D01*
X120775000Y-57325000D01*
G36*
X120775000Y-57325000D02*
G01*
X119925000Y-57325000D01*
X119925000Y-56975000D01*
X120775000Y-56975000D01*
X120775000Y-57325000D01*
G37*
X120775000Y-56675000D02*
X119925000Y-56675000D01*
X119925000Y-56325000D01*
X120775000Y-56325000D01*
X120775000Y-56675000D01*
G36*
X120775000Y-56675000D02*
G01*
X119925000Y-56675000D01*
X119925000Y-56325000D01*
X120775000Y-56325000D01*
X120775000Y-56675000D01*
G37*
X120775000Y-56025000D02*
X119925000Y-56025000D01*
X119925000Y-55675000D01*
X120775000Y-55675000D01*
X120775000Y-56025000D01*
G36*
X120775000Y-56025000D02*
G01*
X119925000Y-56025000D01*
X119925000Y-55675000D01*
X120775000Y-55675000D01*
X120775000Y-56025000D01*
G37*
X118575000Y-57325000D02*
X117725000Y-57325000D01*
X117725000Y-56975000D01*
X118575000Y-56975000D01*
X118575000Y-57325000D01*
G36*
X118575000Y-57325000D02*
G01*
X117725000Y-57325000D01*
X117725000Y-56975000D01*
X118575000Y-56975000D01*
X118575000Y-57325000D01*
G37*
X118575000Y-56675000D02*
X117725000Y-56675000D01*
X117725000Y-56325000D01*
X118575000Y-56325000D01*
X118575000Y-56675000D01*
G36*
X118575000Y-56675000D02*
G01*
X117725000Y-56675000D01*
X117725000Y-56325000D01*
X118575000Y-56325000D01*
X118575000Y-56675000D01*
G37*
X118575000Y-56025000D02*
X117725000Y-56025000D01*
X117725000Y-55675000D01*
X118575000Y-55675000D01*
X118575000Y-56025000D01*
G36*
X118575000Y-56025000D02*
G01*
X117725000Y-56025000D01*
X117725000Y-55675000D01*
X118575000Y-55675000D01*
X118575000Y-56025000D01*
G37*
%TO.C,D5*%
X108825000Y-55415000D02*
X108825000Y-56265000D01*
X108475000Y-56265000D01*
X108475000Y-55415000D01*
X108825000Y-55415000D01*
G36*
X108825000Y-56265000D02*
G01*
X108475000Y-56265000D01*
X108475000Y-55415000D01*
X108825000Y-55415000D01*
X108825000Y-56265000D01*
G37*
X108825000Y-53215000D02*
X108825000Y-54065000D01*
X108475000Y-54065000D01*
X108475000Y-53215000D01*
X108825000Y-53215000D01*
G36*
X108825000Y-54065000D02*
G01*
X108475000Y-54065000D01*
X108475000Y-53215000D01*
X108825000Y-53215000D01*
X108825000Y-54065000D01*
G37*
X108175000Y-55415000D02*
X108175000Y-56265000D01*
X107825000Y-56265000D01*
X107825000Y-55415000D01*
X108175000Y-55415000D01*
G36*
X108175000Y-56265000D02*
G01*
X107825000Y-56265000D01*
X107825000Y-55415000D01*
X108175000Y-55415000D01*
X108175000Y-56265000D01*
G37*
X108175000Y-53215000D02*
X108175000Y-54065000D01*
X107825000Y-54065000D01*
X107825000Y-53215000D01*
X108175000Y-53215000D01*
G36*
X108175000Y-54065000D02*
G01*
X107825000Y-54065000D01*
X107825000Y-53215000D01*
X108175000Y-53215000D01*
X108175000Y-54065000D01*
G37*
X107525000Y-55415000D02*
X107525000Y-56265000D01*
X107175000Y-56265000D01*
X107175000Y-55415000D01*
X107525000Y-55415000D01*
G36*
X107525000Y-56265000D02*
G01*
X107175000Y-56265000D01*
X107175000Y-55415000D01*
X107525000Y-55415000D01*
X107525000Y-56265000D01*
G37*
X107525000Y-53215000D02*
X107525000Y-54065000D01*
X107175000Y-54065000D01*
X107175000Y-53215000D01*
X107525000Y-53215000D01*
G36*
X107525000Y-54065000D02*
G01*
X107175000Y-54065000D01*
X107175000Y-53215000D01*
X107525000Y-53215000D01*
X107525000Y-54065000D01*
G37*
%TD*%
D11*
%TO.C,U4*%
X113800000Y-78600000D03*
X113800000Y-79100000D03*
X113800000Y-79600000D03*
D12*
X113400000Y-80500000D03*
X112900000Y-80500000D03*
X112400000Y-80500000D03*
X111900000Y-80500000D03*
X111400000Y-80500000D03*
D11*
X111000000Y-79600000D03*
X111000000Y-79100000D03*
X111000000Y-78600000D03*
D12*
X111400000Y-77700000D03*
X111900000Y-77700000D03*
X112400000Y-77700000D03*
X112900000Y-77700000D03*
X113400000Y-77700000D03*
%TD*%
D13*
%TO.C,C43*%
X96875000Y-83700000D03*
X95325000Y-83700000D03*
%TD*%
D14*
%TO.C,Y1*%
X82600000Y-82000000D03*
X82600000Y-86400000D03*
X80200000Y-86400000D03*
X80200000Y-82000000D03*
%TD*%
D15*
%TO.C,U1*%
X106940000Y-79750000D03*
X106940000Y-78450000D03*
X108860000Y-78450000D03*
X108860000Y-79100000D03*
X108860000Y-79750000D03*
%TD*%
D16*
%TO.C,U5*%
X123150100Y-70000000D03*
X123150100Y-71900000D03*
X120549900Y-71900000D03*
X120549900Y-70950000D03*
X120549900Y-70000000D03*
%TD*%
D17*
%TO.C,C9*%
X124600000Y-69970000D03*
X124600000Y-70930000D03*
%TD*%
D18*
%TO.C,U9*%
X111475000Y-91050000D03*
X110325000Y-91050000D03*
X109175000Y-91050000D03*
X108025000Y-91050000D03*
X110325000Y-89900000D03*
X109175000Y-89900000D03*
X111475000Y-88750000D03*
X110325000Y-88750000D03*
X109175000Y-88750000D03*
X108025000Y-88750000D03*
X110325000Y-87600000D03*
X109175000Y-87600000D03*
X114100000Y-97375000D03*
X105400000Y-97375000D03*
X114100000Y-94825000D03*
X105400000Y-94825000D03*
X105750000Y-83675000D03*
X106750000Y-83675000D03*
X107750000Y-83675000D03*
X108750000Y-83675000D03*
X109750000Y-83675000D03*
X110750000Y-83675000D03*
X111750000Y-83675000D03*
X112750000Y-83675000D03*
X113750000Y-83675000D03*
X108100000Y-86275000D03*
X109200000Y-86275000D03*
X110300000Y-86275000D03*
X111400000Y-86275000D03*
X112500000Y-86275000D03*
X112500000Y-87375000D03*
X112500000Y-88475000D03*
X112500000Y-89575000D03*
X112500000Y-90675000D03*
X112500000Y-91775000D03*
X107000000Y-91775000D03*
X107000000Y-90675000D03*
X107000000Y-89575000D03*
X107000000Y-88475000D03*
X107000000Y-87375000D03*
X107000000Y-86275000D03*
D19*
X107750000Y-84900000D03*
X108750000Y-84900000D03*
X109750000Y-84900000D03*
X110750000Y-84900000D03*
X111750000Y-84900000D03*
D20*
X113875000Y-84825000D03*
X113875000Y-85825000D03*
X113875000Y-86825000D03*
X113875000Y-87825000D03*
X113875000Y-88825000D03*
X113875000Y-89825000D03*
X113875000Y-90825000D03*
X113875000Y-91825000D03*
X113875000Y-92825000D03*
X113875000Y-93825000D03*
D19*
X111750000Y-93750000D03*
X110750000Y-93750000D03*
X109750000Y-93750000D03*
X108750000Y-93750000D03*
X107750000Y-93750000D03*
D20*
X105625000Y-93825000D03*
X105625000Y-92825000D03*
X105625000Y-91825000D03*
X105625000Y-90825000D03*
X105625000Y-89825000D03*
X105625000Y-88825000D03*
X105625000Y-87825000D03*
X105625000Y-86825000D03*
X105625000Y-85825000D03*
X105625000Y-84825000D03*
%TD*%
D17*
%TO.C,C40*%
X83200000Y-88120000D03*
X83200000Y-89080000D03*
%TD*%
D21*
%TO.C,U7*%
X119650000Y-64312500D03*
X121550000Y-64312500D03*
X121550000Y-66587500D03*
X120600000Y-66587500D03*
X119650000Y-66587500D03*
%TD*%
D22*
%TO.C,U10*%
X92375000Y-78757980D03*
X92375000Y-79407980D03*
X92375000Y-80057980D03*
X92375000Y-80707980D03*
X92375000Y-81357981D03*
X92375000Y-82007981D03*
X92375000Y-82657981D03*
X92375000Y-83307980D03*
X92375000Y-83957980D03*
X92375000Y-84607980D03*
X92375000Y-85257980D03*
X92375000Y-85907980D03*
X92375000Y-86557980D03*
X92375000Y-87207980D03*
X85125000Y-87207980D03*
X85125000Y-86557980D03*
X85125000Y-85907980D03*
X85125000Y-85257980D03*
X85125000Y-84607980D03*
X85125000Y-83957980D03*
X85125000Y-83307980D03*
X85125000Y-82657981D03*
X85125000Y-82007981D03*
X85125000Y-81357981D03*
X85125000Y-80707980D03*
X85125000Y-80057980D03*
X85125000Y-79407980D03*
X85125000Y-78757980D03*
%TD*%
D23*
%TO.C,U8*%
X106912500Y-68596318D03*
X106912500Y-69096318D03*
X106912500Y-69596318D03*
X106912500Y-70096318D03*
X106912500Y-70596318D03*
X106912500Y-71096318D03*
X106912500Y-71596318D03*
X106912500Y-72096318D03*
X106912500Y-72596318D03*
X106912500Y-73096318D03*
X106912500Y-73596318D03*
X106912500Y-74096318D03*
X106912500Y-74596318D03*
X106912500Y-75096318D03*
X106912500Y-75596318D03*
X106912500Y-76096318D03*
D24*
X105000000Y-78008818D03*
X104500000Y-78008818D03*
X104000000Y-78008818D03*
X103500000Y-78008818D03*
X103000000Y-78008818D03*
X102500000Y-78008818D03*
X102000000Y-78008818D03*
X101500000Y-78008818D03*
X101000000Y-78008818D03*
X100500000Y-78008818D03*
X100000000Y-78008818D03*
X99500000Y-78008818D03*
X99000000Y-78008818D03*
X98500000Y-78008818D03*
X98000000Y-78008818D03*
X97500000Y-78008818D03*
D23*
X95587500Y-76096318D03*
X95587500Y-75596318D03*
X95587500Y-75096318D03*
X95587500Y-74596318D03*
X95587500Y-74096318D03*
X95587500Y-73596318D03*
X95587500Y-73096318D03*
X95587500Y-72596318D03*
X95587500Y-72096318D03*
X95587500Y-71596318D03*
X95587500Y-71096318D03*
X95587500Y-70596318D03*
X95587500Y-70096318D03*
X95587500Y-69596318D03*
X95587500Y-69096318D03*
X95587500Y-68596318D03*
D24*
X97500000Y-66683818D03*
X98000000Y-66683818D03*
X98500000Y-66683818D03*
X99000000Y-66683818D03*
X99500000Y-66683818D03*
X100000000Y-66683818D03*
X100500000Y-66683818D03*
X101000000Y-66683818D03*
X101500000Y-66683818D03*
X102000000Y-66683818D03*
X102500000Y-66683818D03*
X103000000Y-66683818D03*
X103500000Y-66683818D03*
X104000000Y-66683818D03*
X104500000Y-66683818D03*
X105000000Y-66683818D03*
%TD*%
D25*
%TO.C,SW1*%
X119325000Y-79425000D03*
X119325000Y-83575000D03*
X117175000Y-79425000D03*
X117175000Y-83575000D03*
%TD*%
D17*
%TO.C,C5*%
X119100000Y-71970000D03*
X119100000Y-72930000D03*
%TD*%
D25*
%TO.C,SW2*%
X85575000Y-72225000D03*
X85575000Y-76375000D03*
X83425000Y-72225000D03*
X83425000Y-76375000D03*
%TD*%
D26*
%TO.C,R3*%
X92250000Y-91240000D03*
X92250000Y-92260000D03*
%TD*%
D27*
%TO.C,C39*%
X79400000Y-79630000D03*
X79400000Y-78670000D03*
%TD*%
D28*
%TO.C,R2*%
X80700000Y-79410000D03*
X80700000Y-78390000D03*
%TD*%
D29*
%TO.C,RN5*%
X115250000Y-59740000D03*
X114450000Y-59740000D03*
X113650000Y-59740000D03*
X112850000Y-59740000D03*
X112850000Y-57990000D03*
X113650000Y-57990000D03*
X114450000Y-57990000D03*
X115250000Y-57990000D03*
%TD*%
D17*
%TO.C,C15*%
X120600000Y-67970000D03*
X120600000Y-68930000D03*
%TD*%
D30*
%TO.C,U2*%
X82762500Y-68450000D03*
X82762500Y-69400000D03*
X82762500Y-70350000D03*
X85037500Y-70350000D03*
X85037500Y-68450000D03*
%TD*%
D29*
%TO.C,RN3*%
X103250000Y-57990000D03*
X102450000Y-57990000D03*
X101650000Y-57990000D03*
X100850000Y-57990000D03*
X100850000Y-59740000D03*
X101650000Y-59740000D03*
X102450000Y-59740000D03*
X103250000Y-59740000D03*
%TD*%
%TO.C,RN4*%
X109250000Y-57990000D03*
X108450000Y-57990000D03*
X107650000Y-57990000D03*
X106850000Y-57990000D03*
X106850000Y-59740000D03*
X107650000Y-59740000D03*
X108450000Y-59740000D03*
X109250000Y-59740000D03*
%TD*%
D17*
%TO.C,C41*%
X104000000Y-93250000D03*
X104000000Y-92290000D03*
%TD*%
D31*
%TO.C,C18*%
X93980000Y-69596318D03*
X93020000Y-69596318D03*
%TD*%
D29*
%TO.C,RN1*%
X91250000Y-57990000D03*
X90450000Y-57990000D03*
X89650000Y-57990000D03*
X88850000Y-57990000D03*
X88850000Y-59740000D03*
X89650000Y-59740000D03*
X90450000Y-59740000D03*
X91250000Y-59740000D03*
%TD*%
D32*
%TO.C,R1*%
X110510000Y-69250000D03*
X109490000Y-69250000D03*
%TD*%
D31*
%TO.C,C11*%
X93980000Y-70596318D03*
X93020000Y-70596318D03*
%TD*%
%TO.C,C14*%
X93980000Y-71596318D03*
X93020000Y-71596318D03*
%TD*%
D33*
%TO.C,D7*%
X81962500Y-79800000D03*
X83537500Y-79800000D03*
%TD*%
D34*
%TO.C,C42*%
X102750000Y-92975000D03*
X102750000Y-91425000D03*
%TD*%
D35*
%TO.C,SW3*%
X94175000Y-89675000D03*
X98325000Y-89675000D03*
X94175000Y-91825000D03*
X98325000Y-91825000D03*
%TD*%
D21*
%TO.C,U6*%
X82450000Y-64537500D03*
X83400000Y-64537500D03*
X84350000Y-64537500D03*
X84350000Y-62262500D03*
X82450000Y-62262500D03*
%TD*%
D36*
%TO.C,U3*%
X118925500Y-70200000D03*
X117274500Y-70200000D03*
%TD*%
D37*
%TO.C,C12*%
X81320000Y-67000000D03*
X82280000Y-67000000D03*
%TD*%
D29*
%TO.C,RN2*%
X97250000Y-57990000D03*
X96450000Y-57990000D03*
X95650000Y-57990000D03*
X94850000Y-57990000D03*
X94850000Y-59740000D03*
X95650000Y-59740000D03*
X96450000Y-59740000D03*
X97250000Y-59740000D03*
%TD*%
D32*
%TO.C,R4*%
X83710000Y-77700000D03*
X82690000Y-77700000D03*
%TD*%
D37*
%TO.C,C37*%
X109270000Y-68000000D03*
X110230000Y-68000000D03*
%TD*%
D31*
%TO.C,C7*%
X82280000Y-66000000D03*
X81320000Y-66000000D03*
%TD*%
D27*
%TO.C,C3*%
X81200000Y-69620000D03*
X81200000Y-70580000D03*
%TD*%
M02*
