%TF.GenerationSoftware,KiCad,Pcbnew,10.0.2*%
%TF.CreationDate,2026-09-20T12:52:34+03:00*%
%TF.ProjectId,Mind_Speak_(Main_Board),4d696e64-5f53-4706-9561-6b5f284d6169,1*%
%TF.SameCoordinates,Original*%
%TF.FileFunction,Paste,Bot*%
%TF.FilePolarity,Positive*%
%FSLAX46Y46*%
G04 Gerber Fmt 4.6, Leading zero omitted, Abs format (unit mm)*
G04 Created by KiCad (PCBNEW 10.0.2) date 2026-09-20 12:52:34*
%MOMM*%
%LPD*%
G01*
G04 APERTURE LIST*
G04 Aperture macros list*
%AMRoundRect*
0 Rectangle with rounded corners*
0 $1 Rounding radius*
0 $2 $3 $4 $5 $6 $7 $8 $9 X,Y pos of 4 corners*
0 Add a 4 corners polygon primitive as box body*
4,1,4,$2,$3,$4,$5,$6,$7,$8,$9,$2,$3,0*
0 Add four circle primitives for the rounded corners*
1,1,$1+$1,$2,$3*
1,1,$1+$1,$4,$5*
1,1,$1+$1,$6,$7*
1,1,$1+$1,$8,$9*
0 Add four rect primitives between the rounded corners*
20,1,$1+$1,$2,$3,$4,$5,0*
20,1,$1+$1,$4,$5,$6,$7,0*
20,1,$1+$1,$6,$7,$8,$9,0*
20,1,$1+$1,$8,$9,$2,$3,0*%
%AMRotRect*
0 Rectangle, with rotation*
0 The origin of the aperture is its center*
0 $1 length*
0 $2 width*
0 $3 Rotation angle, in degrees counterclockwise*
0 Add horizontal line*
21,1,$1,$2,0,0,$3*%
G04 Aperture macros list end*
%ADD10RotRect,1.200000X2.200000X109.290000*%
%ADD11RotRect,1.600000X1.500000X109.290000*%
%ADD12RotRect,1.200000X1.800000X109.290000*%
%ADD13RotRect,0.700000X1.600000X109.290000*%
%ADD14RoundRect,0.140000X0.140000X0.170000X-0.140000X0.170000X-0.140000X-0.170000X0.140000X-0.170000X0*%
%ADD15RoundRect,0.140000X-0.140000X-0.170000X0.140000X-0.170000X0.140000X0.170000X-0.140000X0.170000X0*%
%ADD16RoundRect,0.250000X0.720872X-0.092027X0.506144X0.521481X-0.720872X0.092027X-0.506144X-0.521481X0*%
%ADD17RoundRect,0.225000X0.225000X0.250000X-0.225000X0.250000X-0.225000X-0.250000X0.225000X-0.250000X0*%
%ADD18R,0.250000X0.600000*%
%ADD19RoundRect,0.225000X-0.225000X-0.250000X0.225000X-0.250000X0.225000X0.250000X-0.225000X0.250000X0*%
%ADD20RoundRect,0.140000X0.170000X-0.140000X0.170000X0.140000X-0.170000X0.140000X-0.170000X-0.140000X0*%
%ADD21RotRect,0.700000X1.500000X250.710000*%
%ADD22RotRect,1.000000X0.800000X250.710000*%
%ADD23RoundRect,0.250000X0.650000X-0.325000X0.650000X0.325000X-0.650000X0.325000X-0.650000X-0.325000X0*%
%ADD24R,3.500000X1.000000*%
%ADD25R,3.400000X1.500000*%
G04 APERTURE END LIST*
D10*
%TO.C,J1*%
X77479090Y-76216340D03*
D11*
X86790255Y-73910974D03*
D12*
X91377394Y-87773897D03*
D10*
X82599511Y-90846149D03*
D13*
X92207991Y-86211811D03*
X91844608Y-85173568D03*
X91481223Y-84135324D03*
X91117837Y-83097078D03*
X90754454Y-82058834D03*
X90391068Y-81020589D03*
X90027683Y-79982346D03*
X89664300Y-78944101D03*
X89300915Y-77905857D03*
%TD*%
D14*
%TO.C,C35*%
X96770000Y-69596318D03*
X97730000Y-69596318D03*
%TD*%
D15*
%TO.C,C23*%
X85380000Y-62400000D03*
X84420000Y-62400000D03*
%TD*%
D16*
%TO.C,C4*%
X91612734Y-77207809D03*
X92587266Y-79992191D03*
%TD*%
D14*
%TO.C,C34*%
X108420000Y-74300000D03*
X109380000Y-74300000D03*
%TD*%
D15*
%TO.C,C25*%
X81220000Y-62400000D03*
X82180000Y-62400000D03*
%TD*%
D14*
%TO.C,C20*%
X105480000Y-71846318D03*
X104520000Y-71846318D03*
%TD*%
%TO.C,C26*%
X105480000Y-72846318D03*
X104520000Y-72846318D03*
%TD*%
D17*
%TO.C,C29*%
X82175000Y-61150000D03*
X80625000Y-61150000D03*
%TD*%
D18*
%TO.C,C22*%
X96837500Y-62387500D03*
X96337500Y-62387500D03*
X95837500Y-62387500D03*
X95337500Y-62387500D03*
X95337500Y-61237500D03*
X95837500Y-61237500D03*
X96337500Y-61237500D03*
X96837500Y-61237500D03*
%TD*%
D15*
%TO.C,C32*%
X96770000Y-72096318D03*
X97730000Y-72096318D03*
%TD*%
%TO.C,C24*%
X104520000Y-73846318D03*
X105480000Y-73846318D03*
%TD*%
D18*
%TO.C,C36*%
X108837500Y-62387500D03*
X108337500Y-62387500D03*
X107837500Y-62387500D03*
X107337500Y-62387500D03*
X107337500Y-61237500D03*
X107837500Y-61237500D03*
X108337500Y-61237500D03*
X108837500Y-61237500D03*
%TD*%
D14*
%TO.C,C21*%
X93980000Y-68596318D03*
X93020000Y-68596318D03*
%TD*%
D19*
%TO.C,C1*%
X115195000Y-78100000D03*
X116745000Y-78100000D03*
%TD*%
D14*
%TO.C,C30*%
X97730000Y-73096318D03*
X96770000Y-73096318D03*
%TD*%
D18*
%TO.C,C8*%
X90937500Y-62387500D03*
X90437500Y-62387500D03*
X89937500Y-62387500D03*
X89437500Y-62387500D03*
X89437500Y-61237500D03*
X89937500Y-61237500D03*
X90437500Y-61237500D03*
X90937500Y-61237500D03*
%TD*%
D20*
%TO.C,C10*%
X99250000Y-77076318D03*
X99250000Y-76116318D03*
%TD*%
D14*
%TO.C,C6*%
X86180000Y-69400000D03*
X85220000Y-69400000D03*
%TD*%
D18*
%TO.C,C38*%
X114737500Y-62387500D03*
X114237500Y-62387500D03*
X113737500Y-62387500D03*
X113237500Y-62387500D03*
X113237500Y-61237500D03*
X113737500Y-61237500D03*
X114237500Y-61237500D03*
X114737500Y-61237500D03*
%TD*%
D14*
%TO.C,C19*%
X97730000Y-74596318D03*
X96770000Y-74596318D03*
%TD*%
D15*
%TO.C,C2*%
X114920000Y-79400000D03*
X115880000Y-79400000D03*
%TD*%
D18*
%TO.C,C28*%
X102837500Y-62387500D03*
X102337500Y-62387500D03*
X101837500Y-62387500D03*
X101337500Y-62387500D03*
X101337500Y-61237500D03*
X101837500Y-61237500D03*
X102337500Y-61237500D03*
X102837500Y-61237500D03*
%TD*%
D19*
%TO.C,C33*%
X97045000Y-70846318D03*
X98595000Y-70846318D03*
%TD*%
D21*
%TO.C,S1*%
X132049956Y-59748654D03*
X131058907Y-62580230D03*
X130563383Y-63996018D03*
D22*
X135202443Y-59368749D03*
X133125954Y-58641979D03*
X132790890Y-66258917D03*
X130714401Y-65532147D03*
%TD*%
D17*
%TO.C,C31*%
X119125000Y-62450000D03*
X117575000Y-62450000D03*
%TD*%
D23*
%TO.C,C16*%
X95100000Y-74675000D03*
X95100000Y-71725000D03*
%TD*%
D14*
%TO.C,C17*%
X105480000Y-70846318D03*
X104520000Y-70846318D03*
%TD*%
D15*
%TO.C,C27*%
X118440000Y-63700000D03*
X119400000Y-63700000D03*
%TD*%
D20*
%TO.C,C13*%
X98250000Y-77076318D03*
X98250000Y-76116318D03*
%TD*%
D24*
%TO.C,P1*%
X116225000Y-70200000D03*
X116225000Y-68200000D03*
D25*
X110475000Y-72550000D03*
X110475000Y-65850000D03*
%TD*%
M02*
