%TF.GenerationSoftware,KiCad,Pcbnew,10.0.2*%
%TF.CreationDate,2026-09-20T12:52:34+03:00*%
%TF.ProjectId,Mind_Speak_(Main_Board),4d696e64-5f53-4706-9561-6b5f284d6169,1*%
%TF.SameCoordinates,Original*%
%TF.FileFunction,Soldermask,Top*%
%TF.FilePolarity,Negative*%
%FSLAX46Y46*%
G04 Gerber Fmt 4.6, Leading zero omitted, Abs format (unit mm)*
G04 Created by KiCad (PCBNEW 10.0.2) date 2026-09-20 12:52:34*
%MOMM*%
%LPD*%
G01*
G04 APERTURE LIST*
G04 Aperture macros list*
%AMRoundRect*
0 Rectangle with rounded corners*
0 $1 Rounding radius*
0 $2 $3 $4 $5 $6 $7 $8 $9 X,Y pos of 4 corners*
0 Add a 4 corners polygon primitive as box body*
4,1,4,$2,$3,$4,$5,$6,$7,$8,$9,$2,$3,0*
0 Add four circle primitives for the rounded corners*
1,1,$1+$1,$2,$3*
1,1,$1+$1,$4,$5*
1,1,$1+$1,$6,$7*
1,1,$1+$1,$8,$9*
0 Add four rect primitives between the rounded corners*
20,1,$1+$1,$2,$3,$4,$5,0*
20,1,$1+$1,$4,$5,$6,$7,0*
20,1,$1+$1,$6,$7,$8,$9,0*
20,1,$1+$1,$8,$9,$2,$3,0*%
%AMRotRect*
0 Rectangle, with rotation*
0 The origin of the aperture is its center*
0 $1 length*
0 $2 width*
0 $3 Rotation angle, in degrees counterclockwise*
0 Add horizontal line*
21,1,$1,$2,0,0,$3*%
G04 Aperture macros list end*
%ADD10C,1.000000*%
%ADD11RoundRect,0.050000X0.350000X0.140000X-0.350000X0.140000X-0.350000X-0.140000X0.350000X-0.140000X0*%
%ADD12RoundRect,0.050000X0.140000X-0.350000X0.140000X0.350000X-0.140000X0.350000X-0.140000X-0.350000X0*%
%ADD13RoundRect,0.050000X-0.350000X-0.140000X0.350000X-0.140000X0.350000X0.140000X-0.350000X0.140000X0*%
%ADD14RoundRect,0.050000X-0.140000X0.350000X-0.140000X-0.350000X0.140000X-0.350000X0.140000X0.350000X0*%
%ADD15RoundRect,0.225000X-0.225000X-0.250000X0.225000X-0.250000X0.225000X0.250000X-0.225000X0.250000X0*%
%ADD16RoundRect,0.102000X-0.700000X-0.900000X0.700000X-0.900000X0.700000X0.900000X-0.700000X0.900000X0*%
%ADD17RoundRect,0.075500X0.621500X0.226500X-0.621500X0.226500X-0.621500X-0.226500X0.621500X-0.226500X0*%
%ADD18RoundRect,0.102000X-0.200000X0.450000X-0.200000X-0.450000X0.200000X-0.450000X0.200000X0.450000X0*%
%ADD19R,1.200000X0.550000*%
%ADD20RoundRect,0.140000X0.170000X-0.140000X0.170000X0.140000X-0.170000X0.140000X-0.170000X-0.140000X0*%
%ADD21RoundRect,0.102000X-0.350000X-0.350000X0.350000X-0.350000X0.350000X0.350000X-0.350000X0.350000X0*%
%ADD22RoundRect,0.102000X-0.350000X-0.575000X0.350000X-0.575000X0.350000X0.575000X-0.350000X0.575000X0*%
%ADD23RoundRect,0.102000X-0.575000X-0.350000X0.575000X-0.350000X0.575000X0.350000X-0.575000X0.350000X0*%
%ADD24RoundRect,0.150000X0.150000X-0.512500X0.150000X0.512500X-0.150000X0.512500X-0.150000X-0.512500X0*%
%ADD25RoundRect,0.102000X-0.750000X-0.200000X0.750000X-0.200000X0.750000X0.200000X-0.750000X0.200000X0*%
%ADD26RoundRect,0.075000X-0.662500X0.075000X-0.662500X-0.075000X0.662500X-0.075000X0.662500X0.075000X0*%
%ADD27RoundRect,0.075000X-0.075000X0.662500X-0.075000X-0.662500X0.075000X-0.662500X0.075000X0.662500X0*%
%ADD28R,0.650000X1.050000*%
%ADD29RoundRect,0.135000X0.185000X-0.135000X0.185000X0.135000X-0.185000X0.135000X-0.185000X-0.135000X0*%
%ADD30RoundRect,0.140000X-0.170000X0.140000X-0.170000X-0.140000X0.170000X-0.140000X0.170000X0.140000X0*%
%ADD31RoundRect,0.135000X-0.185000X0.135000X-0.185000X-0.135000X0.185000X-0.135000X0.185000X0.135000X0*%
%ADD32RoundRect,0.091750X-0.275250X0.495250X-0.275250X-0.495250X0.275250X-0.495250X0.275250X0.495250X0*%
%ADD33RoundRect,0.102000X0.450000X0.200000X-0.450000X0.200000X-0.450000X-0.200000X0.450000X-0.200000X0*%
%ADD34R,1.700000X1.700000*%
%ADD35C,1.700000*%
%ADD36RoundRect,0.150000X-0.512500X-0.150000X0.512500X-0.150000X0.512500X0.150000X-0.512500X0.150000X0*%
%ADD37C,6.400000*%
%ADD38RoundRect,0.140000X0.140000X0.170000X-0.140000X0.170000X-0.140000X-0.170000X0.140000X-0.170000X0*%
%ADD39RoundRect,0.135000X0.135000X0.185000X-0.135000X0.185000X-0.135000X-0.185000X0.135000X-0.185000X0*%
%ADD40RoundRect,0.218750X-0.218750X-0.256250X0.218750X-0.256250X0.218750X0.256250X-0.218750X0.256250X0*%
%ADD41RoundRect,0.225000X0.250000X-0.225000X0.250000X0.225000X-0.250000X0.225000X-0.250000X-0.225000X0*%
%ADD42R,1.050000X0.650000*%
%ADD43R,0.762000X0.711200*%
%ADD44RoundRect,0.140000X-0.140000X-0.170000X0.140000X-0.170000X0.140000X0.170000X-0.140000X0.170000X0*%
%ADD45RotRect,1.700000X1.700000X19.290000*%
%ADD46RotRect,1.700000X1.700000X340.710000*%
%ADD47C,0.900000*%
G04 APERTURE END LIST*
D10*
%TO.C,J1*%
X78654190Y-80784613D03*
X81296988Y-88335486D03*
%TD*%
D11*
%TO.C,U4*%
X113800000Y-78600000D03*
X113800000Y-79100000D03*
X113800000Y-79600000D03*
D12*
X113400000Y-80500000D03*
X112900000Y-80500000D03*
X112400000Y-80500000D03*
X111900000Y-80500000D03*
X111400000Y-80500000D03*
D13*
X111000000Y-79600000D03*
X111000000Y-79100000D03*
X111000000Y-78600000D03*
D12*
X111400000Y-77700000D03*
D14*
X111900000Y-77700000D03*
X112400000Y-77700000D03*
X112900000Y-77700000D03*
D12*
X113400000Y-77700000D03*
%TD*%
D15*
%TO.C,C43*%
X96875000Y-83700000D03*
X95325000Y-83700000D03*
%TD*%
D16*
%TO.C,Y1*%
X82600000Y-82000000D03*
X82600000Y-86400000D03*
X80200000Y-86400000D03*
X80200000Y-82000000D03*
%TD*%
D17*
%TO.C,U1*%
X106940000Y-79750000D03*
X106940000Y-78450000D03*
X108860000Y-78450000D03*
X108860000Y-79100000D03*
X108860000Y-79750000D03*
%TD*%
D18*
%TO.C,D6*%
X114650000Y-55840000D03*
X114000000Y-55840000D03*
X113350000Y-55840000D03*
X113350000Y-53640000D03*
X114000000Y-53640000D03*
X114650000Y-53640000D03*
%TD*%
D19*
%TO.C,U5*%
X123150100Y-70000000D03*
X123150100Y-71900000D03*
X120549900Y-71900000D03*
X120549900Y-70950000D03*
X120549900Y-70000000D03*
%TD*%
D20*
%TO.C,C9*%
X124600000Y-69970000D03*
X124600000Y-70930000D03*
%TD*%
D18*
%TO.C,D2*%
X96650000Y-55840000D03*
X96000000Y-55840000D03*
X95350000Y-55840000D03*
X95350000Y-53640000D03*
X96000000Y-53640000D03*
X96650000Y-53640000D03*
%TD*%
D21*
%TO.C,U9*%
X111475000Y-91050000D03*
X110325000Y-91050000D03*
X109175000Y-91050000D03*
X108025000Y-91050000D03*
X110325000Y-89900000D03*
X109175000Y-89900000D03*
X111475000Y-88750000D03*
X110325000Y-88750000D03*
X109175000Y-88750000D03*
X108025000Y-88750000D03*
X110325000Y-87600000D03*
X109175000Y-87600000D03*
X114100000Y-97375000D03*
X105400000Y-97375000D03*
X114100000Y-94825000D03*
X105400000Y-94825000D03*
X105750000Y-83675000D03*
X106750000Y-83675000D03*
X107750000Y-83675000D03*
X108750000Y-83675000D03*
X109750000Y-83675000D03*
X110750000Y-83675000D03*
X111750000Y-83675000D03*
X112750000Y-83675000D03*
X113750000Y-83675000D03*
X108100000Y-86275000D03*
X109200000Y-86275000D03*
X110300000Y-86275000D03*
X111400000Y-86275000D03*
X112500000Y-86275000D03*
X112500000Y-87375000D03*
X112500000Y-88475000D03*
X112500000Y-89575000D03*
X112500000Y-90675000D03*
X112500000Y-91775000D03*
X107000000Y-91775000D03*
X107000000Y-90675000D03*
X107000000Y-89575000D03*
X107000000Y-88475000D03*
X107000000Y-87375000D03*
X107000000Y-86275000D03*
D22*
X107750000Y-84900000D03*
X108750000Y-84900000D03*
X109750000Y-84900000D03*
X110750000Y-84900000D03*
X111750000Y-84900000D03*
D23*
X113875000Y-84825000D03*
X113875000Y-85825000D03*
X113875000Y-86825000D03*
X113875000Y-87825000D03*
X113875000Y-88825000D03*
X113875000Y-89825000D03*
X113875000Y-90825000D03*
X113875000Y-91825000D03*
X113875000Y-92825000D03*
X113875000Y-93825000D03*
D22*
X111750000Y-93750000D03*
X110750000Y-93750000D03*
X109750000Y-93750000D03*
X108750000Y-93750000D03*
X107750000Y-93750000D03*
D23*
X105625000Y-93825000D03*
X105625000Y-92825000D03*
X105625000Y-91825000D03*
X105625000Y-90825000D03*
X105625000Y-89825000D03*
X105625000Y-88825000D03*
X105625000Y-87825000D03*
X105625000Y-86825000D03*
X105625000Y-85825000D03*
X105625000Y-84825000D03*
%TD*%
D20*
%TO.C,C40*%
X83200000Y-88120000D03*
X83200000Y-89080000D03*
%TD*%
D18*
%TO.C,D1*%
X90650000Y-55840000D03*
X90000000Y-55840000D03*
X89350000Y-55840000D03*
X89350000Y-53640000D03*
X90000000Y-53640000D03*
X90650000Y-53640000D03*
%TD*%
D24*
%TO.C,U7*%
X119650000Y-64312500D03*
X121550000Y-64312500D03*
X121550000Y-66587500D03*
X120600000Y-66587500D03*
X119650000Y-66587500D03*
%TD*%
D25*
%TO.C,U10*%
X92375000Y-78757980D03*
X92375000Y-79407980D03*
X92375000Y-80057980D03*
X92375000Y-80707980D03*
X92375000Y-81357981D03*
X92375000Y-82007981D03*
X92375000Y-82657981D03*
X92375000Y-83307980D03*
X92375000Y-83957980D03*
X92375000Y-84607980D03*
X92375000Y-85257980D03*
X92375000Y-85907980D03*
X92375000Y-86557980D03*
X92375000Y-87207980D03*
X85125000Y-87207980D03*
X85125000Y-86557980D03*
X85125000Y-85907980D03*
X85125000Y-85257980D03*
X85125000Y-84607980D03*
X85125000Y-83957980D03*
X85125000Y-83307980D03*
X85125000Y-82657981D03*
X85125000Y-82007981D03*
X85125000Y-81357981D03*
X85125000Y-80707980D03*
X85125000Y-80057980D03*
X85125000Y-79407980D03*
X85125000Y-78757980D03*
%TD*%
D26*
%TO.C,U8*%
X106912500Y-68596318D03*
X106912500Y-69096318D03*
X106912500Y-69596318D03*
X106912500Y-70096318D03*
X106912500Y-70596318D03*
X106912500Y-71096318D03*
X106912500Y-71596318D03*
X106912500Y-72096318D03*
X106912500Y-72596318D03*
X106912500Y-73096318D03*
X106912500Y-73596318D03*
X106912500Y-74096318D03*
X106912500Y-74596318D03*
X106912500Y-75096318D03*
X106912500Y-75596318D03*
X106912500Y-76096318D03*
D27*
X105000000Y-78008818D03*
X104500000Y-78008818D03*
X104000000Y-78008818D03*
X103500000Y-78008818D03*
X103000000Y-78008818D03*
X102500000Y-78008818D03*
X102000000Y-78008818D03*
X101500000Y-78008818D03*
X101000000Y-78008818D03*
X100500000Y-78008818D03*
X100000000Y-78008818D03*
X99500000Y-78008818D03*
X99000000Y-78008818D03*
X98500000Y-78008818D03*
X98000000Y-78008818D03*
X97500000Y-78008818D03*
D26*
X95587500Y-76096318D03*
X95587500Y-75596318D03*
X95587500Y-75096318D03*
X95587500Y-74596318D03*
X95587500Y-74096318D03*
X95587500Y-73596318D03*
X95587500Y-73096318D03*
X95587500Y-72596318D03*
X95587500Y-72096318D03*
X95587500Y-71596318D03*
X95587500Y-71096318D03*
X95587500Y-70596318D03*
X95587500Y-70096318D03*
X95587500Y-69596318D03*
X95587500Y-69096318D03*
X95587500Y-68596318D03*
D27*
X97500000Y-66683818D03*
X98000000Y-66683818D03*
X98500000Y-66683818D03*
X99000000Y-66683818D03*
X99500000Y-66683818D03*
X100000000Y-66683818D03*
X100500000Y-66683818D03*
X101000000Y-66683818D03*
X101500000Y-66683818D03*
X102000000Y-66683818D03*
X102500000Y-66683818D03*
X103000000Y-66683818D03*
X103500000Y-66683818D03*
X104000000Y-66683818D03*
X104500000Y-66683818D03*
X105000000Y-66683818D03*
%TD*%
D28*
%TO.C,SW1*%
X119325000Y-79425000D03*
X119325000Y-83575000D03*
X117175000Y-79425000D03*
X117175000Y-83575000D03*
%TD*%
D20*
%TO.C,C5*%
X119100000Y-71970000D03*
X119100000Y-72930000D03*
%TD*%
D28*
%TO.C,SW2*%
X85575000Y-72225000D03*
X85575000Y-76375000D03*
X83425000Y-72225000D03*
X83425000Y-76375000D03*
%TD*%
D29*
%TO.C,R3*%
X92250000Y-91240000D03*
X92250000Y-92260000D03*
%TD*%
D30*
%TO.C,C39*%
X79400000Y-79630000D03*
X79400000Y-78670000D03*
%TD*%
D31*
%TO.C,R2*%
X80700000Y-79410000D03*
X80700000Y-78390000D03*
%TD*%
D18*
%TO.C,D3*%
X102650000Y-55840000D03*
X102000000Y-55840000D03*
X101350000Y-55840000D03*
X101350000Y-53640000D03*
X102000000Y-53640000D03*
X102650000Y-53640000D03*
%TD*%
D32*
%TO.C,RN5*%
X115250000Y-59740000D03*
X114450000Y-59740000D03*
X113650000Y-59740000D03*
X112850000Y-59740000D03*
X112850000Y-57990000D03*
X113650000Y-57990000D03*
X114450000Y-57990000D03*
X115250000Y-57990000D03*
%TD*%
D20*
%TO.C,C15*%
X120600000Y-67970000D03*
X120600000Y-68930000D03*
%TD*%
D33*
%TO.C,D4*%
X118150000Y-57150000D03*
X118150000Y-56500000D03*
X118150000Y-55850000D03*
X120350000Y-55850000D03*
X120350000Y-56500000D03*
X120350000Y-57150000D03*
%TD*%
D18*
%TO.C,D5*%
X108650000Y-55840000D03*
X108000000Y-55840000D03*
X107350000Y-55840000D03*
X107350000Y-53640000D03*
X108000000Y-53640000D03*
X108650000Y-53640000D03*
%TD*%
D34*
%TO.C,J3*%
X86010000Y-50740000D03*
D35*
X86010000Y-48200000D03*
X88550000Y-50740000D03*
X88550000Y-48200000D03*
X91090000Y-50740000D03*
X91090000Y-48200000D03*
X93630000Y-50740000D03*
X93630000Y-48200000D03*
X96170000Y-50740000D03*
X96170000Y-48200000D03*
X98710000Y-50740000D03*
X98710000Y-48200000D03*
X101250000Y-50740000D03*
X101250000Y-48200000D03*
X103790000Y-50740000D03*
X103790000Y-48200000D03*
X106330000Y-50740000D03*
X106330000Y-48200000D03*
X108870000Y-50740000D03*
X108870000Y-48200000D03*
X111410000Y-50740000D03*
X111410000Y-48200000D03*
X113950000Y-50740000D03*
X113950000Y-48200000D03*
X116490000Y-50740000D03*
X116490000Y-48200000D03*
%TD*%
D36*
%TO.C,U2*%
X82762500Y-68450000D03*
X82762500Y-69400000D03*
X82762500Y-70350000D03*
X85037500Y-70350000D03*
X85037500Y-68450000D03*
%TD*%
D32*
%TO.C,RN3*%
X103250000Y-57990000D03*
X102450000Y-57990000D03*
X101650000Y-57990000D03*
X100850000Y-57990000D03*
X100850000Y-59740000D03*
X101650000Y-59740000D03*
X102450000Y-59740000D03*
X103250000Y-59740000D03*
%TD*%
%TO.C,RN4*%
X109250000Y-57990000D03*
X108450000Y-57990000D03*
X107650000Y-57990000D03*
X106850000Y-57990000D03*
X106850000Y-59740000D03*
X107650000Y-59740000D03*
X108450000Y-59740000D03*
X109250000Y-59740000D03*
%TD*%
D37*
%TO.C,H4*%
X119750000Y-95250000D03*
%TD*%
D20*
%TO.C,C41*%
X104000000Y-93250000D03*
X104000000Y-92290000D03*
%TD*%
D38*
%TO.C,C18*%
X93980000Y-69596318D03*
X93020000Y-69596318D03*
%TD*%
D32*
%TO.C,RN1*%
X91250000Y-57990000D03*
X90450000Y-57990000D03*
X89650000Y-57990000D03*
X88850000Y-57990000D03*
X88850000Y-59740000D03*
X89650000Y-59740000D03*
X90450000Y-59740000D03*
X91250000Y-59740000D03*
%TD*%
D39*
%TO.C,R1*%
X110510000Y-69250000D03*
X109490000Y-69250000D03*
%TD*%
D34*
%TO.C,J4*%
X100210000Y-96400000D03*
D35*
X97670000Y-96400000D03*
X95130000Y-96400000D03*
X92590000Y-96400000D03*
%TD*%
D38*
%TO.C,C11*%
X93980000Y-70596318D03*
X93020000Y-70596318D03*
%TD*%
%TO.C,C14*%
X93980000Y-71596318D03*
X93020000Y-71596318D03*
%TD*%
D40*
%TO.C,D7*%
X81962500Y-79800000D03*
X83537500Y-79800000D03*
%TD*%
D37*
%TO.C,H1*%
X80750000Y-49250000D03*
%TD*%
D34*
%TO.C,J6*%
X114000000Y-75200000D03*
D35*
X111460000Y-75200000D03*
%TD*%
D41*
%TO.C,C42*%
X102750000Y-92975000D03*
X102750000Y-91425000D03*
%TD*%
D42*
%TO.C,SW3*%
X94175000Y-89675000D03*
X98325000Y-89675000D03*
X94175000Y-91825000D03*
X98325000Y-91825000D03*
%TD*%
D24*
%TO.C,U6*%
X82450000Y-64537500D03*
X83400000Y-64537500D03*
X84350000Y-64537500D03*
X84350000Y-62262500D03*
X82450000Y-62262500D03*
%TD*%
D43*
%TO.C,U3*%
X118925500Y-70200000D03*
X117274500Y-70200000D03*
%TD*%
D44*
%TO.C,C12*%
X81320000Y-67000000D03*
X82280000Y-67000000D03*
%TD*%
D32*
%TO.C,RN2*%
X97250000Y-57990000D03*
X96450000Y-57990000D03*
X95650000Y-57990000D03*
X94850000Y-57990000D03*
X94850000Y-59740000D03*
X95650000Y-59740000D03*
X96450000Y-59740000D03*
X97250000Y-59740000D03*
%TD*%
D39*
%TO.C,R4*%
X83710000Y-77700000D03*
X82690000Y-77700000D03*
%TD*%
D44*
%TO.C,C37*%
X109270000Y-68000000D03*
X110230000Y-68000000D03*
%TD*%
D45*
%TO.C,J5*%
X72363191Y-56209096D03*
D35*
X73202279Y-58606498D03*
X74041367Y-61003898D03*
X74880456Y-63401298D03*
X75719544Y-65798701D03*
X76558632Y-68196101D03*
X77397719Y-70593502D03*
X78236808Y-72990903D03*
%TD*%
D38*
%TO.C,C7*%
X82280000Y-66000000D03*
X81320000Y-66000000D03*
%TD*%
D46*
%TO.C,J7*%
X131036599Y-68155646D03*
D35*
X130197511Y-70553047D03*
X129358422Y-72950447D03*
X128519336Y-75347849D03*
X127680247Y-77745250D03*
%TD*%
D45*
%TO.C,J2*%
X71541368Y-67403899D03*
D35*
X72380456Y-69801300D03*
X73219544Y-72198701D03*
X74058631Y-74596102D03*
%TD*%
D37*
%TO.C,H2*%
X121750000Y-49250000D03*
%TD*%
%TO.C,H3*%
X82750000Y-95250000D03*
%TD*%
D30*
%TO.C,C3*%
X81200000Y-69620000D03*
X81200000Y-70580000D03*
%TD*%
D46*
%TO.C,J8*%
X126358422Y-81155646D03*
D35*
X125519334Y-83553047D03*
X124680246Y-85950448D03*
X123841159Y-88347849D03*
X123002069Y-90745251D03*
%TD*%
D47*
%TO.C,S1*%
X133453946Y-61034660D03*
X132462898Y-63866236D03*
%TD*%
M02*
