%TF.GenerationSoftware,KiCad,Pcbnew,10.0.2*%
%TF.CreationDate,2026-09-20T12:52:34+03:00*%
%TF.ProjectId,Mind_Speak_(Main_Board),4d696e64-5f53-4706-9561-6b5f284d6169,1*%
%TF.SameCoordinates,Original*%
%TF.FileFunction,Legend,Bot*%
%TF.FilePolarity,Positive*%
%FSLAX46Y46*%
G04 Gerber Fmt 4.6, Leading zero omitted, Abs format (unit mm)*
G04 Created by KiCad (PCBNEW 10.0.2) date 2026-09-20 12:52:34*
%MOMM*%
%LPD*%
G01*
G04 APERTURE LIST*
%ADD10C,0.150000*%
%ADD11C,0.200000*%
%ADD12C,0.127000*%
%ADD13C,0.120000*%
%ADD14C,0.000000*%
G04 APERTURE END LIST*
D10*
X92969819Y-91236779D02*
X91969819Y-91236779D01*
X91969819Y-91236779D02*
X91969819Y-91617731D01*
X91969819Y-91617731D02*
X92017438Y-91712969D01*
X92017438Y-91712969D02*
X92065057Y-91760588D01*
X92065057Y-91760588D02*
X92160295Y-91808207D01*
X92160295Y-91808207D02*
X92303152Y-91808207D01*
X92303152Y-91808207D02*
X92398390Y-91760588D01*
X92398390Y-91760588D02*
X92446009Y-91712969D01*
X92446009Y-91712969D02*
X92493628Y-91617731D01*
X92493628Y-91617731D02*
X92493628Y-91236779D01*
X92017438Y-92760588D02*
X91969819Y-92665350D01*
X91969819Y-92665350D02*
X91969819Y-92522493D01*
X91969819Y-92522493D02*
X92017438Y-92379636D01*
X92017438Y-92379636D02*
X92112676Y-92284398D01*
X92112676Y-92284398D02*
X92207914Y-92236779D01*
X92207914Y-92236779D02*
X92398390Y-92189160D01*
X92398390Y-92189160D02*
X92541247Y-92189160D01*
X92541247Y-92189160D02*
X92731723Y-92236779D01*
X92731723Y-92236779D02*
X92826961Y-92284398D01*
X92826961Y-92284398D02*
X92922200Y-92379636D01*
X92922200Y-92379636D02*
X92969819Y-92522493D01*
X92969819Y-92522493D02*
X92969819Y-92617731D01*
X92969819Y-92617731D02*
X92922200Y-92760588D01*
X92922200Y-92760588D02*
X92874580Y-92808207D01*
X92874580Y-92808207D02*
X92541247Y-92808207D01*
X92541247Y-92808207D02*
X92541247Y-92617731D01*
X92446009Y-93236779D02*
X92446009Y-93570112D01*
X92969819Y-93712969D02*
X92969819Y-93236779D01*
X92969819Y-93236779D02*
X91969819Y-93236779D01*
X91969819Y-93236779D02*
X91969819Y-93712969D01*
X92969819Y-94141541D02*
X91969819Y-94141541D01*
X91969819Y-94141541D02*
X91969819Y-94379636D01*
X91969819Y-94379636D02*
X92017438Y-94522493D01*
X92017438Y-94522493D02*
X92112676Y-94617731D01*
X92112676Y-94617731D02*
X92207914Y-94665350D01*
X92207914Y-94665350D02*
X92398390Y-94712969D01*
X92398390Y-94712969D02*
X92541247Y-94712969D01*
X92541247Y-94712969D02*
X92731723Y-94665350D01*
X92731723Y-94665350D02*
X92826961Y-94617731D01*
X92826961Y-94617731D02*
X92922200Y-94522493D01*
X92922200Y-94522493D02*
X92969819Y-94379636D01*
X92969819Y-94379636D02*
X92969819Y-94141541D01*
X95569819Y-92236779D02*
X94569819Y-92236779D01*
X94569819Y-92236779D02*
X94569819Y-92474874D01*
X94569819Y-92474874D02*
X94617438Y-92617731D01*
X94617438Y-92617731D02*
X94712676Y-92712969D01*
X94712676Y-92712969D02*
X94807914Y-92760588D01*
X94807914Y-92760588D02*
X94998390Y-92808207D01*
X94998390Y-92808207D02*
X95141247Y-92808207D01*
X95141247Y-92808207D02*
X95331723Y-92760588D01*
X95331723Y-92760588D02*
X95426961Y-92712969D01*
X95426961Y-92712969D02*
X95522200Y-92617731D01*
X95522200Y-92617731D02*
X95569819Y-92474874D01*
X95569819Y-92474874D02*
X95569819Y-92236779D01*
X95569819Y-93760588D02*
X95569819Y-93189160D01*
X95569819Y-93474874D02*
X94569819Y-93474874D01*
X94569819Y-93474874D02*
X94712676Y-93379636D01*
X94712676Y-93379636D02*
X94807914Y-93284398D01*
X94807914Y-93284398D02*
X94855533Y-93189160D01*
X94998390Y-94332017D02*
X94950771Y-94236779D01*
X94950771Y-94236779D02*
X94903152Y-94189160D01*
X94903152Y-94189160D02*
X94807914Y-94141541D01*
X94807914Y-94141541D02*
X94760295Y-94141541D01*
X94760295Y-94141541D02*
X94665057Y-94189160D01*
X94665057Y-94189160D02*
X94617438Y-94236779D01*
X94617438Y-94236779D02*
X94569819Y-94332017D01*
X94569819Y-94332017D02*
X94569819Y-94522493D01*
X94569819Y-94522493D02*
X94617438Y-94617731D01*
X94617438Y-94617731D02*
X94665057Y-94665350D01*
X94665057Y-94665350D02*
X94760295Y-94712969D01*
X94760295Y-94712969D02*
X94807914Y-94712969D01*
X94807914Y-94712969D02*
X94903152Y-94665350D01*
X94903152Y-94665350D02*
X94950771Y-94617731D01*
X94950771Y-94617731D02*
X94998390Y-94522493D01*
X94998390Y-94522493D02*
X94998390Y-94332017D01*
X94998390Y-94332017D02*
X95046009Y-94236779D01*
X95046009Y-94236779D02*
X95093628Y-94189160D01*
X95093628Y-94189160D02*
X95188866Y-94141541D01*
X95188866Y-94141541D02*
X95379342Y-94141541D01*
X95379342Y-94141541D02*
X95474580Y-94189160D01*
X95474580Y-94189160D02*
X95522200Y-94236779D01*
X95522200Y-94236779D02*
X95569819Y-94332017D01*
X95569819Y-94332017D02*
X95569819Y-94522493D01*
X95569819Y-94522493D02*
X95522200Y-94617731D01*
X95522200Y-94617731D02*
X95474580Y-94665350D01*
X95474580Y-94665350D02*
X95379342Y-94712969D01*
X95379342Y-94712969D02*
X95188866Y-94712969D01*
X95188866Y-94712969D02*
X95093628Y-94665350D01*
X95093628Y-94665350D02*
X95046009Y-94617731D01*
X95046009Y-94617731D02*
X94998390Y-94522493D01*
X98169819Y-91136779D02*
X97169819Y-91136779D01*
X97169819Y-91136779D02*
X97884104Y-91470112D01*
X97884104Y-91470112D02*
X97169819Y-91803445D01*
X97169819Y-91803445D02*
X98169819Y-91803445D01*
X98074580Y-92851064D02*
X98122200Y-92803445D01*
X98122200Y-92803445D02*
X98169819Y-92660588D01*
X98169819Y-92660588D02*
X98169819Y-92565350D01*
X98169819Y-92565350D02*
X98122200Y-92422493D01*
X98122200Y-92422493D02*
X98026961Y-92327255D01*
X98026961Y-92327255D02*
X97931723Y-92279636D01*
X97931723Y-92279636D02*
X97741247Y-92232017D01*
X97741247Y-92232017D02*
X97598390Y-92232017D01*
X97598390Y-92232017D02*
X97407914Y-92279636D01*
X97407914Y-92279636D02*
X97312676Y-92327255D01*
X97312676Y-92327255D02*
X97217438Y-92422493D01*
X97217438Y-92422493D02*
X97169819Y-92565350D01*
X97169819Y-92565350D02*
X97169819Y-92660588D01*
X97169819Y-92660588D02*
X97217438Y-92803445D01*
X97217438Y-92803445D02*
X97265057Y-92851064D01*
X98169819Y-93755826D02*
X98169819Y-93279636D01*
X98169819Y-93279636D02*
X97169819Y-93279636D01*
X98169819Y-94660588D02*
X97693628Y-94327255D01*
X98169819Y-94089160D02*
X97169819Y-94089160D01*
X97169819Y-94089160D02*
X97169819Y-94470112D01*
X97169819Y-94470112D02*
X97217438Y-94565350D01*
X97217438Y-94565350D02*
X97265057Y-94612969D01*
X97265057Y-94612969D02*
X97360295Y-94660588D01*
X97360295Y-94660588D02*
X97503152Y-94660588D01*
X97503152Y-94660588D02*
X97598390Y-94612969D01*
X97598390Y-94612969D02*
X97646009Y-94565350D01*
X97646009Y-94565350D02*
X97693628Y-94470112D01*
X97693628Y-94470112D02*
X97693628Y-94089160D01*
X100346009Y-88870112D02*
X100393628Y-89012969D01*
X100393628Y-89012969D02*
X100441247Y-89060588D01*
X100441247Y-89060588D02*
X100536485Y-89108207D01*
X100536485Y-89108207D02*
X100679342Y-89108207D01*
X100679342Y-89108207D02*
X100774580Y-89060588D01*
X100774580Y-89060588D02*
X100822200Y-89012969D01*
X100822200Y-89012969D02*
X100869819Y-88917731D01*
X100869819Y-88917731D02*
X100869819Y-88536779D01*
X100869819Y-88536779D02*
X99869819Y-88536779D01*
X99869819Y-88536779D02*
X99869819Y-88870112D01*
X99869819Y-88870112D02*
X99917438Y-88965350D01*
X99917438Y-88965350D02*
X99965057Y-89012969D01*
X99965057Y-89012969D02*
X100060295Y-89060588D01*
X100060295Y-89060588D02*
X100155533Y-89060588D01*
X100155533Y-89060588D02*
X100250771Y-89012969D01*
X100250771Y-89012969D02*
X100298390Y-88965350D01*
X100298390Y-88965350D02*
X100346009Y-88870112D01*
X100346009Y-88870112D02*
X100346009Y-88536779D01*
X99869819Y-89727255D02*
X99869819Y-89917731D01*
X99869819Y-89917731D02*
X99917438Y-90012969D01*
X99917438Y-90012969D02*
X100012676Y-90108207D01*
X100012676Y-90108207D02*
X100203152Y-90155826D01*
X100203152Y-90155826D02*
X100536485Y-90155826D01*
X100536485Y-90155826D02*
X100726961Y-90108207D01*
X100726961Y-90108207D02*
X100822200Y-90012969D01*
X100822200Y-90012969D02*
X100869819Y-89917731D01*
X100869819Y-89917731D02*
X100869819Y-89727255D01*
X100869819Y-89727255D02*
X100822200Y-89632017D01*
X100822200Y-89632017D02*
X100726961Y-89536779D01*
X100726961Y-89536779D02*
X100536485Y-89489160D01*
X100536485Y-89489160D02*
X100203152Y-89489160D01*
X100203152Y-89489160D02*
X100012676Y-89536779D01*
X100012676Y-89536779D02*
X99917438Y-89632017D01*
X99917438Y-89632017D02*
X99869819Y-89727255D01*
X99869819Y-90774874D02*
X99869819Y-90965350D01*
X99869819Y-90965350D02*
X99917438Y-91060588D01*
X99917438Y-91060588D02*
X100012676Y-91155826D01*
X100012676Y-91155826D02*
X100203152Y-91203445D01*
X100203152Y-91203445D02*
X100536485Y-91203445D01*
X100536485Y-91203445D02*
X100726961Y-91155826D01*
X100726961Y-91155826D02*
X100822200Y-91060588D01*
X100822200Y-91060588D02*
X100869819Y-90965350D01*
X100869819Y-90965350D02*
X100869819Y-90774874D01*
X100869819Y-90774874D02*
X100822200Y-90679636D01*
X100822200Y-90679636D02*
X100726961Y-90584398D01*
X100726961Y-90584398D02*
X100536485Y-90536779D01*
X100536485Y-90536779D02*
X100203152Y-90536779D01*
X100203152Y-90536779D02*
X100012676Y-90584398D01*
X100012676Y-90584398D02*
X99917438Y-90679636D01*
X99917438Y-90679636D02*
X99869819Y-90774874D01*
X99869819Y-91489160D02*
X99869819Y-92060588D01*
X100869819Y-91774874D02*
X99869819Y-91774874D01*
X100965057Y-92155827D02*
X100965057Y-92917731D01*
X100346009Y-93155827D02*
X100346009Y-93489160D01*
X100869819Y-93632017D02*
X100869819Y-93155827D01*
X100869819Y-93155827D02*
X99869819Y-93155827D01*
X99869819Y-93155827D02*
X99869819Y-93632017D01*
X100869819Y-94060589D02*
X99869819Y-94060589D01*
X99869819Y-94060589D02*
X100869819Y-94632017D01*
X100869819Y-94632017D02*
X99869819Y-94632017D01*
X109646009Y-75270112D02*
X109693628Y-75412969D01*
X109693628Y-75412969D02*
X109741247Y-75460588D01*
X109741247Y-75460588D02*
X109836485Y-75508207D01*
X109836485Y-75508207D02*
X109979342Y-75508207D01*
X109979342Y-75508207D02*
X110074580Y-75460588D01*
X110074580Y-75460588D02*
X110122200Y-75412969D01*
X110122200Y-75412969D02*
X110169819Y-75317731D01*
X110169819Y-75317731D02*
X110169819Y-74936779D01*
X110169819Y-74936779D02*
X109169819Y-74936779D01*
X109169819Y-74936779D02*
X109169819Y-75270112D01*
X109169819Y-75270112D02*
X109217438Y-75365350D01*
X109217438Y-75365350D02*
X109265057Y-75412969D01*
X109265057Y-75412969D02*
X109360295Y-75460588D01*
X109360295Y-75460588D02*
X109455533Y-75460588D01*
X109455533Y-75460588D02*
X109550771Y-75412969D01*
X109550771Y-75412969D02*
X109598390Y-75365350D01*
X109598390Y-75365350D02*
X109646009Y-75270112D01*
X109646009Y-75270112D02*
X109646009Y-74936779D01*
X110169819Y-75936779D02*
X109169819Y-75936779D01*
X109884104Y-76365350D02*
X109884104Y-76841540D01*
X110169819Y-76270112D02*
X109169819Y-76603445D01*
X109169819Y-76603445D02*
X110169819Y-76936778D01*
X110122200Y-77222493D02*
X110169819Y-77365350D01*
X110169819Y-77365350D02*
X110169819Y-77603445D01*
X110169819Y-77603445D02*
X110122200Y-77698683D01*
X110122200Y-77698683D02*
X110074580Y-77746302D01*
X110074580Y-77746302D02*
X109979342Y-77793921D01*
X109979342Y-77793921D02*
X109884104Y-77793921D01*
X109884104Y-77793921D02*
X109788866Y-77746302D01*
X109788866Y-77746302D02*
X109741247Y-77698683D01*
X109741247Y-77698683D02*
X109693628Y-77603445D01*
X109693628Y-77603445D02*
X109646009Y-77412969D01*
X109646009Y-77412969D02*
X109598390Y-77317731D01*
X109598390Y-77317731D02*
X109550771Y-77270112D01*
X109550771Y-77270112D02*
X109455533Y-77222493D01*
X109455533Y-77222493D02*
X109360295Y-77222493D01*
X109360295Y-77222493D02*
X109265057Y-77270112D01*
X109265057Y-77270112D02*
X109217438Y-77317731D01*
X109217438Y-77317731D02*
X109169819Y-77412969D01*
X109169819Y-77412969D02*
X109169819Y-77651064D01*
X109169819Y-77651064D02*
X109217438Y-77793921D01*
X110265057Y-77984398D02*
X110265057Y-78746302D01*
X110169819Y-78984398D02*
X109169819Y-78984398D01*
X110169819Y-79460588D02*
X109169819Y-79460588D01*
X109169819Y-79460588D02*
X110169819Y-80032016D01*
X110169819Y-80032016D02*
X109169819Y-80032016D01*
X109169819Y-80365350D02*
X110169819Y-80698683D01*
X110169819Y-80698683D02*
X109169819Y-81032016D01*
X115517438Y-74460588D02*
X115469819Y-74365350D01*
X115469819Y-74365350D02*
X115469819Y-74222493D01*
X115469819Y-74222493D02*
X115517438Y-74079636D01*
X115517438Y-74079636D02*
X115612676Y-73984398D01*
X115612676Y-73984398D02*
X115707914Y-73936779D01*
X115707914Y-73936779D02*
X115898390Y-73889160D01*
X115898390Y-73889160D02*
X116041247Y-73889160D01*
X116041247Y-73889160D02*
X116231723Y-73936779D01*
X116231723Y-73936779D02*
X116326961Y-73984398D01*
X116326961Y-73984398D02*
X116422200Y-74079636D01*
X116422200Y-74079636D02*
X116469819Y-74222493D01*
X116469819Y-74222493D02*
X116469819Y-74317731D01*
X116469819Y-74317731D02*
X116422200Y-74460588D01*
X116422200Y-74460588D02*
X116374580Y-74508207D01*
X116374580Y-74508207D02*
X116041247Y-74508207D01*
X116041247Y-74508207D02*
X116041247Y-74317731D01*
X116469819Y-74936779D02*
X115469819Y-74936779D01*
X115469819Y-74936779D02*
X116469819Y-75508207D01*
X116469819Y-75508207D02*
X115469819Y-75508207D01*
X116469819Y-75984398D02*
X115469819Y-75984398D01*
X115469819Y-75984398D02*
X115469819Y-76222493D01*
X115469819Y-76222493D02*
X115517438Y-76365350D01*
X115517438Y-76365350D02*
X115612676Y-76460588D01*
X115612676Y-76460588D02*
X115707914Y-76508207D01*
X115707914Y-76508207D02*
X115898390Y-76555826D01*
X115898390Y-76555826D02*
X116041247Y-76555826D01*
X116041247Y-76555826D02*
X116231723Y-76508207D01*
X116231723Y-76508207D02*
X116326961Y-76460588D01*
X116326961Y-76460588D02*
X116422200Y-76365350D01*
X116422200Y-76365350D02*
X116469819Y-76222493D01*
X116469819Y-76222493D02*
X116469819Y-75984398D01*
X121345349Y-89593919D02*
X121450972Y-89580435D01*
X121450972Y-89580435D02*
X121585809Y-89627628D01*
X121585809Y-89627628D02*
X121704915Y-89719766D01*
X121704915Y-89719766D02*
X121763344Y-89841120D01*
X121763344Y-89841120D02*
X121776828Y-89946742D01*
X121776828Y-89946742D02*
X121758850Y-90142255D01*
X121758850Y-90142255D02*
X121711657Y-90277092D01*
X121711657Y-90277092D02*
X121603787Y-90441144D01*
X121603787Y-90441144D02*
X121527380Y-90515304D01*
X121527380Y-90515304D02*
X121406027Y-90573734D01*
X121406027Y-90573734D02*
X121255459Y-90571487D01*
X121255459Y-90571487D02*
X121165568Y-90540025D01*
X121165568Y-90540025D02*
X121046462Y-90447886D01*
X121046462Y-90447886D02*
X121017247Y-90387210D01*
X121017247Y-90387210D02*
X121127363Y-90072590D01*
X121127363Y-90072590D02*
X121307146Y-90135514D01*
X120581274Y-90335523D02*
X120911624Y-89391664D01*
X120911624Y-89391664D02*
X120552059Y-89265816D01*
X120552059Y-89265816D02*
X120446436Y-89279300D01*
X120446436Y-89279300D02*
X120385760Y-89308515D01*
X120385760Y-89308515D02*
X120309352Y-89382675D01*
X120309352Y-89382675D02*
X120262159Y-89517512D01*
X120262159Y-89517512D02*
X120275643Y-89623134D01*
X120275643Y-89623134D02*
X120304858Y-89683811D01*
X120304858Y-89683811D02*
X120379018Y-89760219D01*
X120379018Y-89760219D02*
X120738583Y-89886066D01*
X119637416Y-90005173D02*
X119967765Y-89061314D01*
X119338527Y-88841081D02*
X119158744Y-88778158D01*
X119158744Y-88778158D02*
X119053122Y-88791641D01*
X119053122Y-88791641D02*
X118931769Y-88850071D01*
X118931769Y-88850071D02*
X118823899Y-89014122D01*
X118823899Y-89014122D02*
X118713783Y-89328742D01*
X118713783Y-89328742D02*
X118695804Y-89524255D01*
X118695804Y-89524255D02*
X118754234Y-89645609D01*
X118754234Y-89645609D02*
X118828394Y-89722016D01*
X118828394Y-89722016D02*
X119008177Y-89784940D01*
X119008177Y-89784940D02*
X119113799Y-89771456D01*
X119113799Y-89771456D02*
X119235152Y-89713027D01*
X119235152Y-89713027D02*
X119343022Y-89548975D01*
X119343022Y-89548975D02*
X119453138Y-89234355D01*
X119453138Y-89234355D02*
X119471116Y-89038842D01*
X119471116Y-89038842D02*
X119412687Y-88917489D01*
X119412687Y-88917489D02*
X119338527Y-88841081D01*
X118392422Y-89670329D02*
X117673291Y-89418634D01*
X116985622Y-89077048D02*
X117524970Y-89265819D01*
X117255296Y-89171433D02*
X117585646Y-88227575D01*
X117585646Y-88227575D02*
X117628345Y-88393874D01*
X117628345Y-88393874D02*
X117686774Y-88515227D01*
X117686774Y-88515227D02*
X117760934Y-88591634D01*
X116635046Y-88348929D02*
X116740668Y-88335445D01*
X116740668Y-88335445D02*
X116801345Y-88306230D01*
X116801345Y-88306230D02*
X116877752Y-88232070D01*
X116877752Y-88232070D02*
X116893483Y-88187124D01*
X116893483Y-88187124D02*
X116879999Y-88081502D01*
X116879999Y-88081502D02*
X116850785Y-88020825D01*
X116850785Y-88020825D02*
X116776624Y-87944418D01*
X116776624Y-87944418D02*
X116596842Y-87881494D01*
X116596842Y-87881494D02*
X116491220Y-87894978D01*
X116491220Y-87894978D02*
X116430543Y-87924193D01*
X116430543Y-87924193D02*
X116354135Y-87998353D01*
X116354135Y-87998353D02*
X116338404Y-88043299D01*
X116338404Y-88043299D02*
X116351888Y-88148921D01*
X116351888Y-88148921D02*
X116381103Y-88209597D01*
X116381103Y-88209597D02*
X116455263Y-88286005D01*
X116455263Y-88286005D02*
X116635046Y-88348929D01*
X116635046Y-88348929D02*
X116709206Y-88425336D01*
X116709206Y-88425336D02*
X116738421Y-88486013D01*
X116738421Y-88486013D02*
X116751905Y-88591635D01*
X116751905Y-88591635D02*
X116688981Y-88771418D01*
X116688981Y-88771418D02*
X116612573Y-88845578D01*
X116612573Y-88845578D02*
X116551897Y-88874793D01*
X116551897Y-88874793D02*
X116446275Y-88888276D01*
X116446275Y-88888276D02*
X116266492Y-88825353D01*
X116266492Y-88825353D02*
X116192332Y-88748945D01*
X116192332Y-88748945D02*
X116163117Y-88688269D01*
X116163117Y-88688269D02*
X116149633Y-88582646D01*
X116149633Y-88582646D02*
X116212557Y-88402864D01*
X116212557Y-88402864D02*
X116288964Y-88328703D01*
X116288964Y-88328703D02*
X116349641Y-88299489D01*
X116349641Y-88299489D02*
X116455263Y-88286005D01*
X122145349Y-87293919D02*
X122250972Y-87280435D01*
X122250972Y-87280435D02*
X122385809Y-87327628D01*
X122385809Y-87327628D02*
X122504915Y-87419766D01*
X122504915Y-87419766D02*
X122563344Y-87541120D01*
X122563344Y-87541120D02*
X122576828Y-87646742D01*
X122576828Y-87646742D02*
X122558850Y-87842255D01*
X122558850Y-87842255D02*
X122511657Y-87977092D01*
X122511657Y-87977092D02*
X122403787Y-88141144D01*
X122403787Y-88141144D02*
X122327380Y-88215304D01*
X122327380Y-88215304D02*
X122206027Y-88273734D01*
X122206027Y-88273734D02*
X122055459Y-88271487D01*
X122055459Y-88271487D02*
X121965568Y-88240025D01*
X121965568Y-88240025D02*
X121846462Y-88147886D01*
X121846462Y-88147886D02*
X121817247Y-88087210D01*
X121817247Y-88087210D02*
X121927363Y-87772590D01*
X121927363Y-87772590D02*
X122107146Y-87835514D01*
X121381274Y-88035523D02*
X121711624Y-87091664D01*
X121711624Y-87091664D02*
X121352059Y-86965816D01*
X121352059Y-86965816D02*
X121246436Y-86979300D01*
X121246436Y-86979300D02*
X121185760Y-87008515D01*
X121185760Y-87008515D02*
X121109352Y-87082675D01*
X121109352Y-87082675D02*
X121062159Y-87217512D01*
X121062159Y-87217512D02*
X121075643Y-87323134D01*
X121075643Y-87323134D02*
X121104858Y-87383811D01*
X121104858Y-87383811D02*
X121179018Y-87460219D01*
X121179018Y-87460219D02*
X121538583Y-87586066D01*
X120437416Y-87705173D02*
X120767765Y-86761314D01*
X120138527Y-86541081D02*
X119958744Y-86478158D01*
X119958744Y-86478158D02*
X119853122Y-86491641D01*
X119853122Y-86491641D02*
X119731769Y-86550071D01*
X119731769Y-86550071D02*
X119623899Y-86714122D01*
X119623899Y-86714122D02*
X119513783Y-87028742D01*
X119513783Y-87028742D02*
X119495804Y-87224255D01*
X119495804Y-87224255D02*
X119554234Y-87345609D01*
X119554234Y-87345609D02*
X119628394Y-87422016D01*
X119628394Y-87422016D02*
X119808177Y-87484940D01*
X119808177Y-87484940D02*
X119913799Y-87471456D01*
X119913799Y-87471456D02*
X120035152Y-87413027D01*
X120035152Y-87413027D02*
X120143022Y-87248975D01*
X120143022Y-87248975D02*
X120253138Y-86934355D01*
X120253138Y-86934355D02*
X120271116Y-86738842D01*
X120271116Y-86738842D02*
X120212687Y-86617489D01*
X120212687Y-86617489D02*
X120138527Y-86541081D01*
X119192422Y-87370329D02*
X118473291Y-87118634D01*
X118623858Y-86111852D02*
X118594643Y-86051175D01*
X118594643Y-86051175D02*
X118520483Y-85974768D01*
X118520483Y-85974768D02*
X118295755Y-85896113D01*
X118295755Y-85896113D02*
X118190133Y-85909597D01*
X118190133Y-85909597D02*
X118129456Y-85938811D01*
X118129456Y-85938811D02*
X118053048Y-86012972D01*
X118053048Y-86012972D02*
X118021587Y-86102863D01*
X118021587Y-86102863D02*
X118019339Y-86253431D01*
X118019339Y-86253431D02*
X118369916Y-86981550D01*
X118369916Y-86981550D02*
X117785622Y-86777048D01*
X117531679Y-85628687D02*
X117441787Y-85597225D01*
X117441787Y-85597225D02*
X117336165Y-85610709D01*
X117336165Y-85610709D02*
X117275489Y-85639924D01*
X117275489Y-85639924D02*
X117199081Y-85714084D01*
X117199081Y-85714084D02*
X117091212Y-85878136D01*
X117091212Y-85878136D02*
X117012557Y-86102864D01*
X117012557Y-86102864D02*
X116994579Y-86298377D01*
X116994579Y-86298377D02*
X117008063Y-86404000D01*
X117008063Y-86404000D02*
X117037277Y-86464676D01*
X117037277Y-86464676D02*
X117111438Y-86541084D01*
X117111438Y-86541084D02*
X117201329Y-86572546D01*
X117201329Y-86572546D02*
X117306951Y-86559062D01*
X117306951Y-86559062D02*
X117367628Y-86529847D01*
X117367628Y-86529847D02*
X117444035Y-86455687D01*
X117444035Y-86455687D02*
X117551905Y-86291635D01*
X117551905Y-86291635D02*
X117630559Y-86066907D01*
X117630559Y-86066907D02*
X117648538Y-85871393D01*
X117648538Y-85871393D02*
X117635054Y-85765771D01*
X117635054Y-85765771D02*
X117605839Y-85705094D01*
X117605839Y-85705094D02*
X117531679Y-85628687D01*
X123045349Y-84793919D02*
X123150972Y-84780435D01*
X123150972Y-84780435D02*
X123285809Y-84827628D01*
X123285809Y-84827628D02*
X123404915Y-84919766D01*
X123404915Y-84919766D02*
X123463344Y-85041120D01*
X123463344Y-85041120D02*
X123476828Y-85146742D01*
X123476828Y-85146742D02*
X123458850Y-85342255D01*
X123458850Y-85342255D02*
X123411657Y-85477092D01*
X123411657Y-85477092D02*
X123303787Y-85641144D01*
X123303787Y-85641144D02*
X123227380Y-85715304D01*
X123227380Y-85715304D02*
X123106027Y-85773734D01*
X123106027Y-85773734D02*
X122955459Y-85771487D01*
X122955459Y-85771487D02*
X122865568Y-85740025D01*
X122865568Y-85740025D02*
X122746462Y-85647886D01*
X122746462Y-85647886D02*
X122717247Y-85587210D01*
X122717247Y-85587210D02*
X122827363Y-85272590D01*
X122827363Y-85272590D02*
X123007146Y-85335514D01*
X122281274Y-85535523D02*
X122611624Y-84591664D01*
X122611624Y-84591664D02*
X122252059Y-84465816D01*
X122252059Y-84465816D02*
X122146436Y-84479300D01*
X122146436Y-84479300D02*
X122085760Y-84508515D01*
X122085760Y-84508515D02*
X122009352Y-84582675D01*
X122009352Y-84582675D02*
X121962159Y-84717512D01*
X121962159Y-84717512D02*
X121975643Y-84823134D01*
X121975643Y-84823134D02*
X122004858Y-84883811D01*
X122004858Y-84883811D02*
X122079018Y-84960219D01*
X122079018Y-84960219D02*
X122438583Y-85086066D01*
X121337416Y-85205173D02*
X121667765Y-84261314D01*
X121038527Y-84041081D02*
X120858744Y-83978158D01*
X120858744Y-83978158D02*
X120753122Y-83991641D01*
X120753122Y-83991641D02*
X120631769Y-84050071D01*
X120631769Y-84050071D02*
X120523899Y-84214122D01*
X120523899Y-84214122D02*
X120413783Y-84528742D01*
X120413783Y-84528742D02*
X120395804Y-84724255D01*
X120395804Y-84724255D02*
X120454234Y-84845609D01*
X120454234Y-84845609D02*
X120528394Y-84922016D01*
X120528394Y-84922016D02*
X120708177Y-84984940D01*
X120708177Y-84984940D02*
X120813799Y-84971456D01*
X120813799Y-84971456D02*
X120935152Y-84913027D01*
X120935152Y-84913027D02*
X121043022Y-84748975D01*
X121043022Y-84748975D02*
X121153138Y-84434355D01*
X121153138Y-84434355D02*
X121171116Y-84238842D01*
X121171116Y-84238842D02*
X121112687Y-84117489D01*
X121112687Y-84117489D02*
X121038527Y-84041081D01*
X120092422Y-84870329D02*
X119373291Y-84618634D01*
X119523858Y-83611852D02*
X119494643Y-83551175D01*
X119494643Y-83551175D02*
X119420483Y-83474768D01*
X119420483Y-83474768D02*
X119195755Y-83396113D01*
X119195755Y-83396113D02*
X119090133Y-83409597D01*
X119090133Y-83409597D02*
X119029456Y-83438811D01*
X119029456Y-83438811D02*
X118953048Y-83512972D01*
X118953048Y-83512972D02*
X118921587Y-83602863D01*
X118921587Y-83602863D02*
X118919339Y-83753431D01*
X118919339Y-83753431D02*
X119269916Y-84481550D01*
X119269916Y-84481550D02*
X118685622Y-84277048D01*
X117786709Y-83962429D02*
X118326057Y-84151200D01*
X118056383Y-84056815D02*
X118386733Y-83112956D01*
X118386733Y-83112956D02*
X118429432Y-83279255D01*
X118429432Y-83279255D02*
X118487861Y-83400608D01*
X118487861Y-83400608D02*
X118562021Y-83477015D01*
X123845349Y-82393919D02*
X123950972Y-82380435D01*
X123950972Y-82380435D02*
X124085809Y-82427628D01*
X124085809Y-82427628D02*
X124204915Y-82519766D01*
X124204915Y-82519766D02*
X124263344Y-82641120D01*
X124263344Y-82641120D02*
X124276828Y-82746742D01*
X124276828Y-82746742D02*
X124258850Y-82942255D01*
X124258850Y-82942255D02*
X124211657Y-83077092D01*
X124211657Y-83077092D02*
X124103787Y-83241144D01*
X124103787Y-83241144D02*
X124027380Y-83315304D01*
X124027380Y-83315304D02*
X123906027Y-83373734D01*
X123906027Y-83373734D02*
X123755459Y-83371487D01*
X123755459Y-83371487D02*
X123665568Y-83340025D01*
X123665568Y-83340025D02*
X123546462Y-83247886D01*
X123546462Y-83247886D02*
X123517247Y-83187210D01*
X123517247Y-83187210D02*
X123627363Y-82872590D01*
X123627363Y-82872590D02*
X123807146Y-82935514D01*
X123081274Y-83135523D02*
X123411624Y-82191664D01*
X123411624Y-82191664D02*
X123052059Y-82065816D01*
X123052059Y-82065816D02*
X122946436Y-82079300D01*
X122946436Y-82079300D02*
X122885760Y-82108515D01*
X122885760Y-82108515D02*
X122809352Y-82182675D01*
X122809352Y-82182675D02*
X122762159Y-82317512D01*
X122762159Y-82317512D02*
X122775643Y-82423134D01*
X122775643Y-82423134D02*
X122804858Y-82483811D01*
X122804858Y-82483811D02*
X122879018Y-82560219D01*
X122879018Y-82560219D02*
X123238583Y-82686066D01*
X122137416Y-82805173D02*
X122467765Y-81861314D01*
X121838527Y-81641081D02*
X121658744Y-81578158D01*
X121658744Y-81578158D02*
X121553122Y-81591641D01*
X121553122Y-81591641D02*
X121431769Y-81650071D01*
X121431769Y-81650071D02*
X121323899Y-81814122D01*
X121323899Y-81814122D02*
X121213783Y-82128742D01*
X121213783Y-82128742D02*
X121195804Y-82324255D01*
X121195804Y-82324255D02*
X121254234Y-82445609D01*
X121254234Y-82445609D02*
X121328394Y-82522016D01*
X121328394Y-82522016D02*
X121508177Y-82584940D01*
X121508177Y-82584940D02*
X121613799Y-82571456D01*
X121613799Y-82571456D02*
X121735152Y-82513027D01*
X121735152Y-82513027D02*
X121843022Y-82348975D01*
X121843022Y-82348975D02*
X121953138Y-82034355D01*
X121953138Y-82034355D02*
X121971116Y-81838842D01*
X121971116Y-81838842D02*
X121912687Y-81717489D01*
X121912687Y-81717489D02*
X121838527Y-81641081D01*
X120892422Y-82470329D02*
X120173291Y-82218634D01*
X120323858Y-81211852D02*
X120294643Y-81151175D01*
X120294643Y-81151175D02*
X120220483Y-81074768D01*
X120220483Y-81074768D02*
X119995755Y-80996113D01*
X119995755Y-80996113D02*
X119890133Y-81009597D01*
X119890133Y-81009597D02*
X119829456Y-81038811D01*
X119829456Y-81038811D02*
X119753048Y-81112972D01*
X119753048Y-81112972D02*
X119721587Y-81202863D01*
X119721587Y-81202863D02*
X119719339Y-81353431D01*
X119719339Y-81353431D02*
X120069916Y-82081550D01*
X120069916Y-82081550D02*
X119485622Y-81877048D01*
X119424945Y-80897233D02*
X119395730Y-80836556D01*
X119395730Y-80836556D02*
X119321570Y-80760149D01*
X119321570Y-80760149D02*
X119096842Y-80681494D01*
X119096842Y-80681494D02*
X118991220Y-80694978D01*
X118991220Y-80694978D02*
X118930543Y-80724193D01*
X118930543Y-80724193D02*
X118854135Y-80798353D01*
X118854135Y-80798353D02*
X118822674Y-80888244D01*
X118822674Y-80888244D02*
X118820426Y-81038812D01*
X118820426Y-81038812D02*
X119171003Y-81766931D01*
X119171003Y-81766931D02*
X118586709Y-81562429D01*
X124645349Y-79993919D02*
X124750972Y-79980435D01*
X124750972Y-79980435D02*
X124885809Y-80027628D01*
X124885809Y-80027628D02*
X125004915Y-80119766D01*
X125004915Y-80119766D02*
X125063344Y-80241120D01*
X125063344Y-80241120D02*
X125076828Y-80346742D01*
X125076828Y-80346742D02*
X125058850Y-80542255D01*
X125058850Y-80542255D02*
X125011657Y-80677092D01*
X125011657Y-80677092D02*
X124903787Y-80841144D01*
X124903787Y-80841144D02*
X124827380Y-80915304D01*
X124827380Y-80915304D02*
X124706027Y-80973734D01*
X124706027Y-80973734D02*
X124555459Y-80971487D01*
X124555459Y-80971487D02*
X124465568Y-80940025D01*
X124465568Y-80940025D02*
X124346462Y-80847886D01*
X124346462Y-80847886D02*
X124317247Y-80787210D01*
X124317247Y-80787210D02*
X124427363Y-80472590D01*
X124427363Y-80472590D02*
X124607146Y-80535514D01*
X123881274Y-80735523D02*
X124211624Y-79791664D01*
X124211624Y-79791664D02*
X123852059Y-79665816D01*
X123852059Y-79665816D02*
X123746436Y-79679300D01*
X123746436Y-79679300D02*
X123685760Y-79708515D01*
X123685760Y-79708515D02*
X123609352Y-79782675D01*
X123609352Y-79782675D02*
X123562159Y-79917512D01*
X123562159Y-79917512D02*
X123575643Y-80023134D01*
X123575643Y-80023134D02*
X123604858Y-80083811D01*
X123604858Y-80083811D02*
X123679018Y-80160219D01*
X123679018Y-80160219D02*
X124038583Y-80286066D01*
X122937416Y-80405173D02*
X123267765Y-79461314D01*
X122638527Y-79241081D02*
X122458744Y-79178158D01*
X122458744Y-79178158D02*
X122353122Y-79191641D01*
X122353122Y-79191641D02*
X122231769Y-79250071D01*
X122231769Y-79250071D02*
X122123899Y-79414122D01*
X122123899Y-79414122D02*
X122013783Y-79728742D01*
X122013783Y-79728742D02*
X121995804Y-79924255D01*
X121995804Y-79924255D02*
X122054234Y-80045609D01*
X122054234Y-80045609D02*
X122128394Y-80122016D01*
X122128394Y-80122016D02*
X122308177Y-80184940D01*
X122308177Y-80184940D02*
X122413799Y-80171456D01*
X122413799Y-80171456D02*
X122535152Y-80113027D01*
X122535152Y-80113027D02*
X122643022Y-79948975D01*
X122643022Y-79948975D02*
X122753138Y-79634355D01*
X122753138Y-79634355D02*
X122771116Y-79438842D01*
X122771116Y-79438842D02*
X122712687Y-79317489D01*
X122712687Y-79317489D02*
X122638527Y-79241081D01*
X121692422Y-80070329D02*
X120973291Y-79818634D01*
X121123858Y-78811852D02*
X121094643Y-78751175D01*
X121094643Y-78751175D02*
X121020483Y-78674768D01*
X121020483Y-78674768D02*
X120795755Y-78596113D01*
X120795755Y-78596113D02*
X120690133Y-78609597D01*
X120690133Y-78609597D02*
X120629456Y-78638811D01*
X120629456Y-78638811D02*
X120553048Y-78712972D01*
X120553048Y-78712972D02*
X120521587Y-78802863D01*
X120521587Y-78802863D02*
X120519339Y-78953431D01*
X120519339Y-78953431D02*
X120869916Y-79681550D01*
X120869916Y-79681550D02*
X120285622Y-79477048D01*
X120301353Y-78423073D02*
X119717059Y-78218570D01*
X119717059Y-78218570D02*
X119905831Y-78688252D01*
X119905831Y-78688252D02*
X119770994Y-78641059D01*
X119770994Y-78641059D02*
X119665372Y-78654543D01*
X119665372Y-78654543D02*
X119604695Y-78683758D01*
X119604695Y-78683758D02*
X119528288Y-78757918D01*
X119528288Y-78757918D02*
X119449633Y-78982646D01*
X119449633Y-78982646D02*
X119463117Y-79088269D01*
X119463117Y-79088269D02*
X119492332Y-79148945D01*
X119492332Y-79148945D02*
X119566492Y-79225353D01*
X119566492Y-79225353D02*
X119836166Y-79319738D01*
X119836166Y-79319738D02*
X119941788Y-79306255D01*
X119941788Y-79306255D02*
X120002465Y-79277040D01*
X126145349Y-76693919D02*
X126250972Y-76680435D01*
X126250972Y-76680435D02*
X126385809Y-76727628D01*
X126385809Y-76727628D02*
X126504915Y-76819766D01*
X126504915Y-76819766D02*
X126563344Y-76941120D01*
X126563344Y-76941120D02*
X126576828Y-77046742D01*
X126576828Y-77046742D02*
X126558850Y-77242255D01*
X126558850Y-77242255D02*
X126511657Y-77377092D01*
X126511657Y-77377092D02*
X126403787Y-77541144D01*
X126403787Y-77541144D02*
X126327380Y-77615304D01*
X126327380Y-77615304D02*
X126206027Y-77673734D01*
X126206027Y-77673734D02*
X126055459Y-77671487D01*
X126055459Y-77671487D02*
X125965568Y-77640025D01*
X125965568Y-77640025D02*
X125846462Y-77547886D01*
X125846462Y-77547886D02*
X125817247Y-77487210D01*
X125817247Y-77487210D02*
X125927363Y-77172590D01*
X125927363Y-77172590D02*
X126107146Y-77235514D01*
X125381274Y-77435523D02*
X125711624Y-76491664D01*
X125711624Y-76491664D02*
X124841926Y-77246751D01*
X124841926Y-77246751D02*
X125172276Y-76302893D01*
X124392470Y-77089442D02*
X124722820Y-76145583D01*
X124722820Y-76145583D02*
X124498091Y-76066929D01*
X124498091Y-76066929D02*
X124347523Y-76064681D01*
X124347523Y-76064681D02*
X124226170Y-76123111D01*
X124226170Y-76123111D02*
X124149763Y-76197271D01*
X124149763Y-76197271D02*
X124041893Y-76361323D01*
X124041893Y-76361323D02*
X123994701Y-76496160D01*
X123994701Y-76496160D02*
X123976722Y-76691673D01*
X123976722Y-76691673D02*
X123990206Y-76797296D01*
X123990206Y-76797296D02*
X124048636Y-76918649D01*
X124048636Y-76918649D02*
X124167742Y-77010787D01*
X124167742Y-77010787D02*
X124392470Y-77089442D01*
X127325133Y-75365872D02*
X127655482Y-74422014D01*
X127655482Y-74422014D02*
X126785785Y-75177101D01*
X126785785Y-75177101D02*
X127116135Y-74233242D01*
X126336329Y-75019792D02*
X126666678Y-74075933D01*
X125886872Y-74862482D02*
X126217222Y-73918624D01*
X126217222Y-73918624D02*
X125347525Y-74673711D01*
X125347525Y-74673711D02*
X125677874Y-73729853D01*
X125037400Y-74262459D02*
X124587943Y-74105149D01*
X125032905Y-74563595D02*
X125048635Y-73509619D01*
X125048635Y-73509619D02*
X124403666Y-74343362D01*
X124282313Y-74401791D02*
X123563182Y-74150096D01*
X122830568Y-73792779D02*
X123302497Y-73453439D01*
X123369916Y-73981550D02*
X123700266Y-73037691D01*
X123700266Y-73037691D02*
X123340700Y-72911844D01*
X123340700Y-72911844D02*
X123235078Y-72925328D01*
X123235078Y-72925328D02*
X123174401Y-72954542D01*
X123174401Y-72954542D02*
X123097994Y-73028703D01*
X123097994Y-73028703D02*
X123050801Y-73163540D01*
X123050801Y-73163540D02*
X123064285Y-73269162D01*
X123064285Y-73269162D02*
X123093500Y-73329838D01*
X123093500Y-73329838D02*
X123167660Y-73406246D01*
X123167660Y-73406246D02*
X123527225Y-73532093D01*
X122486734Y-73621985D02*
X122336166Y-73619738D01*
X122336166Y-73619738D02*
X122111438Y-73541084D01*
X122111438Y-73541084D02*
X122037277Y-73464676D01*
X122037277Y-73464676D02*
X122008063Y-73404000D01*
X122008063Y-73404000D02*
X121994579Y-73298377D01*
X121994579Y-73298377D02*
X122026041Y-73208486D01*
X122026041Y-73208486D02*
X122102448Y-73134326D01*
X122102448Y-73134326D02*
X122163125Y-73105111D01*
X122163125Y-73105111D02*
X122268747Y-73091627D01*
X122268747Y-73091627D02*
X122464261Y-73109605D01*
X122464261Y-73109605D02*
X122569883Y-73096121D01*
X122569883Y-73096121D02*
X122630559Y-73066907D01*
X122630559Y-73066907D02*
X122706967Y-72992746D01*
X122706967Y-72992746D02*
X122738429Y-72902855D01*
X122738429Y-72902855D02*
X122724945Y-72797233D01*
X122724945Y-72797233D02*
X122695730Y-72736556D01*
X122695730Y-72736556D02*
X122621570Y-72660149D01*
X122621570Y-72660149D02*
X122396842Y-72581494D01*
X122396842Y-72581494D02*
X122246274Y-72579247D01*
X121992331Y-72439916D02*
X121452983Y-72251144D01*
X121392307Y-73289389D02*
X121722657Y-72345530D01*
X128185809Y-72936657D02*
X128035241Y-72934410D01*
X128035241Y-72934410D02*
X127810513Y-72855756D01*
X127810513Y-72855756D02*
X127736353Y-72779348D01*
X127736353Y-72779348D02*
X127707138Y-72718672D01*
X127707138Y-72718672D02*
X127693654Y-72613049D01*
X127693654Y-72613049D02*
X127725116Y-72523158D01*
X127725116Y-72523158D02*
X127801524Y-72448998D01*
X127801524Y-72448998D02*
X127862200Y-72419783D01*
X127862200Y-72419783D02*
X127967823Y-72406299D01*
X127967823Y-72406299D02*
X128163336Y-72424277D01*
X128163336Y-72424277D02*
X128268958Y-72410793D01*
X128268958Y-72410793D02*
X128329635Y-72381579D01*
X128329635Y-72381579D02*
X128406042Y-72307418D01*
X128406042Y-72307418D02*
X128437504Y-72217527D01*
X128437504Y-72217527D02*
X128424021Y-72111905D01*
X128424021Y-72111905D02*
X128394806Y-72051228D01*
X128394806Y-72051228D02*
X128320645Y-71974821D01*
X128320645Y-71974821D02*
X128095917Y-71896166D01*
X128095917Y-71896166D02*
X127945349Y-71893919D01*
X127646461Y-71738857D02*
X127091383Y-72604061D01*
X127091383Y-72604061D02*
X127147564Y-71866952D01*
X127147564Y-71866952D02*
X126731818Y-72478213D01*
X126731818Y-72478213D02*
X126837439Y-71455700D01*
X126147524Y-72273711D02*
X126477874Y-71329852D01*
X126477874Y-71329852D02*
X126253146Y-71251198D01*
X126253146Y-71251198D02*
X126102578Y-71248951D01*
X126102578Y-71248951D02*
X125981225Y-71307380D01*
X125981225Y-71307380D02*
X125904817Y-71381540D01*
X125904817Y-71381540D02*
X125796948Y-71545592D01*
X125796948Y-71545592D02*
X125749755Y-71680429D01*
X125749755Y-71680429D02*
X125731777Y-71875942D01*
X125731777Y-71875942D02*
X125745261Y-71981565D01*
X125745261Y-71981565D02*
X125803690Y-72102918D01*
X125803690Y-72102918D02*
X125922796Y-72195056D01*
X125922796Y-72195056D02*
X126147524Y-72273711D01*
X125396932Y-72111907D02*
X124677802Y-71860212D01*
X124484535Y-71691666D02*
X124814885Y-70747808D01*
X124185646Y-70527575D02*
X124005864Y-70464651D01*
X124005864Y-70464651D02*
X123900241Y-70478135D01*
X123900241Y-70478135D02*
X123778888Y-70536564D01*
X123778888Y-70536564D02*
X123671019Y-70700616D01*
X123671019Y-70700616D02*
X123560902Y-71015235D01*
X123560902Y-71015235D02*
X123542924Y-71210749D01*
X123542924Y-71210749D02*
X123601353Y-71332102D01*
X123601353Y-71332102D02*
X123675514Y-71408510D01*
X123675514Y-71408510D02*
X123855296Y-71471433D01*
X123855296Y-71471433D02*
X123960919Y-71457950D01*
X123960919Y-71457950D02*
X124082272Y-71399520D01*
X124082272Y-71399520D02*
X124190141Y-71235468D01*
X124190141Y-71235468D02*
X124300258Y-70920849D01*
X124300258Y-70920849D02*
X124318236Y-70725335D01*
X124318236Y-70725335D02*
X124259806Y-70603982D01*
X124259806Y-70603982D02*
X124185646Y-70527575D01*
X128985809Y-70536657D02*
X128835241Y-70534410D01*
X128835241Y-70534410D02*
X128610513Y-70455756D01*
X128610513Y-70455756D02*
X128536353Y-70379348D01*
X128536353Y-70379348D02*
X128507138Y-70318672D01*
X128507138Y-70318672D02*
X128493654Y-70213049D01*
X128493654Y-70213049D02*
X128525116Y-70123158D01*
X128525116Y-70123158D02*
X128601524Y-70048998D01*
X128601524Y-70048998D02*
X128662200Y-70019783D01*
X128662200Y-70019783D02*
X128767823Y-70006299D01*
X128767823Y-70006299D02*
X128963336Y-70024277D01*
X128963336Y-70024277D02*
X129068958Y-70010793D01*
X129068958Y-70010793D02*
X129129635Y-69981579D01*
X129129635Y-69981579D02*
X129206042Y-69907418D01*
X129206042Y-69907418D02*
X129237504Y-69817527D01*
X129237504Y-69817527D02*
X129224021Y-69711905D01*
X129224021Y-69711905D02*
X129194806Y-69651228D01*
X129194806Y-69651228D02*
X129120645Y-69574821D01*
X129120645Y-69574821D02*
X128895917Y-69496166D01*
X128895917Y-69496166D02*
X128745349Y-69493919D01*
X128446461Y-69338857D02*
X127891383Y-70204061D01*
X127891383Y-70204061D02*
X127947564Y-69466952D01*
X127947564Y-69466952D02*
X127531818Y-70078213D01*
X127531818Y-70078213D02*
X127637439Y-69055700D01*
X126947524Y-69873711D02*
X127277874Y-68929852D01*
X127277874Y-68929852D02*
X127053146Y-68851198D01*
X127053146Y-68851198D02*
X126902578Y-68848951D01*
X126902578Y-68848951D02*
X126781225Y-68907380D01*
X126781225Y-68907380D02*
X126704817Y-68981540D01*
X126704817Y-68981540D02*
X126596948Y-69145592D01*
X126596948Y-69145592D02*
X126549755Y-69280429D01*
X126549755Y-69280429D02*
X126531777Y-69475942D01*
X126531777Y-69475942D02*
X126545261Y-69581565D01*
X126545261Y-69581565D02*
X126603690Y-69702918D01*
X126603690Y-69702918D02*
X126722796Y-69795056D01*
X126722796Y-69795056D02*
X126947524Y-69873711D01*
X126196932Y-69711907D02*
X125477802Y-69460212D01*
X124776649Y-69013004D02*
X124805864Y-69073680D01*
X124805864Y-69073680D02*
X124924970Y-69165819D01*
X124924970Y-69165819D02*
X125014861Y-69197281D01*
X125014861Y-69197281D02*
X125165429Y-69199528D01*
X125165429Y-69199528D02*
X125286782Y-69141098D01*
X125286782Y-69141098D02*
X125363190Y-69066938D01*
X125363190Y-69066938D02*
X125471059Y-68902886D01*
X125471059Y-68902886D02*
X125518252Y-68768049D01*
X125518252Y-68768049D02*
X125536230Y-68572536D01*
X125536230Y-68572536D02*
X125522746Y-68466914D01*
X125522746Y-68466914D02*
X125464317Y-68345561D01*
X125464317Y-68345561D02*
X125345211Y-68253422D01*
X125345211Y-68253422D02*
X125255320Y-68221960D01*
X125255320Y-68221960D02*
X125104752Y-68219713D01*
X125104752Y-68219713D02*
X125044075Y-68248928D01*
X123891220Y-68804007D02*
X124340676Y-68961317D01*
X124340676Y-68961317D02*
X124671026Y-68017458D01*
X123576600Y-68693891D02*
X123906950Y-67750032D01*
X123037252Y-68505119D02*
X123630535Y-68107350D01*
X123367602Y-67561261D02*
X123718179Y-68289380D01*
X129725133Y-68165872D02*
X130055482Y-67222014D01*
X130055482Y-67222014D02*
X129185785Y-67977101D01*
X129185785Y-67977101D02*
X129516135Y-67033242D01*
X128736329Y-67819792D02*
X129066678Y-66875933D01*
X128286872Y-67662482D02*
X128617222Y-66718624D01*
X128617222Y-66718624D02*
X127747525Y-67473711D01*
X127747525Y-67473711D02*
X128077874Y-66529853D01*
X127437400Y-67062459D02*
X126987943Y-66905149D01*
X127432905Y-67363595D02*
X127448635Y-66309619D01*
X127448635Y-66309619D02*
X126803666Y-67143362D01*
X126682313Y-67201791D02*
X125963182Y-66950096D01*
X126235102Y-65884884D02*
X125590133Y-66718626D01*
X125590133Y-66718626D02*
X125605863Y-65664651D01*
X124453008Y-66219730D02*
X124482223Y-66280407D01*
X124482223Y-66280407D02*
X124601329Y-66372545D01*
X124601329Y-66372545D02*
X124691220Y-66404007D01*
X124691220Y-66404007D02*
X124841788Y-66406254D01*
X124841788Y-66406254D02*
X124963141Y-66347825D01*
X124963141Y-66347825D02*
X125039549Y-66273665D01*
X125039549Y-66273665D02*
X125147418Y-66109613D01*
X125147418Y-66109613D02*
X125194611Y-65974776D01*
X125194611Y-65974776D02*
X125212589Y-65779263D01*
X125212589Y-65779263D02*
X125199105Y-65673640D01*
X125199105Y-65673640D02*
X125140676Y-65552287D01*
X125140676Y-65552287D02*
X125021570Y-65460149D01*
X125021570Y-65460149D02*
X124931679Y-65428687D01*
X124931679Y-65428687D02*
X124781111Y-65426440D01*
X124781111Y-65426440D02*
X124720434Y-65455654D01*
X123509149Y-65889381D02*
X123538364Y-65950057D01*
X123538364Y-65950057D02*
X123657470Y-66042196D01*
X123657470Y-66042196D02*
X123747362Y-66073658D01*
X123747362Y-66073658D02*
X123897929Y-66075905D01*
X123897929Y-66075905D02*
X124019283Y-66017475D01*
X124019283Y-66017475D02*
X124095690Y-65943315D01*
X124095690Y-65943315D02*
X124203559Y-65779263D01*
X124203559Y-65779263D02*
X124250752Y-65644426D01*
X124250752Y-65644426D02*
X124268730Y-65448913D01*
X124268730Y-65448913D02*
X124255247Y-65343291D01*
X124255247Y-65343291D02*
X124196817Y-65221937D01*
X124196817Y-65221937D02*
X124077711Y-65129799D01*
X124077711Y-65129799D02*
X123987820Y-65098337D01*
X123987820Y-65098337D02*
X123837252Y-65096090D01*
X123837252Y-65096090D02*
X123776575Y-65125305D01*
D11*
X107235266Y-67641101D02*
X107235266Y-68631578D01*
X107235266Y-70041101D02*
X107235266Y-71031578D01*
X107730504Y-70536339D02*
X106740028Y-70536339D01*
D10*
X90210597Y-72131666D02*
X89536412Y-72367630D01*
X89536412Y-72367630D02*
X89417306Y-72459768D01*
X89417306Y-72459768D02*
X89358877Y-72581122D01*
X89358877Y-72581122D02*
X89361124Y-72731689D01*
X89361124Y-72731689D02*
X89392586Y-72821581D01*
X88936388Y-71518157D02*
X89125160Y-72057504D01*
X89030774Y-71787831D02*
X89974633Y-71457481D01*
X89974633Y-71457481D02*
X89871258Y-71594565D01*
X89871258Y-71594565D02*
X89812828Y-71715918D01*
X89812828Y-71715918D02*
X89799344Y-71821540D01*
X94447080Y-61282142D02*
X94494700Y-61234523D01*
X94494700Y-61234523D02*
X94542319Y-61091666D01*
X94542319Y-61091666D02*
X94542319Y-60996428D01*
X94542319Y-60996428D02*
X94494700Y-60853571D01*
X94494700Y-60853571D02*
X94399461Y-60758333D01*
X94399461Y-60758333D02*
X94304223Y-60710714D01*
X94304223Y-60710714D02*
X94113747Y-60663095D01*
X94113747Y-60663095D02*
X93970890Y-60663095D01*
X93970890Y-60663095D02*
X93780414Y-60710714D01*
X93780414Y-60710714D02*
X93685176Y-60758333D01*
X93685176Y-60758333D02*
X93589938Y-60853571D01*
X93589938Y-60853571D02*
X93542319Y-60996428D01*
X93542319Y-60996428D02*
X93542319Y-61091666D01*
X93542319Y-61091666D02*
X93589938Y-61234523D01*
X93589938Y-61234523D02*
X93637557Y-61282142D01*
X93637557Y-61663095D02*
X93589938Y-61710714D01*
X93589938Y-61710714D02*
X93542319Y-61805952D01*
X93542319Y-61805952D02*
X93542319Y-62044047D01*
X93542319Y-62044047D02*
X93589938Y-62139285D01*
X93589938Y-62139285D02*
X93637557Y-62186904D01*
X93637557Y-62186904D02*
X93732795Y-62234523D01*
X93732795Y-62234523D02*
X93828033Y-62234523D01*
X93828033Y-62234523D02*
X93970890Y-62186904D01*
X93970890Y-62186904D02*
X94542319Y-61615476D01*
X94542319Y-61615476D02*
X94542319Y-62234523D01*
X93637557Y-62615476D02*
X93589938Y-62663095D01*
X93589938Y-62663095D02*
X93542319Y-62758333D01*
X93542319Y-62758333D02*
X93542319Y-62996428D01*
X93542319Y-62996428D02*
X93589938Y-63091666D01*
X93589938Y-63091666D02*
X93637557Y-63139285D01*
X93637557Y-63139285D02*
X93732795Y-63186904D01*
X93732795Y-63186904D02*
X93828033Y-63186904D01*
X93828033Y-63186904D02*
X93970890Y-63139285D01*
X93970890Y-63139285D02*
X94542319Y-62567857D01*
X94542319Y-62567857D02*
X94542319Y-63186904D01*
X106559580Y-61282142D02*
X106607200Y-61234523D01*
X106607200Y-61234523D02*
X106654819Y-61091666D01*
X106654819Y-61091666D02*
X106654819Y-60996428D01*
X106654819Y-60996428D02*
X106607200Y-60853571D01*
X106607200Y-60853571D02*
X106511961Y-60758333D01*
X106511961Y-60758333D02*
X106416723Y-60710714D01*
X106416723Y-60710714D02*
X106226247Y-60663095D01*
X106226247Y-60663095D02*
X106083390Y-60663095D01*
X106083390Y-60663095D02*
X105892914Y-60710714D01*
X105892914Y-60710714D02*
X105797676Y-60758333D01*
X105797676Y-60758333D02*
X105702438Y-60853571D01*
X105702438Y-60853571D02*
X105654819Y-60996428D01*
X105654819Y-60996428D02*
X105654819Y-61091666D01*
X105654819Y-61091666D02*
X105702438Y-61234523D01*
X105702438Y-61234523D02*
X105750057Y-61282142D01*
X105654819Y-61615476D02*
X105654819Y-62234523D01*
X105654819Y-62234523D02*
X106035771Y-61901190D01*
X106035771Y-61901190D02*
X106035771Y-62044047D01*
X106035771Y-62044047D02*
X106083390Y-62139285D01*
X106083390Y-62139285D02*
X106131009Y-62186904D01*
X106131009Y-62186904D02*
X106226247Y-62234523D01*
X106226247Y-62234523D02*
X106464342Y-62234523D01*
X106464342Y-62234523D02*
X106559580Y-62186904D01*
X106559580Y-62186904D02*
X106607200Y-62139285D01*
X106607200Y-62139285D02*
X106654819Y-62044047D01*
X106654819Y-62044047D02*
X106654819Y-61758333D01*
X106654819Y-61758333D02*
X106607200Y-61663095D01*
X106607200Y-61663095D02*
X106559580Y-61615476D01*
X105654819Y-63091666D02*
X105654819Y-62901190D01*
X105654819Y-62901190D02*
X105702438Y-62805952D01*
X105702438Y-62805952D02*
X105750057Y-62758333D01*
X105750057Y-62758333D02*
X105892914Y-62663095D01*
X105892914Y-62663095D02*
X106083390Y-62615476D01*
X106083390Y-62615476D02*
X106464342Y-62615476D01*
X106464342Y-62615476D02*
X106559580Y-62663095D01*
X106559580Y-62663095D02*
X106607200Y-62710714D01*
X106607200Y-62710714D02*
X106654819Y-62805952D01*
X106654819Y-62805952D02*
X106654819Y-62996428D01*
X106654819Y-62996428D02*
X106607200Y-63091666D01*
X106607200Y-63091666D02*
X106559580Y-63139285D01*
X106559580Y-63139285D02*
X106464342Y-63186904D01*
X106464342Y-63186904D02*
X106226247Y-63186904D01*
X106226247Y-63186904D02*
X106131009Y-63139285D01*
X106131009Y-63139285D02*
X106083390Y-63091666D01*
X106083390Y-63091666D02*
X106035771Y-62996428D01*
X106035771Y-62996428D02*
X106035771Y-62805952D01*
X106035771Y-62805952D02*
X106083390Y-62710714D01*
X106083390Y-62710714D02*
X106131009Y-62663095D01*
X106131009Y-62663095D02*
X106226247Y-62615476D01*
X88659580Y-61282142D02*
X88707200Y-61234523D01*
X88707200Y-61234523D02*
X88754819Y-61091666D01*
X88754819Y-61091666D02*
X88754819Y-60996428D01*
X88754819Y-60996428D02*
X88707200Y-60853571D01*
X88707200Y-60853571D02*
X88611961Y-60758333D01*
X88611961Y-60758333D02*
X88516723Y-60710714D01*
X88516723Y-60710714D02*
X88326247Y-60663095D01*
X88326247Y-60663095D02*
X88183390Y-60663095D01*
X88183390Y-60663095D02*
X87992914Y-60710714D01*
X87992914Y-60710714D02*
X87897676Y-60758333D01*
X87897676Y-60758333D02*
X87802438Y-60853571D01*
X87802438Y-60853571D02*
X87754819Y-60996428D01*
X87754819Y-60996428D02*
X87754819Y-61091666D01*
X87754819Y-61091666D02*
X87802438Y-61234523D01*
X87802438Y-61234523D02*
X87850057Y-61282142D01*
X88183390Y-61853571D02*
X88135771Y-61758333D01*
X88135771Y-61758333D02*
X88088152Y-61710714D01*
X88088152Y-61710714D02*
X87992914Y-61663095D01*
X87992914Y-61663095D02*
X87945295Y-61663095D01*
X87945295Y-61663095D02*
X87850057Y-61710714D01*
X87850057Y-61710714D02*
X87802438Y-61758333D01*
X87802438Y-61758333D02*
X87754819Y-61853571D01*
X87754819Y-61853571D02*
X87754819Y-62044047D01*
X87754819Y-62044047D02*
X87802438Y-62139285D01*
X87802438Y-62139285D02*
X87850057Y-62186904D01*
X87850057Y-62186904D02*
X87945295Y-62234523D01*
X87945295Y-62234523D02*
X87992914Y-62234523D01*
X87992914Y-62234523D02*
X88088152Y-62186904D01*
X88088152Y-62186904D02*
X88135771Y-62139285D01*
X88135771Y-62139285D02*
X88183390Y-62044047D01*
X88183390Y-62044047D02*
X88183390Y-61853571D01*
X88183390Y-61853571D02*
X88231009Y-61758333D01*
X88231009Y-61758333D02*
X88278628Y-61710714D01*
X88278628Y-61710714D02*
X88373866Y-61663095D01*
X88373866Y-61663095D02*
X88564342Y-61663095D01*
X88564342Y-61663095D02*
X88659580Y-61710714D01*
X88659580Y-61710714D02*
X88707200Y-61758333D01*
X88707200Y-61758333D02*
X88754819Y-61853571D01*
X88754819Y-61853571D02*
X88754819Y-62044047D01*
X88754819Y-62044047D02*
X88707200Y-62139285D01*
X88707200Y-62139285D02*
X88659580Y-62186904D01*
X88659580Y-62186904D02*
X88564342Y-62234523D01*
X88564342Y-62234523D02*
X88373866Y-62234523D01*
X88373866Y-62234523D02*
X88278628Y-62186904D01*
X88278628Y-62186904D02*
X88231009Y-62139285D01*
X88231009Y-62139285D02*
X88183390Y-62044047D01*
X112459580Y-61282142D02*
X112507200Y-61234523D01*
X112507200Y-61234523D02*
X112554819Y-61091666D01*
X112554819Y-61091666D02*
X112554819Y-60996428D01*
X112554819Y-60996428D02*
X112507200Y-60853571D01*
X112507200Y-60853571D02*
X112411961Y-60758333D01*
X112411961Y-60758333D02*
X112316723Y-60710714D01*
X112316723Y-60710714D02*
X112126247Y-60663095D01*
X112126247Y-60663095D02*
X111983390Y-60663095D01*
X111983390Y-60663095D02*
X111792914Y-60710714D01*
X111792914Y-60710714D02*
X111697676Y-60758333D01*
X111697676Y-60758333D02*
X111602438Y-60853571D01*
X111602438Y-60853571D02*
X111554819Y-60996428D01*
X111554819Y-60996428D02*
X111554819Y-61091666D01*
X111554819Y-61091666D02*
X111602438Y-61234523D01*
X111602438Y-61234523D02*
X111650057Y-61282142D01*
X111554819Y-61615476D02*
X111554819Y-62234523D01*
X111554819Y-62234523D02*
X111935771Y-61901190D01*
X111935771Y-61901190D02*
X111935771Y-62044047D01*
X111935771Y-62044047D02*
X111983390Y-62139285D01*
X111983390Y-62139285D02*
X112031009Y-62186904D01*
X112031009Y-62186904D02*
X112126247Y-62234523D01*
X112126247Y-62234523D02*
X112364342Y-62234523D01*
X112364342Y-62234523D02*
X112459580Y-62186904D01*
X112459580Y-62186904D02*
X112507200Y-62139285D01*
X112507200Y-62139285D02*
X112554819Y-62044047D01*
X112554819Y-62044047D02*
X112554819Y-61758333D01*
X112554819Y-61758333D02*
X112507200Y-61663095D01*
X112507200Y-61663095D02*
X112459580Y-61615476D01*
X111983390Y-62805952D02*
X111935771Y-62710714D01*
X111935771Y-62710714D02*
X111888152Y-62663095D01*
X111888152Y-62663095D02*
X111792914Y-62615476D01*
X111792914Y-62615476D02*
X111745295Y-62615476D01*
X111745295Y-62615476D02*
X111650057Y-62663095D01*
X111650057Y-62663095D02*
X111602438Y-62710714D01*
X111602438Y-62710714D02*
X111554819Y-62805952D01*
X111554819Y-62805952D02*
X111554819Y-62996428D01*
X111554819Y-62996428D02*
X111602438Y-63091666D01*
X111602438Y-63091666D02*
X111650057Y-63139285D01*
X111650057Y-63139285D02*
X111745295Y-63186904D01*
X111745295Y-63186904D02*
X111792914Y-63186904D01*
X111792914Y-63186904D02*
X111888152Y-63139285D01*
X111888152Y-63139285D02*
X111935771Y-63091666D01*
X111935771Y-63091666D02*
X111983390Y-62996428D01*
X111983390Y-62996428D02*
X111983390Y-62805952D01*
X111983390Y-62805952D02*
X112031009Y-62710714D01*
X112031009Y-62710714D02*
X112078628Y-62663095D01*
X112078628Y-62663095D02*
X112173866Y-62615476D01*
X112173866Y-62615476D02*
X112364342Y-62615476D01*
X112364342Y-62615476D02*
X112459580Y-62663095D01*
X112459580Y-62663095D02*
X112507200Y-62710714D01*
X112507200Y-62710714D02*
X112554819Y-62805952D01*
X112554819Y-62805952D02*
X112554819Y-62996428D01*
X112554819Y-62996428D02*
X112507200Y-63091666D01*
X112507200Y-63091666D02*
X112459580Y-63139285D01*
X112459580Y-63139285D02*
X112364342Y-63186904D01*
X112364342Y-63186904D02*
X112173866Y-63186904D01*
X112173866Y-63186904D02*
X112078628Y-63139285D01*
X112078628Y-63139285D02*
X112031009Y-63091666D01*
X112031009Y-63091666D02*
X111983390Y-62996428D01*
X100559580Y-61282142D02*
X100607200Y-61234523D01*
X100607200Y-61234523D02*
X100654819Y-61091666D01*
X100654819Y-61091666D02*
X100654819Y-60996428D01*
X100654819Y-60996428D02*
X100607200Y-60853571D01*
X100607200Y-60853571D02*
X100511961Y-60758333D01*
X100511961Y-60758333D02*
X100416723Y-60710714D01*
X100416723Y-60710714D02*
X100226247Y-60663095D01*
X100226247Y-60663095D02*
X100083390Y-60663095D01*
X100083390Y-60663095D02*
X99892914Y-60710714D01*
X99892914Y-60710714D02*
X99797676Y-60758333D01*
X99797676Y-60758333D02*
X99702438Y-60853571D01*
X99702438Y-60853571D02*
X99654819Y-60996428D01*
X99654819Y-60996428D02*
X99654819Y-61091666D01*
X99654819Y-61091666D02*
X99702438Y-61234523D01*
X99702438Y-61234523D02*
X99750057Y-61282142D01*
X99750057Y-61663095D02*
X99702438Y-61710714D01*
X99702438Y-61710714D02*
X99654819Y-61805952D01*
X99654819Y-61805952D02*
X99654819Y-62044047D01*
X99654819Y-62044047D02*
X99702438Y-62139285D01*
X99702438Y-62139285D02*
X99750057Y-62186904D01*
X99750057Y-62186904D02*
X99845295Y-62234523D01*
X99845295Y-62234523D02*
X99940533Y-62234523D01*
X99940533Y-62234523D02*
X100083390Y-62186904D01*
X100083390Y-62186904D02*
X100654819Y-61615476D01*
X100654819Y-61615476D02*
X100654819Y-62234523D01*
X100083390Y-62805952D02*
X100035771Y-62710714D01*
X100035771Y-62710714D02*
X99988152Y-62663095D01*
X99988152Y-62663095D02*
X99892914Y-62615476D01*
X99892914Y-62615476D02*
X99845295Y-62615476D01*
X99845295Y-62615476D02*
X99750057Y-62663095D01*
X99750057Y-62663095D02*
X99702438Y-62710714D01*
X99702438Y-62710714D02*
X99654819Y-62805952D01*
X99654819Y-62805952D02*
X99654819Y-62996428D01*
X99654819Y-62996428D02*
X99702438Y-63091666D01*
X99702438Y-63091666D02*
X99750057Y-63139285D01*
X99750057Y-63139285D02*
X99845295Y-63186904D01*
X99845295Y-63186904D02*
X99892914Y-63186904D01*
X99892914Y-63186904D02*
X99988152Y-63139285D01*
X99988152Y-63139285D02*
X100035771Y-63091666D01*
X100035771Y-63091666D02*
X100083390Y-62996428D01*
X100083390Y-62996428D02*
X100083390Y-62805952D01*
X100083390Y-62805952D02*
X100131009Y-62710714D01*
X100131009Y-62710714D02*
X100178628Y-62663095D01*
X100178628Y-62663095D02*
X100273866Y-62615476D01*
X100273866Y-62615476D02*
X100464342Y-62615476D01*
X100464342Y-62615476D02*
X100559580Y-62663095D01*
X100559580Y-62663095D02*
X100607200Y-62710714D01*
X100607200Y-62710714D02*
X100654819Y-62805952D01*
X100654819Y-62805952D02*
X100654819Y-62996428D01*
X100654819Y-62996428D02*
X100607200Y-63091666D01*
X100607200Y-63091666D02*
X100559580Y-63139285D01*
X100559580Y-63139285D02*
X100464342Y-63186904D01*
X100464342Y-63186904D02*
X100273866Y-63186904D01*
X100273866Y-63186904D02*
X100178628Y-63139285D01*
X100178628Y-63139285D02*
X100131009Y-63091666D01*
X100131009Y-63091666D02*
X100083390Y-62996428D01*
X131836035Y-56615387D02*
X131833788Y-56765955D01*
X131833788Y-56765955D02*
X131755133Y-56990684D01*
X131755133Y-56990684D02*
X131678725Y-57064844D01*
X131678725Y-57064844D02*
X131618049Y-57094059D01*
X131618049Y-57094059D02*
X131512427Y-57107542D01*
X131512427Y-57107542D02*
X131422535Y-57076081D01*
X131422535Y-57076081D02*
X131348375Y-56999673D01*
X131348375Y-56999673D02*
X131319160Y-56938996D01*
X131319160Y-56938996D02*
X131305676Y-56833374D01*
X131305676Y-56833374D02*
X131323654Y-56637861D01*
X131323654Y-56637861D02*
X131310171Y-56532238D01*
X131310171Y-56532238D02*
X131280956Y-56471562D01*
X131280956Y-56471562D02*
X131206796Y-56395154D01*
X131206796Y-56395154D02*
X131116904Y-56363692D01*
X131116904Y-56363692D02*
X131011282Y-56377176D01*
X131011282Y-56377176D02*
X130950606Y-56406391D01*
X130950606Y-56406391D02*
X130874198Y-56480551D01*
X130874198Y-56480551D02*
X130795543Y-56705280D01*
X130795543Y-56705280D02*
X130793296Y-56855847D01*
X131377590Y-58069379D02*
X131566362Y-57530031D01*
X131471976Y-57799705D02*
X130528117Y-57469356D01*
X130528117Y-57469356D02*
X130694416Y-57426657D01*
X130694416Y-57426657D02*
X130815769Y-57368228D01*
X130815769Y-57368228D02*
X130892177Y-57294067D01*
X107785713Y-64761108D02*
X106784634Y-64761108D01*
X106784634Y-64761108D02*
X106784634Y-65142471D01*
X106784634Y-65142471D02*
X106832304Y-65237812D01*
X106832304Y-65237812D02*
X106879975Y-65285482D01*
X106879975Y-65285482D02*
X106975316Y-65333153D01*
X106975316Y-65333153D02*
X107118327Y-65333153D01*
X107118327Y-65333153D02*
X107213668Y-65285482D01*
X107213668Y-65285482D02*
X107261338Y-65237812D01*
X107261338Y-65237812D02*
X107309009Y-65142471D01*
X107309009Y-65142471D02*
X107309009Y-64761108D01*
X107785713Y-66286561D02*
X107785713Y-65714516D01*
X107785713Y-66000539D02*
X106784634Y-66000539D01*
X106784634Y-66000539D02*
X106927645Y-65905198D01*
X106927645Y-65905198D02*
X107022986Y-65809857D01*
X107022986Y-65809857D02*
X107070657Y-65714516D01*
%TO.C,J1*%
D11*
X90675123Y-77459885D02*
G75*
G02*
X90475123Y-77459885I-100000J0D01*
G01*
X90475123Y-77459885D02*
G75*
G02*
X90675123Y-77459885I100000J0D01*
G01*
D12*
X90118525Y-87870169D02*
X83832424Y-90070298D01*
X87679368Y-74786403D02*
X88607652Y-77438646D01*
X85590374Y-73721729D02*
X78926733Y-76053997D01*
X81151866Y-91008492D02*
X78339169Y-91992933D01*
X78339169Y-91992933D02*
X73433476Y-77976633D01*
X76246176Y-76992190D02*
X73433476Y-77976633D01*
%TO.C,C35*%
D13*
X97357836Y-69956318D02*
X97142164Y-69956318D01*
X97357836Y-69236318D02*
X97142164Y-69236318D01*
%TO.C,C23*%
X84792164Y-62760000D02*
X85007836Y-62760000D01*
X84792164Y-62040000D02*
X85007836Y-62040000D01*
%TO.C,C4*%
X93193873Y-78970703D02*
X92723949Y-77628060D01*
X91476051Y-79571940D02*
X91006127Y-78229297D01*
%TO.C,C34*%
X109007836Y-74660000D02*
X108792164Y-74660000D01*
X109007836Y-73940000D02*
X108792164Y-73940000D01*
D14*
%TO.C,G\u002A\u002A\u002A*%
G36*
X108677176Y-83484749D02*
G01*
X108679790Y-83486259D01*
X108702844Y-83516497D01*
X108706154Y-83557082D01*
X108688220Y-83593260D01*
X108682554Y-83598313D01*
X108647508Y-83610264D01*
X108615931Y-83596779D01*
X108599416Y-83561947D01*
X108599436Y-83539002D01*
X108614106Y-83500936D01*
X108642420Y-83480468D01*
X108677176Y-83484749D01*
G37*
G36*
X109856431Y-85313004D02*
G01*
X109882672Y-85342277D01*
X109886282Y-85381582D01*
X109863559Y-85421522D01*
X109845518Y-85437012D01*
X109815501Y-85445133D01*
X109775898Y-85430077D01*
X109758026Y-85415911D01*
X109744261Y-85381596D01*
X109751634Y-85344635D01*
X109776904Y-85315085D01*
X109816834Y-85303001D01*
X109856431Y-85313004D01*
G37*
G36*
X110048055Y-94013703D02*
G01*
X110072550Y-94038440D01*
X110079036Y-94072133D01*
X110060942Y-94106845D01*
X110049769Y-94115346D01*
X110016269Y-94125991D01*
X110006936Y-94125356D01*
X109972728Y-94108636D01*
X109955487Y-94077290D01*
X109958326Y-94042216D01*
X109984359Y-94014307D01*
X110012120Y-94005861D01*
X110048055Y-94013703D01*
G37*
G36*
X110766439Y-83744491D02*
G01*
X110806089Y-83771407D01*
X110812835Y-83779231D01*
X110826410Y-83808189D01*
X110816881Y-83843204D01*
X110800081Y-83866873D01*
X110765218Y-83883235D01*
X110728029Y-83877794D01*
X110698438Y-83852982D01*
X110686369Y-83811229D01*
X110698053Y-83767322D01*
X110727585Y-83744075D01*
X110766439Y-83744491D01*
G37*
G36*
X110619359Y-86630438D02*
G01*
X110620732Y-86631864D01*
X110636956Y-86667996D01*
X110633150Y-86708509D01*
X110610584Y-86737867D01*
X110590952Y-86747057D01*
X110550968Y-86746242D01*
X110516973Y-86714258D01*
X110510426Y-86703665D01*
X110504142Y-86677103D01*
X110519960Y-86646450D01*
X110543671Y-86622841D01*
X110582531Y-86612320D01*
X110619359Y-86630438D01*
G37*
G36*
X110701880Y-84255762D02*
G01*
X110698563Y-84286810D01*
X110697394Y-84293748D01*
X110697527Y-84320905D01*
X110711524Y-84323520D01*
X110722494Y-84322070D01*
X110724123Y-84337542D01*
X110711488Y-84354441D01*
X110693868Y-84352522D01*
X110681045Y-84332213D01*
X110680750Y-84300175D01*
X110687797Y-84274551D01*
X110697286Y-84252430D01*
X110701880Y-84255762D01*
G37*
G36*
X107653696Y-94011531D02*
G01*
X107677056Y-94038629D01*
X107680479Y-94074695D01*
X107661845Y-94104831D01*
X107642113Y-94117528D01*
X107621143Y-94125991D01*
X107617249Y-94125307D01*
X107593901Y-94109770D01*
X107570121Y-94084052D01*
X107559233Y-94061937D01*
X107563809Y-94050072D01*
X107588154Y-94027927D01*
X107621049Y-94011406D01*
X107648209Y-94009007D01*
X107653696Y-94011531D01*
G37*
G36*
X108823445Y-86994185D02*
G01*
X108854901Y-87025490D01*
X108867525Y-87068476D01*
X108859682Y-87100820D01*
X108835615Y-87137800D01*
X108806035Y-87161767D01*
X108773315Y-87166562D01*
X108737154Y-87143304D01*
X108723481Y-87125218D01*
X108709897Y-87080635D01*
X108710763Y-87032966D01*
X108727123Y-86997398D01*
X108742535Y-86986106D01*
X108782782Y-86979433D01*
X108823445Y-86994185D01*
G37*
G36*
X110088272Y-88095258D02*
G01*
X110093554Y-88100287D01*
X110110093Y-88136309D01*
X110106744Y-88176350D01*
X110084076Y-88205491D01*
X110066117Y-88214287D01*
X110037117Y-88222239D01*
X110025210Y-88219421D01*
X110000051Y-88196305D01*
X109982402Y-88160707D01*
X109980052Y-88125789D01*
X109984848Y-88114566D01*
X110013517Y-88090679D01*
X110052817Y-88082882D01*
X110088272Y-88095258D01*
G37*
G36*
X113366771Y-91746070D02*
G01*
X113366771Y-91746226D01*
X113365222Y-91802619D01*
X113361174Y-91845776D01*
X113355502Y-91866363D01*
X113355140Y-91866679D01*
X113333234Y-91871535D01*
X113289095Y-91873809D01*
X113231853Y-91873011D01*
X113119472Y-91868390D01*
X113114784Y-91752718D01*
X113110097Y-91637046D01*
X113238434Y-91637046D01*
X113366771Y-91637046D01*
X113366771Y-91746070D01*
G37*
G36*
X104827776Y-86997398D02*
G01*
X104840663Y-87017670D01*
X104847508Y-87063186D01*
X104837235Y-87110462D01*
X104811462Y-87144872D01*
X104784698Y-87161402D01*
X104763598Y-87169709D01*
X104749071Y-87164397D01*
X104721637Y-87140006D01*
X104697650Y-87106914D01*
X104687374Y-87077531D01*
X104691196Y-87051346D01*
X104714176Y-87011542D01*
X104750420Y-86985960D01*
X104791197Y-86979584D01*
X104827776Y-86997398D01*
G37*
G36*
X107203968Y-93966558D02*
G01*
X107253223Y-93981327D01*
X107289639Y-94014977D01*
X107303713Y-94059087D01*
X107302194Y-94084582D01*
X107286745Y-94124533D01*
X107248115Y-94154790D01*
X107218117Y-94168678D01*
X107181209Y-94168804D01*
X107144409Y-94141945D01*
X107121908Y-94107643D01*
X107114448Y-94059640D01*
X107126748Y-94013985D01*
X107155945Y-93979859D01*
X107199174Y-93966443D01*
X107203968Y-93966558D01*
G37*
G36*
X108046620Y-93951124D02*
G01*
X108061749Y-93979293D01*
X108069471Y-94027226D01*
X108069134Y-94082194D01*
X108060846Y-94132073D01*
X108044714Y-94164738D01*
X108015991Y-94186304D01*
X107991435Y-94182141D01*
X107964287Y-94149425D01*
X107949314Y-94118916D01*
X107945255Y-94081386D01*
X107951953Y-94025945D01*
X107959909Y-93990512D01*
X107981193Y-93946922D01*
X108010284Y-93933644D01*
X108046620Y-93951124D01*
G37*
G36*
X108297142Y-93953205D02*
G01*
X108310744Y-93968926D01*
X108322823Y-94009529D01*
X108327528Y-94062485D01*
X108324849Y-94117028D01*
X108314779Y-94162389D01*
X108297310Y-94187800D01*
X108267026Y-94196129D01*
X108245470Y-94179434D01*
X108233214Y-94135146D01*
X108229334Y-94061547D01*
X108229392Y-94049515D01*
X108233148Y-93987366D01*
X108244282Y-93952851D01*
X108264908Y-93942591D01*
X108297142Y-93953205D01*
G37*
G36*
X110482267Y-93974037D02*
G01*
X110525663Y-94008481D01*
X110532271Y-94017118D01*
X110555005Y-94059121D01*
X110550935Y-94094912D01*
X110519569Y-94134693D01*
X110511965Y-94142085D01*
X110473603Y-94168699D01*
X110437468Y-94168102D01*
X110393357Y-94140787D01*
X110389392Y-94137550D01*
X110357391Y-94093485D01*
X110355180Y-94044897D01*
X110383228Y-93998352D01*
X110386841Y-93994874D01*
X110433804Y-93969346D01*
X110482267Y-93974037D01*
G37*
G36*
X113235144Y-92039233D02*
G01*
X113358794Y-92043893D01*
X113362994Y-92602219D01*
X113363675Y-92713539D01*
X113364040Y-92836450D01*
X113363951Y-92946380D01*
X113363430Y-93039543D01*
X113362500Y-93112154D01*
X113361185Y-93160428D01*
X113359506Y-93180579D01*
X113346443Y-93190406D01*
X113304105Y-93198099D01*
X113231656Y-93200614D01*
X113111495Y-93200614D01*
X113111495Y-92617593D01*
X113111495Y-92034573D01*
X113235144Y-92039233D01*
G37*
G36*
X109677230Y-93912364D02*
G01*
X109683411Y-93918182D01*
X109698345Y-93952819D01*
X109708148Y-94006075D01*
X109712452Y-94068285D01*
X109710886Y-94129784D01*
X109703083Y-94180906D01*
X109688673Y-94211985D01*
X109669314Y-94227243D01*
X109642145Y-94237674D01*
X109639532Y-94237621D01*
X109613093Y-94227466D01*
X109596573Y-94197178D01*
X109588851Y-94143059D01*
X109588808Y-94061411D01*
X109591426Y-94007986D01*
X109597141Y-93957923D01*
X109606645Y-93928259D01*
X109621388Y-93912364D01*
X109642789Y-93903357D01*
X109677230Y-93912364D01*
G37*
G36*
X105063310Y-86926608D02*
G01*
X105080430Y-86982289D01*
X105086243Y-87066238D01*
X105086243Y-87067458D01*
X105085054Y-87129529D01*
X105080169Y-87168179D01*
X105069531Y-87191724D01*
X105051085Y-87208480D01*
X105039781Y-87215961D01*
X105012375Y-87224655D01*
X104983277Y-87211492D01*
X104967052Y-87196602D01*
X104956034Y-87171768D01*
X104949629Y-87130253D01*
X104945902Y-87064446D01*
X104944567Y-87005016D01*
X104946982Y-86960848D01*
X104954703Y-86934554D01*
X104968895Y-86918746D01*
X104997060Y-86902453D01*
X105035360Y-86899796D01*
X105063310Y-86926608D01*
G37*
G36*
X111900271Y-94804119D02*
G01*
X111911690Y-94811565D01*
X111919477Y-94835281D01*
X111924665Y-94880479D01*
X111928283Y-94952370D01*
X111929263Y-94985864D01*
X111929710Y-95049525D01*
X111928163Y-95098374D01*
X111924795Y-95123884D01*
X111918158Y-95134266D01*
X111890915Y-95147096D01*
X111881705Y-95144595D01*
X111874023Y-95131570D01*
X111870012Y-95102595D01*
X111869039Y-95052367D01*
X111870471Y-94975582D01*
X111871799Y-94932277D01*
X111875179Y-94868684D01*
X111880275Y-94829453D01*
X111887916Y-94809581D01*
X111898932Y-94804068D01*
X111900271Y-94804119D01*
G37*
G36*
X113116805Y-94802535D02*
G01*
X113126566Y-94815348D01*
X113132533Y-94842627D01*
X113135756Y-94890185D01*
X113137286Y-94963833D01*
X113137534Y-95008830D01*
X113136851Y-95070415D01*
X113135053Y-95114998D01*
X113132356Y-95135130D01*
X113127639Y-95139966D01*
X113102576Y-95147096D01*
X113096483Y-95145528D01*
X113088139Y-95132513D01*
X113082964Y-95102242D01*
X113080324Y-95049837D01*
X113079585Y-94970424D01*
X113079597Y-94953520D01*
X113080248Y-94881740D01*
X113082511Y-94835643D01*
X113087240Y-94809996D01*
X113095288Y-94799568D01*
X113107506Y-94799127D01*
X113116805Y-94802535D01*
G37*
G36*
X109162485Y-93876406D02*
G01*
X109168114Y-93879742D01*
X109177247Y-93895512D01*
X109182915Y-93927357D01*
X109185809Y-93980543D01*
X109186620Y-94060341D01*
X109185987Y-94123664D01*
X109182733Y-94188959D01*
X109176409Y-94227724D01*
X109166677Y-94243062D01*
X109158810Y-94246250D01*
X109144050Y-94252369D01*
X109139243Y-94251677D01*
X109116129Y-94243944D01*
X109110640Y-94240981D01*
X109100775Y-94226486D01*
X109094739Y-94196969D01*
X109091717Y-94146812D01*
X109090892Y-94070395D01*
X109092640Y-93989939D01*
X109099518Y-93925898D01*
X109112692Y-93887685D01*
X109133302Y-93872217D01*
X109162485Y-93876406D01*
G37*
G36*
X108526519Y-93840483D02*
G01*
X108529695Y-93843817D01*
X108538531Y-93865483D01*
X108544314Y-93906114D01*
X108547472Y-93970009D01*
X108548429Y-94061466D01*
X108548417Y-94070924D01*
X108547385Y-94147393D01*
X108544931Y-94211287D01*
X108541396Y-94256162D01*
X108537120Y-94275575D01*
X108532420Y-94279464D01*
X108502471Y-94284257D01*
X108471536Y-94267974D01*
X108451855Y-94236261D01*
X108451569Y-94235120D01*
X108447648Y-94199444D01*
X108445757Y-94137792D01*
X108445892Y-94055713D01*
X108448046Y-93958758D01*
X108452214Y-93852478D01*
X108452692Y-93849569D01*
X108469763Y-93835098D01*
X108499642Y-93831219D01*
X108526519Y-93840483D01*
G37*
G36*
X108763819Y-93797978D02*
G01*
X108764639Y-93799072D01*
X108775619Y-93823323D01*
X108782714Y-93863612D01*
X108786506Y-93925204D01*
X108787575Y-94013368D01*
X108786947Y-94078014D01*
X108784789Y-94154471D01*
X108781469Y-94217730D01*
X108777378Y-94258436D01*
X108770262Y-94291201D01*
X108756963Y-94311947D01*
X108733678Y-94314278D01*
X108720143Y-94310610D01*
X108708554Y-94298952D01*
X108700616Y-94273669D01*
X108694579Y-94228679D01*
X108688693Y-94157900D01*
X108685575Y-94108640D01*
X108683183Y-93998775D01*
X108687920Y-93907138D01*
X108699440Y-93838094D01*
X108717396Y-93796007D01*
X108730020Y-93780856D01*
X108744478Y-93776743D01*
X108763819Y-93797978D01*
G37*
G36*
X108524450Y-86850561D02*
G01*
X108537614Y-86870870D01*
X108548319Y-86906196D01*
X108555674Y-86960671D01*
X108560900Y-87040670D01*
X108563603Y-87114520D01*
X108562854Y-87188146D01*
X108556447Y-87240413D01*
X108543551Y-87277155D01*
X108523334Y-87304209D01*
X108503815Y-87319468D01*
X108461810Y-87326976D01*
X108418059Y-87302852D01*
X108415365Y-87300302D01*
X108403821Y-87284339D01*
X108396154Y-87259845D01*
X108391611Y-87220976D01*
X108389438Y-87161893D01*
X108388882Y-87076753D01*
X108389326Y-87005454D01*
X108391515Y-86939197D01*
X108396134Y-86894644D01*
X108403839Y-86866103D01*
X108415287Y-86847881D01*
X108443210Y-86825997D01*
X108483916Y-86822480D01*
X108524450Y-86850561D01*
G37*
G36*
X110464850Y-94801368D02*
G01*
X110475859Y-94809443D01*
X110475970Y-94823346D01*
X110461958Y-94844170D01*
X110426808Y-94846802D01*
X110383228Y-94841672D01*
X110383228Y-94994384D01*
X110382785Y-95063530D01*
X110380605Y-95108937D01*
X110375456Y-95134068D01*
X110366104Y-95144822D01*
X110351319Y-95147096D01*
X110337851Y-95145392D01*
X110327841Y-95135769D01*
X110322294Y-95112217D01*
X110319915Y-95068745D01*
X110319409Y-94999360D01*
X110319409Y-94851624D01*
X110267556Y-94851779D01*
X110228699Y-94846254D01*
X110215703Y-94828001D01*
X110220087Y-94817391D01*
X110240027Y-94808558D01*
X110281076Y-94802953D01*
X110348628Y-94799414D01*
X110386358Y-94798231D01*
X110436998Y-94798003D01*
X110464850Y-94801368D01*
G37*
G36*
X106451158Y-94796145D02*
G01*
X106513271Y-94798782D01*
X106558228Y-94804738D01*
X106578671Y-94813107D01*
X106584102Y-94830986D01*
X106567850Y-94842847D01*
X106523812Y-94847404D01*
X106474309Y-94848811D01*
X106474309Y-94997954D01*
X106474291Y-95010354D01*
X106473065Y-95078058D01*
X106469318Y-95119915D01*
X106462229Y-95141176D01*
X106450975Y-95147096D01*
X106450686Y-95147094D01*
X106439184Y-95140233D01*
X106431386Y-95116743D01*
X106426331Y-95071533D01*
X106423054Y-94999514D01*
X106418467Y-94851933D01*
X106370851Y-94851933D01*
X106335645Y-94846207D01*
X106317828Y-94824012D01*
X106317108Y-94818879D01*
X106321000Y-94806864D01*
X106338839Y-94799970D01*
X106376608Y-94796833D01*
X106440288Y-94796091D01*
X106451158Y-94796145D01*
G37*
G36*
X107531313Y-94799434D02*
G01*
X107587670Y-94802172D01*
X107633091Y-94807336D01*
X107656378Y-94815555D01*
X107662939Y-94828001D01*
X107650719Y-94845898D01*
X107611086Y-94851779D01*
X107559233Y-94851624D01*
X107559233Y-94999360D01*
X107558865Y-95061716D01*
X107556787Y-95108057D01*
X107551700Y-95133740D01*
X107542310Y-95144756D01*
X107527324Y-95147096D01*
X107513637Y-95145306D01*
X107503744Y-95135509D01*
X107498263Y-95111721D01*
X107495913Y-95067972D01*
X107495414Y-94998289D01*
X107495414Y-94849482D01*
X107447550Y-94856507D01*
X107425554Y-94858799D01*
X107404601Y-94852774D01*
X107399686Y-94829166D01*
X107400568Y-94815976D01*
X107407772Y-94804481D01*
X107427711Y-94798853D01*
X107466765Y-94797651D01*
X107531313Y-94799434D01*
G37*
G36*
X112884698Y-94977477D02*
G01*
X112889246Y-95150885D01*
X112784561Y-95144219D01*
X112710203Y-95133379D01*
X112648241Y-95105871D01*
X112609528Y-95060157D01*
X112591148Y-94993971D01*
X112590986Y-94964320D01*
X112649759Y-94964320D01*
X112655911Y-95021046D01*
X112683724Y-95066701D01*
X112717510Y-95087722D01*
X112771475Y-95099232D01*
X112824309Y-95099232D01*
X112824309Y-94972793D01*
X112824309Y-94846355D01*
X112764840Y-94851882D01*
X112719546Y-94862695D01*
X112677089Y-94892336D01*
X112665757Y-94909320D01*
X112649759Y-94964320D01*
X112590986Y-94964320D01*
X112590898Y-94948342D01*
X112612505Y-94884010D01*
X112658350Y-94835648D01*
X112724833Y-94806475D01*
X112808354Y-94799711D01*
X112880150Y-94804068D01*
X112884575Y-94972793D01*
X112884698Y-94977477D01*
G37*
G36*
X105322374Y-86758076D02*
G01*
X105327233Y-86767323D01*
X105333683Y-86801670D01*
X105338125Y-86861474D01*
X105340693Y-86948872D01*
X105341520Y-87066003D01*
X105341229Y-87139576D01*
X105339379Y-87238713D01*
X105335709Y-87309393D01*
X105330085Y-87353753D01*
X105322374Y-87373930D01*
X105298256Y-87388610D01*
X105254189Y-87389701D01*
X105211149Y-87366671D01*
X105207812Y-87363465D01*
X105197909Y-87349568D01*
X105190887Y-87328216D01*
X105186264Y-87294520D01*
X105183559Y-87243588D01*
X105182288Y-87170532D01*
X105181972Y-87070459D01*
X105182262Y-87016241D01*
X105184215Y-86925071D01*
X105187761Y-86850122D01*
X105192615Y-86796619D01*
X105198488Y-86769791D01*
X105208038Y-86757915D01*
X105243933Y-86741269D01*
X105287019Y-86740853D01*
X105322374Y-86758076D01*
G37*
G36*
X109384947Y-93768179D02*
G01*
X109392522Y-93778646D01*
X109399832Y-93800280D01*
X109404850Y-93835452D01*
X109407959Y-93888751D01*
X109409544Y-93964769D01*
X109409987Y-94068097D01*
X109409820Y-94121714D01*
X109408121Y-94223158D01*
X109404480Y-94295676D01*
X109398765Y-94341315D01*
X109390841Y-94362121D01*
X109379897Y-94371034D01*
X109354145Y-94381267D01*
X109340048Y-94379650D01*
X109324447Y-94369964D01*
X109313214Y-94348058D01*
X109305666Y-94309999D01*
X109301121Y-94251850D01*
X109298894Y-94169676D01*
X109298304Y-94059542D01*
X109298419Y-93979692D01*
X109299167Y-93898897D01*
X109301030Y-93841901D01*
X109304482Y-93804090D01*
X109309995Y-93780850D01*
X109318045Y-93767566D01*
X109329105Y-93759624D01*
X109356042Y-93751866D01*
X109384947Y-93768179D01*
G37*
G36*
X107248601Y-86436326D02*
G01*
X107253906Y-86442940D01*
X107260618Y-86455685D01*
X107266021Y-86474706D01*
X107270286Y-86503205D01*
X107273585Y-86544388D01*
X107276089Y-86601458D01*
X107277970Y-86677621D01*
X107279400Y-86776079D01*
X107280549Y-86900039D01*
X107281590Y-87052704D01*
X107285216Y-87636635D01*
X107247447Y-87674403D01*
X107234460Y-87686884D01*
X107201811Y-87708391D01*
X107172438Y-87703811D01*
X107135707Y-87673010D01*
X107096545Y-87633848D01*
X107096545Y-87055791D01*
X107096547Y-87006708D01*
X107096632Y-86864755D01*
X107096978Y-86750463D01*
X107097770Y-86660572D01*
X107099192Y-86591824D01*
X107101427Y-86540958D01*
X107104659Y-86504717D01*
X107109072Y-86479840D01*
X107114850Y-86463069D01*
X107122176Y-86451144D01*
X107131236Y-86440807D01*
X107169307Y-86411225D01*
X107209255Y-86408070D01*
X107248601Y-86436326D01*
G37*
G36*
X107873312Y-86438571D02*
G01*
X107910238Y-86473261D01*
X107910238Y-87053555D01*
X107910238Y-87633848D01*
X107871237Y-87672849D01*
X107870375Y-87673706D01*
X107831877Y-87699802D01*
X107792899Y-87697794D01*
X107746702Y-87667387D01*
X107742145Y-87662799D01*
X107735715Y-87651894D01*
X107730578Y-87634163D01*
X107726589Y-87606471D01*
X107723607Y-87565683D01*
X107721488Y-87508663D01*
X107720089Y-87432275D01*
X107719267Y-87333385D01*
X107718879Y-87208856D01*
X107718781Y-87055553D01*
X107718782Y-87036399D01*
X107718861Y-86887254D01*
X107719193Y-86766446D01*
X107719941Y-86670773D01*
X107721270Y-86597031D01*
X107723346Y-86542019D01*
X107726333Y-86502532D01*
X107730396Y-86475369D01*
X107735700Y-86457326D01*
X107742410Y-86445201D01*
X107750691Y-86435790D01*
X107786840Y-86410001D01*
X107828318Y-86408840D01*
X107873312Y-86438571D01*
G37*
G36*
X108966046Y-93675668D02*
G01*
X108968419Y-93683529D01*
X108971950Y-93719046D01*
X108974857Y-93777768D01*
X108977117Y-93854227D01*
X108978708Y-93942956D01*
X108979607Y-94038487D01*
X108979792Y-94135353D01*
X108979240Y-94228087D01*
X108977929Y-94311220D01*
X108975836Y-94379286D01*
X108972940Y-94426817D01*
X108969217Y-94448345D01*
X108957046Y-94456027D01*
X108925850Y-94457964D01*
X108920069Y-94457029D01*
X108910686Y-94453408D01*
X108903618Y-94444267D01*
X108898536Y-94425837D01*
X108895114Y-94394347D01*
X108893022Y-94346027D01*
X108891934Y-94277107D01*
X108891522Y-94183819D01*
X108891457Y-94062390D01*
X108891457Y-94055315D01*
X108891600Y-93935124D01*
X108892198Y-93842888D01*
X108893532Y-93774847D01*
X108895883Y-93727244D01*
X108899531Y-93696317D01*
X108904758Y-93678310D01*
X108911845Y-93669461D01*
X108921073Y-93666013D01*
X108938814Y-93665310D01*
X108966046Y-93675668D01*
G37*
G36*
X106288601Y-86576921D02*
G01*
X106291127Y-86579928D01*
X106298297Y-86592578D01*
X106303808Y-86612163D01*
X106307820Y-86642248D01*
X106310493Y-86686401D01*
X106311989Y-86748190D01*
X106312468Y-86831181D01*
X106312091Y-86938943D01*
X106311017Y-87075043D01*
X106306784Y-87543718D01*
X106268600Y-87562748D01*
X106237789Y-87572945D01*
X106204781Y-87572949D01*
X106201571Y-87571822D01*
X106183755Y-87563811D01*
X106169698Y-87551703D01*
X106158956Y-87532023D01*
X106151086Y-87501293D01*
X106145644Y-87456037D01*
X106142184Y-87392779D01*
X106140262Y-87308041D01*
X106139435Y-87198347D01*
X106139258Y-87060221D01*
X106139259Y-87055598D01*
X106139450Y-86922302D01*
X106140135Y-86817197D01*
X106141512Y-86736677D01*
X106143778Y-86677136D01*
X106147129Y-86634968D01*
X106151762Y-86606569D01*
X106157875Y-86588331D01*
X106165663Y-86576650D01*
X106200414Y-86553207D01*
X106246806Y-86551187D01*
X106288601Y-86576921D01*
G37*
G36*
X104856384Y-95025473D02*
G01*
X104830246Y-95081930D01*
X104781347Y-95124831D01*
X104769007Y-95131068D01*
X104700039Y-95147541D01*
X104631998Y-95136961D01*
X104574463Y-95100459D01*
X104550341Y-95072996D01*
X104532398Y-95034006D01*
X104527826Y-94980237D01*
X104529149Y-94956259D01*
X104578696Y-94956259D01*
X104584651Y-95011096D01*
X104614852Y-95060070D01*
X104663256Y-95092119D01*
X104713058Y-95097154D01*
X104756564Y-95076909D01*
X104787366Y-95034423D01*
X104799057Y-94972733D01*
X104787897Y-94911849D01*
X104756036Y-94869080D01*
X104708245Y-94850328D01*
X104649308Y-94859218D01*
X104632986Y-94867082D01*
X104595352Y-94905080D01*
X104578696Y-94956259D01*
X104529149Y-94956259D01*
X104529491Y-94950057D01*
X104550357Y-94879041D01*
X104592381Y-94828754D01*
X104652095Y-94802301D01*
X104726033Y-94802785D01*
X104758846Y-94812689D01*
X104810991Y-94849068D01*
X104845480Y-94901612D01*
X104861037Y-94962890D01*
X104860305Y-94972733D01*
X104856384Y-95025473D01*
G37*
G36*
X109573072Y-95031904D02*
G01*
X109531243Y-95092850D01*
X109501133Y-95120081D01*
X109461450Y-95141472D01*
X109413734Y-95147096D01*
X109352978Y-95136157D01*
X109299546Y-95102533D01*
X109262685Y-95052854D01*
X109246789Y-95001657D01*
X109305621Y-95001657D01*
X109329930Y-95055361D01*
X109343291Y-95070137D01*
X109389291Y-95097108D01*
X109436960Y-95097912D01*
X109479467Y-95075491D01*
X109509981Y-95032790D01*
X109521671Y-94972752D01*
X109521062Y-94953551D01*
X109509907Y-94910185D01*
X109479632Y-94877023D01*
X109438561Y-94851823D01*
X109393093Y-94847238D01*
X109347450Y-94871876D01*
X109330063Y-94889772D01*
X109306038Y-94942552D01*
X109305621Y-95001657D01*
X109246789Y-95001657D01*
X109244378Y-94993892D01*
X109246607Y-94932416D01*
X109271354Y-94875199D01*
X109320601Y-94829011D01*
X109379012Y-94802287D01*
X109438550Y-94800701D01*
X109502125Y-94828068D01*
X109529282Y-94847891D01*
X109571361Y-94902786D01*
X109586201Y-94966337D01*
X109584916Y-94972752D01*
X109573072Y-95031904D01*
G37*
G36*
X103919046Y-94990109D02*
G01*
X103919287Y-95053419D01*
X103917783Y-95101471D01*
X103914704Y-95125956D01*
X103913016Y-95129021D01*
X103886707Y-95142288D01*
X103836675Y-95147096D01*
X103815888Y-95146696D01*
X103729096Y-95133078D01*
X103667426Y-95099946D01*
X103630616Y-95047091D01*
X103622381Y-94998011D01*
X103681458Y-94998011D01*
X103698568Y-95050015D01*
X103730717Y-95083614D01*
X103763423Y-95094178D01*
X103808813Y-95099232D01*
X103857726Y-95099232D01*
X103857726Y-94971594D01*
X103857725Y-94960915D01*
X103856729Y-94898459D01*
X103850783Y-94862222D01*
X103835392Y-94847188D01*
X103806060Y-94848343D01*
X103758291Y-94860671D01*
X103733288Y-94868905D01*
X103701811Y-94890666D01*
X103685112Y-94928390D01*
X103682698Y-94938873D01*
X103681458Y-94998011D01*
X103622381Y-94998011D01*
X103618404Y-94974307D01*
X103622595Y-94935817D01*
X103651060Y-94874266D01*
X103702677Y-94828749D01*
X103773036Y-94802502D01*
X103857726Y-94798761D01*
X103913568Y-94804068D01*
X103918192Y-94954442D01*
X103918603Y-94971594D01*
X103919046Y-94990109D01*
G37*
G36*
X105588879Y-86547765D02*
G01*
X105609815Y-86550825D01*
X105626223Y-86559909D01*
X105638655Y-86578252D01*
X105647662Y-86609089D01*
X105653795Y-86655658D01*
X105657606Y-86721192D01*
X105659645Y-86808929D01*
X105660465Y-86922104D01*
X105660615Y-87063952D01*
X105660579Y-87112129D01*
X105659922Y-87249703D01*
X105658375Y-87358358D01*
X105655845Y-87440375D01*
X105652245Y-87498038D01*
X105647483Y-87533630D01*
X105641470Y-87549433D01*
X105640197Y-87550658D01*
X105602539Y-87566787D01*
X105555629Y-87563677D01*
X105514290Y-87542174D01*
X105510338Y-87538280D01*
X105502587Y-87526922D01*
X105496601Y-87509311D01*
X105492153Y-87481781D01*
X105489018Y-87440669D01*
X105486972Y-87382307D01*
X105485789Y-87303032D01*
X105485244Y-87199178D01*
X105485113Y-87067080D01*
X105485126Y-87029105D01*
X105485585Y-86893843D01*
X105487101Y-86786494D01*
X105490213Y-86703855D01*
X105495461Y-86642720D01*
X105503385Y-86599886D01*
X105514524Y-86572149D01*
X105529418Y-86556304D01*
X105548606Y-86549147D01*
X105572629Y-86547473D01*
X105588879Y-86547765D01*
G37*
G36*
X106173219Y-95013659D02*
G01*
X106146898Y-95075321D01*
X106105484Y-95121079D01*
X106087812Y-95131618D01*
X106024112Y-95147570D01*
X105957110Y-95136904D01*
X105896200Y-95100540D01*
X105887752Y-95092853D01*
X105859523Y-95060891D01*
X105846959Y-95026155D01*
X105844198Y-94976057D01*
X105894850Y-94976057D01*
X105903563Y-95029483D01*
X105932657Y-95071187D01*
X105940349Y-95077014D01*
X105990509Y-95097709D01*
X106038247Y-95093022D01*
X106079093Y-95068503D01*
X106108576Y-95029702D01*
X106122226Y-94982171D01*
X106115571Y-94931459D01*
X106084142Y-94883117D01*
X106046051Y-94852939D01*
X106007069Y-94845967D01*
X105956836Y-94862331D01*
X105933445Y-94878271D01*
X105905237Y-94921967D01*
X105894850Y-94976057D01*
X105844198Y-94976057D01*
X105844095Y-94974188D01*
X105845748Y-94934747D01*
X105856970Y-94889714D01*
X105882545Y-94853462D01*
X105919252Y-94824000D01*
X105980869Y-94802864D01*
X106044860Y-94806289D01*
X106103835Y-94832061D01*
X106150402Y-94877963D01*
X106177172Y-94941781D01*
X106178595Y-94950732D01*
X106175909Y-94982171D01*
X106173219Y-95013659D01*
G37*
G36*
X108193874Y-86652084D02*
G01*
X108198476Y-86655376D01*
X108208535Y-86664445D01*
X108216130Y-86677437D01*
X108221607Y-86698349D01*
X108225312Y-86731182D01*
X108227591Y-86779931D01*
X108228790Y-86848595D01*
X108229256Y-86941173D01*
X108229334Y-87061663D01*
X108229317Y-87100633D01*
X108228926Y-87214844D01*
X108227829Y-87302254D01*
X108225774Y-87366813D01*
X108222508Y-87412474D01*
X108217780Y-87443188D01*
X108211338Y-87462907D01*
X108202929Y-87475582D01*
X108179915Y-87494904D01*
X108138277Y-87502516D01*
X108089291Y-87479923D01*
X108085051Y-87476897D01*
X108074876Y-87467854D01*
X108067194Y-87455001D01*
X108061653Y-87434323D01*
X108057904Y-87401808D01*
X108055598Y-87353439D01*
X108054383Y-87285204D01*
X108053911Y-87193088D01*
X108053831Y-87073076D01*
X108053958Y-86955891D01*
X108054557Y-86862359D01*
X108055945Y-86792688D01*
X108058437Y-86742790D01*
X108062347Y-86708576D01*
X108067991Y-86685958D01*
X108075684Y-86670848D01*
X108085741Y-86659156D01*
X108115928Y-86635137D01*
X108151126Y-86630184D01*
X108193874Y-86652084D01*
G37*
G36*
X105927886Y-86119380D02*
G01*
X105963306Y-86140084D01*
X105964139Y-86141327D01*
X105968498Y-86157486D01*
X105972246Y-86190473D01*
X105975430Y-86242173D01*
X105978093Y-86314470D01*
X105980283Y-86409251D01*
X105982043Y-86528399D01*
X105983420Y-86673801D01*
X105984458Y-86847340D01*
X105985203Y-87050904D01*
X105987688Y-87938332D01*
X105949566Y-87969214D01*
X105913655Y-87988229D01*
X105865883Y-87986398D01*
X105824152Y-87954810D01*
X105822309Y-87951444D01*
X105818021Y-87933159D01*
X105814409Y-87899450D01*
X105811428Y-87848256D01*
X105809031Y-87777517D01*
X105807172Y-87685172D01*
X105805807Y-87569161D01*
X105804888Y-87427424D01*
X105804371Y-87257899D01*
X105804208Y-87058526D01*
X105804208Y-87047958D01*
X105804306Y-86858091D01*
X105804628Y-86697481D01*
X105805243Y-86563603D01*
X105806222Y-86453935D01*
X105807633Y-86365953D01*
X105809545Y-86297133D01*
X105812027Y-86244953D01*
X105815150Y-86206888D01*
X105818981Y-86180416D01*
X105823589Y-86163012D01*
X105829045Y-86152154D01*
X105841982Y-86138252D01*
X105882861Y-86119181D01*
X105927886Y-86119380D01*
G37*
G36*
X108822096Y-94799954D02*
G01*
X108830323Y-94818450D01*
X108834471Y-94857435D01*
X108835615Y-94922590D01*
X108835701Y-94940391D01*
X108838687Y-95007216D01*
X108846679Y-95049767D01*
X108860687Y-95074160D01*
X108880729Y-95087500D01*
X108922102Y-95097965D01*
X108963350Y-95095416D01*
X108990233Y-95079288D01*
X108991783Y-95076118D01*
X108998940Y-95045486D01*
X109005819Y-94994283D01*
X109011118Y-94931707D01*
X109013477Y-94898518D01*
X109020029Y-94843059D01*
X109029016Y-94813069D01*
X109041504Y-94804068D01*
X109051464Y-94808914D01*
X109058357Y-94829549D01*
X109061084Y-94871371D01*
X109060382Y-94939684D01*
X109057334Y-95009104D01*
X109051277Y-95056221D01*
X109040494Y-95087545D01*
X109023225Y-95111198D01*
X108993001Y-95133727D01*
X108936856Y-95148155D01*
X108877746Y-95139495D01*
X108826913Y-95107934D01*
X108816478Y-95096924D01*
X108801109Y-95074350D01*
X108792443Y-95044988D01*
X108788613Y-95000471D01*
X108787751Y-94932432D01*
X108788754Y-94864680D01*
X108792427Y-94822875D01*
X108799746Y-94801862D01*
X108811683Y-94796091D01*
X108822096Y-94799954D01*
G37*
G36*
X109797793Y-94802156D02*
G01*
X109813956Y-94824443D01*
X109821740Y-94872014D01*
X109826646Y-94939684D01*
X109913480Y-94939684D01*
X110000314Y-94939684D01*
X110000314Y-94866558D01*
X110000949Y-94841009D01*
X110007028Y-94806968D01*
X110020257Y-94800048D01*
X110025834Y-94805086D01*
X110034736Y-94834256D01*
X110040930Y-94890771D01*
X110044729Y-94976880D01*
X110045618Y-95015664D01*
X110045789Y-95080576D01*
X110043062Y-95120825D01*
X110036920Y-95141352D01*
X110026841Y-95147096D01*
X110022453Y-95146280D01*
X110005891Y-95123713D01*
X109994245Y-95071311D01*
X109984065Y-94995526D01*
X109905265Y-94992698D01*
X109826465Y-94989870D01*
X109821649Y-95064351D01*
X109818249Y-95098003D01*
X109807818Y-95131443D01*
X109788913Y-95144134D01*
X109786006Y-95144597D01*
X109774749Y-95142491D01*
X109767463Y-95129357D01*
X109763305Y-95099975D01*
X109761430Y-95049127D01*
X109760992Y-94971594D01*
X109761006Y-94953086D01*
X109761672Y-94881508D01*
X109763952Y-94835535D01*
X109768688Y-94809946D01*
X109776727Y-94799523D01*
X109788913Y-94799047D01*
X109797793Y-94802156D01*
G37*
G36*
X107864547Y-94799010D02*
G01*
X107875197Y-94820566D01*
X107878329Y-94867888D01*
X107878329Y-94939684D01*
X107965163Y-94939684D01*
X108051997Y-94939684D01*
X108056903Y-94872014D01*
X108059040Y-94850632D01*
X108069674Y-94813359D01*
X108089730Y-94799047D01*
X108092636Y-94798585D01*
X108103893Y-94800693D01*
X108111179Y-94813828D01*
X108115337Y-94843211D01*
X108117213Y-94894060D01*
X108117650Y-94971594D01*
X108117636Y-94990109D01*
X108116970Y-95061684D01*
X108114691Y-95107655D01*
X108109954Y-95133241D01*
X108101915Y-95143661D01*
X108089730Y-95144134D01*
X108078324Y-95139470D01*
X108064029Y-95115803D01*
X108057133Y-95067179D01*
X108052457Y-94995526D01*
X107965393Y-95000991D01*
X107878329Y-95006456D01*
X107878329Y-95076776D01*
X107877459Y-95105063D01*
X107870319Y-95137514D01*
X107854397Y-95147096D01*
X107846919Y-95145062D01*
X107838686Y-95131827D01*
X107833659Y-95101876D01*
X107831148Y-95050151D01*
X107830465Y-94971594D01*
X107830742Y-94916760D01*
X107832547Y-94856381D01*
X107836631Y-94819515D01*
X107843684Y-94801104D01*
X107854397Y-94796091D01*
X107864547Y-94799010D01*
G37*
G36*
X107154147Y-94801694D02*
G01*
X107194439Y-94826777D01*
X107226843Y-94862666D01*
X107240138Y-94899001D01*
X107239072Y-94913870D01*
X107224487Y-94945642D01*
X107188630Y-94970482D01*
X107126206Y-94992748D01*
X107083465Y-95007854D01*
X107062036Y-95025627D01*
X107056658Y-95052069D01*
X107059347Y-95075458D01*
X107074818Y-95087795D01*
X107112500Y-95089317D01*
X107113076Y-95089297D01*
X107162794Y-95084410D01*
X107204240Y-95075490D01*
X107231694Y-95071434D01*
X107240138Y-95086955D01*
X107231772Y-95105934D01*
X107204240Y-95127623D01*
X107179044Y-95137281D01*
X107117927Y-95146103D01*
X107059585Y-95138456D01*
X107016771Y-95115187D01*
X106996572Y-95089983D01*
X106984062Y-95044944D01*
X107000943Y-95002827D01*
X107045618Y-94966461D01*
X107116488Y-94938673D01*
X107128736Y-94935092D01*
X107165285Y-94916760D01*
X107176319Y-94891509D01*
X107172287Y-94875652D01*
X107147131Y-94854555D01*
X107108393Y-94847738D01*
X107067170Y-94858553D01*
X107042841Y-94869837D01*
X107011393Y-94873564D01*
X107000816Y-94853494D01*
X107010848Y-94837391D01*
X107042684Y-94817763D01*
X107085656Y-94802338D01*
X107128684Y-94796091D01*
X107154147Y-94801694D01*
G37*
G36*
X103332887Y-94804260D02*
G01*
X103394775Y-94815596D01*
X103431062Y-94845029D01*
X103442902Y-94893405D01*
X103433413Y-94931845D01*
X103395054Y-94969871D01*
X103327884Y-94996011D01*
X103321840Y-94997590D01*
X103277301Y-95018033D01*
X103258060Y-95045370D01*
X103267399Y-95075300D01*
X103276808Y-95083852D01*
X103316337Y-95097566D01*
X103361223Y-95094641D01*
X103395201Y-95075103D01*
X103415124Y-95059840D01*
X103438679Y-95070439D01*
X103448506Y-95079962D01*
X103449873Y-95095987D01*
X103426817Y-95118500D01*
X103420020Y-95123587D01*
X103371607Y-95143557D01*
X103317752Y-95145626D01*
X103265881Y-95132606D01*
X103223417Y-95107312D01*
X103197784Y-95072558D01*
X103196405Y-95031158D01*
X103207406Y-95001594D01*
X103224571Y-94980222D01*
X103255573Y-94962641D01*
X103308742Y-94942258D01*
X103339593Y-94929803D01*
X103377804Y-94904663D01*
X103384198Y-94879322D01*
X103358834Y-94853672D01*
X103349900Y-94848913D01*
X103320881Y-94846667D01*
X103280550Y-94864591D01*
X103278497Y-94865755D01*
X103237776Y-94882515D01*
X103213731Y-94876443D01*
X103210104Y-94872161D01*
X103208489Y-94848902D01*
X103230810Y-94826897D01*
X103270591Y-94810501D01*
X103321359Y-94804068D01*
X103332887Y-94804260D01*
G37*
G36*
X107513204Y-86058955D02*
G01*
X107550351Y-86088335D01*
X107553076Y-86092918D01*
X107557948Y-86106329D01*
X107562061Y-86127370D01*
X107565477Y-86158468D01*
X107568260Y-86202051D01*
X107570470Y-86260547D01*
X107572170Y-86336385D01*
X107573422Y-86431992D01*
X107574288Y-86549796D01*
X107574829Y-86692225D01*
X107575109Y-86861707D01*
X107575188Y-87060671D01*
X107575188Y-87997548D01*
X107539729Y-88022385D01*
X107510407Y-88039340D01*
X107468869Y-88044397D01*
X107428863Y-88020817D01*
X107425237Y-88017149D01*
X107419661Y-88008598D01*
X107414959Y-87995188D01*
X107411056Y-87974460D01*
X107407879Y-87943954D01*
X107405353Y-87901211D01*
X107403405Y-87843773D01*
X107401960Y-87769179D01*
X107400943Y-87674972D01*
X107400282Y-87558692D01*
X107399901Y-87417879D01*
X107399727Y-87250075D01*
X107399686Y-87052821D01*
X107399745Y-86858297D01*
X107399973Y-86688933D01*
X107400435Y-86546649D01*
X107401198Y-86429003D01*
X107402328Y-86333557D01*
X107403891Y-86257870D01*
X107405955Y-86199503D01*
X107408584Y-86156014D01*
X107411846Y-86124965D01*
X107415807Y-86103914D01*
X107420533Y-86090424D01*
X107426091Y-86082052D01*
X107427292Y-86080749D01*
X107468570Y-86056244D01*
X107513204Y-86058955D01*
G37*
G36*
X112307495Y-94809614D02*
G01*
X112362478Y-94844243D01*
X112401237Y-94891297D01*
X112405973Y-94900866D01*
X112425427Y-94970340D01*
X112413974Y-95033399D01*
X112371193Y-95092850D01*
X112357143Y-95105802D01*
X112293144Y-95141504D01*
X112223815Y-95146113D01*
X112151953Y-95119294D01*
X112122544Y-95098075D01*
X112109661Y-95071614D01*
X112109604Y-95027691D01*
X112115483Y-94990370D01*
X112133227Y-94963685D01*
X112168303Y-94955609D01*
X112226872Y-94962726D01*
X112231648Y-94963695D01*
X112266087Y-94978440D01*
X112272624Y-94996938D01*
X112253200Y-95012756D01*
X112209755Y-95019458D01*
X112197585Y-95019715D01*
X112167191Y-95026503D01*
X112160731Y-95044666D01*
X112165046Y-95059506D01*
X112191846Y-95087191D01*
X112233656Y-95098018D01*
X112281072Y-95090848D01*
X112324694Y-95064541D01*
X112348943Y-95032302D01*
X112363239Y-94977226D01*
X112353353Y-94921831D01*
X112319582Y-94877023D01*
X112282776Y-94853567D01*
X112237735Y-94846203D01*
X112193156Y-94867380D01*
X112160426Y-94886469D01*
X112132767Y-94888505D01*
X112122299Y-94868297D01*
X112133632Y-94847248D01*
X112165992Y-94823005D01*
X112208452Y-94803864D01*
X112249937Y-94796091D01*
X112250079Y-94796091D01*
X112307495Y-94809614D01*
G37*
G36*
X108478405Y-94808122D02*
G01*
X108534521Y-94834057D01*
X108577005Y-94877261D01*
X108602660Y-94931909D01*
X108608286Y-94992174D01*
X108590687Y-95052229D01*
X108546663Y-95106247D01*
X108543944Y-95108489D01*
X108480201Y-95140917D01*
X108409316Y-95144675D01*
X108338762Y-95119294D01*
X108309264Y-95097985D01*
X108296454Y-95071516D01*
X108296413Y-95027554D01*
X108301130Y-94963616D01*
X108376916Y-94958753D01*
X108395908Y-94957674D01*
X108432874Y-94958343D01*
X108449098Y-94967012D01*
X108452701Y-94986674D01*
X108452116Y-94996013D01*
X108439730Y-95014557D01*
X108404836Y-95019458D01*
X108395375Y-95019652D01*
X108365335Y-95027339D01*
X108356972Y-95049660D01*
X108360914Y-95068376D01*
X108389557Y-95091530D01*
X108446028Y-95099232D01*
X108476636Y-95093959D01*
X108516528Y-95066248D01*
X108541752Y-95022222D01*
X108550005Y-94970359D01*
X108538986Y-94919134D01*
X108506391Y-94877023D01*
X108501801Y-94873463D01*
X108459665Y-94848979D01*
X108420607Y-94848359D01*
X108371891Y-94871038D01*
X108368010Y-94873272D01*
X108334894Y-94887542D01*
X108315605Y-94887680D01*
X108311101Y-94881729D01*
X108312906Y-94857090D01*
X108339169Y-94831776D01*
X108384816Y-94811379D01*
X108411856Y-94805285D01*
X108478405Y-94808122D01*
G37*
G36*
X111088488Y-94805343D02*
G01*
X111144988Y-94836379D01*
X111187100Y-94888802D01*
X111208495Y-94959723D01*
X111211011Y-94985607D01*
X111209428Y-95023802D01*
X111194405Y-95054046D01*
X111160657Y-95090823D01*
X111144805Y-95105387D01*
X111080280Y-95141525D01*
X111011194Y-95146239D01*
X110939390Y-95119294D01*
X110909892Y-95097985D01*
X110897082Y-95071516D01*
X110897042Y-95027554D01*
X110898574Y-95008723D01*
X110905540Y-94977220D01*
X110924587Y-94964064D01*
X110965578Y-94959453D01*
X110977016Y-94958948D01*
X111022034Y-94961368D01*
X111051384Y-94969636D01*
X111063048Y-94980755D01*
X111062802Y-95000282D01*
X111040845Y-95014014D01*
X111003575Y-95015777D01*
X110983740Y-95013687D01*
X110962563Y-95019799D01*
X110957600Y-95044446D01*
X110963530Y-95067688D01*
X110990773Y-95091421D01*
X111031704Y-95100167D01*
X111076953Y-95092582D01*
X111117148Y-95067322D01*
X111138677Y-95030973D01*
X111148853Y-94977807D01*
X111144138Y-94924524D01*
X111124010Y-94885006D01*
X111089290Y-94860208D01*
X111034051Y-94849250D01*
X110979711Y-94867614D01*
X110972547Y-94872165D01*
X110941085Y-94885167D01*
X110919996Y-94876276D01*
X110919439Y-94875703D01*
X110912776Y-94856393D01*
X110933668Y-94834211D01*
X110957638Y-94818995D01*
X111023929Y-94798585D01*
X111088488Y-94805343D01*
G37*
G36*
X111675565Y-94980513D02*
G01*
X111675529Y-94999324D01*
X111674208Y-95070961D01*
X111670540Y-95116363D01*
X111663914Y-95140189D01*
X111653720Y-95147096D01*
X111639691Y-95136935D01*
X111625429Y-95100468D01*
X111615658Y-95043310D01*
X111611842Y-94971594D01*
X111611587Y-94915752D01*
X111571907Y-94963616D01*
X111560282Y-94978130D01*
X111523638Y-95027519D01*
X111488224Y-95079260D01*
X111471373Y-95102578D01*
X111440554Y-95134526D01*
X111416300Y-95147068D01*
X111415055Y-95147052D01*
X111403158Y-95143330D01*
X111395402Y-95129329D01*
X111390927Y-95099643D01*
X111388873Y-95048866D01*
X111388379Y-94971594D01*
X111388656Y-94916760D01*
X111390461Y-94856381D01*
X111394545Y-94819515D01*
X111401599Y-94801104D01*
X111412311Y-94796091D01*
X111423509Y-94800866D01*
X111431287Y-94820635D01*
X111435237Y-94861050D01*
X111436384Y-94927718D01*
X111436524Y-95059345D01*
X111496214Y-94972487D01*
X111548437Y-94899797D01*
X111611746Y-94899797D01*
X111619723Y-94907774D01*
X111627701Y-94899797D01*
X111619723Y-94891820D01*
X111611746Y-94899797D01*
X111548437Y-94899797D01*
X111554703Y-94891075D01*
X111601427Y-94834783D01*
X111635288Y-94805502D01*
X111657013Y-94802463D01*
X111659066Y-94804303D01*
X111668163Y-94832820D01*
X111673697Y-94891887D01*
X111673864Y-94899797D01*
X111675565Y-94980513D01*
G37*
G36*
X104348971Y-94954442D02*
G01*
X104349825Y-94990109D01*
X104350066Y-95053419D01*
X104348562Y-95101471D01*
X104345483Y-95125956D01*
X104339452Y-95135208D01*
X104312938Y-95147096D01*
X104305150Y-95145705D01*
X104292317Y-95127327D01*
X104288505Y-95083277D01*
X104287550Y-95063329D01*
X104275738Y-95026365D01*
X104253143Y-95017344D01*
X104223180Y-95036273D01*
X104189264Y-95083154D01*
X104178822Y-95099846D01*
X104149802Y-95133715D01*
X104124968Y-95146973D01*
X104108838Y-95145505D01*
X104099027Y-95134886D01*
X104107963Y-95109659D01*
X104136349Y-95064756D01*
X104149445Y-95045239D01*
X104164552Y-95018470D01*
X104162729Y-95005747D01*
X104145053Y-94998917D01*
X104136500Y-94995478D01*
X104111682Y-94966803D01*
X104099531Y-94920914D01*
X104101748Y-94891250D01*
X104152784Y-94891250D01*
X104154494Y-94930136D01*
X104157278Y-94934505D01*
X104183716Y-94949460D01*
X104225790Y-94958479D01*
X104288505Y-94964459D01*
X104288505Y-94902500D01*
X104287209Y-94870168D01*
X104279855Y-94849892D01*
X104263268Y-94850226D01*
X104242160Y-94855765D01*
X104201156Y-94859910D01*
X104175966Y-94865357D01*
X104152784Y-94891250D01*
X104101748Y-94891250D01*
X104103450Y-94868482D01*
X104118783Y-94842632D01*
X104160724Y-94815803D01*
X104219968Y-94800173D01*
X104288505Y-94798761D01*
X104344346Y-94804068D01*
X104347373Y-94902500D01*
X104348971Y-94954442D01*
G37*
G36*
X113570830Y-94954442D02*
G01*
X113571685Y-94990109D01*
X113571925Y-95053419D01*
X113570421Y-95101471D01*
X113567342Y-95125956D01*
X113561312Y-95135208D01*
X113534797Y-95147096D01*
X113527010Y-95145705D01*
X113514176Y-95127327D01*
X113510364Y-95083277D01*
X113509409Y-95063329D01*
X113497597Y-95026365D01*
X113475002Y-95017344D01*
X113445039Y-95036273D01*
X113411123Y-95083154D01*
X113400682Y-95099846D01*
X113371661Y-95133715D01*
X113346828Y-95146973D01*
X113331610Y-95145534D01*
X113320822Y-95134203D01*
X113329518Y-95107738D01*
X113358313Y-95061571D01*
X113375480Y-95034544D01*
X113384717Y-95010568D01*
X113374677Y-95003503D01*
X113374541Y-95003502D01*
X113351603Y-94990437D01*
X113328785Y-94959314D01*
X113319428Y-94939076D01*
X113315241Y-94910840D01*
X113369891Y-94910840D01*
X113391843Y-94946522D01*
X113420683Y-94963293D01*
X113463639Y-94971594D01*
X113475278Y-94971442D01*
X113499024Y-94966402D01*
X113508592Y-94947484D01*
X113510364Y-94905687D01*
X113510364Y-94839780D01*
X113451825Y-94849280D01*
X113415340Y-94858144D01*
X113378219Y-94880577D01*
X113369891Y-94910840D01*
X113315241Y-94910840D01*
X113314454Y-94905531D01*
X113327209Y-94864528D01*
X113332711Y-94853226D01*
X113369240Y-94816372D01*
X113428076Y-94798510D01*
X113511436Y-94798851D01*
X113566206Y-94804068D01*
X113569331Y-94905687D01*
X113570830Y-94954442D01*
G37*
G36*
X114004962Y-94971594D02*
G01*
X114004962Y-95080477D01*
X114004962Y-95147096D01*
X113912783Y-95147096D01*
X113868356Y-95145194D01*
X113801904Y-95130168D01*
X113762609Y-95099805D01*
X113749686Y-95053654D01*
X113752143Y-95033290D01*
X113809203Y-95033290D01*
X113814098Y-95068430D01*
X113818526Y-95075475D01*
X113845772Y-95093837D01*
X113894851Y-95099232D01*
X113914753Y-95099103D01*
X113945121Y-95095259D01*
X113955432Y-95080477D01*
X113954120Y-95047379D01*
X113949808Y-95020064D01*
X113934529Y-94998573D01*
X113899269Y-94990675D01*
X113870266Y-94991004D01*
X113829986Y-95005600D01*
X113809203Y-95033290D01*
X113752143Y-95033290D01*
X113753653Y-95020777D01*
X113765509Y-94994062D01*
X113772462Y-94972556D01*
X113761520Y-94925685D01*
X113760067Y-94921808D01*
X113757737Y-94913445D01*
X113818389Y-94913445D01*
X113819746Y-94916486D01*
X113843479Y-94934152D01*
X113892778Y-94939684D01*
X113907361Y-94939599D01*
X113941067Y-94936092D01*
X113954609Y-94922426D01*
X113957098Y-94891820D01*
X113955816Y-94867983D01*
X113944105Y-94848289D01*
X113912283Y-94843955D01*
X113892502Y-94845307D01*
X113848811Y-94859321D01*
X113821525Y-94883945D01*
X113818389Y-94913445D01*
X113757737Y-94913445D01*
X113750284Y-94886694D01*
X113757703Y-94862675D01*
X113786474Y-94834611D01*
X113816556Y-94813349D01*
X113858310Y-94799757D01*
X113918100Y-94796091D01*
X114004962Y-94796091D01*
X114004962Y-94891820D01*
X114004962Y-94971594D01*
G37*
G36*
X106587257Y-86058855D02*
G01*
X106624974Y-86088335D01*
X106627460Y-86092449D01*
X106632385Y-86105600D01*
X106636543Y-86126284D01*
X106639996Y-86156937D01*
X106642809Y-86199998D01*
X106645043Y-86257903D01*
X106646761Y-86333092D01*
X106648027Y-86428001D01*
X106648901Y-86545069D01*
X106649449Y-86686732D01*
X106649731Y-86855429D01*
X106649811Y-87053598D01*
X106649790Y-87232998D01*
X106649667Y-87401668D01*
X106649359Y-87543200D01*
X106648784Y-87660091D01*
X106647859Y-87754839D01*
X106646500Y-87829941D01*
X106644626Y-87887894D01*
X106642152Y-87931194D01*
X106638997Y-87962340D01*
X106635077Y-87983827D01*
X106630310Y-87998154D01*
X106624612Y-88007816D01*
X106617902Y-88015312D01*
X106579804Y-88041219D01*
X106534381Y-88042148D01*
X106489553Y-88011323D01*
X106487451Y-88009086D01*
X106480678Y-88001061D01*
X106474962Y-87991051D01*
X106470231Y-87976564D01*
X106466412Y-87955105D01*
X106463431Y-87924181D01*
X106461216Y-87881298D01*
X106459693Y-87823963D01*
X106458790Y-87749681D01*
X106458433Y-87655959D01*
X106458550Y-87540302D01*
X106459067Y-87400219D01*
X106459912Y-87233213D01*
X106461010Y-87036792D01*
X106461969Y-86871243D01*
X106463067Y-86699261D01*
X106464191Y-86554687D01*
X106465435Y-86435063D01*
X106466890Y-86337929D01*
X106468650Y-86260828D01*
X106470808Y-86201300D01*
X106473456Y-86156888D01*
X106476687Y-86125133D01*
X106480595Y-86103577D01*
X106485271Y-86089762D01*
X106490809Y-86081228D01*
X106497302Y-86075517D01*
X106539537Y-86056020D01*
X106587257Y-86058855D01*
G37*
G36*
X115440892Y-92386920D02*
G01*
X115440892Y-93200614D01*
X115321231Y-93200614D01*
X115201570Y-93200614D01*
X115201570Y-92568986D01*
X115201570Y-91937359D01*
X115077921Y-92088267D01*
X115006271Y-92175717D01*
X114903721Y-92300819D01*
X114818523Y-92404499D01*
X114748870Y-92488768D01*
X114692956Y-92555637D01*
X114648974Y-92607117D01*
X114615119Y-92645217D01*
X114589584Y-92671949D01*
X114570562Y-92689324D01*
X114556249Y-92699351D01*
X114544837Y-92704043D01*
X114534520Y-92705408D01*
X114523492Y-92705459D01*
X114512017Y-92704681D01*
X114499132Y-92700780D01*
X114483785Y-92691774D01*
X114464220Y-92675690D01*
X114438682Y-92650554D01*
X114405414Y-92614392D01*
X114362660Y-92565229D01*
X114308663Y-92501091D01*
X114241668Y-92420005D01*
X114159919Y-92319996D01*
X114061659Y-92199089D01*
X113945132Y-92055312D01*
X113861369Y-91951893D01*
X113861369Y-92576924D01*
X113861369Y-93201956D01*
X113737720Y-93197296D01*
X113614070Y-93192636D01*
X113609935Y-92382931D01*
X113605800Y-91573227D01*
X113737573Y-91573610D01*
X113869346Y-91573993D01*
X114188442Y-91965822D01*
X114229646Y-92016486D01*
X114304809Y-92109273D01*
X114372069Y-92192780D01*
X114428967Y-92263923D01*
X114473040Y-92319619D01*
X114501829Y-92356785D01*
X114512873Y-92372338D01*
X114518588Y-92369000D01*
X114542321Y-92345121D01*
X114582213Y-92301214D01*
X114635869Y-92240021D01*
X114700897Y-92164282D01*
X114774901Y-92076736D01*
X114855489Y-91980125D01*
X115192769Y-91573227D01*
X115316830Y-91573227D01*
X115440892Y-91573227D01*
X115440892Y-92386920D01*
G37*
G36*
X105033136Y-94796578D02*
G01*
X105052563Y-94815635D01*
X105068600Y-94855921D01*
X105071840Y-94868404D01*
X105087325Y-94927618D01*
X105103125Y-94987548D01*
X105122155Y-95059345D01*
X105142018Y-94987548D01*
X105146287Y-94972058D01*
X105162659Y-94911863D01*
X105176513Y-94859910D01*
X105184556Y-94834516D01*
X105202642Y-94807211D01*
X105222859Y-94811198D01*
X105244647Y-94846155D01*
X105267444Y-94911763D01*
X105268583Y-94915714D01*
X105285428Y-94968131D01*
X105300537Y-95005322D01*
X105310759Y-95019458D01*
X105317944Y-95011070D01*
X105330324Y-94978982D01*
X105343051Y-94931097D01*
X105351671Y-94896123D01*
X105372671Y-94835738D01*
X105394741Y-94803509D01*
X105416821Y-94801304D01*
X105421918Y-94812397D01*
X105418902Y-94852503D01*
X105403009Y-94919414D01*
X105387006Y-94976944D01*
X105369524Y-95040130D01*
X105356582Y-95087266D01*
X105356535Y-95087437D01*
X105337319Y-95132390D01*
X105312071Y-95147096D01*
X105305664Y-95146223D01*
X105288905Y-95132191D01*
X105272866Y-95096988D01*
X105254885Y-95035413D01*
X105244436Y-94998554D01*
X105227274Y-94951392D01*
X105212386Y-94925301D01*
X105201896Y-94923497D01*
X105197927Y-94949195D01*
X105195927Y-94966015D01*
X105186828Y-95008491D01*
X105172863Y-95060878D01*
X105160560Y-95098807D01*
X105140432Y-95139243D01*
X105120199Y-95149930D01*
X105098907Y-95130389D01*
X105075602Y-95080140D01*
X105049331Y-94998704D01*
X105043668Y-94978988D01*
X105022492Y-94901381D01*
X105010942Y-94848700D01*
X105008591Y-94816532D01*
X105015015Y-94800466D01*
X105029787Y-94796091D01*
X105033136Y-94796578D01*
G37*
G36*
X112284082Y-92035149D02*
G01*
X112378201Y-92038587D01*
X112459410Y-92044240D01*
X112521399Y-92052079D01*
X112557859Y-92062074D01*
X112562768Y-92064641D01*
X112599326Y-92087137D01*
X112620641Y-92105949D01*
X112620758Y-92106123D01*
X112629037Y-92105521D01*
X112632607Y-92079791D01*
X112632851Y-92035915D01*
X112752512Y-92035915D01*
X112872173Y-92035915D01*
X112872173Y-92618264D01*
X112872173Y-93200614D01*
X112752512Y-93200614D01*
X112632851Y-93200614D01*
X112632851Y-92764639D01*
X112632851Y-92328663D01*
X112594675Y-92292799D01*
X112583733Y-92283031D01*
X112569278Y-92273604D01*
X112549788Y-92266934D01*
X112520784Y-92262654D01*
X112477788Y-92260397D01*
X112416323Y-92259797D01*
X112331909Y-92260486D01*
X112220069Y-92262097D01*
X112117473Y-92263738D01*
X112030810Y-92265581D01*
X111967496Y-92267981D01*
X111923043Y-92271475D01*
X111892964Y-92276600D01*
X111872774Y-92283896D01*
X111857983Y-92293899D01*
X111844107Y-92307146D01*
X111804576Y-92347033D01*
X111799901Y-92769835D01*
X111795226Y-93192636D01*
X111675565Y-93192636D01*
X111555904Y-93192636D01*
X111555904Y-92745903D01*
X111555963Y-92633681D01*
X111556346Y-92525933D01*
X111557333Y-92442688D01*
X111559205Y-92379921D01*
X111562243Y-92333603D01*
X111566727Y-92299707D01*
X111572937Y-92274208D01*
X111581153Y-92253076D01*
X111591655Y-92232285D01*
X111635125Y-92169688D01*
X111713978Y-92103046D01*
X111812997Y-92058502D01*
X111840671Y-92052251D01*
X111904697Y-92044157D01*
X111987361Y-92038430D01*
X112082353Y-92035040D01*
X112183363Y-92033956D01*
X112284082Y-92035149D01*
G37*
G36*
X106941873Y-85405884D02*
G01*
X106943136Y-85407549D01*
X106950031Y-85432689D01*
X106956199Y-85484585D01*
X106961648Y-85563706D01*
X106966388Y-85670519D01*
X106970425Y-85805493D01*
X106973768Y-85969095D01*
X106976426Y-86161794D01*
X106978406Y-86384056D01*
X106979717Y-86636350D01*
X106980366Y-86919143D01*
X106980362Y-87232904D01*
X106979713Y-87578101D01*
X106979543Y-87638906D01*
X106978833Y-87845998D01*
X106977963Y-88023866D01*
X106976886Y-88174629D01*
X106975553Y-88300403D01*
X106973915Y-88403307D01*
X106971925Y-88485458D01*
X106969534Y-88548973D01*
X106966693Y-88595971D01*
X106963353Y-88628569D01*
X106959468Y-88648885D01*
X106954987Y-88659037D01*
X106951842Y-88662523D01*
X106913158Y-88682357D01*
X106865543Y-88681184D01*
X106822581Y-88659008D01*
X106820101Y-88656529D01*
X106815601Y-88649906D01*
X106811635Y-88639460D01*
X106808172Y-88623317D01*
X106805176Y-88599605D01*
X106802614Y-88566451D01*
X106800452Y-88521985D01*
X106798656Y-88464332D01*
X106797193Y-88391620D01*
X106796029Y-88301979D01*
X106795130Y-88193534D01*
X106794462Y-88064413D01*
X106793991Y-87912745D01*
X106793684Y-87736657D01*
X106793506Y-87534276D01*
X106793424Y-87303731D01*
X106793404Y-87043148D01*
X106793406Y-86982395D01*
X106793466Y-86726395D01*
X106793632Y-86500055D01*
X106793932Y-86301532D01*
X106794394Y-86128983D01*
X106795047Y-85980566D01*
X106795918Y-85854437D01*
X106797036Y-85748755D01*
X106798429Y-85661676D01*
X106800125Y-85591358D01*
X106802152Y-85535958D01*
X106804538Y-85493633D01*
X106807312Y-85462541D01*
X106810502Y-85440839D01*
X106814135Y-85426684D01*
X106818241Y-85418234D01*
X106818749Y-85417518D01*
X106855805Y-85389240D01*
X106901179Y-85384929D01*
X106941873Y-85405884D01*
G37*
G36*
X103155716Y-92376284D02*
G01*
X103155705Y-92413295D01*
X103155407Y-92568440D01*
X103154735Y-92713125D01*
X103153728Y-92844285D01*
X103152427Y-92958858D01*
X103150872Y-93053777D01*
X103149102Y-93125979D01*
X103147158Y-93172401D01*
X103145079Y-93189977D01*
X103145052Y-93190004D01*
X103124681Y-93195349D01*
X103081715Y-93199160D01*
X103025418Y-93200614D01*
X102916394Y-93200614D01*
X102914505Y-92973258D01*
X102914268Y-92942651D01*
X102913836Y-92863827D01*
X102913731Y-92798726D01*
X102913954Y-92753408D01*
X102914505Y-92733937D01*
X102911195Y-92730105D01*
X102885498Y-92724269D01*
X102842372Y-92721970D01*
X102841597Y-92721970D01*
X102816951Y-92722532D01*
X102795170Y-92726026D01*
X102772546Y-92735179D01*
X102745371Y-92752718D01*
X102709938Y-92781372D01*
X102662538Y-92823867D01*
X102599463Y-92882932D01*
X102517006Y-92961292D01*
X102265660Y-93200614D01*
X102111055Y-93200614D01*
X102068617Y-93200142D01*
X102012011Y-93197697D01*
X101974211Y-93193636D01*
X101961767Y-93188493D01*
X101971600Y-93177336D01*
X102001731Y-93146535D01*
X102049037Y-93099417D01*
X102110404Y-93039059D01*
X102182718Y-92968537D01*
X102262867Y-92890928D01*
X102558649Y-92605484D01*
X102438370Y-92492770D01*
X102414027Y-92469952D01*
X102290664Y-92354058D01*
X102189436Y-92258453D01*
X102109193Y-92182028D01*
X102048785Y-92123673D01*
X102007061Y-92082278D01*
X101982870Y-92056733D01*
X101975063Y-92045929D01*
X101980524Y-92043282D01*
X102011116Y-92039490D01*
X102062592Y-92036884D01*
X102128055Y-92035915D01*
X102281048Y-92035915D01*
X102522936Y-92267069D01*
X102598133Y-92338813D01*
X102660816Y-92397789D01*
X102707783Y-92440068D01*
X102742856Y-92468435D01*
X102769854Y-92485670D01*
X102792598Y-92494557D01*
X102814910Y-92497877D01*
X102840609Y-92498414D01*
X102916394Y-92498604D01*
X102916394Y-92035915D01*
X102916394Y-91573227D01*
X103036055Y-91573227D01*
X103155716Y-91573227D01*
X103155716Y-92376284D01*
G37*
G36*
X104551809Y-94046226D02*
G01*
X104858997Y-94046288D01*
X105136608Y-94046422D01*
X105386102Y-94046641D01*
X105608935Y-94046961D01*
X105806565Y-94047396D01*
X105980450Y-94047960D01*
X106132048Y-94048669D01*
X106262816Y-94049536D01*
X106374212Y-94050577D01*
X106467693Y-94051806D01*
X106544718Y-94053237D01*
X106606743Y-94054885D01*
X106655227Y-94056765D01*
X106691626Y-94058891D01*
X106717400Y-94061278D01*
X106734005Y-94063940D01*
X106742899Y-94066892D01*
X106745540Y-94070149D01*
X106744621Y-94072144D01*
X106738396Y-94075216D01*
X106725042Y-94077992D01*
X106703100Y-94080487D01*
X106671114Y-94082715D01*
X106627626Y-94084691D01*
X106571177Y-94086430D01*
X106500311Y-94087946D01*
X106413569Y-94089254D01*
X106309494Y-94090368D01*
X106186629Y-94091303D01*
X106043515Y-94092073D01*
X105878696Y-94092693D01*
X105690712Y-94093178D01*
X105478108Y-94093542D01*
X105239424Y-94093800D01*
X104973204Y-94093966D01*
X104677990Y-94094055D01*
X104352324Y-94094081D01*
X104152838Y-94094072D01*
X103845651Y-94094010D01*
X103568040Y-94093876D01*
X103318546Y-94093657D01*
X103095713Y-94093337D01*
X102898083Y-94092902D01*
X102724198Y-94092337D01*
X102572600Y-94091629D01*
X102441832Y-94090761D01*
X102330436Y-94089721D01*
X102236955Y-94088492D01*
X102159930Y-94087061D01*
X102097905Y-94085413D01*
X102049421Y-94083533D01*
X102013021Y-94081407D01*
X101987248Y-94079020D01*
X101970643Y-94076358D01*
X101961749Y-94073405D01*
X101959108Y-94070149D01*
X101960027Y-94068154D01*
X101966252Y-94065082D01*
X101979606Y-94062306D01*
X102001547Y-94059811D01*
X102033533Y-94057583D01*
X102077022Y-94055606D01*
X102133471Y-94053868D01*
X102204337Y-94052352D01*
X102291079Y-94051044D01*
X102395153Y-94049930D01*
X102518019Y-94048995D01*
X102661132Y-94048225D01*
X102825952Y-94047605D01*
X103013935Y-94047120D01*
X103226540Y-94046756D01*
X103465223Y-94046498D01*
X103731443Y-94046332D01*
X104026658Y-94046243D01*
X104352324Y-94046217D01*
X104551809Y-94046226D01*
G37*
G36*
X113519446Y-94046250D02*
G01*
X113802760Y-94046352D01*
X114057298Y-94046538D01*
X114284559Y-94046823D01*
X114486040Y-94047224D01*
X114663240Y-94047756D01*
X114817655Y-94048435D01*
X114950785Y-94049278D01*
X115064127Y-94050299D01*
X115159178Y-94051515D01*
X115237438Y-94052941D01*
X115300403Y-94054594D01*
X115349571Y-94056489D01*
X115386441Y-94058642D01*
X115412510Y-94061068D01*
X115429276Y-94063784D01*
X115438237Y-94066806D01*
X115440892Y-94070149D01*
X115440871Y-94070471D01*
X115437697Y-94073784D01*
X115428078Y-94076777D01*
X115410515Y-94079466D01*
X115383511Y-94081866D01*
X115345568Y-94083995D01*
X115295188Y-94085866D01*
X115230873Y-94087498D01*
X115151126Y-94088904D01*
X115054447Y-94090101D01*
X114939341Y-94091105D01*
X114804308Y-94091932D01*
X114647850Y-94092597D01*
X114468471Y-94093116D01*
X114264671Y-94093506D01*
X114034953Y-94093781D01*
X113777820Y-94093958D01*
X113491773Y-94094053D01*
X113175314Y-94094081D01*
X113144769Y-94094081D01*
X112831182Y-94094047D01*
X112547868Y-94093946D01*
X112293330Y-94093760D01*
X112066069Y-94093475D01*
X111864588Y-94093074D01*
X111687388Y-94092542D01*
X111532972Y-94091862D01*
X111399842Y-94091020D01*
X111286501Y-94089999D01*
X111191449Y-94088783D01*
X111113190Y-94087357D01*
X111050225Y-94085704D01*
X111001057Y-94083809D01*
X110964187Y-94081656D01*
X110938118Y-94079230D01*
X110921351Y-94076513D01*
X110912390Y-94073492D01*
X110909736Y-94070149D01*
X110909757Y-94069826D01*
X110912931Y-94066514D01*
X110922550Y-94063521D01*
X110940113Y-94060832D01*
X110967117Y-94058431D01*
X111005060Y-94056303D01*
X111055440Y-94054431D01*
X111119754Y-94052800D01*
X111199502Y-94051394D01*
X111296180Y-94050197D01*
X111411287Y-94049193D01*
X111546320Y-94048366D01*
X111702777Y-94047701D01*
X111882157Y-94047181D01*
X112085957Y-94046792D01*
X112315674Y-94046516D01*
X112572808Y-94046339D01*
X112858855Y-94046245D01*
X113175314Y-94046217D01*
X113205859Y-94046217D01*
X113519446Y-94046250D01*
G37*
G36*
X106352926Y-92431466D02*
G01*
X106353635Y-92511590D01*
X106353450Y-92618264D01*
X106353335Y-92644203D01*
X106352358Y-92747645D01*
X106350350Y-92825249D01*
X106346896Y-92882013D01*
X106341584Y-92922935D01*
X106333999Y-92953013D01*
X106323727Y-92977247D01*
X106264106Y-93065587D01*
X106179449Y-93138252D01*
X106075543Y-93185706D01*
X106069253Y-93186907D01*
X106032549Y-93189926D01*
X105969864Y-93192705D01*
X105885480Y-93195135D01*
X105783677Y-93197108D01*
X105668737Y-93198513D01*
X105544943Y-93199242D01*
X105054334Y-93200614D01*
X105051675Y-93112862D01*
X105050589Y-93078194D01*
X105048906Y-93028441D01*
X105047686Y-92997190D01*
X105048991Y-92989793D01*
X105056154Y-92983364D01*
X105072459Y-92978224D01*
X105101159Y-92974138D01*
X105145505Y-92970871D01*
X105208750Y-92968188D01*
X105294146Y-92965854D01*
X105404945Y-92963634D01*
X105544399Y-92961292D01*
X105633890Y-92959888D01*
X105763244Y-92957662D01*
X105865769Y-92954909D01*
X105944666Y-92950768D01*
X106003131Y-92944377D01*
X106044363Y-92934874D01*
X106071559Y-92921399D01*
X106087919Y-92903088D01*
X106096640Y-92879081D01*
X106100919Y-92848516D01*
X106103956Y-92810532D01*
X106111300Y-92721970D01*
X105556998Y-92721970D01*
X105002696Y-92721970D01*
X105009079Y-92517136D01*
X105009681Y-92498604D01*
X105241641Y-92498604D01*
X105674495Y-92498604D01*
X106107349Y-92498604D01*
X106107349Y-92427697D01*
X106107280Y-92420526D01*
X106097795Y-92360116D01*
X106068843Y-92312025D01*
X106030338Y-92267259D01*
X105686291Y-92267259D01*
X105342245Y-92267259D01*
X105300247Y-92309257D01*
X105268616Y-92353957D01*
X105249945Y-92424929D01*
X105241641Y-92498604D01*
X105009681Y-92498604D01*
X105009884Y-92492344D01*
X105013488Y-92410771D01*
X105018632Y-92351691D01*
X105026556Y-92307572D01*
X105038503Y-92270881D01*
X105055713Y-92234085D01*
X105059620Y-92226735D01*
X105119029Y-92148015D01*
X105197721Y-92087173D01*
X105286854Y-92051205D01*
X105297277Y-92049181D01*
X105349134Y-92043596D01*
X105423272Y-92039622D01*
X105513673Y-92037204D01*
X105614317Y-92036281D01*
X105719184Y-92036798D01*
X105822257Y-92038697D01*
X105917515Y-92041919D01*
X105998940Y-92046408D01*
X106060512Y-92052105D01*
X106096213Y-92058953D01*
X106183711Y-92100670D01*
X106263434Y-92164278D01*
X106318169Y-92241120D01*
X106318415Y-92241619D01*
X106331116Y-92269341D01*
X106340416Y-92296830D01*
X106346817Y-92329442D01*
X106350820Y-92372536D01*
X106352791Y-92427697D01*
X106352926Y-92431466D01*
G37*
G36*
X104762014Y-92904399D02*
G01*
X104734076Y-93005438D01*
X104681500Y-93086422D01*
X104604651Y-93146856D01*
X104503894Y-93186243D01*
X104497417Y-93187444D01*
X104458351Y-93190733D01*
X104394634Y-93193317D01*
X104311738Y-93195066D01*
X104215137Y-93195850D01*
X104110305Y-93195540D01*
X104030933Y-93194818D01*
X103935684Y-93193537D01*
X103864776Y-93191624D01*
X103813670Y-93188635D01*
X103777827Y-93184127D01*
X103752710Y-93177656D01*
X103733778Y-93168778D01*
X103716493Y-93157051D01*
X103668406Y-93121465D01*
X103663349Y-93157051D01*
X103662569Y-93161973D01*
X103656090Y-93178698D01*
X103639429Y-93187912D01*
X103605348Y-93191823D01*
X103546608Y-93192636D01*
X103434924Y-93192636D01*
X103430793Y-92859054D01*
X103668644Y-92859054D01*
X103675259Y-92902462D01*
X103691824Y-92931176D01*
X103699026Y-92938143D01*
X103712500Y-92946132D01*
X103733363Y-92952047D01*
X103765702Y-92956196D01*
X103813602Y-92958888D01*
X103881152Y-92960429D01*
X103972436Y-92961128D01*
X104091543Y-92961292D01*
X104194945Y-92961193D01*
X104289839Y-92960639D01*
X104360519Y-92959301D01*
X104411133Y-92956850D01*
X104445831Y-92952961D01*
X104468761Y-92947305D01*
X104484074Y-92939554D01*
X104495917Y-92929382D01*
X104518737Y-92895009D01*
X104529507Y-92839036D01*
X104518183Y-92782901D01*
X104485434Y-92738805D01*
X104483377Y-92737199D01*
X104468718Y-92727110D01*
X104451449Y-92719492D01*
X104427383Y-92714062D01*
X104392337Y-92710532D01*
X104342125Y-92708619D01*
X104272562Y-92708037D01*
X104179464Y-92708501D01*
X104058644Y-92709726D01*
X103674246Y-92713993D01*
X103669408Y-92807526D01*
X103668644Y-92859054D01*
X103430793Y-92859054D01*
X103429985Y-92793767D01*
X103428726Y-92661754D01*
X103428924Y-92540307D01*
X103431408Y-92443336D01*
X103436780Y-92366923D01*
X103445645Y-92307146D01*
X103458603Y-92260087D01*
X103476259Y-92221826D01*
X103499216Y-92188442D01*
X103528075Y-92156017D01*
X103553419Y-92130794D01*
X103584843Y-92104374D01*
X103619103Y-92083348D01*
X103659831Y-92067103D01*
X103710662Y-92055032D01*
X103775229Y-92046523D01*
X103857166Y-92040967D01*
X103960107Y-92037754D01*
X104087686Y-92036273D01*
X104243536Y-92035915D01*
X104719284Y-92035915D01*
X104719284Y-92146927D01*
X104719284Y-92257940D01*
X104240981Y-92262599D01*
X103762678Y-92267259D01*
X103722673Y-92307287D01*
X103694110Y-92347897D01*
X103672300Y-92422959D01*
X103661931Y-92498604D01*
X104095391Y-92498604D01*
X104201839Y-92498773D01*
X104321585Y-92499808D01*
X104416240Y-92502238D01*
X104489729Y-92506579D01*
X104545978Y-92513347D01*
X104588912Y-92523057D01*
X104622456Y-92536225D01*
X104650536Y-92553367D01*
X104677077Y-92574997D01*
X104688463Y-92586169D01*
X104729845Y-92650211D01*
X104756910Y-92734258D01*
X104766798Y-92830178D01*
X104766227Y-92839036D01*
X104762014Y-92904399D01*
G37*
G36*
X112018593Y-88663720D02*
G01*
X112005256Y-88729715D01*
X111968119Y-88785446D01*
X111914033Y-88824003D01*
X111849866Y-88840544D01*
X111782483Y-88830227D01*
X111748150Y-88812067D01*
X111704901Y-88776221D01*
X111672418Y-88735641D01*
X111659610Y-88699784D01*
X111644570Y-88668670D01*
X111631052Y-88660063D01*
X111753579Y-88660063D01*
X111760174Y-88703012D01*
X111786200Y-88732716D01*
X111812424Y-88743143D01*
X111859519Y-88743837D01*
X111897716Y-88724099D01*
X111922980Y-88690648D01*
X111931276Y-88650200D01*
X111918570Y-88609472D01*
X111880827Y-88575182D01*
X111857436Y-88563590D01*
X111830208Y-88561467D01*
X111797064Y-88579035D01*
X111795450Y-88580121D01*
X111765607Y-88615291D01*
X111753579Y-88660063D01*
X111631052Y-88660063D01*
X111602713Y-88642019D01*
X111539004Y-88621456D01*
X111458409Y-88608584D01*
X111365894Y-88605005D01*
X111223747Y-88607358D01*
X111111060Y-88711689D01*
X111108566Y-88713992D01*
X111045424Y-88768055D01*
X110978547Y-88815739D01*
X110899162Y-88862743D01*
X110798496Y-88914769D01*
X110769567Y-88929178D01*
X110651355Y-88991616D01*
X110554222Y-89050617D01*
X110470583Y-89111598D01*
X110392851Y-89179976D01*
X110313443Y-89261168D01*
X110281783Y-89296613D01*
X110202309Y-89402560D01*
X110136227Y-89522333D01*
X110113353Y-89571569D01*
X110072104Y-89674251D01*
X110046163Y-89768125D01*
X110032774Y-89864874D01*
X110029182Y-89976177D01*
X110029346Y-89993166D01*
X110043264Y-90153919D01*
X110081170Y-90308681D01*
X110145421Y-90467417D01*
X110158919Y-90496067D01*
X110183820Y-90551017D01*
X110200920Y-90591738D01*
X110207117Y-90611010D01*
X110200013Y-90610648D01*
X110176374Y-90591262D01*
X110140145Y-90555635D01*
X110095460Y-90508362D01*
X110046452Y-90454041D01*
X109997254Y-90397267D01*
X109951999Y-90342637D01*
X109914822Y-90294748D01*
X109889854Y-90258196D01*
X109854604Y-90192541D01*
X109802046Y-90069014D01*
X109758673Y-89934896D01*
X109729121Y-89803308D01*
X109722130Y-89752473D01*
X109719268Y-89585465D01*
X109745540Y-89419458D01*
X109799569Y-89260724D01*
X109879980Y-89115539D01*
X109933554Y-89045253D01*
X109999565Y-88980026D01*
X110080210Y-88922026D01*
X110183794Y-88864389D01*
X110225861Y-88840799D01*
X110334794Y-88755353D01*
X110428612Y-88643031D01*
X110463047Y-88592672D01*
X110762177Y-88583600D01*
X110877959Y-88579839D01*
X110991016Y-88575266D01*
X111078712Y-88570233D01*
X111144625Y-88564307D01*
X111192329Y-88557054D01*
X111225401Y-88548040D01*
X111247418Y-88536832D01*
X111261956Y-88522995D01*
X111268426Y-88515731D01*
X111293808Y-88499820D01*
X111335188Y-88489880D01*
X111400506Y-88483656D01*
X111452680Y-88481291D01*
X111503364Y-88483990D01*
X111546713Y-88495495D01*
X111596474Y-88518234D01*
X111679039Y-88560073D01*
X111713887Y-88527335D01*
X111766997Y-88489228D01*
X111834876Y-88470796D01*
X111903911Y-88483697D01*
X111965212Y-88524110D01*
X112004906Y-88585512D01*
X112016227Y-88650200D01*
X112018593Y-88663720D01*
G37*
G36*
X107942148Y-92830995D02*
G01*
X107942140Y-92861297D01*
X107941856Y-93016006D01*
X107941192Y-93160366D01*
X107940190Y-93291296D01*
X107938888Y-93405718D01*
X107937329Y-93500550D01*
X107935553Y-93572713D01*
X107933600Y-93619127D01*
X107931511Y-93636711D01*
X107931485Y-93636737D01*
X107911113Y-93642083D01*
X107868147Y-93645894D01*
X107811851Y-93647347D01*
X107702826Y-93647347D01*
X107702826Y-93386264D01*
X107702826Y-93125180D01*
X107628326Y-93162897D01*
X107621116Y-93166513D01*
X107594556Y-93178593D01*
X107567362Y-93187428D01*
X107534321Y-93193523D01*
X107490221Y-93197383D01*
X107429849Y-93199515D01*
X107347993Y-93200423D01*
X107239440Y-93200614D01*
X107204766Y-93200571D01*
X107086046Y-93199337D01*
X106992869Y-93195724D01*
X106920173Y-93188831D01*
X106862895Y-93177756D01*
X106815974Y-93161598D01*
X106774347Y-93139456D01*
X106732953Y-93110428D01*
X106712194Y-93091472D01*
X106672507Y-93042201D01*
X106640273Y-92987091D01*
X106629043Y-92961847D01*
X106618407Y-92932016D01*
X106611025Y-92898824D01*
X106606307Y-92856563D01*
X106603665Y-92799522D01*
X106602512Y-92721993D01*
X106602259Y-92618264D01*
X106602418Y-92529924D01*
X106603364Y-92448521D01*
X106605696Y-92388533D01*
X106608893Y-92355707D01*
X106849246Y-92355707D01*
X106849246Y-92619975D01*
X106849246Y-92884243D01*
X106894011Y-92922767D01*
X106894679Y-92923342D01*
X106910015Y-92935776D01*
X106926164Y-92945146D01*
X106947567Y-92951885D01*
X106978668Y-92956428D01*
X107023908Y-92959206D01*
X107087730Y-92960654D01*
X107174578Y-92961205D01*
X107288892Y-92961292D01*
X107359238Y-92961246D01*
X107457576Y-92960802D01*
X107530805Y-92959588D01*
X107583230Y-92957244D01*
X107619151Y-92953411D01*
X107642871Y-92947729D01*
X107658692Y-92939840D01*
X107670917Y-92929382D01*
X107678786Y-92920708D01*
X107688228Y-92904861D01*
X107694825Y-92881696D01*
X107699081Y-92846296D01*
X107701497Y-92793742D01*
X107702578Y-92719117D01*
X107702826Y-92617503D01*
X107702826Y-92337532D01*
X107659689Y-92297554D01*
X107616552Y-92257576D01*
X107277103Y-92262418D01*
X106937655Y-92267259D01*
X106893450Y-92311483D01*
X106849246Y-92355707D01*
X106608893Y-92355707D01*
X106610010Y-92344236D01*
X106616904Y-92309909D01*
X106626974Y-92279827D01*
X106640815Y-92248267D01*
X106648487Y-92232793D01*
X106709492Y-92150003D01*
X106792607Y-92088589D01*
X106894300Y-92051297D01*
X106903374Y-92049520D01*
X106962315Y-92043020D01*
X107048833Y-92038933D01*
X107159452Y-92037372D01*
X107290701Y-92038450D01*
X107318286Y-92038935D01*
X107419792Y-92041000D01*
X107495355Y-92043413D01*
X107549822Y-92046735D01*
X107588040Y-92051522D01*
X107614856Y-92058335D01*
X107635118Y-92067731D01*
X107653672Y-92080268D01*
X107702826Y-92116644D01*
X107702826Y-92076280D01*
X107703272Y-92061812D01*
X107708743Y-92047081D01*
X107725954Y-92039366D01*
X107761627Y-92036400D01*
X107822487Y-92035915D01*
X107942148Y-92035915D01*
X107942148Y-92337532D01*
X107942148Y-92830995D01*
G37*
G36*
X111329386Y-92608762D02*
G01*
X111329678Y-92648541D01*
X111330080Y-92743406D01*
X111329372Y-92813856D01*
X111326970Y-92865450D01*
X111322286Y-92903746D01*
X111314733Y-92934302D01*
X111303725Y-92962677D01*
X111288675Y-92994428D01*
X111245388Y-93065672D01*
X111177628Y-93131125D01*
X111088318Y-93176707D01*
X111056084Y-93184636D01*
X111002542Y-93191026D01*
X110926109Y-93195517D01*
X110823788Y-93198280D01*
X110692584Y-93199489D01*
X110608330Y-93199716D01*
X110516404Y-93199543D01*
X110448291Y-93198414D01*
X110399298Y-93195895D01*
X110364735Y-93191552D01*
X110339908Y-93184951D01*
X110320125Y-93175657D01*
X110300695Y-93163238D01*
X110280207Y-93149451D01*
X110256118Y-93135687D01*
X110247353Y-93139132D01*
X110246616Y-93159249D01*
X110246506Y-93167277D01*
X110241081Y-93181239D01*
X110223163Y-93189559D01*
X110186281Y-93194242D01*
X110123963Y-93197296D01*
X110000314Y-93201956D01*
X110000314Y-92386920D01*
X110000314Y-92325417D01*
X110255590Y-92325417D01*
X110255590Y-92624209D01*
X110255981Y-92711752D01*
X110257921Y-92809367D01*
X110261606Y-92878846D01*
X110267167Y-92922377D01*
X110274736Y-92942146D01*
X110295020Y-92947798D01*
X110341883Y-92952582D01*
X110409486Y-92956289D01*
X110492169Y-92958898D01*
X110584271Y-92960389D01*
X110680130Y-92960743D01*
X110774087Y-92959939D01*
X110860479Y-92957959D01*
X110933647Y-92954781D01*
X110987928Y-92950386D01*
X111017663Y-92944754D01*
X111044868Y-92925406D01*
X111069516Y-92888885D01*
X111072653Y-92876970D01*
X111078276Y-92831135D01*
X111082172Y-92764407D01*
X111084343Y-92684323D01*
X111084791Y-92598418D01*
X111083517Y-92514228D01*
X111080524Y-92439288D01*
X111075812Y-92381133D01*
X111069385Y-92347300D01*
X111068202Y-92344280D01*
X111052699Y-92316977D01*
X111028453Y-92296047D01*
X110991608Y-92280699D01*
X110938312Y-92270141D01*
X110864709Y-92263580D01*
X110766946Y-92260224D01*
X110641169Y-92259282D01*
X110539213Y-92259479D01*
X110459195Y-92260404D01*
X110401567Y-92262525D01*
X110361462Y-92266313D01*
X110334014Y-92272233D01*
X110314358Y-92280756D01*
X110297629Y-92292350D01*
X110255590Y-92325417D01*
X110000314Y-92325417D01*
X110000314Y-91571884D01*
X110123963Y-91576544D01*
X110189995Y-91580891D01*
X110234249Y-91589096D01*
X110249607Y-91601148D01*
X110249960Y-91607628D01*
X110250854Y-91642321D01*
X110251821Y-91699990D01*
X110252767Y-91774480D01*
X110253596Y-91859633D01*
X110255590Y-92098174D01*
X110323398Y-92067395D01*
X110334935Y-92062405D01*
X110363406Y-92052706D01*
X110397518Y-92045730D01*
X110442525Y-92041037D01*
X110503679Y-92038189D01*
X110586233Y-92036745D01*
X110695439Y-92036266D01*
X110820051Y-92037377D01*
X110940217Y-92042715D01*
X111036099Y-92053735D01*
X111111731Y-92071834D01*
X111171149Y-92098411D01*
X111218388Y-92134861D01*
X111257483Y-92182583D01*
X111292470Y-92242973D01*
X111301603Y-92262003D01*
X111311575Y-92289035D01*
X111318690Y-92321242D01*
X111323490Y-92363972D01*
X111326512Y-92422571D01*
X111328298Y-92502385D01*
X111329280Y-92598418D01*
X111329386Y-92608762D01*
G37*
G36*
X109002857Y-91573387D02*
G01*
X109141378Y-91573855D01*
X109253049Y-91575433D01*
X109341795Y-91578654D01*
X109411538Y-91584050D01*
X109466203Y-91592153D01*
X109509713Y-91603495D01*
X109545991Y-91618609D01*
X109578962Y-91638026D01*
X109612547Y-91662280D01*
X109631745Y-91679480D01*
X109671907Y-91727381D01*
X109705383Y-91781098D01*
X109718428Y-91808393D01*
X109732277Y-91846811D01*
X109740347Y-91889839D01*
X109744110Y-91946567D01*
X109745037Y-92026085D01*
X109743128Y-92106187D01*
X109732705Y-92198940D01*
X109711287Y-92271725D01*
X109676715Y-92331071D01*
X109626828Y-92383506D01*
X109603346Y-92403813D01*
X109572148Y-92428333D01*
X109540723Y-92447696D01*
X109505113Y-92462602D01*
X109461357Y-92473754D01*
X109405495Y-92481853D01*
X109333567Y-92487599D01*
X109241612Y-92491695D01*
X109125672Y-92494840D01*
X108981785Y-92497738D01*
X108513696Y-92506581D01*
X108475221Y-92551346D01*
X108468667Y-92559213D01*
X108451835Y-92585136D01*
X108442178Y-92616318D01*
X108437785Y-92661631D01*
X108436746Y-92729948D01*
X108436816Y-92752868D01*
X108438639Y-92813523D01*
X108444374Y-92853773D01*
X108455934Y-92882491D01*
X108475230Y-92908549D01*
X108513714Y-92953315D01*
X108957862Y-92957452D01*
X109015788Y-92957967D01*
X109145888Y-92958690D01*
X109248830Y-92958078D01*
X109328043Y-92955571D01*
X109386956Y-92950606D01*
X109428999Y-92942625D01*
X109457601Y-92931067D01*
X109476190Y-92915371D01*
X109488196Y-92894976D01*
X109497049Y-92869322D01*
X109512315Y-92817699D01*
X109628676Y-92817699D01*
X109745037Y-92817699D01*
X109745037Y-92866076D01*
X109738089Y-92924323D01*
X109704026Y-93007940D01*
X109645623Y-93082935D01*
X109567408Y-93143971D01*
X109473910Y-93185706D01*
X109472646Y-93186040D01*
X109443638Y-93189244D01*
X109387700Y-93192213D01*
X109309351Y-93194823D01*
X109213110Y-93196947D01*
X109103496Y-93198462D01*
X108985029Y-93199242D01*
X108928632Y-93199369D01*
X108787495Y-93198970D01*
X108673110Y-93196925D01*
X108581664Y-93192577D01*
X108509343Y-93185268D01*
X108452333Y-93174339D01*
X108406821Y-93159134D01*
X108368992Y-93138995D01*
X108335033Y-93113263D01*
X108301130Y-93081281D01*
X108284213Y-93063464D01*
X108233009Y-92992878D01*
X108201099Y-92912864D01*
X108186556Y-92816928D01*
X108187449Y-92698577D01*
X108194892Y-92610062D01*
X108208127Y-92535222D01*
X108229479Y-92477362D01*
X108261921Y-92428682D01*
X108308431Y-92381381D01*
X108334532Y-92358147D01*
X108366561Y-92332136D01*
X108398491Y-92311651D01*
X108434322Y-92295942D01*
X108478056Y-92284258D01*
X108533692Y-92275847D01*
X108605231Y-92269957D01*
X108696675Y-92265839D01*
X108812023Y-92262739D01*
X108955276Y-92259908D01*
X108982953Y-92259371D01*
X109100079Y-92256588D01*
X109206291Y-92253266D01*
X109297389Y-92249591D01*
X109369176Y-92245751D01*
X109417453Y-92241933D01*
X109438021Y-92238327D01*
X109446755Y-92231929D01*
X109481445Y-92183387D01*
X109500363Y-92108760D01*
X109503045Y-92009688D01*
X109498767Y-91949327D01*
X109490944Y-91906245D01*
X109476782Y-91875937D01*
X109453220Y-91848502D01*
X109409316Y-91804571D01*
X108992017Y-91799811D01*
X108986895Y-91799753D01*
X108848682Y-91798508D01*
X108738679Y-91798636D01*
X108653314Y-91800724D01*
X108589015Y-91805353D01*
X108542211Y-91813110D01*
X108509329Y-91824578D01*
X108486798Y-91840342D01*
X108471046Y-91860985D01*
X108458501Y-91887093D01*
X108451295Y-91903859D01*
X108438337Y-91924801D01*
X108418709Y-91935592D01*
X108383998Y-91939599D01*
X108325790Y-91940187D01*
X108323849Y-91940184D01*
X108267852Y-91938210D01*
X108225813Y-91933245D01*
X108206700Y-91926333D01*
X108205103Y-91922892D01*
X108204737Y-91890161D01*
X108216221Y-91841435D01*
X108236084Y-91786577D01*
X108260857Y-91735451D01*
X108287068Y-91697920D01*
X108306045Y-91680218D01*
X108357140Y-91642795D01*
X108412814Y-91611252D01*
X108416319Y-91609598D01*
X108439885Y-91599060D01*
X108463208Y-91590803D01*
X108490306Y-91584547D01*
X108525200Y-91580012D01*
X108571907Y-91576920D01*
X108634448Y-91574991D01*
X108716840Y-91573944D01*
X108823104Y-91573502D01*
X108957259Y-91573383D01*
X109002857Y-91573387D01*
G37*
G36*
X109010371Y-81454777D02*
G01*
X109196912Y-81467284D01*
X109362306Y-81486640D01*
X109617574Y-81532049D01*
X109945630Y-81610406D01*
X110265370Y-81708796D01*
X110566708Y-81824388D01*
X110631579Y-81852471D01*
X110713762Y-81889339D01*
X110781591Y-81921245D01*
X110832975Y-81946989D01*
X110865827Y-81965370D01*
X110878057Y-81975190D01*
X110867577Y-81975247D01*
X110832298Y-81964341D01*
X110770132Y-81941272D01*
X110719198Y-81922143D01*
X110527046Y-81858442D01*
X110314591Y-81799299D01*
X110090781Y-81746865D01*
X109864562Y-81703293D01*
X109644883Y-81670733D01*
X109612613Y-81667086D01*
X109497777Y-81657711D01*
X109362153Y-81650775D01*
X109213253Y-81646327D01*
X109058587Y-81644419D01*
X108905666Y-81645102D01*
X108761999Y-81648426D01*
X108635099Y-81654443D01*
X108532475Y-81663203D01*
X108397279Y-81680479D01*
X108003284Y-81750792D01*
X107623165Y-81849020D01*
X107257719Y-81974789D01*
X106907741Y-82127725D01*
X106574028Y-82307454D01*
X106257376Y-82513602D01*
X105958580Y-82745795D01*
X105678437Y-83003660D01*
X105644439Y-83038072D01*
X105414633Y-83294484D01*
X105208859Y-83567550D01*
X105028657Y-83854600D01*
X104875570Y-84152967D01*
X104751138Y-84459980D01*
X104656903Y-84772969D01*
X104650789Y-84797634D01*
X104626264Y-84902028D01*
X104607610Y-84994752D01*
X104594054Y-85083065D01*
X104584820Y-85174228D01*
X104579133Y-85275498D01*
X104576218Y-85394136D01*
X104575301Y-85537401D01*
X104575194Y-85570053D01*
X104573908Y-85675687D01*
X104571370Y-85773012D01*
X104567816Y-85856127D01*
X104563479Y-85919133D01*
X104558597Y-85956131D01*
X104554788Y-85971839D01*
X104540629Y-86020007D01*
X104521247Y-86071896D01*
X104495315Y-86129734D01*
X104461505Y-86195749D01*
X104418490Y-86272169D01*
X104364943Y-86361222D01*
X104299537Y-86465137D01*
X104220944Y-86586143D01*
X104127838Y-86726466D01*
X104018891Y-86888336D01*
X103892776Y-87073980D01*
X103860703Y-87121713D01*
X103796837Y-87224378D01*
X103755564Y-87307917D01*
X103737761Y-87375587D01*
X103744303Y-87430644D01*
X103776065Y-87476345D01*
X103833922Y-87515947D01*
X103918749Y-87552708D01*
X104031422Y-87589884D01*
X104071748Y-87602309D01*
X104154498Y-87630271D01*
X104215966Y-87656645D01*
X104263179Y-87685402D01*
X104303166Y-87720515D01*
X104342952Y-87765956D01*
X104383273Y-87839957D01*
X104400239Y-87931661D01*
X104393146Y-88036083D01*
X104361778Y-88148839D01*
X104339859Y-88210954D01*
X104323152Y-88281545D01*
X104326308Y-88335403D01*
X104351782Y-88379051D01*
X104402028Y-88419013D01*
X104479498Y-88461812D01*
X104499334Y-88471992D01*
X104548498Y-88500526D01*
X104570788Y-88522070D01*
X104568475Y-88540014D01*
X104543833Y-88557747D01*
X104538508Y-88561163D01*
X104509902Y-88591857D01*
X104480416Y-88637566D01*
X104457362Y-88685640D01*
X104448052Y-88723430D01*
X104448119Y-88724398D01*
X104461131Y-88746846D01*
X104492337Y-88781544D01*
X104535417Y-88821402D01*
X104565805Y-88848426D01*
X104617416Y-88902676D01*
X104655999Y-88959624D01*
X104682772Y-89024053D01*
X104698953Y-89100746D01*
X104705762Y-89194484D01*
X104704417Y-89310050D01*
X104696136Y-89452227D01*
X104692084Y-89513580D01*
X104689523Y-89582651D01*
X104691397Y-89634297D01*
X104698154Y-89677005D01*
X104710241Y-89719266D01*
X104724210Y-89753930D01*
X104779356Y-89834316D01*
X104858453Y-89897731D01*
X104957423Y-89940524D01*
X105015207Y-89952399D01*
X105109172Y-89961451D01*
X105223491Y-89964611D01*
X105352131Y-89961894D01*
X105489056Y-89953314D01*
X105628229Y-89938887D01*
X105713112Y-89929015D01*
X105848676Y-89917802D01*
X105965200Y-89915412D01*
X106070194Y-89921818D01*
X106171168Y-89936993D01*
X106261028Y-89957018D01*
X106430621Y-90012671D01*
X106590309Y-90091671D01*
X106748653Y-90197886D01*
X106847357Y-90270886D01*
X107146532Y-90473720D01*
X107441891Y-90645656D01*
X107734519Y-90787127D01*
X108025501Y-90898568D01*
X108315924Y-90980411D01*
X108606873Y-91033090D01*
X108899434Y-91057040D01*
X108987081Y-91060425D01*
X109076076Y-91065388D01*
X109136118Y-91070859D01*
X109166617Y-91076711D01*
X109166981Y-91082814D01*
X109136618Y-91089040D01*
X109074937Y-91095261D01*
X108859921Y-91106714D01*
X108513188Y-91100588D01*
X108174223Y-91063662D01*
X107843627Y-90996101D01*
X107522003Y-90898070D01*
X107209953Y-90769734D01*
X106908080Y-90611258D01*
X106616986Y-90422806D01*
X106571580Y-90391031D01*
X106451007Y-90314232D01*
X106340009Y-90257936D01*
X106230522Y-90219757D01*
X106114485Y-90197309D01*
X105983837Y-90188207D01*
X105830514Y-90190065D01*
X105730993Y-90194860D01*
X105620868Y-90201712D01*
X105515824Y-90209610D01*
X105429271Y-90217633D01*
X105268749Y-90229179D01*
X105088604Y-90225298D01*
X104930640Y-90200642D01*
X104793412Y-90154840D01*
X104675478Y-90087522D01*
X104575391Y-89998317D01*
X104530611Y-89944116D01*
X104478286Y-89857618D01*
X104443404Y-89761257D01*
X104424882Y-89650224D01*
X104421634Y-89519713D01*
X104432578Y-89364916D01*
X104433112Y-89359789D01*
X104441950Y-89252489D01*
X104442127Y-89170091D01*
X104431980Y-89106601D01*
X104409847Y-89056023D01*
X104374066Y-89012365D01*
X104322976Y-88969630D01*
X104308168Y-88958122D01*
X104241131Y-88887656D01*
X104203915Y-88807971D01*
X104195919Y-88717048D01*
X104216540Y-88612866D01*
X104217856Y-88608126D01*
X104214322Y-88580698D01*
X104184491Y-88557610D01*
X104172236Y-88549506D01*
X104136231Y-88514281D01*
X104103703Y-88469207D01*
X104083619Y-88424826D01*
X104066436Y-88334734D01*
X104070863Y-88232940D01*
X104097047Y-88126996D01*
X104102515Y-88110636D01*
X104120260Y-88038956D01*
X104127526Y-87973332D01*
X104123911Y-87921645D01*
X104109014Y-87891773D01*
X104099526Y-87886594D01*
X104062624Y-87872218D01*
X104007131Y-87853791D01*
X103940951Y-87834028D01*
X103888590Y-87818653D01*
X103793055Y-87786067D01*
X103717474Y-87751785D01*
X103653820Y-87711830D01*
X103594063Y-87662227D01*
X103560587Y-87626994D01*
X103506237Y-87537899D01*
X103478742Y-87436033D01*
X103478915Y-87325647D01*
X103507570Y-87210988D01*
X103513891Y-87196363D01*
X103539637Y-87147443D01*
X103579082Y-87079777D01*
X103629107Y-86998485D01*
X103686593Y-86908689D01*
X103748422Y-86815509D01*
X103760326Y-86797891D01*
X103867455Y-86638936D01*
X103958138Y-86503377D01*
X104033917Y-86388627D01*
X104096335Y-86292099D01*
X104146934Y-86211206D01*
X104187257Y-86143360D01*
X104218846Y-86085974D01*
X104243243Y-86036460D01*
X104261993Y-85992232D01*
X104276636Y-85950702D01*
X104288716Y-85909282D01*
X104295110Y-85870578D01*
X104301023Y-85800878D01*
X104305791Y-85705003D01*
X104309269Y-85585920D01*
X104311312Y-85446594D01*
X104313033Y-85312864D01*
X104316671Y-85184759D01*
X104322969Y-85075506D01*
X104332837Y-84978163D01*
X104347182Y-84885790D01*
X104366913Y-84791445D01*
X104392938Y-84688189D01*
X104426166Y-84569081D01*
X104500458Y-84338222D01*
X104632132Y-84016045D01*
X104792401Y-83705711D01*
X104980204Y-83408472D01*
X105194483Y-83125580D01*
X105434175Y-82858289D01*
X105698221Y-82607851D01*
X105985560Y-82375518D01*
X106295133Y-82162543D01*
X106625879Y-81970180D01*
X106779364Y-81892799D01*
X107091564Y-81759107D01*
X107423435Y-81646045D01*
X107770873Y-81554929D01*
X108129777Y-81487077D01*
X108237103Y-81473175D01*
X108416050Y-81458319D01*
X108610722Y-81450298D01*
X108811901Y-81449116D01*
X109010371Y-81454777D01*
G37*
G36*
X113330497Y-83676353D02*
G01*
X113285097Y-83738878D01*
X113271154Y-83751902D01*
X113206938Y-83790118D01*
X113138878Y-83796698D01*
X113067449Y-83771571D01*
X113005434Y-83736717D01*
X112934815Y-83784356D01*
X112921145Y-83793386D01*
X112872660Y-83824277D01*
X112806621Y-83865398D01*
X112729932Y-83912471D01*
X112649494Y-83961217D01*
X112434793Y-84090438D01*
X112206566Y-84090438D01*
X111978339Y-84090438D01*
X112050440Y-84178959D01*
X112084377Y-84222769D01*
X112166665Y-84356418D01*
X112227286Y-84505951D01*
X112231910Y-84519595D01*
X112248082Y-84557157D01*
X112271271Y-84595069D01*
X112305547Y-84638693D01*
X112354982Y-84693392D01*
X112365895Y-84704697D01*
X112423650Y-84764527D01*
X112591993Y-84936041D01*
X112722938Y-84936041D01*
X112853883Y-84936041D01*
X113009666Y-84768516D01*
X113112170Y-84658286D01*
X113974707Y-84658286D01*
X113988585Y-84711885D01*
X114001504Y-84727293D01*
X114039758Y-84743186D01*
X114084817Y-84740841D01*
X114123483Y-84719512D01*
X114133861Y-84706875D01*
X114148883Y-84660475D01*
X114139406Y-84612245D01*
X114106830Y-84574387D01*
X114083594Y-84560650D01*
X114056408Y-84556024D01*
X114023067Y-84570533D01*
X114022142Y-84571057D01*
X113986739Y-84607873D01*
X113974707Y-84658286D01*
X113112170Y-84658286D01*
X113165449Y-84600991D01*
X113518386Y-84600991D01*
X113871323Y-84600991D01*
X113907795Y-84551659D01*
X113945107Y-84511525D01*
X114008733Y-84475507D01*
X114076933Y-84467997D01*
X114143911Y-84489235D01*
X114203875Y-84539461D01*
X114223335Y-84569396D01*
X114242693Y-84633451D01*
X114242284Y-84660475D01*
X114241681Y-84700297D01*
X114219383Y-84757079D01*
X114183050Y-84793681D01*
X114122484Y-84827265D01*
X114059491Y-84840312D01*
X114018481Y-84832614D01*
X113967869Y-84809201D01*
X113924730Y-84777170D01*
X113901005Y-84743791D01*
X113898524Y-84737377D01*
X113891296Y-84728644D01*
X113876720Y-84722250D01*
X113850702Y-84717834D01*
X113809149Y-84715032D01*
X113747967Y-84713480D01*
X113663063Y-84712815D01*
X113550343Y-84712674D01*
X113209559Y-84712674D01*
X113053775Y-84880199D01*
X112897992Y-85047724D01*
X112729823Y-85047724D01*
X112561655Y-85047724D01*
X112413773Y-84900458D01*
X112265892Y-84753191D01*
X112265892Y-84864673D01*
X112266030Y-84896056D01*
X112268868Y-84945000D01*
X112278890Y-84981010D01*
X112300618Y-85016477D01*
X112338576Y-85063792D01*
X112426488Y-85190912D01*
X112500566Y-85342744D01*
X112556794Y-85511198D01*
X112592589Y-85689904D01*
X112602897Y-85765689D01*
X112718444Y-85765689D01*
X112833991Y-85765689D01*
X113053743Y-85534345D01*
X113198634Y-85381811D01*
X114759492Y-85381811D01*
X114779908Y-85421522D01*
X114807511Y-85439808D01*
X114853896Y-85445433D01*
X114898858Y-85429621D01*
X114932842Y-85396475D01*
X114946294Y-85350096D01*
X114940173Y-85329465D01*
X114914354Y-85295495D01*
X114878928Y-85267057D01*
X114845548Y-85255136D01*
X114815164Y-85262317D01*
X114781161Y-85291967D01*
X114761256Y-85335212D01*
X114759492Y-85381811D01*
X113198634Y-85381811D01*
X113273495Y-85303001D01*
X113973204Y-85303001D01*
X114006480Y-85303000D01*
X114168507Y-85302940D01*
X114301965Y-85302695D01*
X114409676Y-85302140D01*
X114494460Y-85301149D01*
X114559138Y-85299598D01*
X114606529Y-85297360D01*
X114639454Y-85294312D01*
X114660734Y-85290328D01*
X114673190Y-85285282D01*
X114679641Y-85279049D01*
X114682908Y-85271506D01*
X114685312Y-85264910D01*
X114717942Y-85222677D01*
X114770432Y-85192630D01*
X114833423Y-85177232D01*
X114897559Y-85178948D01*
X114953480Y-85200243D01*
X114979300Y-85224138D01*
X115011612Y-85277854D01*
X115030886Y-85340503D01*
X115031024Y-85350096D01*
X115031718Y-85398399D01*
X115013724Y-85442173D01*
X114970736Y-85492065D01*
X114914816Y-85528321D01*
X114856460Y-85542322D01*
X114792010Y-85531268D01*
X114731171Y-85499069D01*
X114689572Y-85451870D01*
X114669670Y-85414684D01*
X113995617Y-85414684D01*
X113321564Y-85414684D01*
X113102713Y-85645438D01*
X112973534Y-85781644D01*
X112883863Y-85876192D01*
X112746391Y-85880771D01*
X112608919Y-85885350D01*
X112582014Y-86044898D01*
X112574764Y-86088986D01*
X112564421Y-86156308D01*
X112557115Y-86209672D01*
X112554093Y-86240344D01*
X112553078Y-86276242D01*
X112854254Y-86276242D01*
X113155429Y-86276242D01*
X113294561Y-86124671D01*
X113401190Y-86008510D01*
X114039702Y-86008510D01*
X114040330Y-86050581D01*
X114066049Y-86090289D01*
X114080365Y-86101166D01*
X114130628Y-86115336D01*
X114184453Y-86099461D01*
X114206215Y-86071870D01*
X114213018Y-86028926D01*
X114203941Y-85984533D01*
X114179432Y-85951837D01*
X114178086Y-85950909D01*
X114133356Y-85935274D01*
X114091715Y-85944139D01*
X114058664Y-85970790D01*
X114039702Y-86008510D01*
X113401190Y-86008510D01*
X113433693Y-85973101D01*
X113695395Y-85973101D01*
X113733226Y-85973044D01*
X113823968Y-85972136D01*
X113887921Y-85969880D01*
X113928890Y-85965968D01*
X113950680Y-85960094D01*
X113957098Y-85951950D01*
X113970906Y-85917444D01*
X114007836Y-85883962D01*
X114059034Y-85856935D01*
X114115638Y-85841014D01*
X114168788Y-85840851D01*
X114203310Y-85854517D01*
X114251221Y-85890586D01*
X114291244Y-85937089D01*
X114312404Y-85983153D01*
X114314276Y-86028926D01*
X114314528Y-86035092D01*
X114295356Y-86102009D01*
X114255797Y-86158610D01*
X114201284Y-86197785D01*
X114137248Y-86212423D01*
X114091491Y-86205683D01*
X114035939Y-86183360D01*
X113990024Y-86151366D01*
X113964824Y-86115902D01*
X113964130Y-86113817D01*
X113957589Y-86102291D01*
X113944087Y-86094273D01*
X113918636Y-86089117D01*
X113876246Y-86086181D01*
X113811927Y-86084820D01*
X113720690Y-86084391D01*
X113486432Y-86083997D01*
X113342831Y-86237637D01*
X113301934Y-86281393D01*
X113199231Y-86391277D01*
X112875609Y-86396974D01*
X112854301Y-86397366D01*
X112757400Y-86399599D01*
X112672388Y-86402272D01*
X112604269Y-86405178D01*
X112558047Y-86408111D01*
X112538728Y-86410865D01*
X112537958Y-86411417D01*
X112526407Y-86433152D01*
X112516811Y-86471300D01*
X112506085Y-86519720D01*
X112474610Y-86610960D01*
X112432348Y-86697865D01*
X112385425Y-86766665D01*
X112350809Y-86812468D01*
X112333970Y-86853886D01*
X112329711Y-86905003D01*
X112329711Y-86978252D01*
X113005912Y-86978252D01*
X113682112Y-86978252D01*
X113745932Y-86914433D01*
X113754792Y-86905682D01*
X113795362Y-86871047D01*
X113831110Y-86854712D01*
X113874223Y-86850614D01*
X113897828Y-86852244D01*
X113965300Y-86876325D01*
X114019702Y-86925222D01*
X114054597Y-86993824D01*
X114061655Y-87034345D01*
X114059856Y-87045621D01*
X114050714Y-87102940D01*
X114012638Y-87162965D01*
X113950455Y-87208190D01*
X113943000Y-87211794D01*
X113901987Y-87227989D01*
X113867961Y-87229074D01*
X113823073Y-87216167D01*
X113775163Y-87192194D01*
X113726010Y-87141876D01*
X113693844Y-87090112D01*
X112991834Y-87093819D01*
X112289824Y-87097527D01*
X112294499Y-87049316D01*
X113782871Y-87049316D01*
X113801539Y-87093990D01*
X113806437Y-87099901D01*
X113848665Y-87127260D01*
X113897019Y-87130094D01*
X113939760Y-87107273D01*
X113962346Y-87077116D01*
X113973052Y-87045621D01*
X113973048Y-87044707D01*
X113960150Y-86997231D01*
X113928260Y-86963840D01*
X113886158Y-86947896D01*
X113842622Y-86952763D01*
X113806432Y-86981802D01*
X113794564Y-87001084D01*
X113782871Y-87049316D01*
X112294499Y-87049316D01*
X112294833Y-87045867D01*
X112299842Y-86994207D01*
X111760338Y-86994207D01*
X111220834Y-86994207D01*
X111025398Y-86867228D01*
X110829962Y-86740248D01*
X110829962Y-86670152D01*
X110814971Y-86589614D01*
X110772098Y-86518014D01*
X110705243Y-86462511D01*
X110660655Y-86444402D01*
X110585230Y-86433835D01*
X110507269Y-86440337D01*
X110440955Y-86463836D01*
X110399597Y-86499850D01*
X110359710Y-86557121D01*
X110330650Y-86621822D01*
X110319409Y-86681432D01*
X110326894Y-86729704D01*
X110351635Y-86793593D01*
X110387226Y-86851914D01*
X110426953Y-86891548D01*
X110442444Y-86900940D01*
X110521343Y-86930162D01*
X110603739Y-86934994D01*
X110681070Y-86915923D01*
X110744770Y-86873437D01*
X110748743Y-86869499D01*
X110775713Y-86844768D01*
X110790473Y-86834659D01*
X110794657Y-86836560D01*
X110820941Y-86851806D01*
X110866916Y-86879836D01*
X110927713Y-86917662D01*
X110998465Y-86962297D01*
X111199534Y-87089935D01*
X111740690Y-87089935D01*
X111839514Y-87090080D01*
X111959389Y-87090674D01*
X112065693Y-87091673D01*
X112154759Y-87093018D01*
X112222918Y-87094651D01*
X112266503Y-87096514D01*
X112281846Y-87098548D01*
X112281013Y-87102187D01*
X112270439Y-87127604D01*
X112251606Y-87166356D01*
X112221365Y-87225551D01*
X112392033Y-87220625D01*
X112562701Y-87215698D01*
X112833109Y-87502897D01*
X113103517Y-87790096D01*
X113409572Y-87791021D01*
X113429402Y-87791078D01*
X113530597Y-87791142D01*
X113604939Y-87790435D01*
X113656762Y-87788542D01*
X113690398Y-87785048D01*
X113710178Y-87779541D01*
X113720435Y-87771605D01*
X113725502Y-87760828D01*
X113744918Y-87731695D01*
X113786380Y-87699068D01*
X113836949Y-87674200D01*
X113884723Y-87664307D01*
X113898370Y-87664917D01*
X113963613Y-87685143D01*
X114017901Y-87729113D01*
X114055027Y-87790170D01*
X114066548Y-87850055D01*
X114068781Y-87861660D01*
X114058642Y-87911577D01*
X114024703Y-87969192D01*
X113974889Y-88015361D01*
X113917543Y-88040235D01*
X113896190Y-88042484D01*
X113829458Y-88031517D01*
X113767300Y-87998632D01*
X113722075Y-87949562D01*
X113694941Y-87903629D01*
X113380594Y-87903629D01*
X113066247Y-87903629D01*
X113011086Y-87846044D01*
X113799384Y-87846044D01*
X113804618Y-87890514D01*
X113833010Y-87926656D01*
X113860605Y-87943038D01*
X113885301Y-87951493D01*
X113905266Y-87945285D01*
X113937593Y-87926656D01*
X113965084Y-87894306D01*
X113973444Y-87850055D01*
X113961186Y-87806485D01*
X113931265Y-87773258D01*
X113886634Y-87760036D01*
X113845841Y-87771118D01*
X113814171Y-87802996D01*
X113799384Y-87846044D01*
X113011086Y-87846044D01*
X112798792Y-87624420D01*
X112531337Y-87345212D01*
X112336630Y-87345212D01*
X112141923Y-87345212D01*
X112113377Y-87389087D01*
X112071668Y-87447573D01*
X111988173Y-87543198D01*
X111899780Y-87622211D01*
X111884817Y-87633891D01*
X111843790Y-87672532D01*
X111817050Y-87715290D01*
X111795251Y-87775908D01*
X111779911Y-87821544D01*
X111761860Y-87864776D01*
X111747836Y-87887280D01*
X111736927Y-87890007D01*
X111696318Y-87893788D01*
X111629082Y-87897331D01*
X111538332Y-87900531D01*
X111427178Y-87903283D01*
X111298731Y-87905485D01*
X111156104Y-87907033D01*
X110582663Y-87911606D01*
X110432159Y-87978872D01*
X110281655Y-88046137D01*
X110227804Y-87983225D01*
X110224199Y-87979096D01*
X110156858Y-87924683D01*
X110080001Y-87897183D01*
X110000124Y-87896703D01*
X109923720Y-87923347D01*
X109857285Y-87977220D01*
X109845096Y-87992153D01*
X109806450Y-88065975D01*
X109794627Y-88143947D01*
X109807066Y-88220416D01*
X109841203Y-88289730D01*
X109894476Y-88346238D01*
X109964322Y-88384288D01*
X110048178Y-88398227D01*
X110061115Y-88397884D01*
X110143468Y-88379121D01*
X110214054Y-88335397D01*
X110266638Y-88271881D01*
X110294983Y-88193738D01*
X110302454Y-88161145D01*
X110320777Y-88132217D01*
X110356310Y-88114736D01*
X110361775Y-88112880D01*
X110405410Y-88097268D01*
X110465371Y-88075023D01*
X110530379Y-88050320D01*
X110653597Y-88002903D01*
X111172317Y-87997047D01*
X111292348Y-87995667D01*
X111410653Y-87994113D01*
X111503248Y-87992434D01*
X111573521Y-87990371D01*
X111624859Y-87987664D01*
X111660651Y-87984054D01*
X111684285Y-87979281D01*
X111699148Y-87973085D01*
X111708629Y-87965207D01*
X111716116Y-87955387D01*
X111721051Y-87948709D01*
X111737926Y-87933221D01*
X111763113Y-87924425D01*
X111804471Y-87920489D01*
X111869857Y-87919584D01*
X111998520Y-87919584D01*
X112273573Y-88202781D01*
X112324967Y-88255495D01*
X112406511Y-88337807D01*
X112471462Y-88401005D01*
X112523055Y-88447967D01*
X112564523Y-88481575D01*
X112599101Y-88504709D01*
X112630022Y-88520249D01*
X112662093Y-88533345D01*
X112696697Y-88544220D01*
X112716988Y-88542740D01*
X112731966Y-88529743D01*
X112758512Y-88504373D01*
X112818336Y-88476605D01*
X112884855Y-88474238D01*
X112950392Y-88496873D01*
X113007267Y-88544109D01*
X113032242Y-88583290D01*
X113047275Y-88646950D01*
X113046764Y-88650459D01*
X113038055Y-88710316D01*
X113008248Y-88767245D01*
X112961519Y-88811592D01*
X112901533Y-88837216D01*
X112831954Y-88837973D01*
X112817213Y-88833862D01*
X112770844Y-88807917D01*
X112726706Y-88768312D01*
X112693697Y-88724089D01*
X112680716Y-88684290D01*
X112678730Y-88672737D01*
X112656895Y-88647159D01*
X112638502Y-88637409D01*
X112779860Y-88637409D01*
X112781619Y-88683420D01*
X112805622Y-88722827D01*
X112836865Y-88742495D01*
X112883738Y-88745895D01*
X112925542Y-88720055D01*
X112940744Y-88697627D01*
X112950386Y-88650459D01*
X112937919Y-88605198D01*
X112907034Y-88571188D01*
X112861423Y-88557774D01*
X112829664Y-88565238D01*
X112796992Y-88594710D01*
X112779860Y-88637409D01*
X112638502Y-88637409D01*
X112607597Y-88621027D01*
X112582573Y-88610796D01*
X112539648Y-88595644D01*
X112513434Y-88589684D01*
X112504125Y-88584263D01*
X112474411Y-88558899D01*
X112428396Y-88515661D01*
X112369359Y-88457727D01*
X112300576Y-88388273D01*
X112225326Y-88310475D01*
X111958262Y-88031267D01*
X111816914Y-88031267D01*
X111786846Y-88031548D01*
X111729806Y-88033888D01*
X111690321Y-88038086D01*
X111675565Y-88043521D01*
X111674266Y-88049106D01*
X111656751Y-88077847D01*
X111623111Y-88120072D01*
X111578880Y-88169741D01*
X111529590Y-88220810D01*
X111480776Y-88267236D01*
X111437971Y-88302977D01*
X111395793Y-88338099D01*
X111352767Y-88381928D01*
X111326287Y-88418666D01*
X111300628Y-88470023D01*
X111125125Y-88480798D01*
X111095931Y-88482404D01*
X111006226Y-88485991D01*
X110899938Y-88488849D01*
X110787965Y-88490719D01*
X110681206Y-88491342D01*
X110412790Y-88491111D01*
X110333260Y-88603994D01*
X110323920Y-88617185D01*
X110288195Y-88664839D01*
X110255373Y-88700316D01*
X110217525Y-88730087D01*
X110166721Y-88760623D01*
X110095032Y-88798394D01*
X110017456Y-88840291D01*
X109952966Y-88881582D01*
X109899950Y-88925184D01*
X109848803Y-88978108D01*
X109766147Y-89083087D01*
X109687797Y-89221737D01*
X109635791Y-89372236D01*
X109609015Y-89538007D01*
X109606354Y-89722473D01*
X109612875Y-89813116D01*
X109637828Y-89966928D01*
X109682013Y-90110031D01*
X109748519Y-90253968D01*
X109754605Y-90265567D01*
X109778180Y-90313902D01*
X109791817Y-90347849D01*
X109792723Y-90360664D01*
X109788779Y-90359393D01*
X109764611Y-90341452D01*
X109725915Y-90306233D01*
X109677607Y-90258770D01*
X109624603Y-90204096D01*
X109571817Y-90147246D01*
X109524166Y-90093253D01*
X109486566Y-90047151D01*
X109456902Y-90007171D01*
X109331414Y-89807332D01*
X109228798Y-89589235D01*
X109151869Y-89358673D01*
X109137682Y-89296633D01*
X109125307Y-89213980D01*
X109116683Y-89113542D01*
X109111036Y-88988294D01*
X109109932Y-88949298D01*
X109108917Y-88846908D01*
X109112043Y-88756346D01*
X109120395Y-88670626D01*
X109135058Y-88582764D01*
X109157115Y-88485776D01*
X109187651Y-88372676D01*
X109227750Y-88236479D01*
X109258957Y-88130208D01*
X109293696Y-88000359D01*
X109318532Y-87888393D01*
X109334719Y-87787477D01*
X109343512Y-87690775D01*
X109346165Y-87591452D01*
X109343754Y-87482794D01*
X109334405Y-87374218D01*
X109316294Y-87271229D01*
X109287618Y-87167409D01*
X109246574Y-87056342D01*
X109191361Y-86931610D01*
X109120176Y-86786795D01*
X109072551Y-86690331D01*
X109027673Y-86591501D01*
X108998082Y-86515233D01*
X108984695Y-86463710D01*
X108974871Y-86387925D01*
X109053918Y-86387925D01*
X109130881Y-86382194D01*
X109258748Y-86350008D01*
X109353115Y-86307117D01*
X111324560Y-86307117D01*
X111331761Y-86364748D01*
X111364429Y-86430146D01*
X111421866Y-86476492D01*
X111463525Y-86491757D01*
X111511236Y-86498619D01*
X111534198Y-86495952D01*
X111585120Y-86480488D01*
X111636104Y-86455986D01*
X111676771Y-86427875D01*
X111696743Y-86401585D01*
X111697188Y-86400019D01*
X111702067Y-86391474D01*
X111713209Y-86384818D01*
X111734277Y-86379760D01*
X111768935Y-86376008D01*
X111820847Y-86373272D01*
X111893677Y-86371262D01*
X111991088Y-86369686D01*
X112116745Y-86368254D01*
X112529145Y-86363993D01*
X112533945Y-86322693D01*
X112538745Y-86281393D01*
X112143053Y-86283595D01*
X112059570Y-86283902D01*
X111956679Y-86283816D01*
X111867297Y-86283215D01*
X111796022Y-86282151D01*
X111747455Y-86280676D01*
X111726196Y-86278843D01*
X111709449Y-86265766D01*
X111690695Y-86234186D01*
X111677509Y-86210658D01*
X111632921Y-86170866D01*
X111571348Y-86143146D01*
X111502456Y-86132708D01*
X111458873Y-86135859D01*
X111419889Y-86151597D01*
X111378806Y-86186895D01*
X111349499Y-86219613D01*
X111329651Y-86258588D01*
X111324560Y-86307117D01*
X109353115Y-86307117D01*
X109385242Y-86292515D01*
X109504575Y-86213175D01*
X109610958Y-86115445D01*
X109698602Y-86002784D01*
X109748435Y-85925126D01*
X109710838Y-85893802D01*
X109710799Y-85893770D01*
X109699759Y-85885350D01*
X109745037Y-85885350D01*
X109753015Y-85893327D01*
X109760992Y-85885350D01*
X109753015Y-85877372D01*
X109745037Y-85885350D01*
X109699759Y-85885350D01*
X109681617Y-85871514D01*
X109664213Y-85861948D01*
X109659629Y-85864967D01*
X109642149Y-85887853D01*
X109618916Y-85925949D01*
X109617881Y-85927762D01*
X109586984Y-85972225D01*
X109542146Y-86026159D01*
X109492698Y-86078301D01*
X109421723Y-86139827D01*
X109300710Y-86215282D01*
X109172886Y-86263314D01*
X109042022Y-86283873D01*
X108911888Y-86276910D01*
X108786254Y-86242377D01*
X108668889Y-86180224D01*
X108563563Y-86090402D01*
X108516019Y-86034768D01*
X108441374Y-85912459D01*
X108395849Y-85778134D01*
X108379621Y-85632871D01*
X108392867Y-85477744D01*
X108425631Y-85352552D01*
X109556951Y-85352552D01*
X109564830Y-85435555D01*
X109604296Y-85522875D01*
X109607458Y-85527854D01*
X109661329Y-85584762D01*
X109729520Y-85619815D01*
X109805320Y-85633561D01*
X109882017Y-85626550D01*
X109952898Y-85599328D01*
X110011250Y-85552444D01*
X110050363Y-85486447D01*
X110070543Y-85430639D01*
X110862893Y-85430639D01*
X111655244Y-85430639D01*
X111731887Y-85514401D01*
X111764201Y-85549277D01*
X111819114Y-85607612D01*
X111881666Y-85673332D01*
X111943638Y-85737768D01*
X112078745Y-85877372D01*
X112331866Y-85877372D01*
X112584987Y-85877372D01*
X112584987Y-85829508D01*
X112584987Y-85781644D01*
X112347491Y-85781644D01*
X112109995Y-85781644D01*
X111896769Y-85551819D01*
X111683542Y-85321993D01*
X110877826Y-85319746D01*
X110072110Y-85317498D01*
X110039104Y-85247508D01*
X110006098Y-85177518D01*
X110065056Y-85100200D01*
X110073728Y-85088944D01*
X110099256Y-85058099D01*
X110126465Y-85030571D01*
X110160461Y-85002360D01*
X110206347Y-84969467D01*
X110269227Y-84927892D01*
X110354206Y-84873636D01*
X110454410Y-84801906D01*
X110567182Y-84691775D01*
X110612169Y-84626670D01*
X111538824Y-84626670D01*
X111539646Y-84682712D01*
X111566236Y-84734355D01*
X111571377Y-84740017D01*
X111626259Y-84777589D01*
X111688083Y-84787374D01*
X111749490Y-84769670D01*
X111803116Y-84724774D01*
X111810674Y-84716651D01*
X111826341Y-84707077D01*
X111851335Y-84701201D01*
X111891297Y-84698423D01*
X111951863Y-84698145D01*
X112038674Y-84699768D01*
X112249993Y-84704697D01*
X112249965Y-84660821D01*
X112249937Y-84616945D01*
X112034047Y-84616945D01*
X111979713Y-84616822D01*
X111908084Y-84615764D01*
X111860263Y-84613089D01*
X111831122Y-84608164D01*
X111815533Y-84600354D01*
X111808367Y-84589024D01*
X111785040Y-84552080D01*
X111737580Y-84518727D01*
X111680443Y-84505617D01*
X111652985Y-84508207D01*
X111599291Y-84531812D01*
X111559972Y-84573835D01*
X111538824Y-84626670D01*
X110612169Y-84626670D01*
X110655991Y-84563251D01*
X110724257Y-84412067D01*
X110728494Y-84400267D01*
X110752281Y-84329595D01*
X110763410Y-84282445D01*
X110761746Y-84253685D01*
X110747155Y-84238183D01*
X110719502Y-84230807D01*
X110688443Y-84229316D01*
X110672122Y-84242808D01*
X110662389Y-84279783D01*
X110648577Y-84329033D01*
X110614448Y-84409000D01*
X110567708Y-84494761D01*
X110513885Y-84576434D01*
X110458509Y-84644137D01*
X110443600Y-84659102D01*
X110384615Y-84710513D01*
X110313751Y-84764321D01*
X110243216Y-84811059D01*
X110171195Y-84856784D01*
X110083871Y-84922167D01*
X110015211Y-84989259D01*
X109958025Y-85064446D01*
X109943396Y-85085973D01*
X109919584Y-85112828D01*
X109894482Y-85121323D01*
X109856327Y-85117607D01*
X109779143Y-85117791D01*
X109699319Y-85147423D01*
X109627331Y-85207210D01*
X109580689Y-85273451D01*
X109556951Y-85352552D01*
X108425631Y-85352552D01*
X108435764Y-85313832D01*
X108469520Y-85231591D01*
X108551801Y-85094334D01*
X108662088Y-84966696D01*
X108798265Y-84850963D01*
X108958218Y-84749420D01*
X108976402Y-84739192D01*
X109096273Y-84654169D01*
X109188791Y-84553261D01*
X109254641Y-84435740D01*
X109296170Y-84301066D01*
X109309756Y-84164895D01*
X109295869Y-84033072D01*
X109255789Y-83909518D01*
X109190794Y-83798155D01*
X109102163Y-83702905D01*
X108991174Y-83627690D01*
X108966774Y-83614465D01*
X108933389Y-83591449D01*
X108918679Y-83567756D01*
X108915389Y-83534459D01*
X108901515Y-83455466D01*
X108862367Y-83385790D01*
X108803825Y-83331454D01*
X108731778Y-83296454D01*
X108652114Y-83284789D01*
X108570721Y-83300455D01*
X108525086Y-83322356D01*
X108457380Y-83377658D01*
X108412395Y-83447984D01*
X108393175Y-83527699D01*
X108402765Y-83611173D01*
X108415942Y-83646921D01*
X108463518Y-83720587D01*
X108527909Y-83772200D01*
X108603406Y-83800235D01*
X108684296Y-83803169D01*
X108764868Y-83779479D01*
X108839410Y-83727641D01*
X108840890Y-83726232D01*
X108871410Y-83700723D01*
X108894586Y-83695640D01*
X108923914Y-83707816D01*
X108963843Y-83731591D01*
X109059534Y-83812872D01*
X109132907Y-83914344D01*
X109180004Y-84031011D01*
X109200368Y-84157237D01*
X109191462Y-84280035D01*
X109152135Y-84393858D01*
X109082611Y-84498258D01*
X108983116Y-84592789D01*
X108853875Y-84677004D01*
X108775903Y-84723879D01*
X108630823Y-84836639D01*
X108506124Y-84969654D01*
X108404582Y-85119156D01*
X108328972Y-85281381D01*
X108282070Y-85452564D01*
X108256399Y-85594151D01*
X108170535Y-85585289D01*
X108113581Y-85573445D01*
X108027308Y-85541493D01*
X107933369Y-85494604D01*
X107840107Y-85437048D01*
X107755867Y-85373097D01*
X107742720Y-85361658D01*
X107621341Y-85233685D01*
X107518991Y-85083186D01*
X107438339Y-84914729D01*
X107382052Y-84732881D01*
X107358930Y-84588437D01*
X107356020Y-84415978D01*
X107378248Y-84246087D01*
X107424415Y-84084270D01*
X107493322Y-83936029D01*
X107583770Y-83806870D01*
X107601180Y-83785244D01*
X107625261Y-83744965D01*
X107640978Y-83696301D01*
X107652860Y-83627493D01*
X107656883Y-83602002D01*
X107697562Y-83458897D01*
X107765660Y-83323135D01*
X107857417Y-83199130D01*
X107969075Y-83091294D01*
X108096873Y-83004040D01*
X108237054Y-82941780D01*
X108288346Y-82922401D01*
X108334204Y-82900371D01*
X108359753Y-82882202D01*
X108392423Y-82852145D01*
X108447656Y-82812522D01*
X108517215Y-82768705D01*
X108593571Y-82725193D01*
X108669196Y-82686484D01*
X108736559Y-82657077D01*
X108745639Y-82653621D01*
X108864987Y-82613325D01*
X108976223Y-82587536D01*
X109092385Y-82573941D01*
X109226507Y-82570232D01*
X109285918Y-82571552D01*
X109466560Y-82591726D01*
X109627870Y-82636520D01*
X109771098Y-82706364D01*
X109897496Y-82801689D01*
X109987785Y-82884208D01*
X109981030Y-82965670D01*
X109975566Y-83006357D01*
X109950231Y-83091146D01*
X109903716Y-83181997D01*
X109833329Y-83284722D01*
X109794930Y-83341319D01*
X109758407Y-83405702D01*
X109734326Y-83460224D01*
X109713506Y-83549523D01*
X109706571Y-83647074D01*
X109713913Y-83739753D01*
X109735494Y-83815709D01*
X109753385Y-83852091D01*
X109773383Y-83879618D01*
X109788491Y-83879602D01*
X109799439Y-83850968D01*
X109806959Y-83792637D01*
X109811785Y-83703535D01*
X109814056Y-83649630D01*
X109820366Y-83572363D01*
X109832193Y-83512450D01*
X109852657Y-83460538D01*
X109884880Y-83407277D01*
X109931980Y-83343316D01*
X109981340Y-83269778D01*
X110043690Y-83142430D01*
X110086299Y-83006847D01*
X110106520Y-82917762D01*
X110200999Y-82904774D01*
X110230424Y-82901409D01*
X110343095Y-82897165D01*
X110469115Y-82902875D01*
X110595759Y-82917644D01*
X110710301Y-82940577D01*
X110842928Y-82982945D01*
X111011710Y-83059669D01*
X111172774Y-83157279D01*
X111318260Y-83270876D01*
X111440304Y-83395557D01*
X111452050Y-83409955D01*
X111499724Y-83474920D01*
X111547205Y-83548410D01*
X111590713Y-83623604D01*
X111626470Y-83693685D01*
X111650695Y-83751834D01*
X111659610Y-83791232D01*
X111655966Y-83811290D01*
X111638948Y-83817777D01*
X111599780Y-83813182D01*
X111481739Y-83794594D01*
X111375438Y-83782058D01*
X111277106Y-83775883D01*
X111174999Y-83775012D01*
X111017461Y-83777100D01*
X110983542Y-83707377D01*
X110951339Y-83651918D01*
X110903622Y-83604507D01*
X110841693Y-83579317D01*
X110758166Y-83571908D01*
X110696277Y-83574514D01*
X110648897Y-83584855D01*
X110611754Y-83605485D01*
X110590881Y-83622632D01*
X110537165Y-83689522D01*
X110508655Y-83765779D01*
X110504960Y-83845160D01*
X110525691Y-83921421D01*
X110570458Y-83988319D01*
X110638870Y-84039611D01*
X110714264Y-84064898D01*
X110796687Y-84065974D01*
X110873807Y-84042230D01*
X110938636Y-83995901D01*
X110984185Y-83929221D01*
X111012365Y-83865350D01*
X111220315Y-83875333D01*
X111220507Y-83875342D01*
X111353705Y-83884370D01*
X111479666Y-83897877D01*
X111592225Y-83914928D01*
X111685216Y-83934590D01*
X111752471Y-83955929D01*
X111753588Y-83956388D01*
X111784936Y-83965129D01*
X111832046Y-83971478D01*
X111898949Y-83975693D01*
X111989673Y-83978032D01*
X112108249Y-83978754D01*
X112409397Y-83978754D01*
X112652751Y-83830106D01*
X112720539Y-83788669D01*
X112796052Y-83742436D01*
X112859936Y-83703242D01*
X112906988Y-83674280D01*
X112932003Y-83658743D01*
X112953767Y-83638311D01*
X112965064Y-83601112D01*
X113063324Y-83601112D01*
X113069297Y-83645746D01*
X113099090Y-83682686D01*
X113128599Y-83698667D01*
X113162909Y-83707523D01*
X113174114Y-83706070D01*
X113211396Y-83685561D01*
X113242239Y-83650136D01*
X113255088Y-83611795D01*
X113254119Y-83601513D01*
X113234030Y-83561030D01*
X113196421Y-83529054D01*
X113152521Y-83516066D01*
X113110628Y-83526830D01*
X113078118Y-83558301D01*
X113063324Y-83601112D01*
X112965064Y-83601112D01*
X112967902Y-83591768D01*
X112967912Y-83590636D01*
X112982029Y-83543529D01*
X113019764Y-83490915D01*
X113034075Y-83476617D01*
X113097258Y-83437095D01*
X113164984Y-83424975D01*
X113230586Y-83439154D01*
X113287397Y-83478530D01*
X113328749Y-83542000D01*
X113344430Y-83610150D01*
X113344084Y-83611795D01*
X113330497Y-83676353D01*
G37*
%TO.C,C25*%
D13*
X81592164Y-62040000D02*
X81807836Y-62040000D01*
X81592164Y-62760000D02*
X81807836Y-62760000D01*
%TO.C,C20*%
X105107836Y-71486318D02*
X104892164Y-71486318D01*
X105107836Y-72206318D02*
X104892164Y-72206318D01*
%TO.C,C26*%
X105107836Y-72486318D02*
X104892164Y-72486318D01*
X105107836Y-73206318D02*
X104892164Y-73206318D01*
%TO.C,C29*%
X81540580Y-60640000D02*
X81259420Y-60640000D01*
X81540580Y-61660000D02*
X81259420Y-61660000D01*
%TO.C,C32*%
X97142164Y-71736318D02*
X97357836Y-71736318D01*
X97142164Y-72456318D02*
X97357836Y-72456318D01*
%TO.C,C24*%
X104892164Y-73486318D02*
X105107836Y-73486318D01*
X104892164Y-74206318D02*
X105107836Y-74206318D01*
%TO.C,C21*%
X93607836Y-68236318D02*
X93392164Y-68236318D01*
X93607836Y-68956318D02*
X93392164Y-68956318D01*
%TO.C,C1*%
X115829420Y-77590000D02*
X116110580Y-77590000D01*
X115829420Y-78610000D02*
X116110580Y-78610000D01*
%TO.C,C30*%
X97357836Y-72736318D02*
X97142164Y-72736318D01*
X97357836Y-73456318D02*
X97142164Y-73456318D01*
%TO.C,C10*%
X98890000Y-76704154D02*
X98890000Y-76488482D01*
X99610000Y-76704154D02*
X99610000Y-76488482D01*
%TO.C,C6*%
X85807836Y-69040000D02*
X85592164Y-69040000D01*
X85807836Y-69760000D02*
X85592164Y-69760000D01*
%TO.C,C19*%
X97357836Y-74236318D02*
X97142164Y-74236318D01*
X97357836Y-74956318D02*
X97142164Y-74956318D01*
%TO.C,C2*%
X115292164Y-79040000D02*
X115507836Y-79040000D01*
X115292164Y-79760000D02*
X115507836Y-79760000D01*
%TO.C,C33*%
X97679420Y-70336318D02*
X97960580Y-70336318D01*
X97679420Y-71356318D02*
X97960580Y-71356318D01*
%TO.C,S1*%
D12*
X131262309Y-63361273D02*
X131209453Y-63512290D01*
X132210417Y-65737907D02*
X131493084Y-65486842D01*
X132253358Y-60529697D02*
X131704978Y-62096502D01*
X133250549Y-65551022D02*
X135120328Y-60208783D01*
X134423760Y-59414054D02*
X133706427Y-59162989D01*
D11*
X132118100Y-58704511D02*
G75*
G02*
X131918100Y-58704511I-100000J0D01*
G01*
X131918100Y-58704511D02*
G75*
G02*
X132118100Y-58704511I100000J0D01*
G01*
%TO.C,C31*%
D13*
X118490580Y-61940000D02*
X118209420Y-61940000D01*
X118490580Y-62960000D02*
X118209420Y-62960000D01*
%TO.C,C16*%
X94190000Y-73911252D02*
X94190000Y-72488748D01*
X96010000Y-73911252D02*
X96010000Y-72488748D01*
%TO.C,C17*%
X105107836Y-70486318D02*
X104892164Y-70486318D01*
X105107836Y-71206318D02*
X104892164Y-71206318D01*
%TO.C,C27*%
X118812164Y-63340000D02*
X119027836Y-63340000D01*
X118812164Y-64060000D02*
X119027836Y-64060000D01*
%TO.C,C13*%
X97890000Y-76704154D02*
X97890000Y-76488482D01*
X98610000Y-76704154D02*
X98610000Y-76488482D01*
%TO.C,P1*%
D12*
X108975000Y-71400000D02*
X108975000Y-67000000D01*
X112575000Y-65250000D02*
X116575000Y-65250000D01*
X116575000Y-65250000D02*
X116575000Y-67300000D01*
X116575000Y-71100000D02*
X116575000Y-73150000D01*
X116575000Y-73150000D02*
X112575000Y-73150000D01*
X117888500Y-71100000D02*
G75*
G02*
X117761500Y-71100000I-63500J0D01*
G01*
X117761500Y-71100000D02*
G75*
G02*
X117888500Y-71100000I63500J0D01*
G01*
%TD*%
M02*
