%TF.GenerationSoftware,KiCad,Pcbnew,10.0.2*%
%TF.CreationDate,2026-09-20T12:52:34+03:00*%
%TF.ProjectId,Mind_Speak_(Main_Board),4d696e64-5f53-4706-9561-6b5f284d6169,1*%
%TF.SameCoordinates,Original*%
%TF.FileFunction,Copper,L2,Inr*%
%TF.FilePolarity,Positive*%
%FSLAX46Y46*%
G04 Gerber Fmt 4.6, Leading zero omitted, Abs format (unit mm)*
G04 Created by KiCad (PCBNEW 10.0.2) date 2026-09-20 12:52:34*
%MOMM*%
%LPD*%
G01*
G04 APERTURE LIST*
G04 Aperture macros list*
%AMRotRect*
0 Rectangle, with rotation*
0 The origin of the aperture is its center*
0 $1 length*
0 $2 width*
0 $3 Rotation angle, in degrees counterclockwise*
0 Add horizontal line*
21,1,$1,$2,0,0,$3*%
G04 Aperture macros list end*
%TA.AperFunction,ComponentPad*%
%ADD10R,1.700000X1.700000*%
%TD*%
%TA.AperFunction,ComponentPad*%
%ADD11C,1.700000*%
%TD*%
%TA.AperFunction,ComponentPad*%
%ADD12C,6.400000*%
%TD*%
%TA.AperFunction,ComponentPad*%
%ADD13RotRect,1.700000X1.700000X19.290000*%
%TD*%
%TA.AperFunction,ComponentPad*%
%ADD14RotRect,1.700000X1.700000X340.710000*%
%TD*%
%TA.AperFunction,ViaPad*%
%ADD15C,0.800000*%
%TD*%
%TA.AperFunction,ViaPad*%
%ADD16C,0.700000*%
%TD*%
G04 APERTURE END LIST*
D10*
%TO.N,VSSA*%
%TO.C,J3*%
X86010000Y-50740000D03*
D11*
X86010000Y-48200000D03*
%TO.N,SRB2*%
X88550000Y-50740000D03*
%TO.N,SRB1*%
X88550000Y-48200000D03*
%TO.N,1N*%
X91090000Y-50740000D03*
%TO.N,1P*%
X91090000Y-48200000D03*
%TO.N,2N*%
X93630000Y-50740000D03*
%TO.N,2P*%
X93630000Y-48200000D03*
%TO.N,3N*%
X96170000Y-50740000D03*
%TO.N,3P*%
X96170000Y-48200000D03*
%TO.N,4N*%
X98710000Y-50740000D03*
%TO.N,4P*%
X98710000Y-48200000D03*
%TO.N,5N*%
X101250000Y-50740000D03*
%TO.N,5P*%
X101250000Y-48200000D03*
%TO.N,6N*%
X103790000Y-50740000D03*
%TO.N,6P*%
X103790000Y-48200000D03*
%TO.N,7N*%
X106330000Y-50740000D03*
%TO.N,7P*%
X106330000Y-48200000D03*
%TO.N,8N*%
X108870000Y-50740000D03*
%TO.N,8P*%
X108870000Y-48200000D03*
%TO.N,BIAS*%
X111410000Y-50740000D03*
X111410000Y-48200000D03*
%TO.N,GNDA*%
X113950000Y-50740000D03*
X113950000Y-48200000D03*
%TO.N,+2.5VA*%
X116490000Y-50740000D03*
X116490000Y-48200000D03*
%TD*%
D12*
%TO.N,GNDA*%
%TO.C,H4*%
X119750000Y-95250000D03*
%TD*%
D10*
%TO.N,/BOOT_EN*%
%TO.C,J4*%
X100210000Y-96400000D03*
D11*
%TO.N,/MCLR*%
X97670000Y-96400000D03*
%TO.N,/D18*%
X95130000Y-96400000D03*
%TO.N,/PGED*%
X92590000Y-96400000D03*
%TD*%
D12*
%TO.N,GNDA*%
%TO.C,H1*%
X80750000Y-49250000D03*
%TD*%
D10*
%TO.N,GNDA*%
%TO.C,J6*%
X114000000Y-75200000D03*
D11*
%TO.N,BIAS_INV*%
X111460000Y-75200000D03*
%TD*%
D13*
%TO.N,+3V3*%
%TO.C,J5*%
X72363191Y-56209096D03*
D11*
%TO.N,GNDA*%
X73202279Y-58606498D03*
%TO.N,MISO*%
X74041367Y-61003898D03*
%TO.N,SCLK*%
X74880456Y-63401298D03*
%TO.N,RESET*%
X75719544Y-65798701D03*
%TO.N,CLK*%
X76558632Y-68196101D03*
%TO.N,MOSI*%
X77397719Y-70593502D03*
%TO.N,CS2*%
X78236808Y-72990903D03*
%TD*%
D14*
%TO.N,NINA_VCC*%
%TO.C,J7*%
X131036599Y-68155646D03*
D11*
%TO.N,SWD_CLK*%
X130197511Y-70553047D03*
%TO.N,SWD_IO*%
X129358422Y-72950447D03*
%TO.N,NINA_RST*%
X128519336Y-75347849D03*
%TO.N,GNDA*%
X127680247Y-77745250D03*
%TD*%
D13*
%TO.N,/D13*%
%TO.C,J2*%
X71541368Y-67403899D03*
D11*
%TO.N,/PGEC*%
X72380456Y-69801300D03*
%TO.N,+3V3*%
X73219544Y-72198701D03*
%TO.N,GNDA*%
X74058631Y-74596102D03*
%TD*%
D12*
%TO.N,GNDA*%
%TO.C,H2*%
X121750000Y-49250000D03*
%TD*%
%TO.N,GNDA*%
%TO.C,H3*%
X82750000Y-95250000D03*
%TD*%
D14*
%TO.N,Net-(J8-Pin_1)*%
%TO.C,J8*%
X126358422Y-81155646D03*
D11*
%TO.N,Net-(J8-Pin_2)*%
X125519334Y-83553047D03*
%TO.N,Net-(J8-Pin_3)*%
X124680246Y-85950448D03*
%TO.N,Net-(J8-Pin_4)*%
X123841159Y-88347849D03*
%TO.N,Net-(J8-Pin_5)*%
X123002069Y-90745251D03*
%TD*%
D15*
%TO.N,GNDA*%
X87900000Y-65700000D03*
%TO.N,+2.5VA*%
X88900000Y-65000000D03*
%TO.N,GNDA*%
X87900000Y-64600000D03*
X87900000Y-63500000D03*
X87900000Y-62400000D03*
X87900000Y-59700000D03*
X87900000Y-58500000D03*
X87900000Y-57300000D03*
X87500000Y-54600000D03*
X87300000Y-47000000D03*
X86200000Y-46200000D03*
X85000000Y-46200000D03*
X77000000Y-78000000D03*
%TO.N,VSSA*%
X108719658Y-75000000D03*
D16*
%TO.N,/D13*%
X86475735Y-82424265D03*
D15*
%TO.N,GNDA*%
X93750000Y-76000000D03*
X106250000Y-67000000D03*
X107500000Y-67000000D03*
X93200000Y-93000000D03*
X78600000Y-77400000D03*
X120300000Y-73200000D03*
X90900000Y-75900000D03*
X94784847Y-81502787D03*
X110750000Y-76950000D03*
X84835897Y-90500000D03*
X88300000Y-75200000D03*
X86250000Y-63000000D03*
X91200000Y-89500000D03*
X97997542Y-68702458D03*
X114000000Y-81750000D03*
X110750000Y-81750000D03*
X109800000Y-75800000D03*
X124384314Y-71800000D03*
X97900000Y-83000000D03*
X121900000Y-73200000D03*
X109000000Y-92500000D03*
X110500000Y-92500000D03*
X112700000Y-85100000D03*
X106800000Y-85100000D03*
X104000000Y-97100000D03*
X115500000Y-97100000D03*
X108050000Y-82550000D03*
X104000000Y-94600000D03*
X115500000Y-94600000D03*
X95000000Y-85200000D03*
%TO.N,VSSA*%
X85300000Y-55500000D03*
X98800000Y-73100000D03*
X103600000Y-72900000D03*
X86300000Y-53000000D03*
X103600000Y-73800000D03*
X103600000Y-71900000D03*
X83400000Y-61700000D03*
X108750000Y-71200000D03*
X86300000Y-55500000D03*
X98800000Y-72100000D03*
X98800000Y-74100000D03*
X83400000Y-60800000D03*
X85300000Y-53000000D03*
X85300000Y-54200000D03*
X96200000Y-67500000D03*
X86300000Y-54200000D03*
X103600000Y-70900000D03*
X94500000Y-76750000D03*
D16*
%TO.N,BIAS*%
X116600000Y-54800000D03*
X111804265Y-53195735D03*
D15*
%TO.N,GNDA*%
X117700000Y-76900000D03*
X80400000Y-64700000D03*
X101100000Y-75800000D03*
D16*
X111900000Y-60600000D03*
X104000000Y-61400000D03*
D15*
X80400000Y-63600000D03*
D16*
X92000000Y-60600000D03*
X100200000Y-60600000D03*
D15*
X95200000Y-80100000D03*
X114600000Y-66400000D03*
D16*
X105800000Y-60600000D03*
D15*
X116900000Y-85200000D03*
X133600000Y-57600000D03*
X115600000Y-66400000D03*
X113600000Y-65000000D03*
X96500000Y-78500000D03*
D16*
X109900000Y-60600000D03*
X100200000Y-61400000D03*
X116000000Y-60600000D03*
D15*
X108100000Y-89900000D03*
X113600000Y-66400000D03*
D16*
X92000000Y-61400000D03*
D15*
X82300000Y-72700000D03*
X92700000Y-73600000D03*
D16*
X87900000Y-60600000D03*
D15*
X116600000Y-65000000D03*
X113100000Y-52590000D03*
X101750000Y-79500000D03*
X121500000Y-55200000D03*
X81300000Y-72700000D03*
D16*
X87900000Y-61400000D03*
D15*
X108100000Y-87600000D03*
X94500000Y-52940000D03*
X115600000Y-65000000D03*
X116700000Y-76900000D03*
D16*
X116000000Y-61400000D03*
D15*
X121500000Y-57800000D03*
D16*
X94100000Y-60600000D03*
D15*
X114900000Y-52590000D03*
X80400000Y-66800000D03*
X80400000Y-62500000D03*
D16*
X105800000Y-61400000D03*
X111900000Y-61400000D03*
D15*
X82300000Y-71600000D03*
D16*
X94100000Y-61400000D03*
D15*
X88300000Y-52940000D03*
X92700000Y-72700000D03*
X117600000Y-65000000D03*
D16*
X104000000Y-60600000D03*
D15*
X114600000Y-65000000D03*
X104400000Y-89800000D03*
X100200000Y-75800000D03*
X111400000Y-87600000D03*
X114000000Y-52590000D03*
X111400000Y-89900000D03*
D16*
X97900000Y-61400000D03*
D15*
X80400000Y-65800000D03*
D16*
X109900000Y-61400000D03*
D15*
X117600000Y-66400000D03*
X117600000Y-63800000D03*
X100200000Y-52940000D03*
X103500000Y-89800000D03*
X116600000Y-66400000D03*
X134400000Y-58300000D03*
D16*
X97900000Y-60600000D03*
D15*
X132800000Y-56900000D03*
X106200000Y-52940000D03*
X81300000Y-71600000D03*
X129500000Y-65500000D03*
X131500000Y-66200000D03*
X102600000Y-89800000D03*
D16*
%TO.N,+2.5VA*%
X119550000Y-61000000D03*
X120300000Y-61750000D03*
X117100000Y-52090000D03*
X116200000Y-52890000D03*
D15*
X122250000Y-56500000D03*
X102125000Y-68500000D03*
D16*
X120300000Y-62500000D03*
X116200000Y-52090000D03*
X117100000Y-52890000D03*
X118800000Y-61000000D03*
D15*
X101000000Y-68500000D03*
X104250000Y-68500000D03*
X100000000Y-68500000D03*
D16*
X120300000Y-61000000D03*
D15*
X103250000Y-68500000D03*
%TO.N,+3V3*%
X119650000Y-67950000D03*
X106200000Y-77600000D03*
X92250000Y-90000000D03*
X121550000Y-67950000D03*
X114900000Y-80400000D03*
X98068625Y-79700000D03*
X104500000Y-76000000D03*
D16*
X121900000Y-70000000D03*
D15*
X94651510Y-79253586D03*
X105558609Y-80394350D03*
X115500000Y-76900000D03*
X114600000Y-76900000D03*
D16*
X123200000Y-69100000D03*
X124800000Y-69100000D03*
D15*
X86600000Y-87800000D03*
D16*
X122400000Y-69100000D03*
D15*
X130551346Y-59748654D03*
X93784921Y-81490476D03*
D16*
X124000000Y-69100000D03*
D15*
X79800000Y-69900000D03*
X94650000Y-87257980D03*
X81805025Y-76594975D03*
D16*
%TO.N,Net-(U2-C_{FLY-})*%
X84387426Y-69400000D03*
%TO.N,Net-(U2-C_{FLY+})*%
X87100000Y-69200000D03*
%TO.N,IN4_P*%
X100500000Y-63475000D03*
%TO.N,IN4_N*%
X101125000Y-64200000D03*
%TO.N,IN5_P*%
X101950000Y-63800000D03*
%TO.N,IN5_N*%
X102652890Y-64277965D03*
%TO.N,IN6_P*%
X104148957Y-63148957D03*
%TO.N,IN6_N*%
X104750000Y-63750000D03*
%TO.N,IN7_P*%
X104750000Y-64600003D03*
%TO.N,IN7_N*%
X105799265Y-64549265D03*
D15*
%TO.N,NINA_PWR*%
X101100000Y-92500000D03*
D16*
%TO.N,_SRB1*%
X91300000Y-66300000D03*
%TO.N,_SRB2*%
X92325736Y-65674264D03*
X93000000Y-66900000D03*
%TO.N,IN1_P*%
X95400000Y-66000000D03*
%TO.N,IN1_N*%
X96000000Y-65200000D03*
%TO.N,/MCLR*%
X89600000Y-90000000D03*
X87800000Y-81400000D03*
%TO.N,MOSI*%
X86600000Y-80800000D03*
X95600000Y-79200000D03*
X103948528Y-81200000D03*
%TO.N,/PGED*%
X80800000Y-75900000D03*
%TO.N,/TXD*%
X88961765Y-87513235D03*
X100350000Y-87500000D03*
%TO.N,INT1*%
X89500000Y-91100000D03*
X97800000Y-88225000D03*
%TO.N,CS4*%
X103200000Y-80094974D03*
X105377584Y-79461754D03*
%TO.N,CS3*%
X87600000Y-77600000D03*
%TO.N,CS2*%
X88400000Y-77200000D03*
%TO.N,RESET*%
X82200000Y-74200000D03*
X86600000Y-75600000D03*
%TO.N,MISO*%
X109575735Y-77650000D03*
X99800000Y-82100000D03*
X79000000Y-65400000D03*
X84000000Y-67800000D03*
X96200000Y-82100000D03*
%TO.N,/RXD*%
X90800000Y-86507980D03*
X100350000Y-86600000D03*
X89837093Y-83524379D03*
X95800000Y-87300000D03*
%TO.N,SCLK*%
X89482630Y-72417370D03*
X80000000Y-68500000D03*
X90198089Y-82041665D03*
%TO.N,CS1*%
X100250000Y-79750000D03*
X97100000Y-80600000D03*
%TO.N,IN8_N*%
X107500000Y-65800000D03*
%TO.N,IN8_P*%
X106800000Y-65200000D03*
%TO.N,IN3_N*%
X99400000Y-63800000D03*
%TO.N,IN3_P*%
X99184969Y-64633498D03*
%TO.N,IN2_N*%
X97955841Y-64652990D03*
%TO.N,IN2_P*%
X96700000Y-64600000D03*
%TO.N,Net-(U8-VREFP)*%
X93950000Y-72755133D03*
%TO.N,Net-(U8-VCAP4)*%
X93949999Y-73655135D03*
%TO.N,Net-(U8-VCAP1)*%
X93624413Y-74900000D03*
%TO.N,Net-(U8-VCAP2)*%
X97143302Y-75800000D03*
%TO.N,CLK*%
X95800000Y-77800000D03*
%TO.N,Net-(U8-VCAP3)*%
X104750000Y-74874845D03*
%TO.N,BIAS_DRV*%
X114050000Y-63850000D03*
%TO.N,NINA_RST*%
X115500000Y-90825000D03*
X119100000Y-85400000D03*
%TO.N,Net-(U6-NR)*%
X85000000Y-60900000D03*
D15*
%TO.N,Net-(P1-Pad1)*%
X116600000Y-73100000D03*
X116600000Y-71700000D03*
X117600000Y-71700000D03*
X115600000Y-71700000D03*
X114600000Y-71700000D03*
X114600000Y-73100000D03*
X117600000Y-73100000D03*
X113600000Y-71700000D03*
X113600000Y-73100000D03*
X115600000Y-73100000D03*
D16*
%TO.N,SWD_CLK*%
X107751247Y-92501169D03*
%TO.N,SWD_IO*%
X111749338Y-92501792D03*
D15*
%TO.N,GNDA*%
X108000000Y-77850000D03*
%TD*%
%TA.AperFunction,Conductor*%
%TO.N,GNDA*%
G36*
X121221724Y-44009291D02*
G01*
X121242393Y-44025943D01*
X135936042Y-58719592D01*
X135969527Y-58780915D01*
X135965319Y-58848466D01*
X132861002Y-67662510D01*
X132820165Y-67719203D01*
X132755160Y-67744818D01*
X132686626Y-67731222D01*
X132636321Y-67682732D01*
X132620070Y-67623836D01*
X132618611Y-67552047D01*
X132618611Y-67552045D01*
X132575264Y-67414806D01*
X132495010Y-67295337D01*
X132384348Y-67203318D01*
X132384347Y-67203317D01*
X132352837Y-67188338D01*
X132330201Y-67177577D01*
X132330197Y-67177575D01*
X130635279Y-66584356D01*
X130635256Y-66584349D01*
X130576892Y-66570710D01*
X130576888Y-66570709D01*
X130433000Y-66573633D01*
X130295759Y-66616980D01*
X130295756Y-66616982D01*
X130176290Y-66697234D01*
X130084270Y-66807897D01*
X130058528Y-66862047D01*
X129465309Y-68556965D01*
X129465302Y-68556988D01*
X129451663Y-68615352D01*
X129451662Y-68615356D01*
X129454586Y-68759244D01*
X129497933Y-68896485D01*
X129497935Y-68896488D01*
X129559933Y-68988780D01*
X129578188Y-69015955D01*
X129684697Y-69104521D01*
X129723658Y-69162519D01*
X129725078Y-69232374D01*
X129688505Y-69291907D01*
X129661710Y-69310349D01*
X129489691Y-69397998D01*
X129317724Y-69522937D01*
X129167401Y-69673260D01*
X129042462Y-69845226D01*
X128945955Y-70034632D01*
X128880264Y-70236807D01*
X128854103Y-70401983D01*
X128847011Y-70446760D01*
X128847011Y-70659334D01*
X128854495Y-70706584D01*
X128877288Y-70850499D01*
X128880265Y-70869290D01*
X128939909Y-71052855D01*
X128945955Y-71071461D01*
X129042459Y-71260862D01*
X129166094Y-71431033D01*
X129189573Y-71496840D01*
X129173747Y-71564894D01*
X129123641Y-71613588D01*
X129085174Y-71626391D01*
X129042181Y-71633200D01*
X128840007Y-71698891D01*
X128650601Y-71795398D01*
X128478635Y-71920337D01*
X128328312Y-72070660D01*
X128203373Y-72242626D01*
X128106866Y-72432032D01*
X128041175Y-72634207D01*
X128028044Y-72717113D01*
X128007922Y-72844160D01*
X128007922Y-73056734D01*
X128014330Y-73097190D01*
X128038941Y-73252584D01*
X128041176Y-73266690D01*
X128100820Y-73450256D01*
X128106866Y-73468861D01*
X128203370Y-73658262D01*
X128327007Y-73828435D01*
X128350486Y-73894242D01*
X128334660Y-73962295D01*
X128284554Y-74010990D01*
X128246087Y-74023793D01*
X128203095Y-74030602D01*
X128000921Y-74096293D01*
X127811515Y-74192800D01*
X127639549Y-74317739D01*
X127489226Y-74468062D01*
X127364287Y-74640028D01*
X127267780Y-74829434D01*
X127202089Y-75031609D01*
X127168836Y-75241562D01*
X127168836Y-75454135D01*
X127201391Y-75659683D01*
X127202090Y-75664092D01*
X127267660Y-75865896D01*
X127267780Y-75866263D01*
X127364287Y-76055669D01*
X127489226Y-76227635D01*
X127639549Y-76377958D01*
X127811515Y-76502897D01*
X127811517Y-76502898D01*
X127811520Y-76502900D01*
X128000924Y-76599406D01*
X128203093Y-76665095D01*
X128413049Y-76698349D01*
X128413050Y-76698349D01*
X128625622Y-76698349D01*
X128625623Y-76698349D01*
X128835579Y-76665095D01*
X129037748Y-76599406D01*
X129227152Y-76502900D01*
X129299275Y-76450500D01*
X129399122Y-76377958D01*
X129399124Y-76377955D01*
X129399128Y-76377953D01*
X129549440Y-76227641D01*
X129622140Y-76127577D01*
X129677469Y-76084911D01*
X129747082Y-76078931D01*
X129808877Y-76111537D01*
X129843235Y-76172375D01*
X129839416Y-76241655D01*
X123866855Y-93199464D01*
X122298824Y-97651555D01*
X122029165Y-98417193D01*
X121988328Y-98473886D01*
X121923323Y-98499501D01*
X121912207Y-98500000D01*
X113624000Y-98500000D01*
X113556961Y-98480315D01*
X113511206Y-98427511D01*
X113500000Y-98376000D01*
X113500000Y-94600000D01*
X106000000Y-94600000D01*
X106000000Y-98376000D01*
X105980315Y-98443039D01*
X105927511Y-98488794D01*
X105876000Y-98500000D01*
X80587793Y-98500000D01*
X80520754Y-98480315D01*
X80474999Y-98427511D01*
X80470835Y-98417193D01*
X80201176Y-97651555D01*
X79722942Y-96293713D01*
X91239500Y-96293713D01*
X91239500Y-96506286D01*
X91272753Y-96716239D01*
X91338444Y-96918414D01*
X91434951Y-97107820D01*
X91559890Y-97279786D01*
X91710213Y-97430109D01*
X91882179Y-97555048D01*
X91882181Y-97555049D01*
X91882184Y-97555051D01*
X92071588Y-97651557D01*
X92273757Y-97717246D01*
X92483713Y-97750500D01*
X92483714Y-97750500D01*
X92696286Y-97750500D01*
X92696287Y-97750500D01*
X92906243Y-97717246D01*
X93108412Y-97651557D01*
X93297816Y-97555051D01*
X93384138Y-97492335D01*
X93469786Y-97430109D01*
X93469788Y-97430106D01*
X93469792Y-97430104D01*
X93620104Y-97279792D01*
X93620106Y-97279788D01*
X93620109Y-97279786D01*
X93745048Y-97107820D01*
X93745047Y-97107820D01*
X93745051Y-97107816D01*
X93749514Y-97099054D01*
X93797488Y-97048259D01*
X93865308Y-97031463D01*
X93931444Y-97053999D01*
X93970486Y-97099056D01*
X93974951Y-97107820D01*
X94099890Y-97279786D01*
X94250213Y-97430109D01*
X94422179Y-97555048D01*
X94422181Y-97555049D01*
X94422184Y-97555051D01*
X94611588Y-97651557D01*
X94813757Y-97717246D01*
X95023713Y-97750500D01*
X95023714Y-97750500D01*
X95236286Y-97750500D01*
X95236287Y-97750500D01*
X95446243Y-97717246D01*
X95648412Y-97651557D01*
X95837816Y-97555051D01*
X95924138Y-97492335D01*
X96009786Y-97430109D01*
X96009788Y-97430106D01*
X96009792Y-97430104D01*
X96160104Y-97279792D01*
X96160106Y-97279788D01*
X96160109Y-97279786D01*
X96285048Y-97107820D01*
X96285047Y-97107820D01*
X96285051Y-97107816D01*
X96289514Y-97099054D01*
X96337488Y-97048259D01*
X96405308Y-97031463D01*
X96471444Y-97053999D01*
X96510486Y-97099056D01*
X96514951Y-97107820D01*
X96639890Y-97279786D01*
X96790213Y-97430109D01*
X96962179Y-97555048D01*
X96962181Y-97555049D01*
X96962184Y-97555051D01*
X97151588Y-97651557D01*
X97353757Y-97717246D01*
X97563713Y-97750500D01*
X97563714Y-97750500D01*
X97776286Y-97750500D01*
X97776287Y-97750500D01*
X97986243Y-97717246D01*
X98188412Y-97651557D01*
X98377816Y-97555051D01*
X98549792Y-97430104D01*
X98663329Y-97316566D01*
X98724648Y-97283084D01*
X98794340Y-97288068D01*
X98850274Y-97329939D01*
X98867189Y-97360917D01*
X98916202Y-97492328D01*
X98916206Y-97492335D01*
X99002452Y-97607544D01*
X99002455Y-97607547D01*
X99117664Y-97693793D01*
X99117671Y-97693797D01*
X99252517Y-97744091D01*
X99252516Y-97744091D01*
X99259444Y-97744835D01*
X99312127Y-97750500D01*
X101107872Y-97750499D01*
X101167483Y-97744091D01*
X101302331Y-97693796D01*
X101417546Y-97607546D01*
X101503796Y-97492331D01*
X101554091Y-97357483D01*
X101560500Y-97297873D01*
X101560499Y-95502128D01*
X101554091Y-95442517D01*
X101552810Y-95439083D01*
X101503797Y-95307671D01*
X101503793Y-95307664D01*
X101417547Y-95192455D01*
X101417544Y-95192452D01*
X101302335Y-95106206D01*
X101302328Y-95106202D01*
X101167482Y-95055908D01*
X101167483Y-95055908D01*
X101107883Y-95049501D01*
X101107881Y-95049500D01*
X101107873Y-95049500D01*
X101107864Y-95049500D01*
X99312129Y-95049500D01*
X99312123Y-95049501D01*
X99252516Y-95055908D01*
X99117671Y-95106202D01*
X99117664Y-95106206D01*
X99002455Y-95192452D01*
X99002452Y-95192455D01*
X98916206Y-95307664D01*
X98916203Y-95307669D01*
X98867189Y-95439083D01*
X98825317Y-95495016D01*
X98759853Y-95519433D01*
X98691580Y-95504581D01*
X98663326Y-95483430D01*
X98549786Y-95369890D01*
X98377820Y-95244951D01*
X98188414Y-95148444D01*
X98188413Y-95148443D01*
X98188412Y-95148443D01*
X97986243Y-95082754D01*
X97986241Y-95082753D01*
X97986240Y-95082753D01*
X97824957Y-95057208D01*
X97776287Y-95049500D01*
X97563713Y-95049500D01*
X97515042Y-95057208D01*
X97353760Y-95082753D01*
X97151585Y-95148444D01*
X96962179Y-95244951D01*
X96790213Y-95369890D01*
X96639890Y-95520213D01*
X96514949Y-95692182D01*
X96510484Y-95700946D01*
X96462509Y-95751742D01*
X96394688Y-95768536D01*
X96328553Y-95745998D01*
X96289516Y-95700946D01*
X96285050Y-95692182D01*
X96160109Y-95520213D01*
X96009786Y-95369890D01*
X95837820Y-95244951D01*
X95648414Y-95148444D01*
X95648413Y-95148443D01*
X95648412Y-95148443D01*
X95446243Y-95082754D01*
X95446241Y-95082753D01*
X95446240Y-95082753D01*
X95284957Y-95057208D01*
X95236287Y-95049500D01*
X95023713Y-95049500D01*
X94975042Y-95057208D01*
X94813760Y-95082753D01*
X94611585Y-95148444D01*
X94422179Y-95244951D01*
X94250213Y-95369890D01*
X94099890Y-95520213D01*
X93974949Y-95692182D01*
X93970484Y-95700946D01*
X93922509Y-95751742D01*
X93854688Y-95768536D01*
X93788553Y-95745998D01*
X93749516Y-95700946D01*
X93745050Y-95692182D01*
X93620109Y-95520213D01*
X93469786Y-95369890D01*
X93297820Y-95244951D01*
X93108414Y-95148444D01*
X93108413Y-95148443D01*
X93108412Y-95148443D01*
X92906243Y-95082754D01*
X92906241Y-95082753D01*
X92906240Y-95082753D01*
X92744957Y-95057208D01*
X92696287Y-95049500D01*
X92483713Y-95049500D01*
X92435042Y-95057208D01*
X92273760Y-95082753D01*
X92071585Y-95148444D01*
X91882179Y-95244951D01*
X91710213Y-95369890D01*
X91559890Y-95520213D01*
X91434951Y-95692179D01*
X91338444Y-95881585D01*
X91272753Y-96083760D01*
X91239500Y-96293713D01*
X79722942Y-96293713D01*
X78355553Y-92411304D01*
X100199500Y-92411304D01*
X100199500Y-92588695D01*
X100234103Y-92762658D01*
X100234106Y-92762667D01*
X100301983Y-92926540D01*
X100301990Y-92926553D01*
X100400535Y-93074034D01*
X100400538Y-93074038D01*
X100525961Y-93199461D01*
X100525965Y-93199464D01*
X100673446Y-93298009D01*
X100673459Y-93298016D01*
X100796363Y-93348923D01*
X100837334Y-93365894D01*
X100837336Y-93365894D01*
X100837341Y-93365896D01*
X101011304Y-93400499D01*
X101011307Y-93400500D01*
X101011309Y-93400500D01*
X101188693Y-93400500D01*
X101188694Y-93400499D01*
X101246682Y-93388964D01*
X101362658Y-93365896D01*
X101362661Y-93365894D01*
X101362666Y-93365894D01*
X101526547Y-93298013D01*
X101674035Y-93199464D01*
X101799464Y-93074035D01*
X101898013Y-92926547D01*
X101965894Y-92762666D01*
X101968563Y-92749251D01*
X102000499Y-92588695D01*
X102000500Y-92588693D01*
X102000500Y-92417397D01*
X106900747Y-92417397D01*
X106900747Y-92584940D01*
X106933429Y-92749243D01*
X106933431Y-92749251D01*
X106997542Y-92904029D01*
X107090620Y-93043331D01*
X107209084Y-93161795D01*
X107265456Y-93199461D01*
X107348384Y-93254872D01*
X107503165Y-93318985D01*
X107667475Y-93351668D01*
X107667479Y-93351669D01*
X107667480Y-93351669D01*
X107835015Y-93351669D01*
X107835016Y-93351668D01*
X107999329Y-93318985D01*
X108154110Y-93254872D01*
X108293409Y-93161795D01*
X108411873Y-93043331D01*
X108504950Y-92904032D01*
X108569063Y-92749251D01*
X108601747Y-92584936D01*
X108601747Y-92418020D01*
X110898838Y-92418020D01*
X110898838Y-92585563D01*
X110931520Y-92749866D01*
X110931522Y-92749874D01*
X110995633Y-92904652D01*
X111088711Y-93043954D01*
X111207175Y-93162418D01*
X111262619Y-93199464D01*
X111346475Y-93255495D01*
X111501256Y-93319608D01*
X111662434Y-93351668D01*
X111665566Y-93352291D01*
X111665570Y-93352292D01*
X111665571Y-93352292D01*
X111833106Y-93352292D01*
X111833107Y-93352291D01*
X111997420Y-93319608D01*
X112152201Y-93255495D01*
X112291500Y-93162418D01*
X112409964Y-93043954D01*
X112503041Y-92904655D01*
X112567154Y-92749874D01*
X112599838Y-92585559D01*
X112599838Y-92418025D01*
X112567154Y-92253710D01*
X112503041Y-92098929D01*
X112434806Y-91996808D01*
X112409964Y-91959629D01*
X112291500Y-91841165D01*
X112152198Y-91748087D01*
X111997420Y-91683976D01*
X111997412Y-91683974D01*
X111833109Y-91651292D01*
X111833105Y-91651292D01*
X111665571Y-91651292D01*
X111665566Y-91651292D01*
X111501263Y-91683974D01*
X111501255Y-91683976D01*
X111346477Y-91748087D01*
X111207175Y-91841165D01*
X111088711Y-91959629D01*
X110995633Y-92098931D01*
X110931522Y-92253709D01*
X110931520Y-92253717D01*
X110898838Y-92418020D01*
X108601747Y-92418020D01*
X108601747Y-92417402D01*
X108569063Y-92253087D01*
X108504950Y-92098306D01*
X108437130Y-91996806D01*
X108411873Y-91959006D01*
X108293409Y-91840542D01*
X108154107Y-91747464D01*
X107999329Y-91683353D01*
X107999321Y-91683351D01*
X107835018Y-91650669D01*
X107835014Y-91650669D01*
X107667480Y-91650669D01*
X107667475Y-91650669D01*
X107503172Y-91683351D01*
X107503164Y-91683353D01*
X107348386Y-91747464D01*
X107209084Y-91840542D01*
X107090620Y-91959006D01*
X106997542Y-92098308D01*
X106933431Y-92253086D01*
X106933429Y-92253094D01*
X106900747Y-92417397D01*
X102000500Y-92417397D01*
X102000500Y-92411309D01*
X102000499Y-92411304D01*
X101965896Y-92237341D01*
X101965893Y-92237332D01*
X101898016Y-92073459D01*
X101898009Y-92073446D01*
X101799464Y-91925965D01*
X101799461Y-91925961D01*
X101674038Y-91800538D01*
X101674034Y-91800535D01*
X101526553Y-91701990D01*
X101526540Y-91701983D01*
X101362667Y-91634106D01*
X101362658Y-91634103D01*
X101188694Y-91599500D01*
X101188691Y-91599500D01*
X101011309Y-91599500D01*
X101011306Y-91599500D01*
X100837341Y-91634103D01*
X100837332Y-91634106D01*
X100673459Y-91701983D01*
X100673446Y-91701990D01*
X100525965Y-91800535D01*
X100525961Y-91800538D01*
X100400538Y-91925961D01*
X100400535Y-91925965D01*
X100301990Y-92073446D01*
X100301983Y-92073459D01*
X100234106Y-92237332D01*
X100234103Y-92237341D01*
X100199500Y-92411304D01*
X78355553Y-92411304D01*
X77864206Y-91016228D01*
X88649500Y-91016228D01*
X88649500Y-91183771D01*
X88682182Y-91348074D01*
X88682184Y-91348082D01*
X88746295Y-91502860D01*
X88839373Y-91642162D01*
X88957837Y-91760626D01*
X89017567Y-91800536D01*
X89097137Y-91853703D01*
X89251918Y-91917816D01*
X89416228Y-91950499D01*
X89416232Y-91950500D01*
X89416233Y-91950500D01*
X89583768Y-91950500D01*
X89583769Y-91950499D01*
X89748082Y-91917816D01*
X89902863Y-91853703D01*
X90042162Y-91760626D01*
X90160626Y-91642162D01*
X90253703Y-91502863D01*
X90317816Y-91348082D01*
X90350500Y-91183767D01*
X90350500Y-91016233D01*
X90317816Y-90851918D01*
X90253703Y-90697137D01*
X90250824Y-90692828D01*
X90229945Y-90626155D01*
X90248427Y-90558774D01*
X90258084Y-90545257D01*
X90260613Y-90542174D01*
X90260626Y-90542162D01*
X90353703Y-90402863D01*
X90417816Y-90248082D01*
X90450500Y-90083767D01*
X90450500Y-89916233D01*
X90449520Y-89911304D01*
X91349500Y-89911304D01*
X91349500Y-90088695D01*
X91384103Y-90262658D01*
X91384106Y-90262667D01*
X91451983Y-90426540D01*
X91451990Y-90426553D01*
X91550535Y-90574034D01*
X91550538Y-90574038D01*
X91675961Y-90699461D01*
X91675965Y-90699464D01*
X91823446Y-90798009D01*
X91823459Y-90798016D01*
X91946363Y-90848923D01*
X91987334Y-90865894D01*
X91987336Y-90865894D01*
X91987341Y-90865896D01*
X92161304Y-90900499D01*
X92161307Y-90900500D01*
X92161309Y-90900500D01*
X92338693Y-90900500D01*
X92338694Y-90900499D01*
X92396682Y-90888964D01*
X92512658Y-90865896D01*
X92512661Y-90865894D01*
X92512666Y-90865894D01*
X92676547Y-90798013D01*
X92761531Y-90741228D01*
X114649500Y-90741228D01*
X114649500Y-90908771D01*
X114682182Y-91073074D01*
X114682184Y-91073082D01*
X114746295Y-91227860D01*
X114839373Y-91367162D01*
X114957837Y-91485626D01*
X115050494Y-91547537D01*
X115097137Y-91578703D01*
X115251918Y-91642816D01*
X115416228Y-91675499D01*
X115416232Y-91675500D01*
X115416233Y-91675500D01*
X115583768Y-91675500D01*
X115583769Y-91675499D01*
X115748082Y-91642816D01*
X115902863Y-91578703D01*
X116042162Y-91485626D01*
X116160626Y-91367162D01*
X116253703Y-91227863D01*
X116317816Y-91073082D01*
X116350500Y-90908767D01*
X116350500Y-90741233D01*
X116342191Y-90699461D01*
X116334001Y-90658283D01*
X116330158Y-90638964D01*
X121651569Y-90638964D01*
X121651569Y-90851537D01*
X121677653Y-91016228D01*
X121684823Y-91061494D01*
X121724553Y-91183771D01*
X121750513Y-91263665D01*
X121847020Y-91453071D01*
X121971959Y-91625037D01*
X122122282Y-91775360D01*
X122294248Y-91900299D01*
X122294250Y-91900300D01*
X122294253Y-91900302D01*
X122483657Y-91996808D01*
X122685826Y-92062497D01*
X122895782Y-92095751D01*
X122895783Y-92095751D01*
X123108355Y-92095751D01*
X123108356Y-92095751D01*
X123318312Y-92062497D01*
X123520481Y-91996808D01*
X123709885Y-91900302D01*
X123774022Y-91853704D01*
X123881855Y-91775360D01*
X123881857Y-91775357D01*
X123881861Y-91775355D01*
X124032173Y-91625043D01*
X124032175Y-91625039D01*
X124032178Y-91625037D01*
X124157117Y-91453071D01*
X124157116Y-91453071D01*
X124157120Y-91453067D01*
X124253626Y-91263663D01*
X124319315Y-91061494D01*
X124352569Y-90851538D01*
X124352569Y-90638964D01*
X124319315Y-90429008D01*
X124253626Y-90226839D01*
X124157120Y-90037435D01*
X124069061Y-89916231D01*
X124033484Y-89867263D01*
X124010004Y-89801457D01*
X124025830Y-89733403D01*
X124075935Y-89684708D01*
X124114404Y-89671905D01*
X124157402Y-89665095D01*
X124359571Y-89599406D01*
X124548975Y-89502900D01*
X124610998Y-89457838D01*
X124720945Y-89377958D01*
X124720947Y-89377955D01*
X124720951Y-89377953D01*
X124871263Y-89227641D01*
X124871265Y-89227637D01*
X124871268Y-89227635D01*
X124996207Y-89055669D01*
X124996208Y-89055668D01*
X124996210Y-89055665D01*
X125092716Y-88866261D01*
X125158405Y-88664092D01*
X125191659Y-88454136D01*
X125191659Y-88241562D01*
X125158405Y-88031606D01*
X125092716Y-87829437D01*
X124996210Y-87640033D01*
X124929404Y-87548082D01*
X124872574Y-87469861D01*
X124849095Y-87404054D01*
X124864921Y-87336001D01*
X124915027Y-87287306D01*
X124953489Y-87274504D01*
X124996489Y-87267694D01*
X125198658Y-87202005D01*
X125388062Y-87105499D01*
X125461801Y-87051925D01*
X125560032Y-86980557D01*
X125560034Y-86980554D01*
X125560038Y-86980552D01*
X125710350Y-86830240D01*
X125710352Y-86830236D01*
X125710355Y-86830234D01*
X125835294Y-86658268D01*
X125835293Y-86658268D01*
X125835297Y-86658264D01*
X125931803Y-86468860D01*
X125997492Y-86266691D01*
X126030746Y-86056735D01*
X126030746Y-85844161D01*
X125997492Y-85634205D01*
X125931803Y-85432036D01*
X125835297Y-85242632D01*
X125711661Y-85072460D01*
X125688182Y-85006653D01*
X125704008Y-84938600D01*
X125754114Y-84889905D01*
X125792575Y-84877103D01*
X125835577Y-84870293D01*
X126037746Y-84804604D01*
X126227150Y-84708098D01*
X126249123Y-84692133D01*
X126399120Y-84583156D01*
X126399122Y-84583153D01*
X126399126Y-84583151D01*
X126549438Y-84432839D01*
X126549440Y-84432835D01*
X126549443Y-84432833D01*
X126674382Y-84260867D01*
X126674381Y-84260867D01*
X126674385Y-84260863D01*
X126770891Y-84071459D01*
X126836580Y-83869290D01*
X126869834Y-83659334D01*
X126869834Y-83446760D01*
X126836580Y-83236804D01*
X126770891Y-83034635D01*
X126712886Y-82920795D01*
X126699991Y-82852127D01*
X126726267Y-82787386D01*
X126783374Y-82747129D01*
X126820853Y-82740527D01*
X126939020Y-82738125D01*
X126962023Y-82737658D01*
X127099262Y-82694311D01*
X127218731Y-82614057D01*
X127310750Y-82503395D01*
X127336491Y-82449248D01*
X127929714Y-80754319D01*
X127943358Y-80695937D01*
X127943287Y-80692466D01*
X127940434Y-80552047D01*
X127940434Y-80552045D01*
X127897087Y-80414806D01*
X127816833Y-80295337D01*
X127706171Y-80203318D01*
X127706170Y-80203317D01*
X127674660Y-80188338D01*
X127652024Y-80177577D01*
X127652020Y-80177575D01*
X125957102Y-79584356D01*
X125957079Y-79584349D01*
X125898715Y-79570710D01*
X125898711Y-79570709D01*
X125754823Y-79573633D01*
X125617582Y-79616980D01*
X125617579Y-79616982D01*
X125498113Y-79697234D01*
X125406093Y-79807897D01*
X125380351Y-79862047D01*
X124787132Y-81556965D01*
X124787125Y-81556988D01*
X124773486Y-81615352D01*
X124773485Y-81615356D01*
X124776409Y-81759244D01*
X124819756Y-81896485D01*
X124819758Y-81896488D01*
X124861010Y-81957897D01*
X124900011Y-82015955D01*
X125006520Y-82104521D01*
X125045481Y-82162519D01*
X125046901Y-82232374D01*
X125010328Y-82291907D01*
X124983533Y-82310349D01*
X124811514Y-82397998D01*
X124639547Y-82522937D01*
X124489224Y-82673260D01*
X124364285Y-82845226D01*
X124267778Y-83034632D01*
X124202087Y-83236807D01*
X124168834Y-83446760D01*
X124168834Y-83659333D01*
X124202087Y-83869286D01*
X124267778Y-84071461D01*
X124364282Y-84260862D01*
X124487918Y-84431034D01*
X124511397Y-84496841D01*
X124495571Y-84564895D01*
X124445465Y-84613589D01*
X124406998Y-84626392D01*
X124364005Y-84633201D01*
X124161831Y-84698892D01*
X123972425Y-84795399D01*
X123800459Y-84920338D01*
X123650136Y-85070661D01*
X123525197Y-85242627D01*
X123428690Y-85432033D01*
X123428689Y-85432035D01*
X123428689Y-85432036D01*
X123411880Y-85483768D01*
X123362999Y-85634208D01*
X123329746Y-85844161D01*
X123329746Y-86056734D01*
X123360435Y-86250500D01*
X123363000Y-86266691D01*
X123425800Y-86459970D01*
X123428690Y-86468862D01*
X123525194Y-86658263D01*
X123648830Y-86828435D01*
X123672309Y-86894242D01*
X123656483Y-86962296D01*
X123606377Y-87010990D01*
X123567910Y-87023793D01*
X123524918Y-87030602D01*
X123322744Y-87096293D01*
X123133338Y-87192800D01*
X122961372Y-87317739D01*
X122811049Y-87468062D01*
X122686110Y-87640028D01*
X122589603Y-87829434D01*
X122523912Y-88031609D01*
X122490659Y-88241562D01*
X122490659Y-88454135D01*
X122513447Y-88598016D01*
X122523913Y-88664092D01*
X122589602Y-88866261D01*
X122679561Y-89042816D01*
X122686110Y-89055668D01*
X122809743Y-89225836D01*
X122833223Y-89291642D01*
X122817397Y-89359696D01*
X122767291Y-89408391D01*
X122728825Y-89421194D01*
X122685827Y-89428004D01*
X122483654Y-89493695D01*
X122294248Y-89590202D01*
X122122282Y-89715141D01*
X121971959Y-89865464D01*
X121847020Y-90037430D01*
X121750513Y-90226836D01*
X121684822Y-90429011D01*
X121651569Y-90638964D01*
X116330158Y-90638964D01*
X116317817Y-90576925D01*
X116317816Y-90576918D01*
X116253703Y-90422137D01*
X116222537Y-90375494D01*
X116160626Y-90282837D01*
X116042162Y-90164373D01*
X115902860Y-90071295D01*
X115748082Y-90007184D01*
X115748074Y-90007182D01*
X115583771Y-89974500D01*
X115583767Y-89974500D01*
X115416233Y-89974500D01*
X115416228Y-89974500D01*
X115251925Y-90007182D01*
X115251917Y-90007184D01*
X115097139Y-90071295D01*
X114957837Y-90164373D01*
X114839373Y-90282837D01*
X114746295Y-90422139D01*
X114682184Y-90576917D01*
X114682182Y-90576925D01*
X114649500Y-90741228D01*
X92761531Y-90741228D01*
X92824035Y-90699464D01*
X92830668Y-90692831D01*
X92876040Y-90647460D01*
X92949461Y-90574038D01*
X92949464Y-90574035D01*
X93048013Y-90426547D01*
X93115894Y-90262666D01*
X93123021Y-90226839D01*
X93150499Y-90088695D01*
X93150500Y-90088693D01*
X93150500Y-89911306D01*
X93150499Y-89911304D01*
X93115896Y-89737341D01*
X93115893Y-89737332D01*
X93048016Y-89573459D01*
X93048009Y-89573446D01*
X92949464Y-89425965D01*
X92949461Y-89425961D01*
X92824038Y-89300538D01*
X92824034Y-89300535D01*
X92676553Y-89201990D01*
X92676540Y-89201983D01*
X92512667Y-89134106D01*
X92512658Y-89134103D01*
X92338694Y-89099500D01*
X92338691Y-89099500D01*
X92161309Y-89099500D01*
X92161306Y-89099500D01*
X91987341Y-89134103D01*
X91987332Y-89134106D01*
X91823459Y-89201983D01*
X91823446Y-89201990D01*
X91675965Y-89300535D01*
X91675961Y-89300538D01*
X91550538Y-89425961D01*
X91550535Y-89425965D01*
X91451990Y-89573446D01*
X91451983Y-89573459D01*
X91384106Y-89737332D01*
X91384103Y-89737341D01*
X91349500Y-89911304D01*
X90449520Y-89911304D01*
X90417816Y-89751918D01*
X90353703Y-89597137D01*
X90284585Y-89493695D01*
X90260626Y-89457837D01*
X90142162Y-89339373D01*
X90002860Y-89246295D01*
X89848082Y-89182184D01*
X89848074Y-89182182D01*
X89683771Y-89149500D01*
X89683767Y-89149500D01*
X89516233Y-89149500D01*
X89516228Y-89149500D01*
X89351925Y-89182182D01*
X89351917Y-89182184D01*
X89197139Y-89246295D01*
X89057837Y-89339373D01*
X88939373Y-89457837D01*
X88846295Y-89597139D01*
X88782184Y-89751917D01*
X88782182Y-89751925D01*
X88749500Y-89916228D01*
X88749500Y-90083771D01*
X88782182Y-90248074D01*
X88782184Y-90248082D01*
X88846295Y-90402859D01*
X88846301Y-90402871D01*
X88849174Y-90407170D01*
X88870053Y-90473847D01*
X88851569Y-90541228D01*
X88841931Y-90554722D01*
X88839372Y-90557840D01*
X88746295Y-90697139D01*
X88682184Y-90851917D01*
X88682182Y-90851925D01*
X88649500Y-91016228D01*
X77864206Y-91016228D01*
X76944345Y-88404481D01*
X80596487Y-88404481D01*
X80623406Y-88539808D01*
X80623409Y-88539818D01*
X80676209Y-88667290D01*
X80676216Y-88667303D01*
X80752873Y-88782027D01*
X80752876Y-88782031D01*
X80850442Y-88879597D01*
X80850446Y-88879600D01*
X80965170Y-88956257D01*
X80965183Y-88956264D01*
X81019359Y-88978704D01*
X81092660Y-89009066D01*
X81092664Y-89009066D01*
X81092665Y-89009067D01*
X81227992Y-89035986D01*
X81227995Y-89035986D01*
X81365983Y-89035986D01*
X81457029Y-89017875D01*
X81501316Y-89009066D01*
X81628799Y-88956261D01*
X81743530Y-88879600D01*
X81841102Y-88782028D01*
X81917763Y-88667297D01*
X81970568Y-88539814D01*
X81997488Y-88404479D01*
X81997488Y-88266493D01*
X81997488Y-88266490D01*
X81970569Y-88131163D01*
X81970568Y-88131162D01*
X81970568Y-88131158D01*
X81967551Y-88123874D01*
X81917766Y-88003681D01*
X81917759Y-88003668D01*
X81841102Y-87888944D01*
X81841099Y-87888940D01*
X81743533Y-87791374D01*
X81743529Y-87791371D01*
X81628805Y-87714714D01*
X81628792Y-87714707D01*
X81620576Y-87711304D01*
X85699500Y-87711304D01*
X85699500Y-87888695D01*
X85734103Y-88062658D01*
X85734106Y-88062667D01*
X85801983Y-88226540D01*
X85801990Y-88226553D01*
X85900535Y-88374034D01*
X85900538Y-88374038D01*
X86025961Y-88499461D01*
X86025965Y-88499464D01*
X86173446Y-88598009D01*
X86173459Y-88598016D01*
X86245518Y-88627863D01*
X86337334Y-88665894D01*
X86337336Y-88665894D01*
X86337341Y-88665896D01*
X86511304Y-88700499D01*
X86511307Y-88700500D01*
X86511309Y-88700500D01*
X86688693Y-88700500D01*
X86688694Y-88700499D01*
X86746682Y-88688964D01*
X86862658Y-88665896D01*
X86862661Y-88665894D01*
X86862666Y-88665894D01*
X87026547Y-88598013D01*
X87174035Y-88499464D01*
X87299464Y-88374035D01*
X87398013Y-88226547D01*
X87465894Y-88062666D01*
X87467222Y-88055993D01*
X87497681Y-87902863D01*
X87500500Y-87888691D01*
X87500500Y-87711309D01*
X87500500Y-87711306D01*
X87500499Y-87711304D01*
X87465896Y-87537341D01*
X87465894Y-87537338D01*
X87465894Y-87537334D01*
X87421213Y-87429463D01*
X88111265Y-87429463D01*
X88111265Y-87597006D01*
X88143947Y-87761309D01*
X88143949Y-87761317D01*
X88208060Y-87916095D01*
X88301138Y-88055397D01*
X88419602Y-88173861D01*
X88498442Y-88226540D01*
X88558902Y-88266938D01*
X88713683Y-88331051D01*
X88811456Y-88350499D01*
X88877993Y-88363734D01*
X88877997Y-88363735D01*
X88877998Y-88363735D01*
X89045533Y-88363735D01*
X89045534Y-88363734D01*
X89209847Y-88331051D01*
X89364628Y-88266938D01*
X89503927Y-88173861D01*
X89622391Y-88055397D01*
X89715468Y-87916098D01*
X89779581Y-87761317D01*
X89812265Y-87597002D01*
X89812265Y-87429468D01*
X89779581Y-87265153D01*
X89715468Y-87110372D01*
X89676410Y-87051918D01*
X89622391Y-86971072D01*
X89503927Y-86852608D01*
X89364625Y-86759530D01*
X89209847Y-86695419D01*
X89209839Y-86695417D01*
X89045536Y-86662735D01*
X89045532Y-86662735D01*
X88877998Y-86662735D01*
X88877993Y-86662735D01*
X88713690Y-86695417D01*
X88713682Y-86695419D01*
X88558904Y-86759530D01*
X88419602Y-86852608D01*
X88301138Y-86971072D01*
X88208060Y-87110374D01*
X88143949Y-87265152D01*
X88143947Y-87265160D01*
X88111265Y-87429463D01*
X87421213Y-87429463D01*
X87415733Y-87416233D01*
X87398016Y-87373459D01*
X87398009Y-87373446D01*
X87299464Y-87225965D01*
X87299461Y-87225961D01*
X87174038Y-87100538D01*
X87174034Y-87100535D01*
X87026553Y-87001990D01*
X87026540Y-87001983D01*
X86862667Y-86934106D01*
X86862658Y-86934103D01*
X86688694Y-86899500D01*
X86688691Y-86899500D01*
X86511309Y-86899500D01*
X86511306Y-86899500D01*
X86337341Y-86934103D01*
X86337332Y-86934106D01*
X86173459Y-87001983D01*
X86173446Y-87001990D01*
X86025965Y-87100535D01*
X86025961Y-87100538D01*
X85900538Y-87225961D01*
X85900535Y-87225965D01*
X85801990Y-87373446D01*
X85801983Y-87373459D01*
X85734106Y-87537332D01*
X85734103Y-87537341D01*
X85699500Y-87711304D01*
X81620576Y-87711304D01*
X81501320Y-87661907D01*
X81501310Y-87661904D01*
X81365983Y-87634986D01*
X81365981Y-87634986D01*
X81227995Y-87634986D01*
X81227993Y-87634986D01*
X81092665Y-87661904D01*
X81092655Y-87661907D01*
X80965183Y-87714707D01*
X80965170Y-87714714D01*
X80850446Y-87791371D01*
X80850442Y-87791374D01*
X80752876Y-87888940D01*
X80752873Y-87888944D01*
X80676216Y-88003668D01*
X80676209Y-88003681D01*
X80623409Y-88131153D01*
X80623406Y-88131163D01*
X80596488Y-88266490D01*
X80596488Y-88266493D01*
X80596488Y-88404479D01*
X80596488Y-88404481D01*
X80596487Y-88404481D01*
X76944345Y-88404481D01*
X76246890Y-86424208D01*
X89949500Y-86424208D01*
X89949500Y-86591751D01*
X89982182Y-86756054D01*
X89982184Y-86756062D01*
X90046295Y-86910840D01*
X90139373Y-87050142D01*
X90257837Y-87168606D01*
X90343675Y-87225961D01*
X90397137Y-87261683D01*
X90397138Y-87261683D01*
X90397139Y-87261684D01*
X90432201Y-87276207D01*
X90551918Y-87325796D01*
X90656865Y-87346671D01*
X90716228Y-87358479D01*
X90716232Y-87358480D01*
X90716233Y-87358480D01*
X90883768Y-87358480D01*
X90883769Y-87358479D01*
X91048082Y-87325796D01*
X91202863Y-87261683D01*
X91341147Y-87169284D01*
X93749500Y-87169284D01*
X93749500Y-87346675D01*
X93784103Y-87520638D01*
X93784106Y-87520647D01*
X93851983Y-87684520D01*
X93851990Y-87684533D01*
X93950535Y-87832014D01*
X93950538Y-87832018D01*
X94075961Y-87957441D01*
X94075965Y-87957444D01*
X94223446Y-88055989D01*
X94223459Y-88055996D01*
X94346363Y-88106903D01*
X94387334Y-88123874D01*
X94387336Y-88123874D01*
X94387341Y-88123876D01*
X94561304Y-88158479D01*
X94561307Y-88158480D01*
X94561309Y-88158480D01*
X94738693Y-88158480D01*
X94738694Y-88158479D01*
X94825397Y-88141233D01*
X94912658Y-88123876D01*
X94912661Y-88123874D01*
X94912666Y-88123874D01*
X95076547Y-88055993D01*
X95076552Y-88055989D01*
X95076555Y-88055988D01*
X95116711Y-88029156D01*
X95169664Y-87993773D01*
X95236340Y-87972895D01*
X95303720Y-87991379D01*
X95307440Y-87993769D01*
X95397137Y-88053703D01*
X95397138Y-88053703D01*
X95397139Y-88053704D01*
X95418756Y-88062658D01*
X95551918Y-88117816D01*
X95716228Y-88150499D01*
X95716232Y-88150500D01*
X95716233Y-88150500D01*
X95883768Y-88150500D01*
X95883769Y-88150499D01*
X95930379Y-88141228D01*
X96949500Y-88141228D01*
X96949500Y-88308771D01*
X96982182Y-88473074D01*
X96982184Y-88473082D01*
X97046295Y-88627860D01*
X97139373Y-88767162D01*
X97257837Y-88885626D01*
X97350494Y-88947537D01*
X97397137Y-88978703D01*
X97551918Y-89042816D01*
X97716228Y-89075499D01*
X97716232Y-89075500D01*
X97716233Y-89075500D01*
X97883768Y-89075500D01*
X97883769Y-89075499D01*
X98048082Y-89042816D01*
X98202863Y-88978703D01*
X98342162Y-88885626D01*
X98460626Y-88767162D01*
X98553703Y-88627863D01*
X98617816Y-88473082D01*
X98650500Y-88308767D01*
X98650500Y-88141233D01*
X98617816Y-87976918D01*
X98553703Y-87822137D01*
X98504221Y-87748082D01*
X98460626Y-87682837D01*
X98342162Y-87564373D01*
X98202860Y-87471295D01*
X98048082Y-87407184D01*
X98048074Y-87407182D01*
X97883771Y-87374500D01*
X97883767Y-87374500D01*
X97716233Y-87374500D01*
X97716228Y-87374500D01*
X97551925Y-87407182D01*
X97551917Y-87407184D01*
X97397139Y-87471295D01*
X97257837Y-87564373D01*
X97139373Y-87682837D01*
X97046295Y-87822139D01*
X96982184Y-87976917D01*
X96982182Y-87976925D01*
X96949500Y-88141228D01*
X95930379Y-88141228D01*
X96048082Y-88117816D01*
X96202863Y-88053703D01*
X96342162Y-87960626D01*
X96460626Y-87842162D01*
X96553703Y-87702863D01*
X96617816Y-87548082D01*
X96650500Y-87383767D01*
X96650500Y-87216233D01*
X96617816Y-87051918D01*
X96553703Y-86897137D01*
X96507798Y-86828435D01*
X96460626Y-86757837D01*
X96342165Y-86639376D01*
X96342161Y-86639373D01*
X96303055Y-86613243D01*
X96303053Y-86613241D01*
X96202865Y-86546298D01*
X96202861Y-86546296D01*
X96130271Y-86516228D01*
X99499500Y-86516228D01*
X99499500Y-86683771D01*
X99532182Y-86848074D01*
X99532185Y-86848086D01*
X99596165Y-87002548D01*
X99603634Y-87072017D01*
X99596165Y-87097452D01*
X99532185Y-87251913D01*
X99532182Y-87251925D01*
X99499500Y-87416228D01*
X99499500Y-87583771D01*
X99532182Y-87748074D01*
X99532184Y-87748082D01*
X99596295Y-87902860D01*
X99689373Y-88042162D01*
X99807837Y-88160626D01*
X99827645Y-88173861D01*
X99947137Y-88253703D01*
X100101918Y-88317816D01*
X100266228Y-88350499D01*
X100266232Y-88350500D01*
X100266233Y-88350500D01*
X100433768Y-88350500D01*
X100433769Y-88350499D01*
X100598082Y-88317816D01*
X100752863Y-88253703D01*
X100892162Y-88160626D01*
X101010626Y-88042162D01*
X101103703Y-87902863D01*
X101167816Y-87748082D01*
X101200500Y-87583767D01*
X101200500Y-87416233D01*
X101167816Y-87251918D01*
X101107167Y-87105499D01*
X101103834Y-87097453D01*
X101096365Y-87027984D01*
X101103834Y-87002547D01*
X101110032Y-86987583D01*
X101167816Y-86848082D01*
X101200500Y-86683767D01*
X101200500Y-86516233D01*
X101167816Y-86351918D01*
X101103703Y-86197137D01*
X101072537Y-86150494D01*
X101010626Y-86057837D01*
X100892162Y-85939373D01*
X100752860Y-85846295D01*
X100598082Y-85782184D01*
X100598074Y-85782182D01*
X100433771Y-85749500D01*
X100433767Y-85749500D01*
X100266233Y-85749500D01*
X100266228Y-85749500D01*
X100101925Y-85782182D01*
X100101917Y-85782184D01*
X99947139Y-85846295D01*
X99807837Y-85939373D01*
X99689373Y-86057837D01*
X99596295Y-86197139D01*
X99532184Y-86351917D01*
X99532182Y-86351925D01*
X99499500Y-86516228D01*
X96130271Y-86516228D01*
X96048082Y-86482184D01*
X96048074Y-86482182D01*
X95883771Y-86449500D01*
X95883767Y-86449500D01*
X95716233Y-86449500D01*
X95716228Y-86449500D01*
X95551925Y-86482182D01*
X95551917Y-86482184D01*
X95397140Y-86546295D01*
X95397127Y-86546302D01*
X95369977Y-86564443D01*
X95303299Y-86585320D01*
X95235920Y-86566834D01*
X95227755Y-86561001D01*
X95076553Y-86459970D01*
X95076540Y-86459963D01*
X94912667Y-86392086D01*
X94912658Y-86392083D01*
X94738694Y-86357480D01*
X94738691Y-86357480D01*
X94561309Y-86357480D01*
X94561306Y-86357480D01*
X94387341Y-86392083D01*
X94387332Y-86392086D01*
X94223459Y-86459963D01*
X94223446Y-86459970D01*
X94075965Y-86558515D01*
X94075961Y-86558518D01*
X93950538Y-86683941D01*
X93950535Y-86683945D01*
X93851990Y-86831426D01*
X93851983Y-86831439D01*
X93784106Y-86995312D01*
X93784103Y-86995321D01*
X93749500Y-87169284D01*
X91341147Y-87169284D01*
X91342162Y-87168606D01*
X91342165Y-87168603D01*
X91435253Y-87075516D01*
X91460623Y-87050145D01*
X91460626Y-87050142D01*
X91460721Y-87050000D01*
X91553703Y-86910843D01*
X91617816Y-86756062D01*
X91650500Y-86591747D01*
X91650500Y-86424213D01*
X91617816Y-86259898D01*
X91553703Y-86105117D01*
X91521374Y-86056734D01*
X91460626Y-85965817D01*
X91342162Y-85847353D01*
X91202860Y-85754275D01*
X91048082Y-85690164D01*
X91048074Y-85690162D01*
X90883771Y-85657480D01*
X90883767Y-85657480D01*
X90716233Y-85657480D01*
X90716228Y-85657480D01*
X90551925Y-85690162D01*
X90551917Y-85690164D01*
X90397139Y-85754275D01*
X90257837Y-85847353D01*
X90139373Y-85965817D01*
X90046295Y-86105119D01*
X89982184Y-86259897D01*
X89982182Y-86259905D01*
X89949500Y-86424208D01*
X76246890Y-86424208D01*
X75856658Y-85316228D01*
X118249500Y-85316228D01*
X118249500Y-85483771D01*
X118282182Y-85648074D01*
X118282184Y-85648082D01*
X118346295Y-85802860D01*
X118439373Y-85942162D01*
X118557837Y-86060626D01*
X118624423Y-86105117D01*
X118697137Y-86153703D01*
X118851918Y-86217816D01*
X119016228Y-86250499D01*
X119016232Y-86250500D01*
X119016233Y-86250500D01*
X119183768Y-86250500D01*
X119183769Y-86250499D01*
X119348082Y-86217816D01*
X119502863Y-86153703D01*
X119642162Y-86060626D01*
X119760626Y-85942162D01*
X119853703Y-85802863D01*
X119917816Y-85648082D01*
X119950500Y-85483767D01*
X119950500Y-85316233D01*
X119917816Y-85151918D01*
X119853703Y-84997137D01*
X119814590Y-84938600D01*
X119760626Y-84857837D01*
X119642162Y-84739373D01*
X119502860Y-84646295D01*
X119348082Y-84582184D01*
X119348074Y-84582182D01*
X119183771Y-84549500D01*
X119183767Y-84549500D01*
X119016233Y-84549500D01*
X119016228Y-84549500D01*
X118851925Y-84582182D01*
X118851917Y-84582184D01*
X118697139Y-84646295D01*
X118557837Y-84739373D01*
X118439373Y-84857837D01*
X118346295Y-84997139D01*
X118282184Y-85151917D01*
X118282182Y-85151925D01*
X118249500Y-85316228D01*
X75856658Y-85316228D01*
X75196062Y-83440607D01*
X88986593Y-83440607D01*
X88986593Y-83608150D01*
X89019275Y-83772453D01*
X89019277Y-83772461D01*
X89083388Y-83927239D01*
X89176466Y-84066541D01*
X89294930Y-84185005D01*
X89387587Y-84246916D01*
X89434230Y-84278082D01*
X89589011Y-84342195D01*
X89753321Y-84374878D01*
X89753325Y-84374879D01*
X89753326Y-84374879D01*
X89920861Y-84374879D01*
X89920862Y-84374878D01*
X90085175Y-84342195D01*
X90239956Y-84278082D01*
X90379255Y-84185005D01*
X90497719Y-84066541D01*
X90590796Y-83927242D01*
X90654909Y-83772461D01*
X90687593Y-83608146D01*
X90687593Y-83440612D01*
X90654909Y-83276297D01*
X90590796Y-83121516D01*
X90506256Y-82994993D01*
X90485378Y-82928315D01*
X90503863Y-82860935D01*
X90555842Y-82814245D01*
X90561871Y-82811555D01*
X90600952Y-82795368D01*
X90740251Y-82702291D01*
X90858715Y-82583827D01*
X90951792Y-82444528D01*
X91015905Y-82289747D01*
X91048589Y-82125432D01*
X91048589Y-81957898D01*
X91015905Y-81793583D01*
X90955633Y-81648074D01*
X90951793Y-81638804D01*
X90937769Y-81617816D01*
X90905018Y-81568800D01*
X90858715Y-81499502D01*
X90760993Y-81401780D01*
X92884421Y-81401780D01*
X92884421Y-81579171D01*
X92919024Y-81753134D01*
X92919027Y-81753143D01*
X92986904Y-81917016D01*
X92986911Y-81917029D01*
X93085456Y-82064510D01*
X93085459Y-82064514D01*
X93210882Y-82189937D01*
X93210886Y-82189940D01*
X93358367Y-82288485D01*
X93358380Y-82288492D01*
X93411149Y-82310349D01*
X93522255Y-82356370D01*
X93522257Y-82356370D01*
X93522262Y-82356372D01*
X93696225Y-82390975D01*
X93696228Y-82390976D01*
X93696230Y-82390976D01*
X93873614Y-82390976D01*
X93873615Y-82390975D01*
X93931603Y-82379440D01*
X94047579Y-82356372D01*
X94047582Y-82356370D01*
X94047587Y-82356370D01*
X94211468Y-82288489D01*
X94358956Y-82189940D01*
X94484385Y-82064511D01*
X94516647Y-82016228D01*
X95349500Y-82016228D01*
X95349500Y-82183771D01*
X95382182Y-82348074D01*
X95382184Y-82348082D01*
X95446295Y-82502860D01*
X95539373Y-82642162D01*
X95657837Y-82760626D01*
X95734036Y-82811540D01*
X95797137Y-82853703D01*
X95797138Y-82853703D01*
X95797139Y-82853704D01*
X95832201Y-82868227D01*
X95951918Y-82917816D01*
X96116228Y-82950499D01*
X96116232Y-82950500D01*
X96116233Y-82950500D01*
X96283768Y-82950500D01*
X96283769Y-82950499D01*
X96448082Y-82917816D01*
X96602863Y-82853703D01*
X96742162Y-82760626D01*
X96860626Y-82642162D01*
X96953703Y-82502863D01*
X97017816Y-82348082D01*
X97050500Y-82183767D01*
X97050500Y-82016233D01*
X97050499Y-82016228D01*
X98949500Y-82016228D01*
X98949500Y-82183771D01*
X98982182Y-82348074D01*
X98982184Y-82348082D01*
X99046295Y-82502860D01*
X99139373Y-82642162D01*
X99257837Y-82760626D01*
X99334036Y-82811540D01*
X99397137Y-82853703D01*
X99397138Y-82853703D01*
X99397139Y-82853704D01*
X99432201Y-82868227D01*
X99551918Y-82917816D01*
X99716228Y-82950499D01*
X99716232Y-82950500D01*
X99716233Y-82950500D01*
X99883768Y-82950500D01*
X99883769Y-82950499D01*
X100048082Y-82917816D01*
X100202863Y-82853703D01*
X100342162Y-82760626D01*
X100460626Y-82642162D01*
X100553703Y-82502863D01*
X100617816Y-82348082D01*
X100650500Y-82183767D01*
X100650500Y-82016233D01*
X100617816Y-81851918D01*
X100553703Y-81697137D01*
X100500702Y-81617816D01*
X100460626Y-81557837D01*
X100342162Y-81439373D01*
X100202860Y-81346295D01*
X100048082Y-81282184D01*
X100048074Y-81282182D01*
X99883771Y-81249500D01*
X99883767Y-81249500D01*
X99716233Y-81249500D01*
X99716228Y-81249500D01*
X99551925Y-81282182D01*
X99551917Y-81282184D01*
X99397139Y-81346295D01*
X99257837Y-81439373D01*
X99139373Y-81557837D01*
X99046295Y-81697139D01*
X98982184Y-81851917D01*
X98982182Y-81851925D01*
X98949500Y-82016228D01*
X97050499Y-82016228D01*
X97017816Y-81851918D01*
X96953703Y-81697137D01*
X96924533Y-81653481D01*
X96917791Y-81643390D01*
X96896913Y-81576713D01*
X96915398Y-81509333D01*
X96967377Y-81462643D01*
X97020893Y-81450500D01*
X97183768Y-81450500D01*
X97183769Y-81450499D01*
X97348082Y-81417816D01*
X97502863Y-81353703D01*
X97642162Y-81260626D01*
X97760626Y-81142162D01*
X97853703Y-81002863D01*
X97917816Y-80848082D01*
X97947210Y-80700309D01*
X97979594Y-80638398D01*
X98040310Y-80603824D01*
X98068827Y-80600500D01*
X98157318Y-80600500D01*
X98157319Y-80600499D01*
X98243424Y-80583372D01*
X98331283Y-80565896D01*
X98331286Y-80565894D01*
X98331291Y-80565894D01*
X98495172Y-80498013D01*
X98642660Y-80399464D01*
X98768089Y-80274035D01*
X98866638Y-80126547D01*
X98934519Y-79962666D01*
X98936433Y-79953047D01*
X98961711Y-79825961D01*
X98969125Y-79788691D01*
X98969125Y-79666228D01*
X99399500Y-79666228D01*
X99399500Y-79833771D01*
X99432182Y-79998074D01*
X99432184Y-79998082D01*
X99496295Y-80152860D01*
X99589373Y-80292162D01*
X99707837Y-80410626D01*
X99800494Y-80472537D01*
X99847137Y-80503703D01*
X100001918Y-80567816D01*
X100113325Y-80589976D01*
X100166228Y-80600499D01*
X100166232Y-80600500D01*
X100166233Y-80600500D01*
X100333768Y-80600500D01*
X100333769Y-80600499D01*
X100498082Y-80567816D01*
X100652863Y-80503703D01*
X100792162Y-80410626D01*
X100910626Y-80292162D01*
X101003703Y-80152863D01*
X101062381Y-80011202D01*
X102349500Y-80011202D01*
X102349500Y-80178745D01*
X102382182Y-80343048D01*
X102382184Y-80343056D01*
X102446295Y-80497834D01*
X102539373Y-80637136D01*
X102657837Y-80755600D01*
X102720002Y-80797137D01*
X102797137Y-80848677D01*
X102797138Y-80848677D01*
X102797139Y-80848678D01*
X102809041Y-80853608D01*
X102951918Y-80912790D01*
X102979566Y-80918289D01*
X103009776Y-80924299D01*
X103071687Y-80956683D01*
X103106261Y-81017399D01*
X103107203Y-81070106D01*
X103098028Y-81116234D01*
X103098028Y-81283771D01*
X103130710Y-81448074D01*
X103130712Y-81448082D01*
X103194823Y-81602860D01*
X103287901Y-81742162D01*
X103406365Y-81860626D01*
X103460034Y-81896486D01*
X103545665Y-81953703D01*
X103545666Y-81953703D01*
X103545667Y-81953704D01*
X103580729Y-81968227D01*
X103700446Y-82017816D01*
X103864756Y-82050499D01*
X103864760Y-82050500D01*
X103864761Y-82050500D01*
X104032296Y-82050500D01*
X104032297Y-82050499D01*
X104196610Y-82017816D01*
X104351391Y-81953703D01*
X104490690Y-81860626D01*
X104609154Y-81742162D01*
X104702231Y-81602863D01*
X104766344Y-81448082D01*
X104799028Y-81283767D01*
X104799028Y-81201824D01*
X104818713Y-81134785D01*
X104871517Y-81089030D01*
X104940675Y-81079086D01*
X104991919Y-81098722D01*
X105018412Y-81116424D01*
X105132062Y-81192363D01*
X105132064Y-81192364D01*
X105132068Y-81192366D01*
X105225715Y-81231155D01*
X105295943Y-81260244D01*
X105295945Y-81260244D01*
X105295950Y-81260246D01*
X105469913Y-81294849D01*
X105469916Y-81294850D01*
X105469918Y-81294850D01*
X105647302Y-81294850D01*
X105647303Y-81294849D01*
X105710986Y-81282182D01*
X105821267Y-81260246D01*
X105821270Y-81260244D01*
X105821275Y-81260244D01*
X105985156Y-81192363D01*
X106132644Y-81093814D01*
X106258073Y-80968385D01*
X106356622Y-80820897D01*
X106424503Y-80657016D01*
X106426636Y-80646297D01*
X106459108Y-80483045D01*
X106459109Y-80483043D01*
X106459109Y-80311304D01*
X113999500Y-80311304D01*
X113999500Y-80488695D01*
X114034103Y-80662658D01*
X114034106Y-80662667D01*
X114101983Y-80826540D01*
X114101990Y-80826553D01*
X114200535Y-80974034D01*
X114200538Y-80974038D01*
X114325961Y-81099461D01*
X114325965Y-81099464D01*
X114473446Y-81198009D01*
X114473459Y-81198016D01*
X114553473Y-81231158D01*
X114637334Y-81265894D01*
X114637336Y-81265894D01*
X114637341Y-81265896D01*
X114811304Y-81300499D01*
X114811307Y-81300500D01*
X114811309Y-81300500D01*
X114988693Y-81300500D01*
X114988694Y-81300499D01*
X115051723Y-81287962D01*
X115162658Y-81265896D01*
X115162661Y-81265894D01*
X115162666Y-81265894D01*
X115326547Y-81198013D01*
X115474035Y-81099464D01*
X115599464Y-80974035D01*
X115698013Y-80826547D01*
X115765894Y-80662666D01*
X115766855Y-80657838D01*
X115793804Y-80522354D01*
X115800500Y-80488691D01*
X115800500Y-80311309D01*
X115800500Y-80311306D01*
X115800499Y-80311304D01*
X115765896Y-80137341D01*
X115765893Y-80137332D01*
X115763556Y-80131691D01*
X115708215Y-79998082D01*
X115698016Y-79973459D01*
X115698009Y-79973446D01*
X115599464Y-79825965D01*
X115599461Y-79825961D01*
X115474038Y-79700538D01*
X115474034Y-79700535D01*
X115326553Y-79601990D01*
X115326540Y-79601983D01*
X115162667Y-79534106D01*
X115162658Y-79534103D01*
X114988694Y-79499500D01*
X114988691Y-79499500D01*
X114811309Y-79499500D01*
X114811306Y-79499500D01*
X114637341Y-79534103D01*
X114637332Y-79534106D01*
X114473459Y-79601983D01*
X114473446Y-79601990D01*
X114325965Y-79700535D01*
X114325961Y-79700538D01*
X114200538Y-79825961D01*
X114200535Y-79825965D01*
X114101990Y-79973446D01*
X114101983Y-79973459D01*
X114034106Y-80137332D01*
X114034103Y-80137341D01*
X113999500Y-80311304D01*
X106459109Y-80311304D01*
X106459109Y-80305656D01*
X106459108Y-80305654D01*
X106424505Y-80131691D01*
X106424502Y-80131682D01*
X106419447Y-80119479D01*
X106391331Y-80051599D01*
X106356625Y-79967809D01*
X106356618Y-79967796D01*
X106258073Y-79820315D01*
X106258070Y-79820311D01*
X106234335Y-79796576D01*
X106200850Y-79735253D01*
X106200399Y-79684704D01*
X106212175Y-79625500D01*
X106228084Y-79545521D01*
X106228084Y-79377987D01*
X106195400Y-79213672D01*
X106131287Y-79058891D01*
X106085869Y-78990918D01*
X106038210Y-78919591D01*
X105919746Y-78801127D01*
X105780444Y-78708049D01*
X105625666Y-78643938D01*
X105625658Y-78643936D01*
X105461355Y-78611254D01*
X105461351Y-78611254D01*
X105293817Y-78611254D01*
X105293812Y-78611254D01*
X105129509Y-78643936D01*
X105129501Y-78643938D01*
X104974723Y-78708049D01*
X104835421Y-78801127D01*
X104716957Y-78919591D01*
X104623879Y-79058893D01*
X104559768Y-79213671D01*
X104559766Y-79213679D01*
X104527084Y-79377982D01*
X104527084Y-79545525D01*
X104559766Y-79709828D01*
X104559768Y-79709836D01*
X104623879Y-79864614D01*
X104623880Y-79864616D01*
X104623881Y-79864617D01*
X104696607Y-79973459D01*
X104697839Y-79975302D01*
X104718717Y-80041979D01*
X104709299Y-80091644D01*
X104692715Y-80131682D01*
X104692713Y-80131686D01*
X104658109Y-80305654D01*
X104658109Y-80419251D01*
X104638424Y-80486290D01*
X104585620Y-80532045D01*
X104516462Y-80541989D01*
X104465219Y-80522354D01*
X104361126Y-80452802D01*
X104351391Y-80446297D01*
X104351388Y-80446295D01*
X104351387Y-80446295D01*
X104196610Y-80382184D01*
X104196604Y-80382182D01*
X104138750Y-80370674D01*
X104076839Y-80338288D01*
X104042265Y-80277572D01*
X104041325Y-80224866D01*
X104050500Y-80178741D01*
X104050500Y-80011207D01*
X104017816Y-79846892D01*
X103957192Y-79700535D01*
X103953704Y-79692113D01*
X103948753Y-79684704D01*
X103899711Y-79611306D01*
X103860626Y-79552811D01*
X103742162Y-79434347D01*
X103602860Y-79341269D01*
X103448082Y-79277158D01*
X103448074Y-79277156D01*
X103283771Y-79244474D01*
X103283767Y-79244474D01*
X103116233Y-79244474D01*
X103116228Y-79244474D01*
X102951925Y-79277156D01*
X102951917Y-79277158D01*
X102797139Y-79341269D01*
X102657837Y-79434347D01*
X102539373Y-79552811D01*
X102446295Y-79692113D01*
X102382184Y-79846891D01*
X102382182Y-79846899D01*
X102349500Y-80011202D01*
X101062381Y-80011202D01*
X101067816Y-79998082D01*
X101100500Y-79833767D01*
X101100500Y-79666233D01*
X101067816Y-79501918D01*
X101003703Y-79347137D01*
X100961360Y-79283767D01*
X100910626Y-79207837D01*
X100792162Y-79089373D01*
X100652860Y-78996295D01*
X100498082Y-78932184D01*
X100498074Y-78932182D01*
X100333771Y-78899500D01*
X100333767Y-78899500D01*
X100166233Y-78899500D01*
X100166228Y-78899500D01*
X100001925Y-78932182D01*
X100001917Y-78932184D01*
X99847139Y-78996295D01*
X99707837Y-79089373D01*
X99589373Y-79207837D01*
X99496295Y-79347139D01*
X99432184Y-79501917D01*
X99432182Y-79501925D01*
X99399500Y-79666228D01*
X98969125Y-79666228D01*
X98969125Y-79611309D01*
X98969125Y-79611306D01*
X98969124Y-79611304D01*
X98934521Y-79437341D01*
X98934518Y-79437332D01*
X98866641Y-79273459D01*
X98866634Y-79273446D01*
X98768089Y-79125965D01*
X98768086Y-79125961D01*
X98642663Y-79000538D01*
X98642659Y-79000535D01*
X98495178Y-78901990D01*
X98495165Y-78901983D01*
X98331292Y-78834106D01*
X98331283Y-78834103D01*
X98157319Y-78799500D01*
X98157316Y-78799500D01*
X97979934Y-78799500D01*
X97979931Y-78799500D01*
X97805966Y-78834103D01*
X97805957Y-78834106D01*
X97642084Y-78901983D01*
X97642071Y-78901990D01*
X97494590Y-79000535D01*
X97494586Y-79000538D01*
X97369163Y-79125961D01*
X97369160Y-79125965D01*
X97270615Y-79273446D01*
X97270608Y-79273459D01*
X97202731Y-79437332D01*
X97202728Y-79437341D01*
X97168125Y-79611304D01*
X97168125Y-79625500D01*
X97148440Y-79692539D01*
X97095636Y-79738294D01*
X97044125Y-79749500D01*
X97016228Y-79749500D01*
X96851925Y-79782182D01*
X96851917Y-79782184D01*
X96697139Y-79846295D01*
X96557837Y-79939373D01*
X96439373Y-80057837D01*
X96346295Y-80197139D01*
X96282184Y-80351917D01*
X96282182Y-80351925D01*
X96249500Y-80516228D01*
X96249500Y-80683771D01*
X96282182Y-80848074D01*
X96282184Y-80848082D01*
X96346296Y-81002861D01*
X96346298Y-81002865D01*
X96382209Y-81056610D01*
X96403087Y-81123287D01*
X96384602Y-81190667D01*
X96332623Y-81237357D01*
X96279107Y-81249500D01*
X96116228Y-81249500D01*
X95951925Y-81282182D01*
X95951917Y-81282184D01*
X95797139Y-81346295D01*
X95657837Y-81439373D01*
X95539373Y-81557837D01*
X95446295Y-81697139D01*
X95382184Y-81851917D01*
X95382182Y-81851925D01*
X95349500Y-82016228D01*
X94516647Y-82016228D01*
X94516830Y-82015954D01*
X94566747Y-81941250D01*
X94582931Y-81917027D01*
X94582934Y-81917023D01*
X94650815Y-81753142D01*
X94685421Y-81579167D01*
X94685421Y-81401785D01*
X94685421Y-81401782D01*
X94685420Y-81401780D01*
X94650817Y-81227817D01*
X94650814Y-81227808D01*
X94582937Y-81063935D01*
X94582930Y-81063922D01*
X94484385Y-80916441D01*
X94484382Y-80916437D01*
X94358959Y-80791014D01*
X94358955Y-80791011D01*
X94211474Y-80692466D01*
X94211461Y-80692459D01*
X94047588Y-80624582D01*
X94047579Y-80624579D01*
X93873615Y-80589976D01*
X93873612Y-80589976D01*
X93696230Y-80589976D01*
X93696227Y-80589976D01*
X93522262Y-80624579D01*
X93522253Y-80624582D01*
X93358380Y-80692459D01*
X93358367Y-80692466D01*
X93210886Y-80791011D01*
X93210882Y-80791014D01*
X93085459Y-80916437D01*
X93085456Y-80916441D01*
X92986911Y-81063922D01*
X92986904Y-81063935D01*
X92919027Y-81227808D01*
X92919024Y-81227817D01*
X92884421Y-81401780D01*
X90760993Y-81401780D01*
X90740251Y-81381038D01*
X90600949Y-81287960D01*
X90446171Y-81223849D01*
X90446163Y-81223847D01*
X90281860Y-81191165D01*
X90281856Y-81191165D01*
X90114322Y-81191165D01*
X90114317Y-81191165D01*
X89950014Y-81223847D01*
X89950006Y-81223849D01*
X89795228Y-81287960D01*
X89655926Y-81381038D01*
X89537462Y-81499502D01*
X89444384Y-81638804D01*
X89380273Y-81793582D01*
X89380271Y-81793590D01*
X89347589Y-81957893D01*
X89347589Y-82125436D01*
X89380271Y-82289739D01*
X89380273Y-82289747D01*
X89444385Y-82444526D01*
X89444387Y-82444530D01*
X89528925Y-82571051D01*
X89549803Y-82637728D01*
X89531318Y-82705108D01*
X89479339Y-82751798D01*
X89473277Y-82754502D01*
X89434230Y-82770675D01*
X89294930Y-82863752D01*
X89176466Y-82982216D01*
X89083388Y-83121518D01*
X89019277Y-83276296D01*
X89019275Y-83276304D01*
X88986593Y-83440607D01*
X75196062Y-83440607D01*
X74808601Y-82340493D01*
X85625235Y-82340493D01*
X85625235Y-82508036D01*
X85657917Y-82672339D01*
X85657919Y-82672347D01*
X85722030Y-82827125D01*
X85815108Y-82966427D01*
X85933572Y-83084891D01*
X85988386Y-83121516D01*
X86072872Y-83177968D01*
X86227653Y-83242081D01*
X86391963Y-83274764D01*
X86391967Y-83274765D01*
X86391968Y-83274765D01*
X86559503Y-83274765D01*
X86559504Y-83274764D01*
X86723817Y-83242081D01*
X86878598Y-83177968D01*
X87017897Y-83084891D01*
X87136361Y-82966427D01*
X87229438Y-82827128D01*
X87293551Y-82672347D01*
X87326235Y-82508032D01*
X87326235Y-82340498D01*
X87324636Y-82332459D01*
X87330860Y-82262869D01*
X87373721Y-82207690D01*
X87439609Y-82184442D01*
X87493704Y-82193702D01*
X87551918Y-82217816D01*
X87716228Y-82250499D01*
X87716232Y-82250500D01*
X87716233Y-82250500D01*
X87883768Y-82250500D01*
X87883769Y-82250499D01*
X88048082Y-82217816D01*
X88202863Y-82153703D01*
X88342162Y-82060626D01*
X88460626Y-81942162D01*
X88553703Y-81802863D01*
X88617816Y-81648082D01*
X88650500Y-81483767D01*
X88650500Y-81316233D01*
X88617816Y-81151918D01*
X88553703Y-80997137D01*
X88505034Y-80924299D01*
X88460626Y-80857837D01*
X88342162Y-80739373D01*
X88202860Y-80646295D01*
X88048082Y-80582184D01*
X88048074Y-80582182D01*
X87883771Y-80549500D01*
X87883767Y-80549500D01*
X87716233Y-80549500D01*
X87716228Y-80549500D01*
X87551919Y-80582183D01*
X87551462Y-80582322D01*
X87551210Y-80582324D01*
X87545943Y-80583372D01*
X87545744Y-80582372D01*
X87481595Y-80582941D01*
X87422485Y-80545689D01*
X87400913Y-80511112D01*
X87397844Y-80503703D01*
X87376763Y-80452808D01*
X87353704Y-80397138D01*
X87260626Y-80257837D01*
X87142162Y-80139373D01*
X87002860Y-80046295D01*
X86848082Y-79982184D01*
X86848074Y-79982182D01*
X86683771Y-79949500D01*
X86683767Y-79949500D01*
X86516233Y-79949500D01*
X86516228Y-79949500D01*
X86351925Y-79982182D01*
X86351917Y-79982184D01*
X86197139Y-80046295D01*
X86057837Y-80139373D01*
X85939373Y-80257837D01*
X85846295Y-80397139D01*
X85782184Y-80551917D01*
X85782182Y-80551925D01*
X85749500Y-80716228D01*
X85749500Y-80883771D01*
X85782182Y-81048074D01*
X85782184Y-81048082D01*
X85846295Y-81202860D01*
X85939373Y-81342162D01*
X86057836Y-81460625D01*
X86068149Y-81467516D01*
X86112953Y-81521129D01*
X86121659Y-81590454D01*
X86091503Y-81653481D01*
X86068147Y-81673719D01*
X85933573Y-81763638D01*
X85933569Y-81763641D01*
X85815108Y-81882102D01*
X85722030Y-82021404D01*
X85657919Y-82176182D01*
X85657917Y-82176190D01*
X85625235Y-82340493D01*
X74808601Y-82340493D01*
X74284918Y-80853608D01*
X77953689Y-80853608D01*
X77980608Y-80988935D01*
X77980611Y-80988945D01*
X78033411Y-81116417D01*
X78033418Y-81116430D01*
X78110075Y-81231154D01*
X78110078Y-81231158D01*
X78207644Y-81328724D01*
X78207648Y-81328727D01*
X78322372Y-81405384D01*
X78322385Y-81405391D01*
X78431287Y-81450499D01*
X78449862Y-81458193D01*
X78449866Y-81458193D01*
X78449867Y-81458194D01*
X78585194Y-81485113D01*
X78585197Y-81485113D01*
X78723185Y-81485113D01*
X78814231Y-81467002D01*
X78858518Y-81458193D01*
X78986001Y-81405388D01*
X79100732Y-81328727D01*
X79198304Y-81231155D01*
X79274965Y-81116424D01*
X79327770Y-80988941D01*
X79342917Y-80912791D01*
X79354690Y-80853608D01*
X79354690Y-80715617D01*
X79327771Y-80580290D01*
X79327770Y-80580289D01*
X79327770Y-80580285D01*
X79321809Y-80565893D01*
X79274968Y-80452808D01*
X79274961Y-80452795D01*
X79198304Y-80338071D01*
X79198301Y-80338067D01*
X79100735Y-80240501D01*
X79100731Y-80240498D01*
X78986007Y-80163841D01*
X78985994Y-80163834D01*
X78858522Y-80111034D01*
X78858512Y-80111031D01*
X78723185Y-80084113D01*
X78723183Y-80084113D01*
X78585197Y-80084113D01*
X78585195Y-80084113D01*
X78449867Y-80111031D01*
X78449857Y-80111034D01*
X78322385Y-80163834D01*
X78322372Y-80163841D01*
X78207648Y-80240498D01*
X78207644Y-80240501D01*
X78110078Y-80338067D01*
X78110075Y-80338071D01*
X78033418Y-80452795D01*
X78033411Y-80452808D01*
X77980611Y-80580280D01*
X77980608Y-80580290D01*
X77953690Y-80715617D01*
X77953690Y-80715620D01*
X77953690Y-80853606D01*
X77953690Y-80853608D01*
X77953689Y-80853608D01*
X74284918Y-80853608D01*
X73109488Y-77516228D01*
X86749500Y-77516228D01*
X86749500Y-77683771D01*
X86782182Y-77848074D01*
X86782184Y-77848082D01*
X86846295Y-78002860D01*
X86939373Y-78142162D01*
X87057837Y-78260626D01*
X87115958Y-78299461D01*
X87197137Y-78353703D01*
X87351918Y-78417816D01*
X87495103Y-78446297D01*
X87516228Y-78450499D01*
X87516232Y-78450500D01*
X87516233Y-78450500D01*
X87683768Y-78450500D01*
X87683769Y-78450499D01*
X87848082Y-78417816D01*
X88002863Y-78353703D01*
X88142162Y-78260626D01*
X88260626Y-78142162D01*
X88285049Y-78105609D01*
X88338662Y-78060804D01*
X88388152Y-78050500D01*
X88483768Y-78050500D01*
X88483769Y-78050499D01*
X88648082Y-78017816D01*
X88802863Y-77953703D01*
X88942162Y-77860626D01*
X89060626Y-77742162D01*
X89153703Y-77602863D01*
X89217816Y-77448082D01*
X89250500Y-77283767D01*
X89250500Y-77116233D01*
X89217816Y-76951918D01*
X89153703Y-76797137D01*
X89062942Y-76661304D01*
X93599500Y-76661304D01*
X93599500Y-76838695D01*
X93634103Y-77012658D01*
X93634106Y-77012667D01*
X93701983Y-77176540D01*
X93701990Y-77176553D01*
X93800535Y-77324034D01*
X93800538Y-77324038D01*
X93925961Y-77449461D01*
X93925965Y-77449464D01*
X94073446Y-77548009D01*
X94073459Y-77548016D01*
X94117440Y-77566233D01*
X94237334Y-77615894D01*
X94237336Y-77615894D01*
X94237341Y-77615896D01*
X94411304Y-77650499D01*
X94411307Y-77650500D01*
X94411309Y-77650500D01*
X94588693Y-77650500D01*
X94588694Y-77650499D01*
X94675025Y-77633327D01*
X94762658Y-77615896D01*
X94762661Y-77615894D01*
X94762666Y-77615894D01*
X94778047Y-77609522D01*
X94847515Y-77602053D01*
X94909994Y-77633327D01*
X94945648Y-77693415D01*
X94949500Y-77724083D01*
X94949500Y-77883771D01*
X94982182Y-78048074D01*
X94982184Y-78048082D01*
X95034355Y-78174034D01*
X95046297Y-78202863D01*
X95046300Y-78202868D01*
X95048970Y-78207862D01*
X95063216Y-78276264D01*
X95038220Y-78341509D01*
X94981917Y-78382883D01*
X94915424Y-78387939D01*
X94740205Y-78353086D01*
X94740201Y-78353086D01*
X94562819Y-78353086D01*
X94562816Y-78353086D01*
X94388851Y-78387689D01*
X94388842Y-78387692D01*
X94224969Y-78455569D01*
X94224956Y-78455576D01*
X94077475Y-78554121D01*
X94077471Y-78554124D01*
X93952048Y-78679547D01*
X93952045Y-78679551D01*
X93853500Y-78827032D01*
X93853493Y-78827045D01*
X93785616Y-78990918D01*
X93785613Y-78990927D01*
X93751010Y-79164890D01*
X93751010Y-79342281D01*
X93785613Y-79516244D01*
X93785616Y-79516253D01*
X93853493Y-79680126D01*
X93853500Y-79680139D01*
X93952045Y-79827620D01*
X93952048Y-79827624D01*
X94077471Y-79953047D01*
X94077475Y-79953050D01*
X94224956Y-80051595D01*
X94224969Y-80051602D01*
X94321641Y-80091644D01*
X94388844Y-80119480D01*
X94388846Y-80119480D01*
X94388851Y-80119482D01*
X94562814Y-80154085D01*
X94562817Y-80154086D01*
X94562819Y-80154086D01*
X94740203Y-80154086D01*
X94740204Y-80154085D01*
X94814168Y-80139373D01*
X94914168Y-80119482D01*
X94914171Y-80119480D01*
X94914176Y-80119480D01*
X95078057Y-80051599D01*
X95158962Y-79997538D01*
X95225637Y-79976662D01*
X95275303Y-79986080D01*
X95351918Y-80017816D01*
X95473395Y-80041979D01*
X95516228Y-80050499D01*
X95516232Y-80050500D01*
X95516233Y-80050500D01*
X95683768Y-80050500D01*
X95683769Y-80050499D01*
X95848082Y-80017816D01*
X96002863Y-79953703D01*
X96142162Y-79860626D01*
X96260626Y-79742162D01*
X96353703Y-79602863D01*
X96417816Y-79448082D01*
X96450500Y-79283767D01*
X96450500Y-79116233D01*
X96417816Y-78951918D01*
X96353703Y-78797137D01*
X96353701Y-78797134D01*
X96263584Y-78662263D01*
X96242706Y-78595586D01*
X96261191Y-78528206D01*
X96297794Y-78490271D01*
X96342162Y-78460626D01*
X96460626Y-78342162D01*
X96553703Y-78202863D01*
X96617816Y-78048082D01*
X96650500Y-77883767D01*
X96650500Y-77716233D01*
X96617816Y-77551918D01*
X96600993Y-77511304D01*
X105299500Y-77511304D01*
X105299500Y-77688695D01*
X105334103Y-77862658D01*
X105334106Y-77862667D01*
X105401983Y-78026540D01*
X105401990Y-78026553D01*
X105500535Y-78174034D01*
X105500538Y-78174038D01*
X105625961Y-78299461D01*
X105625965Y-78299464D01*
X105773446Y-78398009D01*
X105773459Y-78398016D01*
X105890022Y-78446297D01*
X105937334Y-78465894D01*
X105937336Y-78465894D01*
X105937341Y-78465896D01*
X106111304Y-78500499D01*
X106111307Y-78500500D01*
X106111309Y-78500500D01*
X106288693Y-78500500D01*
X106288694Y-78500499D01*
X106346682Y-78488964D01*
X106462658Y-78465896D01*
X106462661Y-78465894D01*
X106462666Y-78465894D01*
X106626547Y-78398013D01*
X106774035Y-78299464D01*
X106899464Y-78174035D01*
X106998013Y-78026547D01*
X107001630Y-78017816D01*
X107028185Y-77953704D01*
X107065894Y-77862666D01*
X107085144Y-77765893D01*
X107093460Y-77724083D01*
X107100500Y-77688691D01*
X107100500Y-77566228D01*
X108725235Y-77566228D01*
X108725235Y-77733771D01*
X108757917Y-77898074D01*
X108757919Y-77898082D01*
X108822030Y-78052860D01*
X108915108Y-78192162D01*
X109033572Y-78310626D01*
X109126229Y-78372537D01*
X109172872Y-78403703D01*
X109327653Y-78467816D01*
X109491963Y-78500499D01*
X109491967Y-78500500D01*
X109491968Y-78500500D01*
X109659503Y-78500500D01*
X109659504Y-78500499D01*
X109823817Y-78467816D01*
X109978598Y-78403703D01*
X110117897Y-78310626D01*
X110236361Y-78192162D01*
X110329438Y-78052863D01*
X110393551Y-77898082D01*
X110426235Y-77733767D01*
X110426235Y-77566233D01*
X110393551Y-77401918D01*
X110329438Y-77247137D01*
X110282271Y-77176547D01*
X110236361Y-77107837D01*
X110117900Y-76989376D01*
X110117896Y-76989373D01*
X109996590Y-76908319D01*
X109978598Y-76896297D01*
X109978595Y-76896295D01*
X109978594Y-76896295D01*
X109823817Y-76832184D01*
X109823809Y-76832182D01*
X109718849Y-76811304D01*
X113699500Y-76811304D01*
X113699500Y-76988695D01*
X113734103Y-77162658D01*
X113734106Y-77162667D01*
X113801983Y-77326540D01*
X113801990Y-77326553D01*
X113900535Y-77474034D01*
X113900538Y-77474038D01*
X114025961Y-77599461D01*
X114025965Y-77599464D01*
X114173446Y-77698009D01*
X114173459Y-77698016D01*
X114259774Y-77733768D01*
X114337334Y-77765894D01*
X114337336Y-77765894D01*
X114337341Y-77765896D01*
X114511304Y-77800499D01*
X114511307Y-77800500D01*
X114511309Y-77800500D01*
X114688693Y-77800500D01*
X114688694Y-77800499D01*
X114746682Y-77788964D01*
X114862658Y-77765896D01*
X114862661Y-77765894D01*
X114862666Y-77765894D01*
X114982560Y-77716233D01*
X115002548Y-77707954D01*
X115072017Y-77700485D01*
X115097452Y-77707954D01*
X115159774Y-77733768D01*
X115237334Y-77765894D01*
X115237336Y-77765894D01*
X115237341Y-77765896D01*
X115411304Y-77800499D01*
X115411307Y-77800500D01*
X115411309Y-77800500D01*
X115588693Y-77800500D01*
X115588694Y-77800499D01*
X115646682Y-77788964D01*
X115762658Y-77765896D01*
X115762661Y-77765894D01*
X115762666Y-77765894D01*
X115926547Y-77698013D01*
X116074035Y-77599464D01*
X116199464Y-77474035D01*
X116298013Y-77326547D01*
X116299054Y-77324035D01*
X116326473Y-77257837D01*
X116365894Y-77162666D01*
X116370528Y-77139373D01*
X116400499Y-76988695D01*
X116400500Y-76988693D01*
X116400500Y-76811306D01*
X116400499Y-76811304D01*
X116365896Y-76637341D01*
X116365893Y-76637332D01*
X116298016Y-76473459D01*
X116298009Y-76473446D01*
X116199464Y-76325965D01*
X116199461Y-76325961D01*
X116074038Y-76200538D01*
X116074034Y-76200535D01*
X115926553Y-76101990D01*
X115926540Y-76101983D01*
X115762667Y-76034106D01*
X115762658Y-76034103D01*
X115588694Y-75999500D01*
X115588691Y-75999500D01*
X115411309Y-75999500D01*
X115411306Y-75999500D01*
X115237341Y-76034103D01*
X115237332Y-76034106D01*
X115097452Y-76092046D01*
X115027983Y-76099515D01*
X115002548Y-76092046D01*
X114862667Y-76034106D01*
X114862658Y-76034103D01*
X114688694Y-75999500D01*
X114688691Y-75999500D01*
X114511309Y-75999500D01*
X114511306Y-75999500D01*
X114337341Y-76034103D01*
X114337332Y-76034106D01*
X114173459Y-76101983D01*
X114173446Y-76101990D01*
X114025965Y-76200535D01*
X114025961Y-76200538D01*
X113900538Y-76325961D01*
X113900535Y-76325965D01*
X113801990Y-76473446D01*
X113801983Y-76473459D01*
X113734106Y-76637332D01*
X113734103Y-76637341D01*
X113699500Y-76811304D01*
X109718849Y-76811304D01*
X109659506Y-76799500D01*
X109659502Y-76799500D01*
X109491968Y-76799500D01*
X109491963Y-76799500D01*
X109327660Y-76832182D01*
X109327652Y-76832184D01*
X109172874Y-76896295D01*
X109033572Y-76989373D01*
X108915108Y-77107837D01*
X108822030Y-77247139D01*
X108757919Y-77401917D01*
X108757917Y-77401925D01*
X108725235Y-77566228D01*
X107100500Y-77566228D01*
X107100500Y-77511309D01*
X107100500Y-77511306D01*
X107100499Y-77511304D01*
X107065896Y-77337341D01*
X107065893Y-77337332D01*
X106998016Y-77173459D01*
X106998009Y-77173446D01*
X106899464Y-77025965D01*
X106899461Y-77025961D01*
X106774038Y-76900538D01*
X106774034Y-76900535D01*
X106626553Y-76801990D01*
X106626540Y-76801983D01*
X106462667Y-76734106D01*
X106462658Y-76734103D01*
X106288694Y-76699500D01*
X106288691Y-76699500D01*
X106111309Y-76699500D01*
X106111306Y-76699500D01*
X105937341Y-76734103D01*
X105937332Y-76734106D01*
X105773459Y-76801983D01*
X105773446Y-76801990D01*
X105625965Y-76900535D01*
X105625961Y-76900538D01*
X105500538Y-77025961D01*
X105500535Y-77025965D01*
X105401990Y-77173446D01*
X105401983Y-77173459D01*
X105334106Y-77337332D01*
X105334103Y-77337341D01*
X105299500Y-77511304D01*
X96600993Y-77511304D01*
X96574802Y-77448074D01*
X96553704Y-77397138D01*
X96460626Y-77257837D01*
X96342162Y-77139373D01*
X96202860Y-77046295D01*
X96048082Y-76982184D01*
X96048074Y-76982182D01*
X95883771Y-76949500D01*
X95883767Y-76949500D01*
X95716233Y-76949500D01*
X95704042Y-76951925D01*
X95546556Y-76983250D01*
X95476965Y-76977022D01*
X95421788Y-76934158D01*
X95398544Y-76868268D01*
X95400223Y-76844787D01*
X95399903Y-76844756D01*
X95400500Y-76838693D01*
X95400500Y-76661306D01*
X95400499Y-76661304D01*
X95365896Y-76487341D01*
X95365893Y-76487332D01*
X95298016Y-76323459D01*
X95298009Y-76323446D01*
X95199464Y-76175965D01*
X95199461Y-76175961D01*
X95074038Y-76050538D01*
X95074034Y-76050535D01*
X94926553Y-75951990D01*
X94926540Y-75951983D01*
X94762667Y-75884106D01*
X94762658Y-75884103D01*
X94588694Y-75849500D01*
X94588691Y-75849500D01*
X94411309Y-75849500D01*
X94411306Y-75849500D01*
X94237341Y-75884103D01*
X94237332Y-75884106D01*
X94073459Y-75951983D01*
X94073446Y-75951990D01*
X93925965Y-76050535D01*
X93925961Y-76050538D01*
X93800538Y-76175961D01*
X93800535Y-76175965D01*
X93701990Y-76323446D01*
X93701983Y-76323459D01*
X93634106Y-76487332D01*
X93634103Y-76487341D01*
X93599500Y-76661304D01*
X89062942Y-76661304D01*
X89060626Y-76657838D01*
X89060624Y-76657835D01*
X88942162Y-76539373D01*
X88802860Y-76446295D01*
X88648082Y-76382184D01*
X88648074Y-76382182D01*
X88483771Y-76349500D01*
X88483767Y-76349500D01*
X88316233Y-76349500D01*
X88316228Y-76349500D01*
X88151925Y-76382182D01*
X88151917Y-76382184D01*
X87997139Y-76446295D01*
X87857837Y-76539373D01*
X87739375Y-76657835D01*
X87722259Y-76683451D01*
X87722114Y-76683670D01*
X87714951Y-76694390D01*
X87661338Y-76739196D01*
X87611848Y-76749500D01*
X87516228Y-76749500D01*
X87351925Y-76782182D01*
X87351917Y-76782184D01*
X87197139Y-76846295D01*
X87057837Y-76939373D01*
X86939373Y-77057837D01*
X86846295Y-77197139D01*
X86782184Y-77351917D01*
X86782182Y-77351925D01*
X86749500Y-77516228D01*
X73109488Y-77516228D01*
X72510746Y-75816228D01*
X79949500Y-75816228D01*
X79949500Y-75983771D01*
X79982182Y-76148074D01*
X79982184Y-76148082D01*
X80046295Y-76302860D01*
X80139373Y-76442162D01*
X80257837Y-76560626D01*
X80343430Y-76617817D01*
X80397137Y-76653703D01*
X80397138Y-76653703D01*
X80397139Y-76653704D01*
X80415487Y-76661304D01*
X80551918Y-76717816D01*
X80683475Y-76743984D01*
X80716228Y-76750499D01*
X80716232Y-76750500D01*
X80816055Y-76750500D01*
X80883094Y-76770185D01*
X80928849Y-76822989D01*
X80937672Y-76850308D01*
X80939129Y-76857634D01*
X80939131Y-76857642D01*
X81007008Y-77021515D01*
X81007015Y-77021528D01*
X81105560Y-77169009D01*
X81105563Y-77169013D01*
X81230986Y-77294436D01*
X81230990Y-77294439D01*
X81378471Y-77392984D01*
X81378484Y-77392991D01*
X81501388Y-77443898D01*
X81542359Y-77460869D01*
X81542361Y-77460869D01*
X81542366Y-77460871D01*
X81716329Y-77495474D01*
X81716332Y-77495475D01*
X81716334Y-77495475D01*
X81893718Y-77495475D01*
X81893719Y-77495474D01*
X81951707Y-77483939D01*
X82067683Y-77460871D01*
X82067686Y-77460869D01*
X82067691Y-77460869D01*
X82225314Y-77395580D01*
X82225315Y-77395580D01*
X82227247Y-77394779D01*
X82231572Y-77392988D01*
X82379060Y-77294439D01*
X82504489Y-77169010D01*
X82603038Y-77021522D01*
X82670919Y-76857641D01*
X82670919Y-76857636D01*
X82670921Y-76857633D01*
X82695492Y-76734103D01*
X82705525Y-76683666D01*
X82705525Y-76506284D01*
X82705525Y-76506281D01*
X82705524Y-76506279D01*
X82670921Y-76332316D01*
X82670918Y-76332307D01*
X82668289Y-76325961D01*
X82627562Y-76227635D01*
X82603041Y-76168434D01*
X82603034Y-76168421D01*
X82504489Y-76020940D01*
X82504486Y-76020936D01*
X82379063Y-75895513D01*
X82379059Y-75895510D01*
X82231578Y-75796965D01*
X82231565Y-75796958D01*
X82067692Y-75729081D01*
X82067683Y-75729078D01*
X81893719Y-75694475D01*
X81893716Y-75694475D01*
X81718298Y-75694475D01*
X81699116Y-75688842D01*
X81679139Y-75688129D01*
X81666279Y-75679200D01*
X81651259Y-75674790D01*
X81638169Y-75659683D01*
X81621746Y-75648281D01*
X81607537Y-75624332D01*
X81605504Y-75621986D01*
X81603737Y-75617927D01*
X81578762Y-75557633D01*
X81578746Y-75557595D01*
X81561611Y-75516228D01*
X85749500Y-75516228D01*
X85749500Y-75683771D01*
X85782182Y-75848074D01*
X85782184Y-75848082D01*
X85846295Y-76002860D01*
X85939373Y-76142162D01*
X86057837Y-76260626D01*
X86121045Y-76302860D01*
X86197137Y-76353703D01*
X86351918Y-76417816D01*
X86474315Y-76442162D01*
X86516228Y-76450499D01*
X86516232Y-76450500D01*
X86516233Y-76450500D01*
X86683768Y-76450500D01*
X86683769Y-76450499D01*
X86848082Y-76417816D01*
X87002863Y-76353703D01*
X87142162Y-76260626D01*
X87260626Y-76142162D01*
X87353703Y-76002863D01*
X87417816Y-75848082D01*
X87450500Y-75683767D01*
X87450500Y-75516233D01*
X87417816Y-75351918D01*
X87353703Y-75197137D01*
X87284597Y-75093713D01*
X87260626Y-75057837D01*
X87142165Y-74939376D01*
X87142161Y-74939373D01*
X87103055Y-74913243D01*
X87103053Y-74913241D01*
X87002865Y-74846298D01*
X87002861Y-74846296D01*
X86930271Y-74816228D01*
X92773913Y-74816228D01*
X92773913Y-74983771D01*
X92806595Y-75148074D01*
X92806597Y-75148082D01*
X92870708Y-75302860D01*
X92963786Y-75442162D01*
X93082250Y-75560626D01*
X93168008Y-75617927D01*
X93221550Y-75653703D01*
X93376331Y-75717816D01*
X93474491Y-75737341D01*
X93540641Y-75750499D01*
X93540645Y-75750500D01*
X93540646Y-75750500D01*
X93708181Y-75750500D01*
X93708182Y-75750499D01*
X93872495Y-75717816D01*
X93876329Y-75716228D01*
X96292802Y-75716228D01*
X96292802Y-75883771D01*
X96325484Y-76048074D01*
X96325486Y-76048082D01*
X96389597Y-76202860D01*
X96482675Y-76342162D01*
X96601139Y-76460626D01*
X96685877Y-76517246D01*
X96740439Y-76553703D01*
X96895220Y-76617816D01*
X96993380Y-76637341D01*
X97059530Y-76650499D01*
X97059534Y-76650500D01*
X97059535Y-76650500D01*
X97227070Y-76650500D01*
X97227071Y-76650499D01*
X97391384Y-76617816D01*
X97546165Y-76553703D01*
X97685464Y-76460626D01*
X97803928Y-76342162D01*
X97897005Y-76202863D01*
X97961118Y-76048082D01*
X97993802Y-75883767D01*
X97993802Y-75716233D01*
X97961118Y-75551918D01*
X97897005Y-75397137D01*
X97832458Y-75300536D01*
X97803928Y-75257837D01*
X97685464Y-75139373D01*
X97546162Y-75046295D01*
X97391384Y-74982184D01*
X97391376Y-74982182D01*
X97227073Y-74949500D01*
X97227069Y-74949500D01*
X97059535Y-74949500D01*
X97059530Y-74949500D01*
X96895227Y-74982182D01*
X96895219Y-74982184D01*
X96740441Y-75046295D01*
X96601139Y-75139373D01*
X96482675Y-75257837D01*
X96389597Y-75397139D01*
X96325486Y-75551917D01*
X96325484Y-75551925D01*
X96292802Y-75716228D01*
X93876329Y-75716228D01*
X94027276Y-75653703D01*
X94166575Y-75560626D01*
X94285039Y-75442162D01*
X94378116Y-75302863D01*
X94442229Y-75148082D01*
X94474913Y-74983767D01*
X94474913Y-74816233D01*
X94442229Y-74651918D01*
X94382939Y-74508780D01*
X94375470Y-74439310D01*
X94406745Y-74376831D01*
X94428606Y-74358226D01*
X94492161Y-74315761D01*
X94610625Y-74197297D01*
X94703702Y-74057998D01*
X94767815Y-73903217D01*
X94800499Y-73738902D01*
X94800499Y-73571368D01*
X94767815Y-73407053D01*
X94703831Y-73252585D01*
X94696363Y-73183118D01*
X94703827Y-73157695D01*
X94767816Y-73003215D01*
X94800500Y-72838900D01*
X94800500Y-72671366D01*
X94767816Y-72507051D01*
X94703703Y-72352270D01*
X94651427Y-72274034D01*
X94610626Y-72212970D01*
X94492162Y-72094506D01*
X94367641Y-72011304D01*
X97899500Y-72011304D01*
X97899500Y-72188695D01*
X97934103Y-72362658D01*
X97934106Y-72362667D01*
X98001983Y-72526540D01*
X98001990Y-72526553D01*
X98005037Y-72531113D01*
X98025912Y-72597792D01*
X98007425Y-72665171D01*
X98005037Y-72668887D01*
X98001990Y-72673446D01*
X98001983Y-72673459D01*
X97934106Y-72837332D01*
X97934103Y-72837341D01*
X97899500Y-73011304D01*
X97899500Y-73188695D01*
X97934103Y-73362658D01*
X97934106Y-73362667D01*
X98001983Y-73526540D01*
X98001990Y-73526553D01*
X98005037Y-73531113D01*
X98025912Y-73597792D01*
X98007425Y-73665171D01*
X98005037Y-73668887D01*
X98001990Y-73673446D01*
X98001983Y-73673459D01*
X97934106Y-73837332D01*
X97934103Y-73837341D01*
X97899500Y-74011304D01*
X97899500Y-74188695D01*
X97934103Y-74362658D01*
X97934106Y-74362667D01*
X98001983Y-74526540D01*
X98001990Y-74526553D01*
X98100535Y-74674034D01*
X98100538Y-74674038D01*
X98225961Y-74799461D01*
X98225965Y-74799464D01*
X98373446Y-74898009D01*
X98373459Y-74898016D01*
X98473306Y-74939373D01*
X98537334Y-74965894D01*
X98537336Y-74965894D01*
X98537341Y-74965896D01*
X98711304Y-75000499D01*
X98711307Y-75000500D01*
X98711309Y-75000500D01*
X98888693Y-75000500D01*
X98888694Y-75000499D01*
X98972813Y-74983767D01*
X99062658Y-74965896D01*
X99062661Y-74965894D01*
X99062666Y-74965894D01*
X99226547Y-74898013D01*
X99374035Y-74799464D01*
X99499464Y-74674035D01*
X99598013Y-74526547D01*
X99665894Y-74362666D01*
X99666855Y-74357838D01*
X99697852Y-74202002D01*
X99700500Y-74188691D01*
X99700500Y-74011309D01*
X99700500Y-74011306D01*
X99700499Y-74011304D01*
X99665896Y-73837341D01*
X99665893Y-73837332D01*
X99598015Y-73673457D01*
X99598014Y-73673455D01*
X99598013Y-73673453D01*
X99594965Y-73668892D01*
X99574086Y-73602217D01*
X99592569Y-73534837D01*
X99594962Y-73531113D01*
X99598013Y-73526547D01*
X99665894Y-73362666D01*
X99668414Y-73350000D01*
X99691251Y-73235187D01*
X99700500Y-73188691D01*
X99700500Y-73011309D01*
X99700500Y-73011306D01*
X99700499Y-73011304D01*
X99665896Y-72837341D01*
X99665893Y-72837332D01*
X99658810Y-72820233D01*
X99616098Y-72717115D01*
X99598015Y-72673457D01*
X99598014Y-72673455D01*
X99598013Y-72673453D01*
X99594965Y-72668892D01*
X99574086Y-72602217D01*
X99592569Y-72534837D01*
X99594962Y-72531113D01*
X99598013Y-72526547D01*
X99665894Y-72362666D01*
X99671676Y-72333602D01*
X99695670Y-72212971D01*
X99700500Y-72188691D01*
X99700500Y-72011309D01*
X99700500Y-72011306D01*
X99700499Y-72011304D01*
X99665896Y-71837341D01*
X99665893Y-71837332D01*
X99598016Y-71673459D01*
X99598009Y-71673446D01*
X99499464Y-71525965D01*
X99499461Y-71525961D01*
X99374038Y-71400538D01*
X99374034Y-71400535D01*
X99226553Y-71301990D01*
X99226540Y-71301983D01*
X99062667Y-71234106D01*
X99062658Y-71234103D01*
X98888694Y-71199500D01*
X98888691Y-71199500D01*
X98711309Y-71199500D01*
X98711306Y-71199500D01*
X98537341Y-71234103D01*
X98537332Y-71234106D01*
X98373459Y-71301983D01*
X98373446Y-71301990D01*
X98225965Y-71400535D01*
X98225961Y-71400538D01*
X98100538Y-71525961D01*
X98100535Y-71525965D01*
X98001990Y-71673446D01*
X98001983Y-71673459D01*
X97934106Y-71837332D01*
X97934103Y-71837341D01*
X97899500Y-72011304D01*
X94367641Y-72011304D01*
X94352860Y-72001428D01*
X94198082Y-71937317D01*
X94198074Y-71937315D01*
X94033771Y-71904633D01*
X94033767Y-71904633D01*
X93866233Y-71904633D01*
X93866228Y-71904633D01*
X93701925Y-71937315D01*
X93701917Y-71937317D01*
X93547139Y-72001428D01*
X93407837Y-72094506D01*
X93289373Y-72212970D01*
X93196295Y-72352272D01*
X93132184Y-72507050D01*
X93132182Y-72507058D01*
X93099500Y-72671361D01*
X93099500Y-72838904D01*
X93132182Y-73003207D01*
X93132184Y-73003215D01*
X93196165Y-73157679D01*
X93203634Y-73227149D01*
X93196165Y-73252584D01*
X93132184Y-73407048D01*
X93132181Y-73407060D01*
X93099499Y-73571363D01*
X93099499Y-73738906D01*
X93132181Y-73903209D01*
X93132184Y-73903221D01*
X93191472Y-74046355D01*
X93198941Y-74115824D01*
X93167666Y-74178303D01*
X93145803Y-74196908D01*
X93082253Y-74239371D01*
X93082247Y-74239376D01*
X92963786Y-74357837D01*
X92870708Y-74497139D01*
X92806597Y-74651917D01*
X92806595Y-74651925D01*
X92773913Y-74816228D01*
X86930271Y-74816228D01*
X86848082Y-74782184D01*
X86848074Y-74782182D01*
X86683771Y-74749500D01*
X86683767Y-74749500D01*
X86516233Y-74749500D01*
X86516228Y-74749500D01*
X86351925Y-74782182D01*
X86351917Y-74782184D01*
X86197139Y-74846295D01*
X86057837Y-74939373D01*
X85939373Y-75057837D01*
X85846295Y-75197139D01*
X85782184Y-75351917D01*
X85782182Y-75351925D01*
X85749500Y-75516228D01*
X81561611Y-75516228D01*
X81553703Y-75497137D01*
X81460626Y-75357837D01*
X81342162Y-75239373D01*
X81202860Y-75146295D01*
X81048082Y-75082184D01*
X81048074Y-75082182D01*
X80883771Y-75049500D01*
X80883767Y-75049500D01*
X80716233Y-75049500D01*
X80716228Y-75049500D01*
X80551925Y-75082182D01*
X80551917Y-75082184D01*
X80397139Y-75146295D01*
X80257837Y-75239373D01*
X80139373Y-75357837D01*
X80046295Y-75497139D01*
X79982184Y-75651917D01*
X79982182Y-75651925D01*
X79949500Y-75816228D01*
X72510746Y-75816228D01*
X69386002Y-66944187D01*
X69956431Y-66944187D01*
X69970078Y-67002584D01*
X70563296Y-68697491D01*
X70589038Y-68751645D01*
X70589039Y-68751646D01*
X70589040Y-68751648D01*
X70625847Y-68795912D01*
X70681056Y-68862307D01*
X70681057Y-68862307D01*
X70681059Y-68862310D01*
X70800528Y-68942564D01*
X70937767Y-68985911D01*
X70945874Y-68986075D01*
X71078936Y-68988780D01*
X71145562Y-69009822D01*
X71190235Y-69063545D01*
X71198771Y-69132891D01*
X71186902Y-69169048D01*
X71128901Y-69282882D01*
X71128899Y-69282887D01*
X71128899Y-69282888D01*
X71109710Y-69341945D01*
X71063209Y-69485060D01*
X71039090Y-69637341D01*
X71029956Y-69695013D01*
X71029956Y-69907587D01*
X71031576Y-69917815D01*
X71060746Y-70101990D01*
X71063210Y-70117543D01*
X71106410Y-70250499D01*
X71128900Y-70319714D01*
X71225407Y-70509120D01*
X71350346Y-70681086D01*
X71500669Y-70831409D01*
X71672635Y-70956348D01*
X71672637Y-70956349D01*
X71672640Y-70956351D01*
X71862044Y-71052857D01*
X72064213Y-71118546D01*
X72107209Y-71125355D01*
X72170340Y-71155283D01*
X72207272Y-71214594D01*
X72206276Y-71284456D01*
X72188128Y-71320712D01*
X72064494Y-71490882D01*
X71967988Y-71680286D01*
X71902297Y-71882461D01*
X71869044Y-72092414D01*
X71869044Y-72304987D01*
X71901047Y-72507050D01*
X71902298Y-72514944D01*
X71953802Y-72673457D01*
X71967988Y-72717115D01*
X72064495Y-72906521D01*
X72189434Y-73078487D01*
X72339757Y-73228810D01*
X72511723Y-73353749D01*
X72511725Y-73353750D01*
X72511728Y-73353752D01*
X72701132Y-73450258D01*
X72903301Y-73515947D01*
X73113257Y-73549201D01*
X73113258Y-73549201D01*
X73325830Y-73549201D01*
X73325831Y-73549201D01*
X73535787Y-73515947D01*
X73737956Y-73450258D01*
X73927360Y-73353752D01*
X73997837Y-73302548D01*
X74099330Y-73228810D01*
X74099332Y-73228807D01*
X74099336Y-73228805D01*
X74249648Y-73078493D01*
X74249650Y-73078489D01*
X74249653Y-73078487D01*
X74374592Y-72906521D01*
X74374591Y-72906521D01*
X74374595Y-72906517D01*
X74471101Y-72717113D01*
X74536790Y-72514944D01*
X74570044Y-72304988D01*
X74570044Y-72092414D01*
X74536790Y-71882458D01*
X74471101Y-71680289D01*
X74374595Y-71490885D01*
X74374593Y-71490882D01*
X74374592Y-71490880D01*
X74249653Y-71318914D01*
X74099330Y-71168591D01*
X73927364Y-71043652D01*
X73737958Y-70947145D01*
X73737957Y-70947144D01*
X73737956Y-70947144D01*
X73535787Y-70881455D01*
X73535785Y-70881454D01*
X73535783Y-70881454D01*
X73492792Y-70874645D01*
X73429657Y-70844716D01*
X73392726Y-70785404D01*
X73393724Y-70715542D01*
X73411872Y-70679287D01*
X73469868Y-70599461D01*
X73535507Y-70509116D01*
X73632013Y-70319712D01*
X73697702Y-70117543D01*
X73730956Y-69907587D01*
X73730956Y-69695013D01*
X73697702Y-69485057D01*
X73632013Y-69282888D01*
X73535507Y-69093484D01*
X73535505Y-69093481D01*
X73535504Y-69093479D01*
X73410565Y-68921513D01*
X73260242Y-68771190D01*
X73088275Y-68646251D01*
X73088274Y-68646250D01*
X73088272Y-68646249D01*
X73013562Y-68608182D01*
X72916256Y-68558602D01*
X72865460Y-68510627D01*
X72848665Y-68442806D01*
X72871203Y-68376671D01*
X72893267Y-68352775D01*
X72999779Y-68264208D01*
X73080033Y-68144739D01*
X73123380Y-68007500D01*
X73126304Y-67863608D01*
X73112661Y-67805227D01*
X73112658Y-67805220D01*
X73112657Y-67805213D01*
X72519439Y-66110306D01*
X72519438Y-66110304D01*
X72519436Y-66110298D01*
X72493696Y-66056150D01*
X72401677Y-65945488D01*
X72322630Y-65892388D01*
X72282210Y-65865235D01*
X72282207Y-65865233D01*
X72144966Y-65821886D01*
X72144967Y-65821886D01*
X72001079Y-65818962D01*
X71942682Y-65832609D01*
X70247775Y-66425827D01*
X70193621Y-66451569D01*
X70193616Y-66451573D01*
X70082959Y-66543587D01*
X70082957Y-66543590D01*
X70002704Y-66663056D01*
X70002702Y-66663059D01*
X69959355Y-66800300D01*
X69956431Y-66944187D01*
X69386002Y-66944187D01*
X67256390Y-60897611D01*
X72690867Y-60897611D01*
X72690867Y-61110184D01*
X72713011Y-61250000D01*
X72724121Y-61320141D01*
X72783186Y-61501925D01*
X72789811Y-61522312D01*
X72886318Y-61711718D01*
X73011257Y-61883684D01*
X73161580Y-62034007D01*
X73333546Y-62158946D01*
X73333548Y-62158947D01*
X73333551Y-62158949D01*
X73522955Y-62255455D01*
X73725124Y-62321144D01*
X73768120Y-62327953D01*
X73831251Y-62357881D01*
X73868183Y-62417192D01*
X73867187Y-62487054D01*
X73849039Y-62523310D01*
X73725406Y-62693479D01*
X73628900Y-62882883D01*
X73563209Y-63085058D01*
X73536498Y-63253704D01*
X73529956Y-63295011D01*
X73529956Y-63507585D01*
X73536962Y-63551820D01*
X73563002Y-63716233D01*
X73563210Y-63717541D01*
X73628188Y-63917523D01*
X73628900Y-63919712D01*
X73725407Y-64109118D01*
X73850346Y-64281084D01*
X74000669Y-64431407D01*
X74172635Y-64556346D01*
X74172637Y-64556347D01*
X74172640Y-64556349D01*
X74362044Y-64652855D01*
X74564213Y-64718544D01*
X74591558Y-64722875D01*
X74607209Y-64725354D01*
X74670344Y-64755283D01*
X74707275Y-64814595D01*
X74706277Y-64884457D01*
X74688129Y-64920712D01*
X74564495Y-65090880D01*
X74467988Y-65280286D01*
X74467987Y-65280288D01*
X74467987Y-65280289D01*
X74463856Y-65293003D01*
X74402297Y-65482461D01*
X74369044Y-65692414D01*
X74369044Y-65904987D01*
X74401045Y-66107038D01*
X74402298Y-66114944D01*
X74445557Y-66248082D01*
X74467988Y-66317115D01*
X74564495Y-66506521D01*
X74689434Y-66678487D01*
X74839757Y-66828810D01*
X75011723Y-66953749D01*
X75011725Y-66953750D01*
X75011728Y-66953752D01*
X75201132Y-67050258D01*
X75403301Y-67115947D01*
X75446297Y-67122756D01*
X75509428Y-67152684D01*
X75546360Y-67211995D01*
X75545364Y-67281857D01*
X75527216Y-67318114D01*
X75403580Y-67488285D01*
X75307076Y-67677686D01*
X75307075Y-67677688D01*
X75307075Y-67677689D01*
X75305436Y-67682732D01*
X75241385Y-67879861D01*
X75214743Y-68048074D01*
X75208132Y-68089814D01*
X75208132Y-68302388D01*
X75214432Y-68342162D01*
X75236282Y-68480123D01*
X75241386Y-68512344D01*
X75301544Y-68697491D01*
X75307076Y-68714515D01*
X75403583Y-68903921D01*
X75528522Y-69075887D01*
X75678845Y-69226210D01*
X75850811Y-69351149D01*
X75850813Y-69351150D01*
X75850816Y-69351152D01*
X76040220Y-69447658D01*
X76242389Y-69513347D01*
X76285383Y-69520156D01*
X76348516Y-69550084D01*
X76385447Y-69609395D01*
X76384451Y-69679258D01*
X76366303Y-69715513D01*
X76242669Y-69885683D01*
X76146163Y-70075087D01*
X76080472Y-70277262D01*
X76047219Y-70487215D01*
X76047219Y-70699788D01*
X76080105Y-70907425D01*
X76080473Y-70909745D01*
X76145965Y-71111309D01*
X76146163Y-71111916D01*
X76242670Y-71301322D01*
X76367609Y-71473288D01*
X76517932Y-71623611D01*
X76689898Y-71748550D01*
X76689900Y-71748551D01*
X76689903Y-71748553D01*
X76879307Y-71845059D01*
X77081476Y-71910748D01*
X77124473Y-71917558D01*
X77187604Y-71947485D01*
X77224536Y-72006795D01*
X77223540Y-72076658D01*
X77205392Y-72112914D01*
X77081758Y-72283084D01*
X76985252Y-72472488D01*
X76985251Y-72472490D01*
X76985251Y-72472491D01*
X76980315Y-72487681D01*
X76919561Y-72674663D01*
X76886308Y-72884616D01*
X76886308Y-73097189D01*
X76918833Y-73302548D01*
X76919562Y-73307146D01*
X76966061Y-73450256D01*
X76985252Y-73509317D01*
X77081759Y-73698723D01*
X77206698Y-73870689D01*
X77357021Y-74021012D01*
X77528987Y-74145951D01*
X77528989Y-74145952D01*
X77528992Y-74145954D01*
X77718396Y-74242460D01*
X77920565Y-74308149D01*
X78130521Y-74341403D01*
X78130522Y-74341403D01*
X78343094Y-74341403D01*
X78343095Y-74341403D01*
X78553051Y-74308149D01*
X78755220Y-74242460D01*
X78944624Y-74145954D01*
X78985538Y-74116228D01*
X81349500Y-74116228D01*
X81349500Y-74283771D01*
X81382182Y-74448074D01*
X81382184Y-74448082D01*
X81446295Y-74602860D01*
X81539373Y-74742162D01*
X81657837Y-74860626D01*
X81750494Y-74922537D01*
X81797137Y-74953703D01*
X81797138Y-74953703D01*
X81797139Y-74953704D01*
X81808998Y-74958616D01*
X81951918Y-75017816D01*
X82095093Y-75046295D01*
X82116228Y-75050499D01*
X82116232Y-75050500D01*
X82116233Y-75050500D01*
X82283768Y-75050500D01*
X82283769Y-75050499D01*
X82448082Y-75017816D01*
X82602863Y-74953703D01*
X82742162Y-74860626D01*
X82860626Y-74742162D01*
X82953703Y-74602863D01*
X83017816Y-74448082D01*
X83050500Y-74283767D01*
X83050500Y-74116233D01*
X83017816Y-73951918D01*
X82953703Y-73797137D01*
X82914792Y-73738903D01*
X82860626Y-73657837D01*
X82742162Y-73539373D01*
X82602860Y-73446295D01*
X82448082Y-73382184D01*
X82448074Y-73382182D01*
X82283771Y-73349500D01*
X82283767Y-73349500D01*
X82116233Y-73349500D01*
X82116228Y-73349500D01*
X81951925Y-73382182D01*
X81951917Y-73382184D01*
X81797139Y-73446295D01*
X81657837Y-73539373D01*
X81539373Y-73657837D01*
X81446295Y-73797139D01*
X81382184Y-73951917D01*
X81382182Y-73951925D01*
X81349500Y-74116228D01*
X78985538Y-74116228D01*
X79000307Y-74105498D01*
X79116594Y-74021012D01*
X79116596Y-74021009D01*
X79116600Y-74021007D01*
X79266912Y-73870695D01*
X79266914Y-73870691D01*
X79266917Y-73870689D01*
X79382714Y-73711306D01*
X79391859Y-73698719D01*
X79488365Y-73509315D01*
X79554054Y-73307146D01*
X79587308Y-73097190D01*
X79587308Y-72884616D01*
X79554054Y-72674660D01*
X79488365Y-72472491D01*
X79417596Y-72333598D01*
X88632130Y-72333598D01*
X88632130Y-72501141D01*
X88664812Y-72665444D01*
X88664814Y-72665452D01*
X88728925Y-72820230D01*
X88822003Y-72959532D01*
X88940467Y-73077996D01*
X89033124Y-73139907D01*
X89079767Y-73171073D01*
X89234548Y-73235186D01*
X89392911Y-73266686D01*
X89398858Y-73267869D01*
X89398862Y-73267870D01*
X89398863Y-73267870D01*
X89566398Y-73267870D01*
X89566399Y-73267869D01*
X89730712Y-73235186D01*
X89885493Y-73171073D01*
X90024792Y-73077996D01*
X90143256Y-72959532D01*
X90236333Y-72820233D01*
X90300446Y-72665452D01*
X90333130Y-72501137D01*
X90333130Y-72333603D01*
X90300446Y-72169288D01*
X90236333Y-72014507D01*
X90205167Y-71967864D01*
X90143256Y-71875207D01*
X90024792Y-71756743D01*
X89885490Y-71663665D01*
X89730712Y-71599554D01*
X89730704Y-71599552D01*
X89566401Y-71566870D01*
X89566397Y-71566870D01*
X89398863Y-71566870D01*
X89398858Y-71566870D01*
X89234555Y-71599552D01*
X89234547Y-71599554D01*
X89079769Y-71663665D01*
X88940467Y-71756743D01*
X88822003Y-71875207D01*
X88728925Y-72014509D01*
X88664814Y-72169287D01*
X88664812Y-72169295D01*
X88632130Y-72333598D01*
X79417596Y-72333598D01*
X79391859Y-72283087D01*
X79362463Y-72242626D01*
X79266917Y-72111116D01*
X79116594Y-71960793D01*
X78944628Y-71835854D01*
X78755222Y-71739347D01*
X78755221Y-71739346D01*
X78755220Y-71739346D01*
X78553051Y-71673657D01*
X78553049Y-71673656D01*
X78553048Y-71673656D01*
X78510055Y-71666847D01*
X78446920Y-71636918D01*
X78409989Y-71577606D01*
X78410987Y-71507744D01*
X78429135Y-71471489D01*
X78482678Y-71397792D01*
X78552770Y-71301318D01*
X78649276Y-71111914D01*
X78714965Y-70909745D01*
X78730557Y-70811304D01*
X102699500Y-70811304D01*
X102699500Y-70988695D01*
X102734103Y-71162658D01*
X102734106Y-71162667D01*
X102801983Y-71326540D01*
X102801990Y-71326553D01*
X102805037Y-71331113D01*
X102825912Y-71397792D01*
X102807425Y-71465171D01*
X102805037Y-71468887D01*
X102801990Y-71473446D01*
X102801983Y-71473459D01*
X102734106Y-71637332D01*
X102734105Y-71637337D01*
X102699500Y-71811304D01*
X102699500Y-71988695D01*
X102734103Y-72162658D01*
X102734106Y-72162667D01*
X102801983Y-72326540D01*
X102801990Y-72326553D01*
X102805037Y-72331113D01*
X102825912Y-72397792D01*
X102807425Y-72465171D01*
X102805037Y-72468887D01*
X102801990Y-72473446D01*
X102801983Y-72473459D01*
X102734106Y-72637332D01*
X102734103Y-72637341D01*
X102699500Y-72811304D01*
X102699500Y-72988695D01*
X102734103Y-73162658D01*
X102734106Y-73162667D01*
X102792046Y-73302548D01*
X102799515Y-73372017D01*
X102792046Y-73397452D01*
X102734106Y-73537332D01*
X102734103Y-73537341D01*
X102699500Y-73711304D01*
X102699500Y-73888695D01*
X102734103Y-74062658D01*
X102734106Y-74062667D01*
X102801983Y-74226540D01*
X102801990Y-74226553D01*
X102900535Y-74374034D01*
X102900538Y-74374038D01*
X103025961Y-74499461D01*
X103025965Y-74499464D01*
X103173446Y-74598009D01*
X103173459Y-74598016D01*
X103242862Y-74626763D01*
X103337334Y-74665894D01*
X103337336Y-74665894D01*
X103337341Y-74665896D01*
X103511304Y-74700499D01*
X103511307Y-74700500D01*
X103511309Y-74700500D01*
X103688693Y-74700500D01*
X103751308Y-74688045D01*
X103820900Y-74694272D01*
X103876077Y-74737135D01*
X103899322Y-74803025D01*
X103899500Y-74809662D01*
X103899500Y-74958616D01*
X103932182Y-75122919D01*
X103932184Y-75122926D01*
X103950676Y-75167572D01*
X103958143Y-75237042D01*
X103926868Y-75299520D01*
X103923796Y-75302704D01*
X103800534Y-75425965D01*
X103701990Y-75573446D01*
X103701983Y-75573459D01*
X103634106Y-75737332D01*
X103634103Y-75737341D01*
X103599500Y-75911304D01*
X103599500Y-76088695D01*
X103634103Y-76262658D01*
X103634106Y-76262667D01*
X103701983Y-76426540D01*
X103701990Y-76426553D01*
X103800535Y-76574034D01*
X103800538Y-76574038D01*
X103925961Y-76699461D01*
X103925965Y-76699464D01*
X104073446Y-76798009D01*
X104073459Y-76798016D01*
X104155945Y-76832182D01*
X104237334Y-76865894D01*
X104237336Y-76865894D01*
X104237341Y-76865896D01*
X104411304Y-76900499D01*
X104411307Y-76900500D01*
X104411309Y-76900500D01*
X104588693Y-76900500D01*
X104588694Y-76900499D01*
X104646682Y-76888964D01*
X104762658Y-76865896D01*
X104762661Y-76865894D01*
X104762666Y-76865894D01*
X104916953Y-76801987D01*
X104926540Y-76798016D01*
X104926540Y-76798015D01*
X104926547Y-76798013D01*
X105074035Y-76699464D01*
X105199464Y-76574035D01*
X105298013Y-76426547D01*
X105301630Y-76417816D01*
X105307958Y-76402535D01*
X105365894Y-76262666D01*
X105370074Y-76241655D01*
X105394738Y-76117657D01*
X105400500Y-76088691D01*
X105400500Y-75911309D01*
X105400500Y-75911306D01*
X105400499Y-75911304D01*
X105365896Y-75737341D01*
X105365893Y-75737332D01*
X105362475Y-75729081D01*
X105316880Y-75619004D01*
X105309412Y-75549536D01*
X105340687Y-75487057D01*
X105343733Y-75483899D01*
X105410626Y-75417007D01*
X105503703Y-75277708D01*
X105567816Y-75122927D01*
X105600500Y-74958612D01*
X105600500Y-74911304D01*
X107819158Y-74911304D01*
X107819158Y-75088695D01*
X107853761Y-75262658D01*
X107853764Y-75262667D01*
X107921641Y-75426540D01*
X107921648Y-75426553D01*
X108020193Y-75574034D01*
X108020196Y-75574038D01*
X108145619Y-75699461D01*
X108145623Y-75699464D01*
X108293104Y-75798009D01*
X108293117Y-75798016D01*
X108337086Y-75816228D01*
X108456992Y-75865894D01*
X108456994Y-75865894D01*
X108456999Y-75865896D01*
X108630962Y-75900499D01*
X108630965Y-75900500D01*
X108630967Y-75900500D01*
X108808351Y-75900500D01*
X108808352Y-75900499D01*
X108892471Y-75883767D01*
X108982316Y-75865896D01*
X108982319Y-75865894D01*
X108982324Y-75865894D01*
X109146205Y-75798013D01*
X109293693Y-75699464D01*
X109419122Y-75574035D01*
X109517671Y-75426547D01*
X109585552Y-75262666D01*
X109586513Y-75257838D01*
X109619159Y-75093713D01*
X110109500Y-75093713D01*
X110109500Y-75306286D01*
X110142751Y-75516228D01*
X110142754Y-75516243D01*
X110208249Y-75717816D01*
X110208444Y-75718414D01*
X110304951Y-75907820D01*
X110429890Y-76079786D01*
X110580213Y-76230109D01*
X110752179Y-76355048D01*
X110752181Y-76355049D01*
X110752184Y-76355051D01*
X110941588Y-76451557D01*
X111143757Y-76517246D01*
X111353713Y-76550500D01*
X111353714Y-76550500D01*
X111566286Y-76550500D01*
X111566287Y-76550500D01*
X111776243Y-76517246D01*
X111978412Y-76451557D01*
X112167816Y-76355051D01*
X112239647Y-76302863D01*
X112339786Y-76230109D01*
X112339788Y-76230106D01*
X112339792Y-76230104D01*
X112490104Y-76079792D01*
X112490106Y-76079788D01*
X112490109Y-76079786D01*
X112615048Y-75907820D01*
X112615047Y-75907820D01*
X112615051Y-75907816D01*
X112711557Y-75718412D01*
X112777246Y-75516243D01*
X112810500Y-75306287D01*
X112810500Y-75093713D01*
X112777246Y-74883757D01*
X112711557Y-74681588D01*
X112615051Y-74492184D01*
X112615049Y-74492181D01*
X112615048Y-74492179D01*
X112490109Y-74320213D01*
X112339786Y-74169890D01*
X112167820Y-74044951D01*
X111978414Y-73948444D01*
X111978413Y-73948443D01*
X111978412Y-73948443D01*
X111776243Y-73882754D01*
X111776241Y-73882753D01*
X111776240Y-73882753D01*
X111614957Y-73857208D01*
X111566287Y-73849500D01*
X111353713Y-73849500D01*
X111305042Y-73857208D01*
X111143760Y-73882753D01*
X110941585Y-73948444D01*
X110752179Y-74044951D01*
X110580213Y-74169890D01*
X110429890Y-74320213D01*
X110304951Y-74492179D01*
X110208444Y-74681585D01*
X110142753Y-74883760D01*
X110109500Y-75093713D01*
X109619159Y-75093713D01*
X109620157Y-75088695D01*
X109620158Y-75088693D01*
X109620158Y-74911306D01*
X109620157Y-74911304D01*
X109585554Y-74737341D01*
X109585551Y-74737332D01*
X109585469Y-74737135D01*
X109555961Y-74665894D01*
X109517674Y-74573459D01*
X109517667Y-74573446D01*
X109419122Y-74425965D01*
X109419119Y-74425961D01*
X109293696Y-74300538D01*
X109293692Y-74300535D01*
X109146211Y-74201990D01*
X109146198Y-74201983D01*
X108982325Y-74134106D01*
X108982316Y-74134103D01*
X108808352Y-74099500D01*
X108808349Y-74099500D01*
X108630967Y-74099500D01*
X108630964Y-74099500D01*
X108456999Y-74134103D01*
X108456990Y-74134106D01*
X108293117Y-74201983D01*
X108293104Y-74201990D01*
X108145623Y-74300535D01*
X108145619Y-74300538D01*
X108020196Y-74425961D01*
X108020193Y-74425965D01*
X107921648Y-74573446D01*
X107921641Y-74573459D01*
X107853764Y-74737332D01*
X107853761Y-74737341D01*
X107819158Y-74911304D01*
X105600500Y-74911304D01*
X105600500Y-74791078D01*
X105567816Y-74626763D01*
X105515085Y-74499461D01*
X105503704Y-74471984D01*
X105501083Y-74468062D01*
X105430661Y-74362667D01*
X105410626Y-74332682D01*
X105292162Y-74214218D01*
X105152860Y-74121140D01*
X104998082Y-74057029D01*
X104998074Y-74057027D01*
X104833771Y-74024345D01*
X104833767Y-74024345D01*
X104666233Y-74024345D01*
X104647540Y-74028063D01*
X104577949Y-74021834D01*
X104522772Y-73978970D01*
X104499529Y-73913080D01*
X104499948Y-73894287D01*
X104500499Y-73888695D01*
X104500500Y-73888691D01*
X104500500Y-73711309D01*
X104500500Y-73711306D01*
X104500499Y-73711304D01*
X104465896Y-73537341D01*
X104465893Y-73537332D01*
X104407954Y-73397452D01*
X104400485Y-73327983D01*
X104407954Y-73302548D01*
X104435855Y-73235187D01*
X104465894Y-73162666D01*
X104469324Y-73145425D01*
X104496001Y-73011309D01*
X104500500Y-72988691D01*
X104500500Y-72811309D01*
X104500500Y-72811306D01*
X104500499Y-72811304D01*
X104465896Y-72637341D01*
X104465893Y-72637332D01*
X104464597Y-72634204D01*
X104421896Y-72531113D01*
X104398015Y-72473457D01*
X104398014Y-72473455D01*
X104398013Y-72473453D01*
X104394965Y-72468892D01*
X104374086Y-72402217D01*
X104392569Y-72334837D01*
X104394962Y-72331113D01*
X104398013Y-72326547D01*
X104465894Y-72162666D01*
X104473078Y-72126553D01*
X104496001Y-72011309D01*
X104500500Y-71988691D01*
X104500500Y-71811309D01*
X104500500Y-71811306D01*
X104500499Y-71811304D01*
X104465895Y-71637337D01*
X104465893Y-71637332D01*
X104461425Y-71626546D01*
X104407700Y-71496840D01*
X104398015Y-71473457D01*
X104398014Y-71473455D01*
X104398013Y-71473453D01*
X104394965Y-71468892D01*
X104374086Y-71402217D01*
X104392569Y-71334837D01*
X104394962Y-71331113D01*
X104398013Y-71326547D01*
X104465894Y-71162666D01*
X104476111Y-71111304D01*
X107849500Y-71111304D01*
X107849500Y-71288695D01*
X107884103Y-71462658D01*
X107884106Y-71462667D01*
X107951983Y-71626540D01*
X107951990Y-71626553D01*
X108050535Y-71774034D01*
X108050538Y-71774038D01*
X108175961Y-71899461D01*
X108175965Y-71899464D01*
X108323446Y-71998009D01*
X108323459Y-71998016D01*
X108446363Y-72048923D01*
X108487334Y-72065894D01*
X108487336Y-72065894D01*
X108487341Y-72065896D01*
X108661304Y-72100499D01*
X108661307Y-72100500D01*
X108661309Y-72100500D01*
X108838693Y-72100500D01*
X108838694Y-72100499D01*
X108896682Y-72088964D01*
X109012658Y-72065896D01*
X109012661Y-72065894D01*
X109012666Y-72065894D01*
X109168298Y-72001430D01*
X109176540Y-71998016D01*
X109176540Y-71998015D01*
X109176547Y-71998013D01*
X109324035Y-71899464D01*
X109449464Y-71774035D01*
X109548013Y-71626547D01*
X109554327Y-71611304D01*
X112699500Y-71611304D01*
X112699500Y-71788695D01*
X112734103Y-71962658D01*
X112734106Y-71962667D01*
X112801983Y-72126540D01*
X112801990Y-72126553D01*
X112900535Y-72274034D01*
X112900538Y-72274038D01*
X112938819Y-72312319D01*
X112972304Y-72373642D01*
X112967320Y-72443334D01*
X112938819Y-72487681D01*
X112900538Y-72525961D01*
X112900535Y-72525965D01*
X112801990Y-72673446D01*
X112801983Y-72673459D01*
X112734106Y-72837332D01*
X112734103Y-72837341D01*
X112699500Y-73011304D01*
X112699500Y-73188695D01*
X112734103Y-73362658D01*
X112734106Y-73362667D01*
X112801983Y-73526540D01*
X112801990Y-73526553D01*
X112900535Y-73674034D01*
X112900538Y-73674038D01*
X113025961Y-73799461D01*
X113025965Y-73799464D01*
X113173446Y-73898009D01*
X113173459Y-73898016D01*
X113295203Y-73948443D01*
X113337334Y-73965894D01*
X113337336Y-73965894D01*
X113337341Y-73965896D01*
X113511304Y-74000499D01*
X113511307Y-74000500D01*
X113511309Y-74000500D01*
X113688693Y-74000500D01*
X113688694Y-74000499D01*
X113788956Y-73980556D01*
X113862658Y-73965896D01*
X113862661Y-73965894D01*
X113862666Y-73965894D01*
X114026547Y-73898013D01*
X114031107Y-73894965D01*
X114097783Y-73874086D01*
X114165163Y-73892569D01*
X114168867Y-73894948D01*
X114173453Y-73898013D01*
X114173455Y-73898014D01*
X114173457Y-73898015D01*
X114186026Y-73903221D01*
X114337334Y-73965894D01*
X114337336Y-73965894D01*
X114337341Y-73965896D01*
X114511304Y-74000499D01*
X114511307Y-74000500D01*
X114511309Y-74000500D01*
X114688693Y-74000500D01*
X114688694Y-74000499D01*
X114788956Y-73980556D01*
X114862658Y-73965896D01*
X114862661Y-73965894D01*
X114862666Y-73965894D01*
X115026547Y-73898013D01*
X115031107Y-73894965D01*
X115097783Y-73874086D01*
X115165163Y-73892569D01*
X115168867Y-73894948D01*
X115173453Y-73898013D01*
X115173455Y-73898014D01*
X115173457Y-73898015D01*
X115186026Y-73903221D01*
X115337334Y-73965894D01*
X115337336Y-73965894D01*
X115337341Y-73965896D01*
X115511304Y-74000499D01*
X115511307Y-74000500D01*
X115511309Y-74000500D01*
X115688693Y-74000500D01*
X115688694Y-74000499D01*
X115788956Y-73980556D01*
X115862658Y-73965896D01*
X115862661Y-73965894D01*
X115862666Y-73965894D01*
X116026547Y-73898013D01*
X116031107Y-73894965D01*
X116097783Y-73874086D01*
X116165163Y-73892569D01*
X116168867Y-73894948D01*
X116173453Y-73898013D01*
X116173455Y-73898014D01*
X116173457Y-73898015D01*
X116186026Y-73903221D01*
X116337334Y-73965894D01*
X116337336Y-73965894D01*
X116337341Y-73965896D01*
X116511304Y-74000499D01*
X116511307Y-74000500D01*
X116511309Y-74000500D01*
X116688693Y-74000500D01*
X116688694Y-74000499D01*
X116788956Y-73980556D01*
X116862658Y-73965896D01*
X116862661Y-73965894D01*
X116862666Y-73965894D01*
X117026547Y-73898013D01*
X117031107Y-73894965D01*
X117097783Y-73874086D01*
X117165163Y-73892569D01*
X117168867Y-73894948D01*
X117173453Y-73898013D01*
X117173455Y-73898014D01*
X117173457Y-73898015D01*
X117186026Y-73903221D01*
X117337334Y-73965894D01*
X117337336Y-73965894D01*
X117337341Y-73965896D01*
X117511304Y-74000499D01*
X117511307Y-74000500D01*
X117511309Y-74000500D01*
X117688693Y-74000500D01*
X117688694Y-74000499D01*
X117788956Y-73980556D01*
X117862658Y-73965896D01*
X117862661Y-73965894D01*
X117862666Y-73965894D01*
X118026547Y-73898013D01*
X118174035Y-73799464D01*
X118299464Y-73674035D01*
X118398013Y-73526547D01*
X118465894Y-73362666D01*
X118468414Y-73350000D01*
X118491251Y-73235187D01*
X118500500Y-73188691D01*
X118500500Y-73011309D01*
X118500500Y-73011306D01*
X118500499Y-73011304D01*
X118465896Y-72837341D01*
X118465893Y-72837332D01*
X118398016Y-72673459D01*
X118398009Y-72673446D01*
X118299464Y-72525965D01*
X118299461Y-72525961D01*
X118261181Y-72487682D01*
X118227695Y-72426360D01*
X118232679Y-72356668D01*
X118261181Y-72312318D01*
X118299461Y-72274038D01*
X118299464Y-72274035D01*
X118398013Y-72126547D01*
X118465894Y-71962666D01*
X118466266Y-71960799D01*
X118496001Y-71811309D01*
X118500500Y-71788691D01*
X118500500Y-71611309D01*
X118500500Y-71611306D01*
X118500499Y-71611304D01*
X118465896Y-71437341D01*
X118465893Y-71437332D01*
X118398016Y-71273459D01*
X118398009Y-71273446D01*
X118299464Y-71125965D01*
X118299461Y-71125961D01*
X118174038Y-71000538D01*
X118174034Y-71000535D01*
X118026553Y-70901990D01*
X118026540Y-70901983D01*
X117862667Y-70834106D01*
X117862658Y-70834103D01*
X117688694Y-70799500D01*
X117688691Y-70799500D01*
X117511309Y-70799500D01*
X117511306Y-70799500D01*
X117337341Y-70834103D01*
X117337332Y-70834106D01*
X117173459Y-70901983D01*
X117173446Y-70901990D01*
X117168887Y-70905037D01*
X117102208Y-70925912D01*
X117034829Y-70907425D01*
X117031113Y-70905037D01*
X117026553Y-70901990D01*
X117026540Y-70901983D01*
X116862667Y-70834106D01*
X116862658Y-70834103D01*
X116688694Y-70799500D01*
X116688691Y-70799500D01*
X116511309Y-70799500D01*
X116511306Y-70799500D01*
X116337341Y-70834103D01*
X116337332Y-70834106D01*
X116173459Y-70901983D01*
X116173446Y-70901990D01*
X116168887Y-70905037D01*
X116102208Y-70925912D01*
X116034829Y-70907425D01*
X116031113Y-70905037D01*
X116026553Y-70901990D01*
X116026540Y-70901983D01*
X115862667Y-70834106D01*
X115862658Y-70834103D01*
X115688694Y-70799500D01*
X115688691Y-70799500D01*
X115511309Y-70799500D01*
X115511306Y-70799500D01*
X115337341Y-70834103D01*
X115337332Y-70834106D01*
X115173459Y-70901983D01*
X115173446Y-70901990D01*
X115168887Y-70905037D01*
X115102208Y-70925912D01*
X115034829Y-70907425D01*
X115031113Y-70905037D01*
X115026553Y-70901990D01*
X115026540Y-70901983D01*
X114862667Y-70834106D01*
X114862658Y-70834103D01*
X114688694Y-70799500D01*
X114688691Y-70799500D01*
X114511309Y-70799500D01*
X114511306Y-70799500D01*
X114337341Y-70834103D01*
X114337332Y-70834106D01*
X114173459Y-70901983D01*
X114173446Y-70901990D01*
X114168887Y-70905037D01*
X114102208Y-70925912D01*
X114034829Y-70907425D01*
X114031113Y-70905037D01*
X114026553Y-70901990D01*
X114026540Y-70901983D01*
X113862667Y-70834106D01*
X113862658Y-70834103D01*
X113688694Y-70799500D01*
X113688691Y-70799500D01*
X113511309Y-70799500D01*
X113511306Y-70799500D01*
X113337341Y-70834103D01*
X113337332Y-70834106D01*
X113173459Y-70901983D01*
X113173446Y-70901990D01*
X113025965Y-71000535D01*
X113025961Y-71000538D01*
X112900538Y-71125961D01*
X112900535Y-71125965D01*
X112801990Y-71273446D01*
X112801983Y-71273459D01*
X112734106Y-71437332D01*
X112734103Y-71437341D01*
X112699500Y-71611304D01*
X109554327Y-71611304D01*
X109615894Y-71462666D01*
X109620932Y-71437341D01*
X109642971Y-71326540D01*
X109650500Y-71288691D01*
X109650500Y-71111309D01*
X109650500Y-71111306D01*
X109650499Y-71111304D01*
X109615896Y-70937341D01*
X109615893Y-70937332D01*
X109548016Y-70773459D01*
X109548009Y-70773446D01*
X109449464Y-70625965D01*
X109449461Y-70625961D01*
X109324038Y-70500538D01*
X109324034Y-70500535D01*
X109176553Y-70401990D01*
X109176540Y-70401983D01*
X109012667Y-70334106D01*
X109012658Y-70334103D01*
X108838694Y-70299500D01*
X108838691Y-70299500D01*
X108661309Y-70299500D01*
X108661306Y-70299500D01*
X108487341Y-70334103D01*
X108487332Y-70334106D01*
X108323459Y-70401983D01*
X108323446Y-70401990D01*
X108175965Y-70500535D01*
X108175961Y-70500538D01*
X108050538Y-70625961D01*
X108050535Y-70625965D01*
X107951990Y-70773446D01*
X107951983Y-70773459D01*
X107884106Y-70937332D01*
X107884103Y-70937341D01*
X107849500Y-71111304D01*
X104476111Y-71111304D01*
X104484037Y-71071459D01*
X104500499Y-70988695D01*
X104500500Y-70988693D01*
X104500500Y-70811306D01*
X104500499Y-70811304D01*
X104465896Y-70637341D01*
X104465893Y-70637332D01*
X104398016Y-70473459D01*
X104398009Y-70473446D01*
X104299464Y-70325965D01*
X104299461Y-70325961D01*
X104174038Y-70200538D01*
X104174034Y-70200535D01*
X104026553Y-70101990D01*
X104026540Y-70101983D01*
X103862667Y-70034106D01*
X103862658Y-70034103D01*
X103688694Y-69999500D01*
X103688691Y-69999500D01*
X103511309Y-69999500D01*
X103511306Y-69999500D01*
X103337341Y-70034103D01*
X103337332Y-70034106D01*
X103173459Y-70101983D01*
X103173446Y-70101990D01*
X103025965Y-70200535D01*
X103025961Y-70200538D01*
X102900538Y-70325961D01*
X102900535Y-70325965D01*
X102801990Y-70473446D01*
X102801983Y-70473459D01*
X102734106Y-70637332D01*
X102734103Y-70637341D01*
X102699500Y-70811304D01*
X78730557Y-70811304D01*
X78748219Y-70699789D01*
X78748219Y-70487215D01*
X78714965Y-70277259D01*
X78649276Y-70075090D01*
X78552770Y-69885686D01*
X78552768Y-69885683D01*
X78552767Y-69885681D01*
X78498730Y-69811304D01*
X78899500Y-69811304D01*
X78899500Y-69988695D01*
X78927236Y-70128138D01*
X78927241Y-70128153D01*
X78934106Y-70162666D01*
X78952318Y-70206635D01*
X78952320Y-70206640D01*
X79001983Y-70326540D01*
X79001990Y-70326553D01*
X79100535Y-70474034D01*
X79100538Y-70474038D01*
X79225961Y-70599461D01*
X79225965Y-70599464D01*
X79373446Y-70698009D01*
X79373459Y-70698016D01*
X79442966Y-70726806D01*
X79537334Y-70765894D01*
X79537336Y-70765894D01*
X79537341Y-70765896D01*
X79711304Y-70800499D01*
X79711307Y-70800500D01*
X79711309Y-70800500D01*
X79888693Y-70800500D01*
X79888694Y-70800499D01*
X79947048Y-70788892D01*
X80062658Y-70765896D01*
X80062661Y-70765894D01*
X80062666Y-70765894D01*
X80226547Y-70698013D01*
X80374035Y-70599464D01*
X80499464Y-70474035D01*
X80598013Y-70326547D01*
X80665894Y-70162666D01*
X80674871Y-70117539D01*
X80700499Y-69988695D01*
X80700500Y-69988693D01*
X80700500Y-69811306D01*
X80700499Y-69811304D01*
X80665896Y-69637341D01*
X80665893Y-69637332D01*
X80598016Y-69473459D01*
X80598014Y-69473455D01*
X80598013Y-69473453D01*
X80505157Y-69334485D01*
X80484279Y-69267808D01*
X80502763Y-69200428D01*
X80539374Y-69162488D01*
X80542162Y-69160626D01*
X80660626Y-69042162D01*
X80753703Y-68902863D01*
X80817816Y-68748082D01*
X80850500Y-68583767D01*
X80850500Y-68416233D01*
X80817816Y-68251918D01*
X80753703Y-68097137D01*
X80714652Y-68038693D01*
X80660626Y-67957837D01*
X80542165Y-67839376D01*
X80542161Y-67839373D01*
X80503055Y-67813243D01*
X80503053Y-67813241D01*
X80402865Y-67746298D01*
X80402861Y-67746296D01*
X80330271Y-67716228D01*
X83149500Y-67716228D01*
X83149500Y-67883771D01*
X83182182Y-68048074D01*
X83182184Y-68048082D01*
X83246295Y-68202860D01*
X83339373Y-68342162D01*
X83457837Y-68460626D01*
X83487017Y-68480123D01*
X83597137Y-68553703D01*
X83732426Y-68609742D01*
X83786828Y-68653582D01*
X83808893Y-68719876D01*
X83791614Y-68787575D01*
X83772654Y-68811982D01*
X83726799Y-68857837D01*
X83633721Y-68997139D01*
X83569610Y-69151917D01*
X83569608Y-69151925D01*
X83536926Y-69316228D01*
X83536926Y-69483771D01*
X83569608Y-69648074D01*
X83569610Y-69648082D01*
X83633721Y-69802860D01*
X83726799Y-69942162D01*
X83845263Y-70060626D01*
X83907159Y-70101983D01*
X83984563Y-70153703D01*
X84139344Y-70217816D01*
X84291463Y-70248074D01*
X84303654Y-70250499D01*
X84303658Y-70250500D01*
X84303659Y-70250500D01*
X84471194Y-70250500D01*
X84471195Y-70250499D01*
X84635508Y-70217816D01*
X84790289Y-70153703D01*
X84929588Y-70060626D01*
X85048052Y-69942162D01*
X85141129Y-69802863D01*
X85205242Y-69648082D01*
X85237926Y-69483767D01*
X85237926Y-69316233D01*
X85221236Y-69232324D01*
X85205243Y-69151921D01*
X85205241Y-69151917D01*
X85190458Y-69116228D01*
X86249500Y-69116228D01*
X86249500Y-69283771D01*
X86282182Y-69448074D01*
X86282184Y-69448082D01*
X86346295Y-69602860D01*
X86439373Y-69742162D01*
X86557837Y-69860626D01*
X86643430Y-69917817D01*
X86697137Y-69953703D01*
X86851918Y-70017816D01*
X87016228Y-70050499D01*
X87016232Y-70050500D01*
X87016233Y-70050500D01*
X87183768Y-70050500D01*
X87183769Y-70050499D01*
X87348082Y-70017816D01*
X87502863Y-69953703D01*
X87642162Y-69860626D01*
X87760626Y-69742162D01*
X87853703Y-69602863D01*
X87917816Y-69448082D01*
X87950500Y-69283767D01*
X87950500Y-69116233D01*
X87917816Y-68951918D01*
X87861473Y-68815896D01*
X87853704Y-68797139D01*
X87760626Y-68657837D01*
X87642162Y-68539373D01*
X87502860Y-68446295D01*
X87418384Y-68411304D01*
X99099500Y-68411304D01*
X99099500Y-68588695D01*
X99134103Y-68762658D01*
X99134106Y-68762667D01*
X99201983Y-68926540D01*
X99201990Y-68926553D01*
X99300535Y-69074034D01*
X99300538Y-69074038D01*
X99425961Y-69199461D01*
X99425965Y-69199464D01*
X99573446Y-69298009D01*
X99573459Y-69298016D01*
X99661505Y-69334485D01*
X99737334Y-69365894D01*
X99737336Y-69365894D01*
X99737341Y-69365896D01*
X99911304Y-69400499D01*
X99911307Y-69400500D01*
X99911309Y-69400500D01*
X100088693Y-69400500D01*
X100088694Y-69400499D01*
X100146682Y-69388964D01*
X100262658Y-69365896D01*
X100262661Y-69365894D01*
X100262666Y-69365894D01*
X100426547Y-69298013D01*
X100431107Y-69294965D01*
X100497783Y-69274086D01*
X100565163Y-69292569D01*
X100568867Y-69294948D01*
X100573453Y-69298013D01*
X100573455Y-69298014D01*
X100573457Y-69298015D01*
X100617428Y-69316228D01*
X100737334Y-69365894D01*
X100737336Y-69365894D01*
X100737341Y-69365896D01*
X100911304Y-69400499D01*
X100911307Y-69400500D01*
X100911309Y-69400500D01*
X101088693Y-69400500D01*
X101088694Y-69400499D01*
X101146682Y-69388964D01*
X101262658Y-69365896D01*
X101262661Y-69365894D01*
X101262666Y-69365894D01*
X101426547Y-69298013D01*
X101493610Y-69253202D01*
X101560285Y-69232324D01*
X101627666Y-69250808D01*
X101631363Y-69253184D01*
X101698453Y-69298013D01*
X101698455Y-69298014D01*
X101698457Y-69298015D01*
X101742428Y-69316228D01*
X101862334Y-69365894D01*
X101862336Y-69365894D01*
X101862341Y-69365896D01*
X102036304Y-69400499D01*
X102036307Y-69400500D01*
X102036309Y-69400500D01*
X102213693Y-69400500D01*
X102213694Y-69400499D01*
X102271682Y-69388964D01*
X102387658Y-69365896D01*
X102387661Y-69365894D01*
X102387666Y-69365894D01*
X102551547Y-69298013D01*
X102618610Y-69253202D01*
X102685285Y-69232324D01*
X102752666Y-69250808D01*
X102756363Y-69253184D01*
X102823453Y-69298013D01*
X102823455Y-69298014D01*
X102823457Y-69298015D01*
X102867428Y-69316228D01*
X102987334Y-69365894D01*
X102987336Y-69365894D01*
X102987341Y-69365896D01*
X103161304Y-69400499D01*
X103161307Y-69400500D01*
X103161309Y-69400500D01*
X103338693Y-69400500D01*
X103338694Y-69400499D01*
X103396682Y-69388964D01*
X103512658Y-69365896D01*
X103512661Y-69365894D01*
X103512666Y-69365894D01*
X103676547Y-69298013D01*
X103681107Y-69294965D01*
X103747783Y-69274086D01*
X103815163Y-69292569D01*
X103818867Y-69294948D01*
X103823453Y-69298013D01*
X103823455Y-69298014D01*
X103823457Y-69298015D01*
X103867428Y-69316228D01*
X103987334Y-69365894D01*
X103987336Y-69365894D01*
X103987341Y-69365896D01*
X104161304Y-69400499D01*
X104161307Y-69400500D01*
X104161309Y-69400500D01*
X104338693Y-69400500D01*
X104338694Y-69400499D01*
X104396682Y-69388964D01*
X104512658Y-69365896D01*
X104512661Y-69365894D01*
X104512666Y-69365894D01*
X104676547Y-69298013D01*
X104824035Y-69199464D01*
X104949464Y-69074035D01*
X105048013Y-68926547D01*
X105115894Y-68762666D01*
X105118086Y-68751650D01*
X105150499Y-68588695D01*
X105150500Y-68588693D01*
X105150500Y-68411306D01*
X105150499Y-68411304D01*
X105115896Y-68237341D01*
X105115893Y-68237332D01*
X105048016Y-68073459D01*
X105048009Y-68073446D01*
X104949466Y-67925968D01*
X104949461Y-67925961D01*
X104884804Y-67861304D01*
X118749500Y-67861304D01*
X118749500Y-68038695D01*
X118784103Y-68212658D01*
X118784106Y-68212667D01*
X118851983Y-68376540D01*
X118851990Y-68376553D01*
X118950535Y-68524034D01*
X118950538Y-68524038D01*
X119075961Y-68649461D01*
X119075965Y-68649464D01*
X119223446Y-68748009D01*
X119223459Y-68748016D01*
X119279422Y-68771196D01*
X119387334Y-68815894D01*
X119387336Y-68815894D01*
X119387341Y-68815896D01*
X119561304Y-68850499D01*
X119561307Y-68850500D01*
X119561309Y-68850500D01*
X119738693Y-68850500D01*
X119738694Y-68850499D01*
X119796682Y-68838964D01*
X119912658Y-68815896D01*
X119912661Y-68815894D01*
X119912666Y-68815894D01*
X120052535Y-68757958D01*
X120076540Y-68748016D01*
X120076540Y-68748015D01*
X120076547Y-68748013D01*
X120224035Y-68649464D01*
X120349464Y-68524035D01*
X120448013Y-68376547D01*
X120448014Y-68376544D01*
X120448016Y-68376541D01*
X120485439Y-68286192D01*
X120529279Y-68231788D01*
X120595573Y-68209723D01*
X120663273Y-68227002D01*
X120710884Y-68278139D01*
X120714561Y-68286192D01*
X120751983Y-68376541D01*
X120751990Y-68376553D01*
X120850535Y-68524034D01*
X120850538Y-68524038D01*
X120975961Y-68649461D01*
X120975965Y-68649464D01*
X121123446Y-68748009D01*
X121123459Y-68748016D01*
X121179422Y-68771196D01*
X121287334Y-68815894D01*
X121287336Y-68815894D01*
X121287341Y-68815896D01*
X121430340Y-68844339D01*
X121456237Y-68849491D01*
X121518148Y-68881876D01*
X121552722Y-68942591D01*
X121555958Y-68975772D01*
X121555586Y-68985631D01*
X121549500Y-69016233D01*
X121549500Y-69147355D01*
X121549412Y-69149694D01*
X121539026Y-69180698D01*
X121529815Y-69212069D01*
X121527847Y-69214072D01*
X121527220Y-69215945D01*
X121521488Y-69220545D01*
X121494391Y-69248131D01*
X121481500Y-69256745D01*
X121357837Y-69339373D01*
X121239373Y-69457837D01*
X121146295Y-69597139D01*
X121082184Y-69751917D01*
X121082182Y-69751925D01*
X121049500Y-69916228D01*
X121049500Y-70083771D01*
X121082182Y-70248074D01*
X121082184Y-70248082D01*
X121146295Y-70402860D01*
X121239373Y-70542162D01*
X121357837Y-70660626D01*
X121440025Y-70715542D01*
X121497137Y-70753703D01*
X121651918Y-70817816D01*
X121787155Y-70844716D01*
X121816228Y-70850499D01*
X121816232Y-70850500D01*
X121816233Y-70850500D01*
X121983768Y-70850500D01*
X121983769Y-70850499D01*
X122148082Y-70817816D01*
X122302863Y-70753703D01*
X122442162Y-70660626D01*
X122560626Y-70542162D01*
X122653703Y-70402863D01*
X122717816Y-70248082D01*
X122750500Y-70083767D01*
X122750500Y-70019964D01*
X122770185Y-69952925D01*
X122822989Y-69907170D01*
X122892147Y-69897226D01*
X122921950Y-69905402D01*
X122951918Y-69917816D01*
X123074315Y-69942162D01*
X123116228Y-69950499D01*
X123116232Y-69950500D01*
X123116233Y-69950500D01*
X123283768Y-69950500D01*
X123283769Y-69950499D01*
X123448082Y-69917816D01*
X123552547Y-69874543D01*
X123622016Y-69867075D01*
X123647449Y-69874542D01*
X123751918Y-69917816D01*
X123874315Y-69942162D01*
X123916228Y-69950499D01*
X123916232Y-69950500D01*
X123916233Y-69950500D01*
X124083768Y-69950500D01*
X124083769Y-69950499D01*
X124248082Y-69917816D01*
X124352547Y-69874543D01*
X124422016Y-69867075D01*
X124447449Y-69874542D01*
X124551918Y-69917816D01*
X124674315Y-69942162D01*
X124716228Y-69950499D01*
X124716232Y-69950500D01*
X124716233Y-69950500D01*
X124883768Y-69950500D01*
X124883769Y-69950499D01*
X125048082Y-69917816D01*
X125202863Y-69853703D01*
X125342162Y-69760626D01*
X125460626Y-69642162D01*
X125553703Y-69502863D01*
X125617816Y-69348082D01*
X125650500Y-69183767D01*
X125650500Y-69016233D01*
X125617816Y-68851918D01*
X125560901Y-68714515D01*
X125553704Y-68697139D01*
X125460626Y-68557837D01*
X125342162Y-68439373D01*
X125202860Y-68346295D01*
X125048082Y-68282184D01*
X125048074Y-68282182D01*
X124883771Y-68249500D01*
X124883767Y-68249500D01*
X124716233Y-68249500D01*
X124716228Y-68249500D01*
X124551925Y-68282182D01*
X124551917Y-68282184D01*
X124447453Y-68325455D01*
X124377983Y-68332924D01*
X124352547Y-68325455D01*
X124248082Y-68282184D01*
X124248074Y-68282182D01*
X124083771Y-68249500D01*
X124083767Y-68249500D01*
X123916233Y-68249500D01*
X123916228Y-68249500D01*
X123751925Y-68282182D01*
X123751917Y-68282184D01*
X123647453Y-68325455D01*
X123577983Y-68332924D01*
X123552547Y-68325455D01*
X123448082Y-68282184D01*
X123448074Y-68282182D01*
X123283771Y-68249500D01*
X123283767Y-68249500D01*
X123116233Y-68249500D01*
X123116228Y-68249500D01*
X122951925Y-68282182D01*
X122951917Y-68282184D01*
X122847453Y-68325455D01*
X122777983Y-68332924D01*
X122752547Y-68325455D01*
X122648082Y-68282184D01*
X122648076Y-68282182D01*
X122533046Y-68259301D01*
X122471135Y-68226916D01*
X122436561Y-68166200D01*
X122435621Y-68113492D01*
X122450500Y-68038693D01*
X122450500Y-67861306D01*
X122450499Y-67861304D01*
X122415896Y-67687341D01*
X122415893Y-67687332D01*
X122348016Y-67523459D01*
X122348009Y-67523446D01*
X122249464Y-67375965D01*
X122249461Y-67375961D01*
X122124038Y-67250538D01*
X122124034Y-67250535D01*
X121976553Y-67151990D01*
X121976540Y-67151983D01*
X121812667Y-67084106D01*
X121812658Y-67084103D01*
X121638694Y-67049500D01*
X121638691Y-67049500D01*
X121461309Y-67049500D01*
X121461306Y-67049500D01*
X121287341Y-67084103D01*
X121287332Y-67084106D01*
X121123459Y-67151983D01*
X121123446Y-67151990D01*
X120975965Y-67250535D01*
X120975961Y-67250538D01*
X120850538Y-67375961D01*
X120850535Y-67375965D01*
X120751990Y-67523446D01*
X120751983Y-67523459D01*
X120714561Y-67613807D01*
X120670720Y-67668211D01*
X120604426Y-67690276D01*
X120536727Y-67672997D01*
X120489116Y-67621860D01*
X120485439Y-67613807D01*
X120448016Y-67523459D01*
X120448009Y-67523446D01*
X120349464Y-67375965D01*
X120349461Y-67375961D01*
X120224038Y-67250538D01*
X120224034Y-67250535D01*
X120076553Y-67151990D01*
X120076540Y-67151983D01*
X119912667Y-67084106D01*
X119912658Y-67084103D01*
X119738694Y-67049500D01*
X119738691Y-67049500D01*
X119561309Y-67049500D01*
X119561306Y-67049500D01*
X119387341Y-67084103D01*
X119387332Y-67084106D01*
X119223459Y-67151983D01*
X119223446Y-67151990D01*
X119075965Y-67250535D01*
X119075961Y-67250538D01*
X118950538Y-67375961D01*
X118950535Y-67375965D01*
X118851990Y-67523446D01*
X118851983Y-67523459D01*
X118784106Y-67687332D01*
X118784103Y-67687341D01*
X118749500Y-67861304D01*
X104884804Y-67861304D01*
X104824038Y-67800538D01*
X104824034Y-67800535D01*
X104676553Y-67701990D01*
X104676540Y-67701983D01*
X104512667Y-67634106D01*
X104512658Y-67634103D01*
X104338694Y-67599500D01*
X104338691Y-67599500D01*
X104161309Y-67599500D01*
X104161306Y-67599500D01*
X103987341Y-67634103D01*
X103987332Y-67634106D01*
X103823459Y-67701983D01*
X103823446Y-67701990D01*
X103818887Y-67705037D01*
X103752208Y-67725912D01*
X103684829Y-67707425D01*
X103681113Y-67705037D01*
X103676553Y-67701990D01*
X103676540Y-67701983D01*
X103512667Y-67634106D01*
X103512658Y-67634103D01*
X103338694Y-67599500D01*
X103338691Y-67599500D01*
X103161309Y-67599500D01*
X103161306Y-67599500D01*
X102987341Y-67634103D01*
X102987332Y-67634106D01*
X102823452Y-67701987D01*
X102823449Y-67701988D01*
X102756391Y-67746796D01*
X102689714Y-67767674D01*
X102622333Y-67749190D01*
X102618609Y-67746796D01*
X102551550Y-67701988D01*
X102551547Y-67701987D01*
X102387667Y-67634106D01*
X102387658Y-67634103D01*
X102213694Y-67599500D01*
X102213691Y-67599500D01*
X102036309Y-67599500D01*
X102036306Y-67599500D01*
X101862341Y-67634103D01*
X101862332Y-67634106D01*
X101698452Y-67701987D01*
X101698449Y-67701988D01*
X101631391Y-67746796D01*
X101564714Y-67767674D01*
X101497333Y-67749190D01*
X101493609Y-67746796D01*
X101426550Y-67701988D01*
X101426547Y-67701987D01*
X101262667Y-67634106D01*
X101262658Y-67634103D01*
X101088694Y-67599500D01*
X101088691Y-67599500D01*
X100911309Y-67599500D01*
X100911306Y-67599500D01*
X100737341Y-67634103D01*
X100737332Y-67634106D01*
X100573459Y-67701983D01*
X100573446Y-67701990D01*
X100568887Y-67705037D01*
X100502208Y-67725912D01*
X100434829Y-67707425D01*
X100431113Y-67705037D01*
X100426553Y-67701990D01*
X100426540Y-67701983D01*
X100262667Y-67634106D01*
X100262658Y-67634103D01*
X100088694Y-67599500D01*
X100088691Y-67599500D01*
X99911309Y-67599500D01*
X99911306Y-67599500D01*
X99737341Y-67634103D01*
X99737332Y-67634106D01*
X99573459Y-67701983D01*
X99573446Y-67701990D01*
X99425965Y-67800535D01*
X99425961Y-67800538D01*
X99300538Y-67925961D01*
X99300535Y-67925965D01*
X99201990Y-68073446D01*
X99201983Y-68073459D01*
X99134106Y-68237332D01*
X99134103Y-68237341D01*
X99099500Y-68411304D01*
X87418384Y-68411304D01*
X87348082Y-68382184D01*
X87348074Y-68382182D01*
X87183771Y-68349500D01*
X87183767Y-68349500D01*
X87016233Y-68349500D01*
X87016228Y-68349500D01*
X86851925Y-68382182D01*
X86851917Y-68382184D01*
X86697139Y-68446295D01*
X86557837Y-68539373D01*
X86439373Y-68657837D01*
X86346295Y-68797139D01*
X86282184Y-68951917D01*
X86282182Y-68951925D01*
X86249500Y-69116228D01*
X85190458Y-69116228D01*
X85149039Y-69016233D01*
X85141130Y-68997139D01*
X85135581Y-68988835D01*
X85093962Y-68926547D01*
X85048052Y-68857837D01*
X84929588Y-68739373D01*
X84790286Y-68646295D01*
X84655000Y-68590258D01*
X84600597Y-68546417D01*
X84578532Y-68480123D01*
X84595811Y-68412423D01*
X84614773Y-68388015D01*
X84660626Y-68342162D01*
X84687203Y-68302387D01*
X84753703Y-68202863D01*
X84817816Y-68048082D01*
X84850500Y-67883767D01*
X84850500Y-67716233D01*
X84817816Y-67551918D01*
X84753703Y-67397137D01*
X84722537Y-67350494D01*
X84660626Y-67257837D01*
X84542162Y-67139373D01*
X84402860Y-67046295D01*
X84248082Y-66982184D01*
X84248074Y-66982182D01*
X84083771Y-66949500D01*
X84083767Y-66949500D01*
X83916233Y-66949500D01*
X83916228Y-66949500D01*
X83751925Y-66982182D01*
X83751917Y-66982184D01*
X83597139Y-67046295D01*
X83457837Y-67139373D01*
X83339373Y-67257837D01*
X83246295Y-67397139D01*
X83182184Y-67551917D01*
X83182182Y-67551925D01*
X83149500Y-67716228D01*
X80330271Y-67716228D01*
X80248082Y-67682184D01*
X80248074Y-67682182D01*
X80083771Y-67649500D01*
X80083767Y-67649500D01*
X79916233Y-67649500D01*
X79916228Y-67649500D01*
X79751925Y-67682182D01*
X79751917Y-67682184D01*
X79597139Y-67746295D01*
X79457837Y-67839373D01*
X79339373Y-67957837D01*
X79246295Y-68097139D01*
X79182184Y-68251917D01*
X79182182Y-68251925D01*
X79149500Y-68416228D01*
X79149500Y-68583771D01*
X79182182Y-68748074D01*
X79182184Y-68748082D01*
X79246295Y-68902860D01*
X79308637Y-68996161D01*
X79329515Y-69062839D01*
X79311030Y-69130219D01*
X79274427Y-69168153D01*
X79225967Y-69200533D01*
X79225961Y-69200538D01*
X79100538Y-69325961D01*
X79100535Y-69325965D01*
X79001990Y-69473446D01*
X79001983Y-69473459D01*
X78934106Y-69637332D01*
X78934103Y-69637341D01*
X78899500Y-69811304D01*
X78498730Y-69811304D01*
X78427828Y-69713715D01*
X78277505Y-69563392D01*
X78105539Y-69438453D01*
X77916133Y-69341946D01*
X77916132Y-69341945D01*
X77916131Y-69341945D01*
X77713962Y-69276256D01*
X77713960Y-69276255D01*
X77670967Y-69269446D01*
X77607833Y-69239516D01*
X77570902Y-69180205D01*
X77571900Y-69110342D01*
X77590048Y-69074088D01*
X77654111Y-68985911D01*
X77713683Y-68903917D01*
X77810189Y-68714513D01*
X77875878Y-68512344D01*
X77909132Y-68302388D01*
X77909132Y-68089814D01*
X77875878Y-67879858D01*
X77810189Y-67677689D01*
X77713683Y-67488285D01*
X77713681Y-67488282D01*
X77713680Y-67488280D01*
X77588741Y-67316314D01*
X77438418Y-67165991D01*
X77266452Y-67041052D01*
X77077046Y-66944545D01*
X77077045Y-66944544D01*
X77077044Y-66944544D01*
X76874875Y-66878855D01*
X76874873Y-66878854D01*
X76874871Y-66878854D01*
X76831880Y-66872045D01*
X76768745Y-66842116D01*
X76731814Y-66782804D01*
X76732812Y-66712942D01*
X76750960Y-66676687D01*
X76760861Y-66663059D01*
X76874595Y-66506517D01*
X76971101Y-66317113D01*
X77036790Y-66114944D01*
X77070044Y-65904988D01*
X77070044Y-65692414D01*
X77036790Y-65482458D01*
X76982778Y-65316228D01*
X78149500Y-65316228D01*
X78149500Y-65483771D01*
X78182182Y-65648074D01*
X78182184Y-65648082D01*
X78246295Y-65802860D01*
X78339373Y-65942162D01*
X78457837Y-66060626D01*
X78532177Y-66110298D01*
X78597137Y-66153703D01*
X78751918Y-66217816D01*
X78904037Y-66248074D01*
X78916228Y-66250499D01*
X78916232Y-66250500D01*
X78916233Y-66250500D01*
X79083768Y-66250500D01*
X79083769Y-66250499D01*
X79248082Y-66217816D01*
X79251916Y-66216228D01*
X90449500Y-66216228D01*
X90449500Y-66383771D01*
X90482182Y-66548074D01*
X90482184Y-66548082D01*
X90546295Y-66702860D01*
X90639373Y-66842162D01*
X90757837Y-66960626D01*
X90805012Y-66992147D01*
X90897137Y-67053703D01*
X91051918Y-67117816D01*
X91216228Y-67150499D01*
X91216232Y-67150500D01*
X91216233Y-67150500D01*
X91383768Y-67150500D01*
X91383769Y-67150499D01*
X91548082Y-67117816D01*
X91702863Y-67053703D01*
X91842162Y-66960626D01*
X91879799Y-66922989D01*
X91937819Y-66864970D01*
X91999142Y-66831485D01*
X92068834Y-66836469D01*
X92124767Y-66878341D01*
X92149184Y-66943805D01*
X92149500Y-66952651D01*
X92149500Y-66983771D01*
X92182182Y-67148074D01*
X92182184Y-67148082D01*
X92246295Y-67302860D01*
X92339373Y-67442162D01*
X92457837Y-67560626D01*
X92537429Y-67613807D01*
X92597137Y-67653703D01*
X92751918Y-67717816D01*
X92895093Y-67746295D01*
X92916228Y-67750499D01*
X92916232Y-67750500D01*
X92916233Y-67750500D01*
X93083768Y-67750500D01*
X93083769Y-67750499D01*
X93248082Y-67717816D01*
X93402863Y-67653703D01*
X93542162Y-67560626D01*
X93660626Y-67442162D01*
X93753703Y-67302863D01*
X93817816Y-67148082D01*
X93850500Y-66983767D01*
X93850500Y-66816233D01*
X93817816Y-66651918D01*
X93753703Y-66497137D01*
X93677954Y-66383771D01*
X93660626Y-66357837D01*
X93542162Y-66239373D01*
X93402860Y-66146295D01*
X93248082Y-66082184D01*
X93248080Y-66082183D01*
X93237953Y-66080169D01*
X93229241Y-66075611D01*
X93219435Y-66074963D01*
X93198799Y-66059686D01*
X93176043Y-66047782D01*
X93171178Y-66039239D01*
X93163279Y-66033391D01*
X93154177Y-66009380D01*
X93141471Y-65987065D01*
X93141337Y-65975508D01*
X93138513Y-65968058D01*
X93140988Y-65945426D01*
X93140843Y-65932841D01*
X93142559Y-65924741D01*
X93143552Y-65922346D01*
X93144769Y-65916228D01*
X94549500Y-65916228D01*
X94549500Y-66083771D01*
X94582182Y-66248074D01*
X94582184Y-66248082D01*
X94646295Y-66402860D01*
X94739373Y-66542162D01*
X94857837Y-66660626D01*
X94912627Y-66697235D01*
X94997137Y-66753703D01*
X95151918Y-66817816D01*
X95274315Y-66842162D01*
X95316228Y-66850499D01*
X95316232Y-66850500D01*
X95318971Y-66850500D01*
X95320353Y-66850905D01*
X95322294Y-66851097D01*
X95322257Y-66851465D01*
X95386010Y-66870185D01*
X95431765Y-66922989D01*
X95441709Y-66992147D01*
X95422073Y-67043390D01*
X95401993Y-67073441D01*
X95401983Y-67073459D01*
X95334106Y-67237332D01*
X95334103Y-67237341D01*
X95299500Y-67411304D01*
X95299500Y-67588695D01*
X95334103Y-67762658D01*
X95334106Y-67762667D01*
X95401983Y-67926540D01*
X95401990Y-67926553D01*
X95500535Y-68074034D01*
X95500538Y-68074038D01*
X95625961Y-68199461D01*
X95625965Y-68199464D01*
X95773446Y-68298009D01*
X95773459Y-68298016D01*
X95880039Y-68342162D01*
X95937334Y-68365894D01*
X95937336Y-68365894D01*
X95937341Y-68365896D01*
X96111304Y-68400499D01*
X96111307Y-68400500D01*
X96111309Y-68400500D01*
X96288693Y-68400500D01*
X96288694Y-68400499D01*
X96351457Y-68388015D01*
X96462658Y-68365896D01*
X96462661Y-68365894D01*
X96462666Y-68365894D01*
X96626547Y-68298013D01*
X96774035Y-68199464D01*
X96899464Y-68074035D01*
X96998013Y-67926547D01*
X97065894Y-67762666D01*
X97067555Y-67754319D01*
X97100499Y-67588695D01*
X97100500Y-67588693D01*
X97100500Y-67411306D01*
X97100499Y-67411304D01*
X97065896Y-67237341D01*
X97065893Y-67237332D01*
X96998016Y-67073459D01*
X96998009Y-67073446D01*
X96899464Y-66925965D01*
X96899461Y-66925961D01*
X96774038Y-66800538D01*
X96774034Y-66800535D01*
X96626553Y-66701990D01*
X96626540Y-66701983D01*
X96462667Y-66634106D01*
X96462658Y-66634103D01*
X96288694Y-66599500D01*
X96288691Y-66599500D01*
X96254302Y-66599500D01*
X96187263Y-66579815D01*
X96141508Y-66527011D01*
X96131564Y-66457853D01*
X96151198Y-66406612D01*
X96151220Y-66406578D01*
X96153703Y-66402863D01*
X96217816Y-66248082D01*
X96244299Y-66114944D01*
X96251689Y-66077792D01*
X96254009Y-66078253D01*
X96276212Y-66023191D01*
X96326039Y-65985524D01*
X96350221Y-65975508D01*
X96402857Y-65953706D01*
X96402860Y-65953704D01*
X96402863Y-65953703D01*
X96542162Y-65860626D01*
X96660626Y-65742162D01*
X96753703Y-65602863D01*
X96794418Y-65504568D01*
X96838259Y-65450166D01*
X96884785Y-65430405D01*
X96948082Y-65417816D01*
X97102863Y-65353703D01*
X97228600Y-65269687D01*
X97295276Y-65248810D01*
X97362657Y-65267294D01*
X97385171Y-65285109D01*
X97413678Y-65313616D01*
X97473679Y-65353707D01*
X97552978Y-65406693D01*
X97707759Y-65470806D01*
X97872069Y-65503489D01*
X97872073Y-65503490D01*
X97872074Y-65503490D01*
X98039609Y-65503490D01*
X98039610Y-65503489D01*
X98203923Y-65470806D01*
X98358704Y-65406693D01*
X98498003Y-65313616D01*
X98502713Y-65309751D01*
X98504034Y-65311360D01*
X98557023Y-65282410D01*
X98626716Y-65287378D01*
X98652299Y-65300466D01*
X98782106Y-65387201D01*
X98936887Y-65451314D01*
X99042729Y-65472367D01*
X99101197Y-65483997D01*
X99101201Y-65483998D01*
X99101202Y-65483998D01*
X99268737Y-65483998D01*
X99268738Y-65483997D01*
X99433051Y-65451314D01*
X99587832Y-65387201D01*
X99727131Y-65294124D01*
X99845595Y-65175660D01*
X99938672Y-65036361D01*
X100002785Y-64881580D01*
X100035469Y-64717265D01*
X100035469Y-64549731D01*
X100018135Y-64462587D01*
X100018273Y-64461036D01*
X100017585Y-64459638D01*
X100021376Y-64426364D01*
X100024362Y-64392997D01*
X100025375Y-64391266D01*
X100025495Y-64390218D01*
X100029309Y-64384548D01*
X100043697Y-64359979D01*
X100047646Y-64355141D01*
X100060626Y-64342162D01*
X100071371Y-64326080D01*
X100075117Y-64321492D01*
X100099239Y-64304969D01*
X100121676Y-64286217D01*
X100127727Y-64285456D01*
X100132761Y-64282009D01*
X100161993Y-64281150D01*
X100191001Y-64277506D01*
X100196502Y-64280137D01*
X100202600Y-64279959D01*
X100227651Y-64295038D01*
X100254030Y-64307657D01*
X100257235Y-64312846D01*
X100262462Y-64315992D01*
X100275383Y-64342221D01*
X100290752Y-64367098D01*
X100292789Y-64375718D01*
X100307182Y-64448076D01*
X100307184Y-64448082D01*
X100371295Y-64602860D01*
X100464373Y-64742162D01*
X100582837Y-64860626D01*
X100658690Y-64911309D01*
X100722137Y-64953703D01*
X100722138Y-64953703D01*
X100722139Y-64953704D01*
X100757201Y-64968227D01*
X100876918Y-65017816D01*
X101020093Y-65046295D01*
X101041228Y-65050499D01*
X101041232Y-65050500D01*
X101041233Y-65050500D01*
X101208768Y-65050500D01*
X101208769Y-65050499D01*
X101373082Y-65017816D01*
X101527863Y-64953703D01*
X101667162Y-64860626D01*
X101771429Y-64756358D01*
X101832750Y-64722875D01*
X101902442Y-64727859D01*
X101958376Y-64769730D01*
X101962211Y-64775150D01*
X101992263Y-64820126D01*
X101992266Y-64820130D01*
X102110727Y-64938591D01*
X102175966Y-64982182D01*
X102250027Y-65031668D01*
X102250028Y-65031668D01*
X102250029Y-65031669D01*
X102261357Y-65036361D01*
X102404808Y-65095781D01*
X102537667Y-65122208D01*
X102569118Y-65128464D01*
X102569122Y-65128465D01*
X102569123Y-65128465D01*
X102736658Y-65128465D01*
X102736659Y-65128464D01*
X102900972Y-65095781D01*
X103055753Y-65031668D01*
X103195052Y-64938591D01*
X103313516Y-64820127D01*
X103406593Y-64680828D01*
X103470706Y-64526047D01*
X103503390Y-64361732D01*
X103503390Y-64194198D01*
X103470706Y-64029883D01*
X103448886Y-63977205D01*
X103441417Y-63907735D01*
X103472692Y-63845256D01*
X103532781Y-63809604D01*
X103602606Y-63812098D01*
X103632336Y-63826649D01*
X103746094Y-63902660D01*
X103875562Y-63956288D01*
X103899454Y-63975541D01*
X103924659Y-63993042D01*
X103927855Y-63998428D01*
X103929964Y-64000128D01*
X103942669Y-64023395D01*
X103985811Y-64127548D01*
X103993280Y-64197017D01*
X103985811Y-64222454D01*
X103932184Y-64351920D01*
X103932182Y-64351928D01*
X103899500Y-64516231D01*
X103899500Y-64683774D01*
X103932182Y-64848077D01*
X103932184Y-64848085D01*
X103996295Y-65002863D01*
X104089373Y-65142165D01*
X104207837Y-65260629D01*
X104271204Y-65302969D01*
X104347137Y-65353706D01*
X104501918Y-65417819D01*
X104631263Y-65443547D01*
X104666228Y-65450502D01*
X104666232Y-65450503D01*
X104666233Y-65450503D01*
X104833768Y-65450503D01*
X104833769Y-65450502D01*
X104998082Y-65417819D01*
X105152863Y-65353706D01*
X105243710Y-65293003D01*
X105310385Y-65272126D01*
X105377765Y-65290610D01*
X105381474Y-65292993D01*
X105396402Y-65302968D01*
X105551183Y-65367081D01*
X105702286Y-65397137D01*
X105715493Y-65399764D01*
X105715497Y-65399765D01*
X105879316Y-65399765D01*
X105946355Y-65419450D01*
X105992110Y-65472254D01*
X105993877Y-65476312D01*
X106046295Y-65602860D01*
X106139373Y-65742162D01*
X106257837Y-65860626D01*
X106324230Y-65904988D01*
X106397137Y-65953703D01*
X106551918Y-66017816D01*
X106577498Y-66022904D01*
X106615212Y-66030406D01*
X106677123Y-66062790D01*
X106705582Y-66104570D01*
X106746295Y-66202860D01*
X106839373Y-66342162D01*
X106957837Y-66460626D01*
X107026518Y-66506517D01*
X107097137Y-66553703D01*
X107251918Y-66617816D01*
X107416228Y-66650499D01*
X107416232Y-66650500D01*
X107416233Y-66650500D01*
X107583768Y-66650500D01*
X107583769Y-66650499D01*
X107748082Y-66617816D01*
X107902863Y-66553703D01*
X108042162Y-66460626D01*
X108160626Y-66342162D01*
X108253703Y-66202863D01*
X108317816Y-66048082D01*
X108350500Y-65883767D01*
X108350500Y-65716233D01*
X108317816Y-65551918D01*
X108262270Y-65417819D01*
X108253704Y-65397139D01*
X108247064Y-65387202D01*
X108215106Y-65339373D01*
X108160626Y-65257837D01*
X108042162Y-65139373D01*
X107902860Y-65046295D01*
X107748082Y-64982184D01*
X107748076Y-64982182D01*
X107684786Y-64969593D01*
X107622875Y-64937208D01*
X107594417Y-64895429D01*
X107553704Y-64797138D01*
X107460626Y-64657837D01*
X107342162Y-64539373D01*
X107202860Y-64446295D01*
X107048082Y-64382184D01*
X107048074Y-64382182D01*
X106883771Y-64349500D01*
X106883767Y-64349500D01*
X106719949Y-64349500D01*
X106652910Y-64329815D01*
X106607155Y-64277011D01*
X106605388Y-64272953D01*
X106552969Y-64146404D01*
X106528055Y-64109118D01*
X106492546Y-64055974D01*
X106459891Y-64007102D01*
X106341430Y-63888641D01*
X106341426Y-63888638D01*
X106303420Y-63863243D01*
X106303418Y-63863241D01*
X106202130Y-63795563D01*
X106202126Y-63795561D01*
X106131310Y-63766228D01*
X113199500Y-63766228D01*
X113199500Y-63933771D01*
X113232182Y-64098074D01*
X113232184Y-64098082D01*
X113296295Y-64252860D01*
X113389373Y-64392162D01*
X113507837Y-64510626D01*
X113576267Y-64556349D01*
X113647137Y-64603703D01*
X113801918Y-64667816D01*
X113966228Y-64700499D01*
X113966232Y-64700500D01*
X113966233Y-64700500D01*
X114133768Y-64700500D01*
X114133769Y-64700499D01*
X114298082Y-64667816D01*
X114452863Y-64603703D01*
X114592162Y-64510626D01*
X114710626Y-64392162D01*
X114803703Y-64252863D01*
X114867816Y-64098082D01*
X114900500Y-63933767D01*
X114900500Y-63930307D01*
X131812397Y-63930307D01*
X131837395Y-64055974D01*
X131837397Y-64055980D01*
X131886431Y-64174360D01*
X131886436Y-64174369D01*
X131957621Y-64280904D01*
X131957624Y-64280908D01*
X132048225Y-64371509D01*
X132048229Y-64371512D01*
X132154764Y-64442697D01*
X132154773Y-64442702D01*
X132163452Y-64446297D01*
X132273154Y-64491737D01*
X132273158Y-64491737D01*
X132273159Y-64491738D01*
X132398826Y-64516736D01*
X132398829Y-64516736D01*
X132526969Y-64516736D01*
X132611513Y-64499918D01*
X132652642Y-64491737D01*
X132771025Y-64442701D01*
X132877567Y-64371512D01*
X132968174Y-64280905D01*
X133039363Y-64174363D01*
X133088399Y-64055980D01*
X133099916Y-63998082D01*
X133113398Y-63930307D01*
X133113398Y-63802164D01*
X133088400Y-63676497D01*
X133088399Y-63676496D01*
X133088399Y-63676492D01*
X133039363Y-63558109D01*
X133039362Y-63558108D01*
X133039359Y-63558102D01*
X132968174Y-63451567D01*
X132968171Y-63451563D01*
X132877570Y-63360962D01*
X132877566Y-63360959D01*
X132771031Y-63289774D01*
X132771022Y-63289769D01*
X132652642Y-63240735D01*
X132652636Y-63240733D01*
X132526969Y-63215736D01*
X132526967Y-63215736D01*
X132398829Y-63215736D01*
X132398827Y-63215736D01*
X132273159Y-63240733D01*
X132273153Y-63240735D01*
X132154773Y-63289769D01*
X132154764Y-63289774D01*
X132048229Y-63360959D01*
X132048225Y-63360962D01*
X131957624Y-63451563D01*
X131957621Y-63451567D01*
X131886436Y-63558102D01*
X131886431Y-63558111D01*
X131837397Y-63676491D01*
X131837395Y-63676497D01*
X131812398Y-63802164D01*
X131812398Y-63802167D01*
X131812398Y-63930305D01*
X131812398Y-63930307D01*
X131812397Y-63930307D01*
X114900500Y-63930307D01*
X114900500Y-63766233D01*
X114867816Y-63601918D01*
X114803703Y-63447137D01*
X114770223Y-63397031D01*
X114710626Y-63307837D01*
X114592162Y-63189373D01*
X114452860Y-63096295D01*
X114298082Y-63032184D01*
X114298074Y-63032182D01*
X114133771Y-62999500D01*
X114133767Y-62999500D01*
X113966233Y-62999500D01*
X113966228Y-62999500D01*
X113801925Y-63032182D01*
X113801917Y-63032184D01*
X113647139Y-63096295D01*
X113507837Y-63189373D01*
X113389373Y-63307837D01*
X113296295Y-63447139D01*
X113232184Y-63601917D01*
X113232182Y-63601925D01*
X113199500Y-63766228D01*
X106131310Y-63766228D01*
X106047347Y-63731449D01*
X106047339Y-63731447D01*
X105883036Y-63698765D01*
X105883032Y-63698765D01*
X105715498Y-63698765D01*
X105709406Y-63698765D01*
X105709406Y-63696080D01*
X105652122Y-63685144D01*
X105601470Y-63637018D01*
X105587131Y-63599020D01*
X105567817Y-63501925D01*
X105567816Y-63501918D01*
X105503703Y-63347137D01*
X105444035Y-63257838D01*
X105410626Y-63207837D01*
X105292162Y-63089373D01*
X105152860Y-62996295D01*
X105023395Y-62942669D01*
X104968992Y-62898828D01*
X104956287Y-62875561D01*
X104902661Y-62746095D01*
X104809583Y-62606794D01*
X104691119Y-62488330D01*
X104551817Y-62395252D01*
X104397039Y-62331141D01*
X104397031Y-62331139D01*
X104232728Y-62298457D01*
X104232724Y-62298457D01*
X104065190Y-62298457D01*
X104065185Y-62298457D01*
X103900882Y-62331139D01*
X103900874Y-62331141D01*
X103746096Y-62395252D01*
X103606794Y-62488330D01*
X103488330Y-62606794D01*
X103395252Y-62746096D01*
X103331141Y-62900874D01*
X103331139Y-62900882D01*
X103298457Y-63065185D01*
X103298457Y-63232728D01*
X103328119Y-63381847D01*
X103331141Y-63397039D01*
X103343744Y-63427465D01*
X103352961Y-63449717D01*
X103360429Y-63519187D01*
X103329153Y-63581666D01*
X103269064Y-63617318D01*
X103199239Y-63614823D01*
X103169508Y-63600271D01*
X103055750Y-63524260D01*
X102900972Y-63460149D01*
X102900966Y-63460147D01*
X102772397Y-63434573D01*
X102710486Y-63402188D01*
X102693487Y-63381847D01*
X102610626Y-63257838D01*
X102610623Y-63257834D01*
X102492162Y-63139373D01*
X102352860Y-63046295D01*
X102198082Y-62982184D01*
X102198074Y-62982182D01*
X102033771Y-62949500D01*
X102033767Y-62949500D01*
X101866233Y-62949500D01*
X101866228Y-62949500D01*
X101701925Y-62982182D01*
X101701917Y-62982184D01*
X101547140Y-63046295D01*
X101434501Y-63121557D01*
X101367823Y-63142434D01*
X101300443Y-63123949D01*
X101256255Y-63076911D01*
X101253704Y-63072139D01*
X101160626Y-62932837D01*
X101042162Y-62814373D01*
X100902860Y-62721295D01*
X100748082Y-62657184D01*
X100748074Y-62657182D01*
X100583771Y-62624500D01*
X100583767Y-62624500D01*
X100416233Y-62624500D01*
X100416228Y-62624500D01*
X100251925Y-62657182D01*
X100251917Y-62657184D01*
X100097139Y-62721295D01*
X99957837Y-62814373D01*
X99839376Y-62932834D01*
X99839371Y-62932840D01*
X99828618Y-62948934D01*
X99775006Y-62993738D01*
X99705681Y-63002445D01*
X99678065Y-62994603D01*
X99648086Y-62982185D01*
X99648074Y-62982182D01*
X99483771Y-62949500D01*
X99483767Y-62949500D01*
X99316233Y-62949500D01*
X99316228Y-62949500D01*
X99151925Y-62982182D01*
X99151917Y-62982184D01*
X98997139Y-63046295D01*
X98857837Y-63139373D01*
X98739373Y-63257837D01*
X98646295Y-63397139D01*
X98582184Y-63551917D01*
X98582182Y-63551925D01*
X98549500Y-63716228D01*
X98549500Y-63794785D01*
X98529815Y-63861824D01*
X98477011Y-63907579D01*
X98407853Y-63917523D01*
X98364695Y-63900988D01*
X98364071Y-63902156D01*
X98358702Y-63899286D01*
X98203923Y-63835174D01*
X98203915Y-63835172D01*
X98039612Y-63802490D01*
X98039608Y-63802490D01*
X97872074Y-63802490D01*
X97872069Y-63802490D01*
X97707766Y-63835172D01*
X97707758Y-63835174D01*
X97552981Y-63899285D01*
X97427240Y-63983302D01*
X97360563Y-64004179D01*
X97293183Y-63985694D01*
X97270669Y-63967880D01*
X97242162Y-63939373D01*
X97102860Y-63846295D01*
X96948082Y-63782184D01*
X96948074Y-63782182D01*
X96783771Y-63749500D01*
X96783767Y-63749500D01*
X96616233Y-63749500D01*
X96616228Y-63749500D01*
X96451925Y-63782182D01*
X96451917Y-63782184D01*
X96297139Y-63846295D01*
X96157837Y-63939373D01*
X96039373Y-64057837D01*
X95946296Y-64197137D01*
X95905582Y-64295430D01*
X95861740Y-64349833D01*
X95815213Y-64369593D01*
X95751923Y-64382182D01*
X95751917Y-64382184D01*
X95597139Y-64446295D01*
X95457837Y-64539373D01*
X95339373Y-64657837D01*
X95246295Y-64797139D01*
X95182184Y-64951917D01*
X95182182Y-64951925D01*
X95148311Y-65122208D01*
X95146003Y-65121749D01*
X95123739Y-65176868D01*
X95073962Y-65214473D01*
X94997140Y-65246295D01*
X94997139Y-65246295D01*
X94857837Y-65339373D01*
X94739373Y-65457837D01*
X94646295Y-65597139D01*
X94582184Y-65751917D01*
X94582182Y-65751925D01*
X94549500Y-65916228D01*
X93144769Y-65916228D01*
X93154913Y-65865233D01*
X93176235Y-65758035D01*
X93176236Y-65758032D01*
X93176236Y-65590496D01*
X93176235Y-65590492D01*
X93172962Y-65574038D01*
X93143552Y-65426182D01*
X93083119Y-65280286D01*
X93079440Y-65271403D01*
X93076694Y-65267294D01*
X93015467Y-65175660D01*
X92986362Y-65132101D01*
X92867898Y-65013637D01*
X92728596Y-64920559D01*
X92573818Y-64856448D01*
X92573810Y-64856446D01*
X92409507Y-64823764D01*
X92409503Y-64823764D01*
X92241969Y-64823764D01*
X92241964Y-64823764D01*
X92077661Y-64856446D01*
X92077653Y-64856448D01*
X91922875Y-64920559D01*
X91783573Y-65013637D01*
X91665109Y-65132101D01*
X91572031Y-65271403D01*
X91528489Y-65376523D01*
X91484647Y-65430927D01*
X91418353Y-65452991D01*
X91389737Y-65450687D01*
X91383770Y-65449500D01*
X91383767Y-65449500D01*
X91216233Y-65449500D01*
X91216228Y-65449500D01*
X91051925Y-65482182D01*
X91051917Y-65482184D01*
X90897139Y-65546295D01*
X90757837Y-65639373D01*
X90639373Y-65757837D01*
X90546295Y-65897139D01*
X90482184Y-66051917D01*
X90482182Y-66051925D01*
X90449500Y-66216228D01*
X79251916Y-66216228D01*
X79402863Y-66153703D01*
X79542162Y-66060626D01*
X79660626Y-65942162D01*
X79753703Y-65802863D01*
X79817816Y-65648082D01*
X79850500Y-65483767D01*
X79850500Y-65316233D01*
X79817816Y-65151918D01*
X79753703Y-64997137D01*
X79696351Y-64911304D01*
X87999500Y-64911304D01*
X87999500Y-65088695D01*
X88034103Y-65262658D01*
X88034106Y-65262667D01*
X88101983Y-65426540D01*
X88101990Y-65426553D01*
X88200535Y-65574034D01*
X88200538Y-65574038D01*
X88325961Y-65699461D01*
X88325965Y-65699464D01*
X88473446Y-65798009D01*
X88473459Y-65798016D01*
X88556976Y-65832609D01*
X88637334Y-65865894D01*
X88637336Y-65865894D01*
X88637341Y-65865896D01*
X88811304Y-65900499D01*
X88811307Y-65900500D01*
X88811309Y-65900500D01*
X88988693Y-65900500D01*
X88988694Y-65900499D01*
X89072813Y-65883767D01*
X89162658Y-65865896D01*
X89162661Y-65865894D01*
X89162666Y-65865894D01*
X89326547Y-65798013D01*
X89474035Y-65699464D01*
X89599464Y-65574035D01*
X89698013Y-65426547D01*
X89701630Y-65417816D01*
X89728185Y-65353704D01*
X89765894Y-65262666D01*
X89766300Y-65260629D01*
X89793924Y-65121749D01*
X89800500Y-65088691D01*
X89800500Y-64911309D01*
X89800500Y-64911306D01*
X89800499Y-64911304D01*
X89765896Y-64737341D01*
X89765893Y-64737332D01*
X89698016Y-64573459D01*
X89698009Y-64573446D01*
X89599464Y-64425965D01*
X89599461Y-64425961D01*
X89474038Y-64300538D01*
X89474034Y-64300535D01*
X89326553Y-64201990D01*
X89326540Y-64201983D01*
X89162667Y-64134106D01*
X89162658Y-64134103D01*
X88988694Y-64099500D01*
X88988691Y-64099500D01*
X88811309Y-64099500D01*
X88811306Y-64099500D01*
X88637341Y-64134103D01*
X88637332Y-64134106D01*
X88473459Y-64201983D01*
X88473446Y-64201990D01*
X88325965Y-64300535D01*
X88325961Y-64300538D01*
X88200538Y-64425961D01*
X88200535Y-64425965D01*
X88101990Y-64573446D01*
X88101983Y-64573459D01*
X88034106Y-64737332D01*
X88034103Y-64737341D01*
X87999500Y-64911304D01*
X79696351Y-64911304D01*
X79685744Y-64895429D01*
X79660629Y-64857842D01*
X79660623Y-64857834D01*
X79542162Y-64739373D01*
X79402860Y-64646295D01*
X79248082Y-64582184D01*
X79248074Y-64582182D01*
X79083771Y-64549500D01*
X79083767Y-64549500D01*
X78916233Y-64549500D01*
X78916228Y-64549500D01*
X78751925Y-64582182D01*
X78751917Y-64582184D01*
X78597139Y-64646295D01*
X78457837Y-64739373D01*
X78339373Y-64857837D01*
X78246295Y-64997139D01*
X78182184Y-65151917D01*
X78182182Y-65151925D01*
X78149500Y-65316228D01*
X76982778Y-65316228D01*
X76971101Y-65280289D01*
X76971099Y-65280286D01*
X76971099Y-65280284D01*
X76895596Y-65132102D01*
X76874595Y-65090885D01*
X76874593Y-65090882D01*
X76874592Y-65090880D01*
X76749653Y-64918914D01*
X76599330Y-64768591D01*
X76427364Y-64643652D01*
X76237958Y-64547145D01*
X76237957Y-64547144D01*
X76237956Y-64547144D01*
X76067429Y-64491736D01*
X76035785Y-64481454D01*
X75992788Y-64474644D01*
X75929654Y-64444714D01*
X75892724Y-64385401D01*
X75893722Y-64315539D01*
X75911866Y-64279291D01*
X76035507Y-64109114D01*
X76132013Y-63919710D01*
X76197702Y-63717541D01*
X76230956Y-63507585D01*
X76230956Y-63295011D01*
X76197702Y-63085055D01*
X76132013Y-62882886D01*
X76035507Y-62693482D01*
X76035505Y-62693479D01*
X76035504Y-62693477D01*
X75910565Y-62521511D01*
X75760242Y-62371188D01*
X75588276Y-62246249D01*
X75398870Y-62149742D01*
X75398869Y-62149741D01*
X75398868Y-62149741D01*
X75196699Y-62084052D01*
X75196697Y-62084051D01*
X75196695Y-62084051D01*
X75153704Y-62077242D01*
X75090569Y-62047313D01*
X75053638Y-61988001D01*
X75054636Y-61918139D01*
X75072784Y-61881884D01*
X75157526Y-61765244D01*
X75196418Y-61711714D01*
X75292924Y-61522310D01*
X75358613Y-61320141D01*
X75391867Y-61110185D01*
X75391867Y-60897611D01*
X75362359Y-60711304D01*
X82499500Y-60711304D01*
X82499500Y-60888695D01*
X82534103Y-61062658D01*
X82534106Y-61062667D01*
X82592046Y-61202548D01*
X82599515Y-61272017D01*
X82592046Y-61297452D01*
X82534106Y-61437332D01*
X82534103Y-61437341D01*
X82499500Y-61611304D01*
X82499500Y-61788695D01*
X82534103Y-61962658D01*
X82534106Y-61962667D01*
X82601983Y-62126540D01*
X82601990Y-62126553D01*
X82700535Y-62274034D01*
X82700538Y-62274038D01*
X82825961Y-62399461D01*
X82825965Y-62399464D01*
X82973446Y-62498009D01*
X82973459Y-62498016D01*
X83096363Y-62548923D01*
X83137334Y-62565894D01*
X83137336Y-62565894D01*
X83137341Y-62565896D01*
X83311304Y-62600499D01*
X83311307Y-62600500D01*
X83311309Y-62600500D01*
X83488693Y-62600500D01*
X83488694Y-62600499D01*
X83572813Y-62583767D01*
X83662658Y-62565896D01*
X83662661Y-62565894D01*
X83662666Y-62565894D01*
X83826547Y-62498013D01*
X83974035Y-62399464D01*
X84099464Y-62274035D01*
X84198013Y-62126547D01*
X84265894Y-61962666D01*
X84281604Y-61883690D01*
X84300499Y-61788695D01*
X84300500Y-61788693D01*
X84300500Y-61687484D01*
X84320185Y-61620445D01*
X84372989Y-61574690D01*
X84442147Y-61564746D01*
X84493391Y-61584382D01*
X84597137Y-61653703D01*
X84751918Y-61717816D01*
X84916228Y-61750499D01*
X84916232Y-61750500D01*
X84916233Y-61750500D01*
X85083768Y-61750500D01*
X85083769Y-61750499D01*
X85248082Y-61717816D01*
X85402863Y-61653703D01*
X85542162Y-61560626D01*
X85660626Y-61442162D01*
X85753703Y-61302863D01*
X85817816Y-61148082D01*
X85850500Y-60983767D01*
X85850500Y-60916228D01*
X117949500Y-60916228D01*
X117949500Y-61083771D01*
X117982182Y-61248074D01*
X117982184Y-61248082D01*
X118046295Y-61402860D01*
X118139373Y-61542162D01*
X118257837Y-61660626D01*
X118343430Y-61717817D01*
X118397137Y-61753703D01*
X118551918Y-61817816D01*
X118702272Y-61847723D01*
X118716228Y-61850499D01*
X118716232Y-61850500D01*
X118716233Y-61850500D01*
X118883768Y-61850500D01*
X118883769Y-61850499D01*
X119048082Y-61817816D01*
X119127547Y-61784899D01*
X119152731Y-61782191D01*
X119177158Y-61775479D01*
X119190108Y-61778172D01*
X119197015Y-61777430D01*
X119212000Y-61781109D01*
X119217304Y-61782767D01*
X119301918Y-61817816D01*
X119377501Y-61832849D01*
X119383822Y-61834826D01*
X119407596Y-61850696D01*
X119432924Y-61863945D01*
X119436284Y-61869846D01*
X119441934Y-61873618D01*
X119453353Y-61899821D01*
X119467498Y-61924660D01*
X119468439Y-61928985D01*
X119482182Y-61998076D01*
X119482185Y-61998086D01*
X119515099Y-62077548D01*
X119522568Y-62147017D01*
X119515099Y-62172452D01*
X119482185Y-62251913D01*
X119482182Y-62251925D01*
X119449500Y-62416228D01*
X119449500Y-62583771D01*
X119482182Y-62748074D01*
X119482184Y-62748082D01*
X119546295Y-62902860D01*
X119639373Y-63042162D01*
X119757837Y-63160626D01*
X119850494Y-63222537D01*
X119897137Y-63253703D01*
X119897138Y-63253703D01*
X119897139Y-63253704D01*
X119932201Y-63268227D01*
X120051918Y-63317816D01*
X120199326Y-63347137D01*
X120216228Y-63350499D01*
X120216232Y-63350500D01*
X120216233Y-63350500D01*
X120383768Y-63350500D01*
X120383769Y-63350499D01*
X120548082Y-63317816D01*
X120702863Y-63253703D01*
X120842162Y-63160626D01*
X120960626Y-63042162D01*
X121053703Y-62902863D01*
X121117816Y-62748082D01*
X121150500Y-62583767D01*
X121150500Y-62416233D01*
X121117816Y-62251918D01*
X121084899Y-62172452D01*
X121077430Y-62102985D01*
X121084899Y-62077549D01*
X121117816Y-61998082D01*
X121150500Y-61833767D01*
X121150500Y-61666233D01*
X121117816Y-61501918D01*
X121084899Y-61422452D01*
X121077430Y-61352985D01*
X121084900Y-61327546D01*
X121087968Y-61320141D01*
X121117816Y-61248082D01*
X121147524Y-61098731D01*
X132803445Y-61098731D01*
X132828443Y-61224398D01*
X132828445Y-61224404D01*
X132877479Y-61342784D01*
X132877484Y-61342793D01*
X132948669Y-61449328D01*
X132948672Y-61449332D01*
X133039273Y-61539933D01*
X133039277Y-61539936D01*
X133145812Y-61611121D01*
X133145818Y-61611124D01*
X133145819Y-61611125D01*
X133264202Y-61660161D01*
X133264206Y-61660161D01*
X133264207Y-61660162D01*
X133389874Y-61685160D01*
X133389877Y-61685160D01*
X133518017Y-61685160D01*
X133613190Y-61666228D01*
X133643690Y-61660161D01*
X133762073Y-61611125D01*
X133868615Y-61539936D01*
X133959222Y-61449329D01*
X134030411Y-61342787D01*
X134079447Y-61224404D01*
X134094629Y-61148082D01*
X134104446Y-61098731D01*
X134104446Y-60970588D01*
X134079448Y-60844921D01*
X134079447Y-60844920D01*
X134079447Y-60844916D01*
X134030411Y-60726533D01*
X134030410Y-60726532D01*
X134030407Y-60726526D01*
X133959222Y-60619991D01*
X133959219Y-60619987D01*
X133868618Y-60529386D01*
X133868614Y-60529383D01*
X133762079Y-60458198D01*
X133762070Y-60458193D01*
X133643690Y-60409159D01*
X133643684Y-60409157D01*
X133518017Y-60384160D01*
X133518015Y-60384160D01*
X133389877Y-60384160D01*
X133389875Y-60384160D01*
X133264207Y-60409157D01*
X133264201Y-60409159D01*
X133145821Y-60458193D01*
X133145812Y-60458198D01*
X133039277Y-60529383D01*
X133039273Y-60529386D01*
X132948672Y-60619987D01*
X132948669Y-60619991D01*
X132877484Y-60726526D01*
X132877479Y-60726535D01*
X132828445Y-60844915D01*
X132828443Y-60844921D01*
X132803446Y-60970588D01*
X132803446Y-60970591D01*
X132803446Y-61098729D01*
X132803446Y-61098731D01*
X132803445Y-61098731D01*
X121147524Y-61098731D01*
X121150500Y-61083767D01*
X121150500Y-60916233D01*
X121117816Y-60751918D01*
X121053703Y-60597137D01*
X121019977Y-60546663D01*
X120960626Y-60457837D01*
X120842162Y-60339373D01*
X120702860Y-60246295D01*
X120548082Y-60182184D01*
X120548074Y-60182182D01*
X120383771Y-60149500D01*
X120383767Y-60149500D01*
X120216233Y-60149500D01*
X120216228Y-60149500D01*
X120051925Y-60182182D01*
X120051913Y-60182185D01*
X119972452Y-60215099D01*
X119902983Y-60222568D01*
X119877548Y-60215099D01*
X119798086Y-60182185D01*
X119798074Y-60182182D01*
X119633771Y-60149500D01*
X119633767Y-60149500D01*
X119466233Y-60149500D01*
X119466228Y-60149500D01*
X119301925Y-60182182D01*
X119301913Y-60182185D01*
X119222452Y-60215099D01*
X119152983Y-60222568D01*
X119127548Y-60215099D01*
X119048086Y-60182185D01*
X119048074Y-60182182D01*
X118883771Y-60149500D01*
X118883767Y-60149500D01*
X118716233Y-60149500D01*
X118716228Y-60149500D01*
X118551925Y-60182182D01*
X118551917Y-60182184D01*
X118397139Y-60246295D01*
X118257837Y-60339373D01*
X118139373Y-60457837D01*
X118046295Y-60597139D01*
X117982184Y-60751917D01*
X117982182Y-60751925D01*
X117949500Y-60916228D01*
X85850500Y-60916228D01*
X85850500Y-60816233D01*
X85817816Y-60651918D01*
X85753703Y-60497137D01*
X85694918Y-60409159D01*
X85660626Y-60357837D01*
X85542162Y-60239373D01*
X85402860Y-60146295D01*
X85248082Y-60082184D01*
X85248074Y-60082182D01*
X85083771Y-60049500D01*
X85083767Y-60049500D01*
X84916233Y-60049500D01*
X84916228Y-60049500D01*
X84751925Y-60082182D01*
X84751917Y-60082184D01*
X84597139Y-60146295D01*
X84457838Y-60239373D01*
X84355219Y-60341992D01*
X84293896Y-60375476D01*
X84224204Y-60370492D01*
X84168271Y-60328620D01*
X84164436Y-60323201D01*
X84099464Y-60225965D01*
X84099461Y-60225961D01*
X83974038Y-60100538D01*
X83974034Y-60100535D01*
X83826553Y-60001990D01*
X83826540Y-60001983D01*
X83662667Y-59934106D01*
X83662658Y-59934103D01*
X83488694Y-59899500D01*
X83488691Y-59899500D01*
X83311309Y-59899500D01*
X83311306Y-59899500D01*
X83137341Y-59934103D01*
X83137332Y-59934106D01*
X82973459Y-60001983D01*
X82973446Y-60001990D01*
X82825965Y-60100535D01*
X82825961Y-60100538D01*
X82700538Y-60225961D01*
X82700535Y-60225965D01*
X82601990Y-60373446D01*
X82601983Y-60373459D01*
X82534106Y-60537332D01*
X82534103Y-60537341D01*
X82499500Y-60711304D01*
X75362359Y-60711304D01*
X75358613Y-60687655D01*
X75292924Y-60485486D01*
X75196418Y-60296082D01*
X75196416Y-60296079D01*
X75196415Y-60296077D01*
X75071476Y-60124111D01*
X74921153Y-59973788D01*
X74749187Y-59848849D01*
X74583360Y-59764356D01*
X74559781Y-59752342D01*
X74559780Y-59752341D01*
X74559779Y-59752341D01*
X74357610Y-59686652D01*
X74357608Y-59686651D01*
X74357607Y-59686651D01*
X74189103Y-59659963D01*
X74189071Y-59659958D01*
X129650846Y-59659958D01*
X129650846Y-59837349D01*
X129685449Y-60011312D01*
X129685452Y-60011321D01*
X129753329Y-60175194D01*
X129753336Y-60175207D01*
X129851881Y-60322688D01*
X129851884Y-60322692D01*
X129977307Y-60448115D01*
X129977311Y-60448118D01*
X130124792Y-60546663D01*
X130124805Y-60546670D01*
X130247709Y-60597577D01*
X130288680Y-60614548D01*
X130288682Y-60614548D01*
X130288687Y-60614550D01*
X130462650Y-60649153D01*
X130462653Y-60649154D01*
X130462655Y-60649154D01*
X130640039Y-60649154D01*
X130640040Y-60649153D01*
X130698028Y-60637618D01*
X130814004Y-60614550D01*
X130814007Y-60614548D01*
X130814012Y-60614548D01*
X130977893Y-60546667D01*
X131125381Y-60448118D01*
X131250810Y-60322689D01*
X131349359Y-60175201D01*
X131417240Y-60011320D01*
X131419097Y-60001987D01*
X131451845Y-59837349D01*
X131451846Y-59837347D01*
X131451846Y-59659960D01*
X131451845Y-59659958D01*
X131417242Y-59485995D01*
X131417239Y-59485986D01*
X131349362Y-59322113D01*
X131349355Y-59322100D01*
X131250810Y-59174619D01*
X131250807Y-59174615D01*
X131125384Y-59049192D01*
X131125380Y-59049189D01*
X130977899Y-58950644D01*
X130977886Y-58950637D01*
X130814013Y-58882760D01*
X130814004Y-58882757D01*
X130640040Y-58848154D01*
X130640037Y-58848154D01*
X130462655Y-58848154D01*
X130462652Y-58848154D01*
X130288687Y-58882757D01*
X130288678Y-58882760D01*
X130124805Y-58950637D01*
X130124792Y-58950644D01*
X129977311Y-59049189D01*
X129977307Y-59049192D01*
X129851884Y-59174615D01*
X129851881Y-59174619D01*
X129753336Y-59322100D01*
X129753329Y-59322113D01*
X129685452Y-59485986D01*
X129685449Y-59485995D01*
X129650846Y-59659958D01*
X74189071Y-59659958D01*
X74147654Y-59653398D01*
X73935080Y-59653398D01*
X73893631Y-59659963D01*
X73725127Y-59686651D01*
X73522952Y-59752342D01*
X73333546Y-59848849D01*
X73161580Y-59973788D01*
X73011257Y-60124111D01*
X72886318Y-60296077D01*
X72789811Y-60485483D01*
X72724120Y-60687658D01*
X72690867Y-60897611D01*
X67256390Y-60897611D01*
X66534678Y-58848463D01*
X66530975Y-58778693D01*
X66563953Y-58719595D01*
X69534164Y-55749384D01*
X70778254Y-55749384D01*
X70791901Y-55807781D01*
X71385119Y-57502688D01*
X71410861Y-57556842D01*
X71410865Y-57556847D01*
X71502879Y-57667504D01*
X71502880Y-57667504D01*
X71502882Y-57667507D01*
X71622351Y-57747761D01*
X71759590Y-57791108D01*
X71795563Y-57791839D01*
X71903479Y-57794032D01*
X71903479Y-57794031D01*
X71903482Y-57794032D01*
X71961863Y-57780389D01*
X71961871Y-57780386D01*
X71961876Y-57780385D01*
X73621649Y-57199464D01*
X73656792Y-57187164D01*
X73710940Y-57161424D01*
X73821602Y-57069405D01*
X73901856Y-56949936D01*
X73945203Y-56812697D01*
X73948127Y-56668805D01*
X73934484Y-56610424D01*
X73934481Y-56610417D01*
X73934480Y-56610410D01*
X73864793Y-56411304D01*
X121349500Y-56411304D01*
X121349500Y-56588695D01*
X121384103Y-56762658D01*
X121384106Y-56762667D01*
X121451983Y-56926540D01*
X121451990Y-56926553D01*
X121550535Y-57074034D01*
X121550538Y-57074038D01*
X121675961Y-57199461D01*
X121675965Y-57199464D01*
X121823446Y-57298009D01*
X121823459Y-57298016D01*
X121946363Y-57348923D01*
X121987334Y-57365894D01*
X121987336Y-57365894D01*
X121987341Y-57365896D01*
X122161304Y-57400499D01*
X122161307Y-57400500D01*
X122161309Y-57400500D01*
X122338693Y-57400500D01*
X122338694Y-57400499D01*
X122396682Y-57388964D01*
X122512658Y-57365896D01*
X122512661Y-57365894D01*
X122512666Y-57365894D01*
X122676547Y-57298013D01*
X122824035Y-57199464D01*
X122949464Y-57074035D01*
X123048013Y-56926547D01*
X123115894Y-56762666D01*
X123150500Y-56588691D01*
X123150500Y-56411309D01*
X123150500Y-56411306D01*
X123150499Y-56411304D01*
X123115896Y-56237341D01*
X123115893Y-56237332D01*
X123048016Y-56073459D01*
X123048009Y-56073446D01*
X122949464Y-55925965D01*
X122949461Y-55925961D01*
X122824038Y-55800538D01*
X122824034Y-55800535D01*
X122676553Y-55701990D01*
X122676540Y-55701983D01*
X122512667Y-55634106D01*
X122512658Y-55634103D01*
X122338694Y-55599500D01*
X122338691Y-55599500D01*
X122161309Y-55599500D01*
X122161306Y-55599500D01*
X121987341Y-55634103D01*
X121987332Y-55634106D01*
X121823459Y-55701983D01*
X121823446Y-55701990D01*
X121675965Y-55800535D01*
X121675961Y-55800538D01*
X121550538Y-55925961D01*
X121550535Y-55925965D01*
X121451990Y-56073446D01*
X121451983Y-56073459D01*
X121384106Y-56237332D01*
X121384103Y-56237341D01*
X121349500Y-56411304D01*
X73864793Y-56411304D01*
X73341262Y-54915503D01*
X73341261Y-54915501D01*
X73341259Y-54915495D01*
X73315519Y-54861347D01*
X73223500Y-54750685D01*
X73144453Y-54697585D01*
X73104033Y-54670432D01*
X73104030Y-54670430D01*
X72966789Y-54627083D01*
X72966790Y-54627083D01*
X72822902Y-54624159D01*
X72764505Y-54637806D01*
X71069598Y-55231024D01*
X71015444Y-55256766D01*
X71015439Y-55256770D01*
X70904782Y-55348784D01*
X70904780Y-55348787D01*
X70824527Y-55468253D01*
X70824525Y-55468256D01*
X70781178Y-55605497D01*
X70778254Y-55749384D01*
X69534164Y-55749384D01*
X72372244Y-52911304D01*
X84399500Y-52911304D01*
X84399500Y-53088695D01*
X84434103Y-53262658D01*
X84434106Y-53262667D01*
X84501983Y-53426540D01*
X84501990Y-53426553D01*
X84571853Y-53531109D01*
X84592731Y-53597786D01*
X84574247Y-53665166D01*
X84571853Y-53668891D01*
X84501990Y-53773446D01*
X84501983Y-53773459D01*
X84434106Y-53937332D01*
X84434103Y-53937341D01*
X84399500Y-54111304D01*
X84399500Y-54288695D01*
X84434103Y-54462658D01*
X84434106Y-54462667D01*
X84501983Y-54626540D01*
X84501990Y-54626553D01*
X84603920Y-54779100D01*
X84602131Y-54780295D01*
X84625635Y-54835672D01*
X84613829Y-54904537D01*
X84603495Y-54920616D01*
X84603920Y-54920900D01*
X84501990Y-55073446D01*
X84501983Y-55073459D01*
X84434106Y-55237332D01*
X84434103Y-55237341D01*
X84399500Y-55411304D01*
X84399500Y-55588695D01*
X84434103Y-55762658D01*
X84434106Y-55762667D01*
X84501983Y-55926540D01*
X84501990Y-55926553D01*
X84600535Y-56074034D01*
X84600538Y-56074038D01*
X84725961Y-56199461D01*
X84725965Y-56199464D01*
X84873446Y-56298009D01*
X84873459Y-56298016D01*
X84996363Y-56348923D01*
X85037334Y-56365894D01*
X85037336Y-56365894D01*
X85037341Y-56365896D01*
X85211304Y-56400499D01*
X85211307Y-56400500D01*
X85211309Y-56400500D01*
X85388693Y-56400500D01*
X85388694Y-56400499D01*
X85446682Y-56388964D01*
X85562658Y-56365896D01*
X85562661Y-56365894D01*
X85562666Y-56365894D01*
X85726547Y-56298013D01*
X85731107Y-56294965D01*
X85797783Y-56274086D01*
X85865163Y-56292569D01*
X85868867Y-56294948D01*
X85873453Y-56298013D01*
X85873455Y-56298014D01*
X85873457Y-56298015D01*
X85982707Y-56343267D01*
X86037334Y-56365894D01*
X86037336Y-56365894D01*
X86037341Y-56365896D01*
X86211304Y-56400499D01*
X86211307Y-56400500D01*
X86211309Y-56400500D01*
X86388693Y-56400500D01*
X86388694Y-56400499D01*
X86446682Y-56388964D01*
X86562658Y-56365896D01*
X86562661Y-56365894D01*
X86562666Y-56365894D01*
X86726547Y-56298013D01*
X86874035Y-56199464D01*
X86999464Y-56074035D01*
X87098013Y-55926547D01*
X87165894Y-55762666D01*
X87168536Y-55749387D01*
X87200499Y-55588695D01*
X87200500Y-55588693D01*
X87200500Y-55411306D01*
X87200499Y-55411304D01*
X87165896Y-55237341D01*
X87165893Y-55237332D01*
X87098016Y-55073459D01*
X87098009Y-55073446D01*
X86996080Y-54920900D01*
X86997874Y-54919700D01*
X86991525Y-54904753D01*
X86977902Y-54882624D01*
X86978086Y-54873116D01*
X86974368Y-54864364D01*
X86978751Y-54838748D01*
X86979255Y-54812768D01*
X86985021Y-54802115D01*
X86986154Y-54795496D01*
X86994535Y-54780953D01*
X86998580Y-54774918D01*
X86999464Y-54774035D01*
X87038090Y-54716228D01*
X115749500Y-54716228D01*
X115749500Y-54883771D01*
X115782182Y-55048074D01*
X115782184Y-55048082D01*
X115846295Y-55202860D01*
X115939373Y-55342162D01*
X116057837Y-55460626D01*
X116150494Y-55522537D01*
X116197137Y-55553703D01*
X116351918Y-55617816D01*
X116516228Y-55650499D01*
X116516232Y-55650500D01*
X116516233Y-55650500D01*
X116683768Y-55650500D01*
X116683769Y-55650499D01*
X116848082Y-55617816D01*
X117002863Y-55553703D01*
X117142162Y-55460626D01*
X117260626Y-55342162D01*
X117353703Y-55202863D01*
X117417816Y-55048082D01*
X117450500Y-54883767D01*
X117450500Y-54716233D01*
X117417816Y-54551918D01*
X117353703Y-54397137D01*
X117322537Y-54350494D01*
X117260626Y-54257837D01*
X117142162Y-54139373D01*
X117002860Y-54046295D01*
X116848082Y-53982184D01*
X116848074Y-53982182D01*
X116683771Y-53949500D01*
X116683767Y-53949500D01*
X116516233Y-53949500D01*
X116516228Y-53949500D01*
X116351925Y-53982182D01*
X116351917Y-53982184D01*
X116197139Y-54046295D01*
X116057837Y-54139373D01*
X115939373Y-54257837D01*
X115846295Y-54397139D01*
X115782184Y-54551917D01*
X115782182Y-54551925D01*
X115749500Y-54716228D01*
X87038090Y-54716228D01*
X87098013Y-54626547D01*
X87165894Y-54462666D01*
X87200500Y-54288691D01*
X87200500Y-54111309D01*
X87200500Y-54111306D01*
X87200499Y-54111304D01*
X87165896Y-53937341D01*
X87165893Y-53937332D01*
X87098016Y-53773459D01*
X87098012Y-53773452D01*
X87075994Y-53740500D01*
X87028145Y-53668888D01*
X87007268Y-53602215D01*
X87025752Y-53534834D01*
X87028118Y-53531150D01*
X87098013Y-53426547D01*
X87165894Y-53262666D01*
X87165896Y-53262658D01*
X87195871Y-53111963D01*
X110953765Y-53111963D01*
X110953765Y-53279506D01*
X110986447Y-53443809D01*
X110986449Y-53443817D01*
X111050560Y-53598595D01*
X111143638Y-53737897D01*
X111262102Y-53856361D01*
X111354759Y-53918272D01*
X111401402Y-53949438D01*
X111401403Y-53949438D01*
X111401404Y-53949439D01*
X111436466Y-53963962D01*
X111556183Y-54013551D01*
X111720493Y-54046234D01*
X111720497Y-54046235D01*
X111720498Y-54046235D01*
X111888033Y-54046235D01*
X111888034Y-54046234D01*
X112052347Y-54013551D01*
X112207128Y-53949438D01*
X112346427Y-53856361D01*
X112464891Y-53737897D01*
X112557968Y-53598598D01*
X112622081Y-53443817D01*
X112654765Y-53279502D01*
X112654765Y-53111968D01*
X112622081Y-52947653D01*
X112557968Y-52792872D01*
X112520857Y-52737332D01*
X112464891Y-52653572D01*
X112346427Y-52535108D01*
X112207125Y-52442030D01*
X112052347Y-52377919D01*
X112052339Y-52377917D01*
X111888036Y-52345235D01*
X111888032Y-52345235D01*
X111720498Y-52345235D01*
X111720493Y-52345235D01*
X111556190Y-52377917D01*
X111556182Y-52377919D01*
X111401404Y-52442030D01*
X111262102Y-52535108D01*
X111143638Y-52653572D01*
X111050560Y-52792874D01*
X110986449Y-52947652D01*
X110986447Y-52947660D01*
X110953765Y-53111963D01*
X87195871Y-53111963D01*
X87200499Y-53088699D01*
X87200500Y-53088689D01*
X87200500Y-52911306D01*
X87200499Y-52911304D01*
X87165896Y-52737341D01*
X87165893Y-52737332D01*
X87098016Y-52573459D01*
X87098009Y-52573446D01*
X86999464Y-52425965D01*
X86999461Y-52425961D01*
X86870939Y-52297439D01*
X86837454Y-52236116D01*
X86842438Y-52166424D01*
X86884310Y-52110491D01*
X86945368Y-52086468D01*
X86967483Y-52084091D01*
X87102331Y-52033796D01*
X87217546Y-51947546D01*
X87303796Y-51832331D01*
X87352810Y-51700916D01*
X87394681Y-51644984D01*
X87460145Y-51620566D01*
X87528418Y-51635417D01*
X87556673Y-51656569D01*
X87670213Y-51770109D01*
X87842179Y-51895048D01*
X87842181Y-51895049D01*
X87842184Y-51895051D01*
X88031588Y-51991557D01*
X88233757Y-52057246D01*
X88443713Y-52090500D01*
X88443714Y-52090500D01*
X88656286Y-52090500D01*
X88656287Y-52090500D01*
X88866243Y-52057246D01*
X89068412Y-51991557D01*
X89257816Y-51895051D01*
X89344138Y-51832335D01*
X89429786Y-51770109D01*
X89429788Y-51770106D01*
X89429792Y-51770104D01*
X89580104Y-51619792D01*
X89580106Y-51619788D01*
X89580109Y-51619786D01*
X89705048Y-51447820D01*
X89705049Y-51447819D01*
X89705051Y-51447816D01*
X89709514Y-51439054D01*
X89757488Y-51388259D01*
X89825308Y-51371463D01*
X89891444Y-51393999D01*
X89930486Y-51439056D01*
X89934951Y-51447820D01*
X90059890Y-51619786D01*
X90210213Y-51770109D01*
X90382179Y-51895048D01*
X90382181Y-51895049D01*
X90382184Y-51895051D01*
X90571588Y-51991557D01*
X90773757Y-52057246D01*
X90983713Y-52090500D01*
X90983714Y-52090500D01*
X91196286Y-52090500D01*
X91196287Y-52090500D01*
X91406243Y-52057246D01*
X91608412Y-51991557D01*
X91797816Y-51895051D01*
X91884138Y-51832335D01*
X91969786Y-51770109D01*
X91969788Y-51770106D01*
X91969792Y-51770104D01*
X92120104Y-51619792D01*
X92120106Y-51619788D01*
X92120109Y-51619786D01*
X92245048Y-51447820D01*
X92245049Y-51447819D01*
X92245051Y-51447816D01*
X92249514Y-51439054D01*
X92297488Y-51388259D01*
X92365308Y-51371463D01*
X92431444Y-51393999D01*
X92470486Y-51439056D01*
X92474951Y-51447820D01*
X92599890Y-51619786D01*
X92750213Y-51770109D01*
X92922179Y-51895048D01*
X92922181Y-51895049D01*
X92922184Y-51895051D01*
X93111588Y-51991557D01*
X93313757Y-52057246D01*
X93523713Y-52090500D01*
X93523714Y-52090500D01*
X93736286Y-52090500D01*
X93736287Y-52090500D01*
X93946243Y-52057246D01*
X94148412Y-51991557D01*
X94337816Y-51895051D01*
X94424138Y-51832335D01*
X94509786Y-51770109D01*
X94509788Y-51770106D01*
X94509792Y-51770104D01*
X94660104Y-51619792D01*
X94660106Y-51619788D01*
X94660109Y-51619786D01*
X94785048Y-51447820D01*
X94785049Y-51447819D01*
X94785051Y-51447816D01*
X94789514Y-51439054D01*
X94837488Y-51388259D01*
X94905308Y-51371463D01*
X94971444Y-51393999D01*
X95010486Y-51439056D01*
X95014951Y-51447820D01*
X95139890Y-51619786D01*
X95290213Y-51770109D01*
X95462179Y-51895048D01*
X95462181Y-51895049D01*
X95462184Y-51895051D01*
X95651588Y-51991557D01*
X95853757Y-52057246D01*
X96063713Y-52090500D01*
X96063714Y-52090500D01*
X96276286Y-52090500D01*
X96276287Y-52090500D01*
X96486243Y-52057246D01*
X96688412Y-51991557D01*
X96877816Y-51895051D01*
X96964138Y-51832335D01*
X97049786Y-51770109D01*
X97049788Y-51770106D01*
X97049792Y-51770104D01*
X97200104Y-51619792D01*
X97200106Y-51619788D01*
X97200109Y-51619786D01*
X97325048Y-51447820D01*
X97325049Y-51447819D01*
X97325051Y-51447816D01*
X97329514Y-51439054D01*
X97377488Y-51388259D01*
X97445308Y-51371463D01*
X97511444Y-51393999D01*
X97550486Y-51439056D01*
X97554951Y-51447820D01*
X97679890Y-51619786D01*
X97830213Y-51770109D01*
X98002179Y-51895048D01*
X98002181Y-51895049D01*
X98002184Y-51895051D01*
X98191588Y-51991557D01*
X98393757Y-52057246D01*
X98603713Y-52090500D01*
X98603714Y-52090500D01*
X98816286Y-52090500D01*
X98816287Y-52090500D01*
X99026243Y-52057246D01*
X99228412Y-51991557D01*
X99417816Y-51895051D01*
X99504138Y-51832335D01*
X99589786Y-51770109D01*
X99589788Y-51770106D01*
X99589792Y-51770104D01*
X99740104Y-51619792D01*
X99740106Y-51619788D01*
X99740109Y-51619786D01*
X99865048Y-51447820D01*
X99865049Y-51447819D01*
X99865051Y-51447816D01*
X99869514Y-51439054D01*
X99917488Y-51388259D01*
X99985308Y-51371463D01*
X100051444Y-51393999D01*
X100090486Y-51439056D01*
X100094951Y-51447820D01*
X100219890Y-51619786D01*
X100370213Y-51770109D01*
X100542179Y-51895048D01*
X100542181Y-51895049D01*
X100542184Y-51895051D01*
X100731588Y-51991557D01*
X100933757Y-52057246D01*
X101143713Y-52090500D01*
X101143714Y-52090500D01*
X101356286Y-52090500D01*
X101356287Y-52090500D01*
X101566243Y-52057246D01*
X101768412Y-51991557D01*
X101957816Y-51895051D01*
X102044138Y-51832335D01*
X102129786Y-51770109D01*
X102129788Y-51770106D01*
X102129792Y-51770104D01*
X102280104Y-51619792D01*
X102280106Y-51619788D01*
X102280109Y-51619786D01*
X102405048Y-51447820D01*
X102405049Y-51447819D01*
X102405051Y-51447816D01*
X102409514Y-51439054D01*
X102457488Y-51388259D01*
X102525308Y-51371463D01*
X102591444Y-51393999D01*
X102630486Y-51439056D01*
X102634951Y-51447820D01*
X102759890Y-51619786D01*
X102910213Y-51770109D01*
X103082179Y-51895048D01*
X103082181Y-51895049D01*
X103082184Y-51895051D01*
X103271588Y-51991557D01*
X103473757Y-52057246D01*
X103683713Y-52090500D01*
X103683714Y-52090500D01*
X103896286Y-52090500D01*
X103896287Y-52090500D01*
X104106243Y-52057246D01*
X104308412Y-51991557D01*
X104497816Y-51895051D01*
X104584138Y-51832335D01*
X104669786Y-51770109D01*
X104669788Y-51770106D01*
X104669792Y-51770104D01*
X104820104Y-51619792D01*
X104820106Y-51619788D01*
X104820109Y-51619786D01*
X104945048Y-51447820D01*
X104945049Y-51447819D01*
X104945051Y-51447816D01*
X104949514Y-51439054D01*
X104997488Y-51388259D01*
X105065308Y-51371463D01*
X105131444Y-51393999D01*
X105170486Y-51439056D01*
X105174951Y-51447820D01*
X105299890Y-51619786D01*
X105450213Y-51770109D01*
X105622179Y-51895048D01*
X105622181Y-51895049D01*
X105622184Y-51895051D01*
X105811588Y-51991557D01*
X106013757Y-52057246D01*
X106223713Y-52090500D01*
X106223714Y-52090500D01*
X106436286Y-52090500D01*
X106436287Y-52090500D01*
X106646243Y-52057246D01*
X106848412Y-51991557D01*
X107037816Y-51895051D01*
X107124138Y-51832335D01*
X107209786Y-51770109D01*
X107209788Y-51770106D01*
X107209792Y-51770104D01*
X107360104Y-51619792D01*
X107360106Y-51619788D01*
X107360109Y-51619786D01*
X107485048Y-51447820D01*
X107485049Y-51447819D01*
X107485051Y-51447816D01*
X107489514Y-51439054D01*
X107537488Y-51388259D01*
X107605308Y-51371463D01*
X107671444Y-51393999D01*
X107710486Y-51439056D01*
X107714951Y-51447820D01*
X107839890Y-51619786D01*
X107990213Y-51770109D01*
X108162179Y-51895048D01*
X108162181Y-51895049D01*
X108162184Y-51895051D01*
X108351588Y-51991557D01*
X108553757Y-52057246D01*
X108763713Y-52090500D01*
X108763714Y-52090500D01*
X108976286Y-52090500D01*
X108976287Y-52090500D01*
X109186243Y-52057246D01*
X109388412Y-51991557D01*
X109577816Y-51895051D01*
X109664138Y-51832335D01*
X109749786Y-51770109D01*
X109749788Y-51770106D01*
X109749792Y-51770104D01*
X109900104Y-51619792D01*
X109900106Y-51619788D01*
X109900109Y-51619786D01*
X110025048Y-51447820D01*
X110025049Y-51447819D01*
X110025051Y-51447816D01*
X110029514Y-51439054D01*
X110077488Y-51388259D01*
X110145308Y-51371463D01*
X110211444Y-51393999D01*
X110250486Y-51439056D01*
X110254951Y-51447820D01*
X110379890Y-51619786D01*
X110530213Y-51770109D01*
X110702179Y-51895048D01*
X110702181Y-51895049D01*
X110702184Y-51895051D01*
X110891588Y-51991557D01*
X111093757Y-52057246D01*
X111303713Y-52090500D01*
X111303714Y-52090500D01*
X111516286Y-52090500D01*
X111516287Y-52090500D01*
X111726243Y-52057246D01*
X111928412Y-51991557D01*
X112117816Y-51895051D01*
X112204138Y-51832335D01*
X112289786Y-51770109D01*
X112289788Y-51770106D01*
X112289792Y-51770104D01*
X112440104Y-51619792D01*
X112440106Y-51619788D01*
X112440109Y-51619786D01*
X112565048Y-51447820D01*
X112565049Y-51447819D01*
X112565051Y-51447816D01*
X112661557Y-51258412D01*
X112727246Y-51056243D01*
X112760500Y-50846287D01*
X112760500Y-50633713D01*
X112727246Y-50423757D01*
X112661557Y-50221588D01*
X112565051Y-50032184D01*
X112565049Y-50032181D01*
X112565048Y-50032179D01*
X112440109Y-49860213D01*
X112289786Y-49709890D01*
X112117820Y-49584951D01*
X112117115Y-49584591D01*
X112109054Y-49580485D01*
X112058259Y-49532512D01*
X112041463Y-49464692D01*
X112063999Y-49398556D01*
X112109054Y-49359515D01*
X112117816Y-49355051D01*
X112207554Y-49289853D01*
X112289786Y-49230109D01*
X112289788Y-49230106D01*
X112289792Y-49230104D01*
X112440104Y-49079792D01*
X112440106Y-49079788D01*
X112440109Y-49079786D01*
X112565048Y-48907820D01*
X112565047Y-48907820D01*
X112565051Y-48907816D01*
X112661557Y-48718412D01*
X112727246Y-48516243D01*
X112760500Y-48306287D01*
X112760500Y-48093713D01*
X115139500Y-48093713D01*
X115139500Y-48306286D01*
X115172753Y-48516239D01*
X115238444Y-48718414D01*
X115334951Y-48907820D01*
X115459890Y-49079786D01*
X115610213Y-49230109D01*
X115782182Y-49355050D01*
X115790946Y-49359516D01*
X115841742Y-49407491D01*
X115858536Y-49475312D01*
X115835998Y-49541447D01*
X115790946Y-49580484D01*
X115782182Y-49584949D01*
X115610213Y-49709890D01*
X115459890Y-49860213D01*
X115334951Y-50032179D01*
X115238444Y-50221585D01*
X115172753Y-50423760D01*
X115139500Y-50633713D01*
X115139500Y-50846287D01*
X115172754Y-51056243D01*
X115238443Y-51258412D01*
X115304603Y-51388259D01*
X115334951Y-51447819D01*
X115428183Y-51576143D01*
X115451663Y-51641949D01*
X115442426Y-51696481D01*
X115382184Y-51841917D01*
X115382182Y-51841925D01*
X115349500Y-52006228D01*
X115349500Y-52173771D01*
X115382182Y-52338074D01*
X115382184Y-52338082D01*
X115425455Y-52442547D01*
X115432924Y-52512017D01*
X115425455Y-52537453D01*
X115382184Y-52641917D01*
X115382182Y-52641925D01*
X115349500Y-52806228D01*
X115349500Y-52973771D01*
X115382182Y-53138074D01*
X115382184Y-53138082D01*
X115446295Y-53292860D01*
X115539373Y-53432162D01*
X115657837Y-53550626D01*
X115729628Y-53598595D01*
X115797137Y-53643703D01*
X115951918Y-53707816D01*
X116103147Y-53737897D01*
X116116228Y-53740499D01*
X116116232Y-53740500D01*
X116116233Y-53740500D01*
X116283768Y-53740500D01*
X116283769Y-53740499D01*
X116448082Y-53707816D01*
X116602547Y-53643834D01*
X116672016Y-53636365D01*
X116697453Y-53643834D01*
X116851918Y-53707816D01*
X117003147Y-53737897D01*
X117016228Y-53740499D01*
X117016232Y-53740500D01*
X117016233Y-53740500D01*
X117183768Y-53740500D01*
X117183769Y-53740499D01*
X117348082Y-53707816D01*
X117502863Y-53643703D01*
X117642162Y-53550626D01*
X117760626Y-53432162D01*
X117853703Y-53292863D01*
X117917816Y-53138082D01*
X117950500Y-52973767D01*
X117950500Y-52806233D01*
X117917816Y-52641918D01*
X117874543Y-52537452D01*
X117867075Y-52467984D01*
X117874544Y-52442547D01*
X117917816Y-52338082D01*
X117950500Y-52173767D01*
X117950500Y-52006233D01*
X117917816Y-51841918D01*
X117859411Y-51700917D01*
X117853704Y-51687139D01*
X117760626Y-51547837D01*
X117760623Y-51547834D01*
X117714005Y-51501217D01*
X117680519Y-51439894D01*
X117685503Y-51370203D01*
X117691201Y-51357240D01*
X117741557Y-51258412D01*
X117807246Y-51056243D01*
X117840500Y-50846287D01*
X117840500Y-50633713D01*
X117807246Y-50423757D01*
X117741557Y-50221588D01*
X117645051Y-50032184D01*
X117645049Y-50032181D01*
X117645048Y-50032179D01*
X117520109Y-49860213D01*
X117369786Y-49709890D01*
X117197820Y-49584951D01*
X117197115Y-49584591D01*
X117189054Y-49580485D01*
X117138259Y-49532512D01*
X117121463Y-49464692D01*
X117143999Y-49398556D01*
X117189054Y-49359515D01*
X117197816Y-49355051D01*
X117287554Y-49289853D01*
X117369786Y-49230109D01*
X117369788Y-49230106D01*
X117369792Y-49230104D01*
X117520104Y-49079792D01*
X117520106Y-49079788D01*
X117520109Y-49079786D01*
X117645048Y-48907820D01*
X117645047Y-48907820D01*
X117645051Y-48907816D01*
X117741557Y-48718412D01*
X117807246Y-48516243D01*
X117840500Y-48306287D01*
X117840500Y-48093713D01*
X117807246Y-47883757D01*
X117741557Y-47681588D01*
X117645051Y-47492184D01*
X117645049Y-47492181D01*
X117645048Y-47492179D01*
X117520109Y-47320213D01*
X117369786Y-47169890D01*
X117197820Y-47044951D01*
X117008414Y-46948444D01*
X117008413Y-46948443D01*
X117008412Y-46948443D01*
X116806243Y-46882754D01*
X116806241Y-46882753D01*
X116806240Y-46882753D01*
X116644957Y-46857208D01*
X116596287Y-46849500D01*
X116383713Y-46849500D01*
X116335042Y-46857208D01*
X116173760Y-46882753D01*
X115971585Y-46948444D01*
X115782179Y-47044951D01*
X115610213Y-47169890D01*
X115459890Y-47320213D01*
X115334951Y-47492179D01*
X115238444Y-47681585D01*
X115172753Y-47883760D01*
X115139500Y-48093713D01*
X112760500Y-48093713D01*
X112727246Y-47883757D01*
X112661557Y-47681588D01*
X112565051Y-47492184D01*
X112565049Y-47492181D01*
X112565048Y-47492179D01*
X112440109Y-47320213D01*
X112289786Y-47169890D01*
X112117820Y-47044951D01*
X111928414Y-46948444D01*
X111928413Y-46948443D01*
X111928412Y-46948443D01*
X111726243Y-46882754D01*
X111726241Y-46882753D01*
X111726240Y-46882753D01*
X111564957Y-46857208D01*
X111516287Y-46849500D01*
X111303713Y-46849500D01*
X111255042Y-46857208D01*
X111093760Y-46882753D01*
X110891585Y-46948444D01*
X110702179Y-47044951D01*
X110530213Y-47169890D01*
X110379890Y-47320213D01*
X110254949Y-47492182D01*
X110250484Y-47500946D01*
X110202509Y-47551742D01*
X110134688Y-47568536D01*
X110068553Y-47545998D01*
X110029516Y-47500946D01*
X110025050Y-47492182D01*
X109900109Y-47320213D01*
X109749786Y-47169890D01*
X109577820Y-47044951D01*
X109388414Y-46948444D01*
X109388413Y-46948443D01*
X109388412Y-46948443D01*
X109186243Y-46882754D01*
X109186241Y-46882753D01*
X109186240Y-46882753D01*
X109024957Y-46857208D01*
X108976287Y-46849500D01*
X108763713Y-46849500D01*
X108715042Y-46857208D01*
X108553760Y-46882753D01*
X108351585Y-46948444D01*
X108162179Y-47044951D01*
X107990213Y-47169890D01*
X107839890Y-47320213D01*
X107714949Y-47492182D01*
X107710484Y-47500946D01*
X107662509Y-47551742D01*
X107594688Y-47568536D01*
X107528553Y-47545998D01*
X107489516Y-47500946D01*
X107485050Y-47492182D01*
X107360109Y-47320213D01*
X107209786Y-47169890D01*
X107037820Y-47044951D01*
X106848414Y-46948444D01*
X106848413Y-46948443D01*
X106848412Y-46948443D01*
X106646243Y-46882754D01*
X106646241Y-46882753D01*
X106646240Y-46882753D01*
X106484957Y-46857208D01*
X106436287Y-46849500D01*
X106223713Y-46849500D01*
X106175042Y-46857208D01*
X106013760Y-46882753D01*
X105811585Y-46948444D01*
X105622179Y-47044951D01*
X105450213Y-47169890D01*
X105299890Y-47320213D01*
X105174949Y-47492182D01*
X105170484Y-47500946D01*
X105122509Y-47551742D01*
X105054688Y-47568536D01*
X104988553Y-47545998D01*
X104949516Y-47500946D01*
X104945050Y-47492182D01*
X104820109Y-47320213D01*
X104669786Y-47169890D01*
X104497820Y-47044951D01*
X104308414Y-46948444D01*
X104308413Y-46948443D01*
X104308412Y-46948443D01*
X104106243Y-46882754D01*
X104106241Y-46882753D01*
X104106240Y-46882753D01*
X103944957Y-46857208D01*
X103896287Y-46849500D01*
X103683713Y-46849500D01*
X103635042Y-46857208D01*
X103473760Y-46882753D01*
X103271585Y-46948444D01*
X103082179Y-47044951D01*
X102910213Y-47169890D01*
X102759890Y-47320213D01*
X102634949Y-47492182D01*
X102630484Y-47500946D01*
X102582509Y-47551742D01*
X102514688Y-47568536D01*
X102448553Y-47545998D01*
X102409516Y-47500946D01*
X102405050Y-47492182D01*
X102280109Y-47320213D01*
X102129786Y-47169890D01*
X101957820Y-47044951D01*
X101768414Y-46948444D01*
X101768413Y-46948443D01*
X101768412Y-46948443D01*
X101566243Y-46882754D01*
X101566241Y-46882753D01*
X101566240Y-46882753D01*
X101404957Y-46857208D01*
X101356287Y-46849500D01*
X101143713Y-46849500D01*
X101095042Y-46857208D01*
X100933760Y-46882753D01*
X100731585Y-46948444D01*
X100542179Y-47044951D01*
X100370213Y-47169890D01*
X100219890Y-47320213D01*
X100094949Y-47492182D01*
X100090484Y-47500946D01*
X100042509Y-47551742D01*
X99974688Y-47568536D01*
X99908553Y-47545998D01*
X99869516Y-47500946D01*
X99865050Y-47492182D01*
X99740109Y-47320213D01*
X99589786Y-47169890D01*
X99417820Y-47044951D01*
X99228414Y-46948444D01*
X99228413Y-46948443D01*
X99228412Y-46948443D01*
X99026243Y-46882754D01*
X99026241Y-46882753D01*
X99026240Y-46882753D01*
X98864957Y-46857208D01*
X98816287Y-46849500D01*
X98603713Y-46849500D01*
X98555042Y-46857208D01*
X98393760Y-46882753D01*
X98191585Y-46948444D01*
X98002179Y-47044951D01*
X97830213Y-47169890D01*
X97679890Y-47320213D01*
X97554949Y-47492182D01*
X97550484Y-47500946D01*
X97502509Y-47551742D01*
X97434688Y-47568536D01*
X97368553Y-47545998D01*
X97329516Y-47500946D01*
X97325050Y-47492182D01*
X97200109Y-47320213D01*
X97049786Y-47169890D01*
X96877820Y-47044951D01*
X96688414Y-46948444D01*
X96688413Y-46948443D01*
X96688412Y-46948443D01*
X96486243Y-46882754D01*
X96486241Y-46882753D01*
X96486240Y-46882753D01*
X96324957Y-46857208D01*
X96276287Y-46849500D01*
X96063713Y-46849500D01*
X96015042Y-46857208D01*
X95853760Y-46882753D01*
X95651585Y-46948444D01*
X95462179Y-47044951D01*
X95290213Y-47169890D01*
X95139890Y-47320213D01*
X95014949Y-47492182D01*
X95010484Y-47500946D01*
X94962509Y-47551742D01*
X94894688Y-47568536D01*
X94828553Y-47545998D01*
X94789516Y-47500946D01*
X94785050Y-47492182D01*
X94660109Y-47320213D01*
X94509786Y-47169890D01*
X94337820Y-47044951D01*
X94148414Y-46948444D01*
X94148413Y-46948443D01*
X94148412Y-46948443D01*
X93946243Y-46882754D01*
X93946241Y-46882753D01*
X93946240Y-46882753D01*
X93784957Y-46857208D01*
X93736287Y-46849500D01*
X93523713Y-46849500D01*
X93475042Y-46857208D01*
X93313760Y-46882753D01*
X93111585Y-46948444D01*
X92922179Y-47044951D01*
X92750213Y-47169890D01*
X92599890Y-47320213D01*
X92474949Y-47492182D01*
X92470484Y-47500946D01*
X92422509Y-47551742D01*
X92354688Y-47568536D01*
X92288553Y-47545998D01*
X92249516Y-47500946D01*
X92245050Y-47492182D01*
X92120109Y-47320213D01*
X91969786Y-47169890D01*
X91797820Y-47044951D01*
X91608414Y-46948444D01*
X91608413Y-46948443D01*
X91608412Y-46948443D01*
X91406243Y-46882754D01*
X91406241Y-46882753D01*
X91406240Y-46882753D01*
X91244957Y-46857208D01*
X91196287Y-46849500D01*
X90983713Y-46849500D01*
X90935042Y-46857208D01*
X90773760Y-46882753D01*
X90571585Y-46948444D01*
X90382179Y-47044951D01*
X90210213Y-47169890D01*
X90059890Y-47320213D01*
X89934949Y-47492182D01*
X89930484Y-47500946D01*
X89882509Y-47551742D01*
X89814688Y-47568536D01*
X89748553Y-47545998D01*
X89709516Y-47500946D01*
X89705050Y-47492182D01*
X89580109Y-47320213D01*
X89429786Y-47169890D01*
X89257820Y-47044951D01*
X89068414Y-46948444D01*
X89068413Y-46948443D01*
X89068412Y-46948443D01*
X88866243Y-46882754D01*
X88866241Y-46882753D01*
X88866240Y-46882753D01*
X88704957Y-46857208D01*
X88656287Y-46849500D01*
X88443713Y-46849500D01*
X88395042Y-46857208D01*
X88233760Y-46882753D01*
X88031585Y-46948444D01*
X87842179Y-47044951D01*
X87670213Y-47169890D01*
X87519890Y-47320213D01*
X87394949Y-47492182D01*
X87390484Y-47500946D01*
X87342509Y-47551742D01*
X87274688Y-47568536D01*
X87208553Y-47545998D01*
X87169516Y-47500946D01*
X87165050Y-47492182D01*
X87040109Y-47320213D01*
X86889786Y-47169890D01*
X86717820Y-47044951D01*
X86528414Y-46948444D01*
X86528413Y-46948443D01*
X86528412Y-46948443D01*
X86326243Y-46882754D01*
X86326241Y-46882753D01*
X86326240Y-46882753D01*
X86164957Y-46857208D01*
X86116287Y-46849500D01*
X85903713Y-46849500D01*
X85855042Y-46857208D01*
X85693760Y-46882753D01*
X85491585Y-46948444D01*
X85302179Y-47044951D01*
X85130213Y-47169890D01*
X84979890Y-47320213D01*
X84854951Y-47492179D01*
X84758444Y-47681585D01*
X84692753Y-47883760D01*
X84659500Y-48093713D01*
X84659500Y-48306286D01*
X84692753Y-48516239D01*
X84758444Y-48718414D01*
X84854951Y-48907820D01*
X84979890Y-49079786D01*
X85093430Y-49193326D01*
X85126915Y-49254649D01*
X85121931Y-49324341D01*
X85080059Y-49380274D01*
X85049083Y-49397189D01*
X84917669Y-49446203D01*
X84917664Y-49446206D01*
X84802455Y-49532452D01*
X84802452Y-49532455D01*
X84716206Y-49647664D01*
X84716202Y-49647671D01*
X84665908Y-49782517D01*
X84659501Y-49842116D01*
X84659500Y-49842135D01*
X84659500Y-51637870D01*
X84659501Y-51637876D01*
X84665908Y-51697483D01*
X84716202Y-51832328D01*
X84716206Y-51832335D01*
X84763154Y-51895048D01*
X84802454Y-51947546D01*
X84875249Y-52002040D01*
X84917119Y-52057973D01*
X84922103Y-52127665D01*
X84888618Y-52188988D01*
X84869828Y-52204408D01*
X84725965Y-52300535D01*
X84725961Y-52300538D01*
X84600538Y-52425961D01*
X84600535Y-52425965D01*
X84501990Y-52573446D01*
X84501983Y-52573459D01*
X84434106Y-52737332D01*
X84434103Y-52737341D01*
X84399500Y-52911304D01*
X72372244Y-52911304D01*
X81247255Y-44036293D01*
X81308574Y-44002811D01*
X81334891Y-43999977D01*
X121154683Y-43989625D01*
X121221724Y-44009291D01*
G37*
%TD.AperFunction*%
%TD*%
M02*
